<svg width="38" height="38" viewBox="0 0 38 38" fill="none" xmlns="http://www.w3.org/2000/svg">
<g clip-path="url(#clip0_502_9428)">
<path d="M3.30911 23.8211C4.09761 23.791 4.40794 23.3034 5.35794 23.3034C6.31427 23.3034 6.59294 23.8211 7.42419 23.81C8.28553 23.7926 8.82544 23.0279 9.35427 22.2425C9.95278 21.3495 10.2029 20.4898 10.2156 20.4407C10.1982 20.4233 8.55311 19.7836 8.53569 17.8551C8.51827 16.2401 9.83561 15.4738 9.89419 15.4263C9.15003 14.3053 7.99102 14.1849 7.58727 14.1549L7.58886 14.1564C6.55653 14.0963 5.67303 14.7534 5.18536 14.7534C4.68661 14.7534 3.93927 14.1865 3.11911 14.2039C2.05827 14.2229 1.07186 14.8325 0.531941 15.8015C-0.584309 17.7474 0.240608 20.6228 1.32044 22.2077C1.84769 22.9914 2.47786 23.8528 3.30911 23.8211ZM22.5624 17.7126H24.1838C24.3199 16.989 24.9786 16.514 25.8827 16.514C26.9815 16.514 27.599 17.0318 27.599 17.9897V18.6404L25.3539 18.7798C23.2702 18.9064 22.1413 19.7741 22.1413 21.2799C22.1476 22.7983 23.3098 23.81 24.9802 23.81C26.1075 23.81 27.1525 23.2321 27.6275 22.3106H27.6639V23.7214H29.3264V17.8757C29.3264 16.1831 27.9901 15.0859 25.9365 15.0859C24.0286 15.0859 22.6179 16.1942 22.5624 17.7126ZM27.6038 20.5404C27.6038 21.6377 26.6839 22.4199 25.4663 22.4199C24.5099 22.4199 23.8988 21.9496 23.8988 21.2387C23.8988 20.4977 24.4862 20.0702 25.6088 20.0037L27.6038 19.877V20.5404ZM13.5501 11.9746V23.7198H15.3488V19.7076H17.8378C20.1114 19.7076 21.7027 18.1211 21.7027 15.8316C21.7027 13.5421 20.1352 11.9746 17.8964 11.9746H13.5501ZM19.8739 15.8364C19.8739 17.3184 18.9841 18.1749 17.415 18.1749H15.3488V13.512H17.4214C18.9825 13.512 19.8739 14.3544 19.8739 15.8364ZM34.021 22.1349L31.9073 15.1983H30.031L33.071 23.7514L32.9048 24.2692C32.6309 25.1495 32.1859 25.4931 31.3911 25.4931C31.2486 25.4931 30.9763 25.4757 30.8639 25.463V26.8738L31.5526 26.9165L31.551 26.9149C33.3038 26.9149 34.1271 26.2325 34.8475 24.1789L37.9999 15.1983H36.1712L34.0574 22.1349H34.021Z" fill="#212121"/>
<path d="M7.45441 14.1533C6.47907 14.1533 5.65099 14.7534 5.18549 14.7534C4.69466 14.7534 3.96157 14.2039 3.15724 14.2039C3.14457 14.2039 3.13191 14.2039 3.11924 14.2039C2.05841 14.2229 1.07199 14.8325 0.532073 15.8015C-0.00309335 16.7357 -0.09176 17.8836 0.07924 18.9999H8.76857C8.62924 18.6832 8.53741 18.3032 8.53266 17.8551C8.51524 16.2401 9.83257 15.4738 9.89116 15.4263C9.15016 14.3053 7.99116 14.1849 7.58741 14.1549L7.58899 14.1564C7.54466 14.1549 7.49874 14.1533 7.45441 14.1533ZM25.9351 15.0859C24.0287 15.0859 22.6164 16.1942 22.5626 17.7126H24.1839C24.3201 16.989 24.9787 16.514 25.8828 16.514C26.9817 16.514 27.5992 17.0318 27.5992 17.9897V18.6404L25.354 18.7798C24.8489 18.8099 24.3992 18.8843 24.0082 19.0014H29.325V17.8773C29.3266 16.1815 27.9902 15.0859 25.9351 15.0859ZM15.3489 18.1765V13.512H17.4215C18.9827 13.512 19.8741 14.3559 19.8741 15.8379C19.8741 17.3199 18.9842 18.1765 17.4152 18.1765H15.3489ZM17.8965 11.9746H13.5502V18.9999H20.1828C21.1297 18.3238 21.7012 17.2044 21.7012 15.8316C21.7028 13.5421 20.1353 11.9746 17.8965 11.9746ZM31.9074 15.1983H30.0312L31.3833 18.9999H33.0664L31.9074 15.1983ZM38.0001 15.1983H36.1713L35.0123 18.9999H36.6653L38.0001 15.1983Z" fill="#3E3E3E"/>
<path d="M5.07124 14.019C5.78374 14.0792 6.49624 13.658 6.94274 13.1212V13.1197C7.38132 12.5718 7.67265 11.8292 7.6014 11.0835C6.96649 11.1152 6.18907 11.5047 5.74257 12.0541C5.33249 12.5227 4.98257 13.2954 5.07124 14.019Z" fill="#212121"/>
<path d="M7.60122 11.0835C6.9663 11.1152 6.18888 11.5047 5.74238 12.0541C5.61888 12.1966 5.50013 12.366 5.39722 12.5544H7.30513C7.52838 12.1079 7.6503 11.5965 7.60122 11.0835Z" fill="#3E3E3E"/>
</g>
<defs>
<clipPath id="clip0_502_9428">
<rect width="38" height="38" fill="white"/>
</clipPath>
</defs>
</svg>
