<svg width="375" height="229" viewBox="0 0 375 229" fill="none" xmlns="http://www.w3.org/2000/svg">
<g filter="url(#filter0_d_502_2909)">
<rect x="18" y="20" width="338" height="149" rx="20" fill="white"/>
</g>
<path d="M338.406 145.636H170.629V145.727H338.406V145.636Z" fill="#E0E0E0"/>
<path d="M314.823 150.368H305.297V150.459H314.823V150.368Z" fill="#E0E0E0"/>
<path d="M302.837 150.412H294.324V150.502H302.837V150.412Z" fill="#E0E0E0"/>
<path d="M263.45 148.314H251.991V148.404H263.45V148.314Z" fill="#E0E0E0"/>
<path d="M285.059 151.122H269.134V151.213H285.059V151.122Z" fill="#E0E0E0"/>
<path d="M218.56 148.209H203.141V148.299H218.56V148.209Z" fill="#E0E0E0"/>
<path d="M225.66 148.209H220.422V148.299H225.66V148.209Z" fill="#E0E0E0"/>
<path d="M205.08 149.839H191.588V149.93H205.08V149.839Z" fill="#E0E0E0"/>
<path d="M250.155 129.475H185.363C184.856 129.474 184.369 129.255 184.01 128.868C183.652 128.48 183.45 127.954 183.45 127.406V29.0509C183.455 28.506 183.658 27.9849 184.016 27.6009C184.374 27.2169 184.858 27.0009 185.363 27H250.155C250.663 27 251.151 27.218 251.51 27.606C251.869 27.994 252.071 28.5203 252.071 29.0691V127.406C252.071 127.955 251.869 128.481 251.51 128.869C251.151 129.257 250.663 129.475 250.155 129.475ZM185.363 27.0725C184.878 27.0734 184.413 27.2823 184.07 27.6532C183.727 28.0242 183.534 28.5268 183.534 29.0509V127.406C183.534 127.93 183.727 128.433 184.07 128.803C184.413 129.174 184.878 129.383 185.363 129.384H250.155C250.641 129.383 251.106 129.175 251.45 128.804C251.793 128.433 251.986 127.93 251.987 127.406V29.0509C251.986 28.5265 251.793 28.0238 251.45 27.653C251.106 27.2822 250.641 27.0734 250.155 27.0725H185.363Z" fill="#E0E0E0"/>
<path d="M322.739 129.475H257.944C257.436 129.474 256.949 129.256 256.59 128.868C256.231 128.48 256.028 127.954 256.028 127.406V29.0509C256.033 28.5056 256.237 27.9846 256.596 27.6006C256.954 27.2167 257.439 27.0009 257.944 27H322.739C323.243 27.0019 323.726 27.2182 324.084 27.6021C324.441 27.9861 324.644 28.5066 324.648 29.0509V127.406C324.648 127.953 324.447 128.478 324.089 128.866C323.732 129.254 323.246 129.473 322.739 129.475ZM257.944 27.0725C257.458 27.0734 256.992 27.2822 256.649 27.653C256.306 28.0238 256.112 28.5265 256.111 29.0509V127.406C256.112 127.93 256.306 128.433 256.649 128.804C256.992 129.175 257.458 129.383 257.944 129.384H322.739C323.225 129.383 323.69 129.175 324.033 128.804C324.377 128.433 324.57 127.93 324.571 127.406V29.0509C324.57 28.5265 324.377 28.0238 324.033 27.653C323.69 27.2822 323.225 27.0734 322.739 27.0725H257.944Z" fill="#E0E0E0"/>
<path d="M280.811 35.7944H194.574V82.7415H280.811V35.7944Z" fill="#E0E0E0"/>
<path d="M281.935 35.7944H195.698V82.7415H281.935V35.7944Z" fill="#F0F0F0"/>
<path d="M279.919 80.5347V37.9939L197.718 37.9939V80.5347H279.919Z" fill="#F5F5F5"/>
<path d="M203.805 80.5384L226.099 37.9976H236.545L214.254 80.5384H203.805Z" fill="white"/>
<path d="M217.761 80.5384L240.055 37.9976H250.501L228.21 80.5384H217.761Z" fill="white"/>
<path d="M246.8 80.5384L269.091 37.9976H273.392L251.102 80.5384H246.8Z" fill="white"/>
<path d="M253.158 80.5347V37.9939H250.118V80.5347H253.158Z" fill="#E0E0E0"/>
<path d="M225.274 80.5347V37.9939H222.234V80.5347H225.274Z" fill="#E0E0E0"/>
<path d="M254.226 81.9372V36.3599H251.185V81.9372H254.226Z" fill="#F5F5F5"/>
<path d="M226.341 81.9372V36.3599H223.301V81.9372H226.341Z" fill="#F5F5F5"/>
<path d="M279.919 80.5347V37.9939H279.07V80.5347H279.919Z" fill="#E0E0E0"/>
<path d="M302.112 96.6016C302.112 96.6016 295.958 85.1474 304.495 76.0305C304.495 76.0305 306.723 77.5959 306.689 79.7048C306.656 81.8137 304.304 82.3464 304.807 84.1075C305.31 85.8685 307.535 87.5934 306.079 89.0464C304.622 90.4995 306.31 91.7967 306.213 93.5759C306.116 95.3551 302.112 96.6016 302.112 96.6016Z" fill="#E0E0E0"/>
<path d="M303.079 98.4753C303.079 98.4753 305.572 85.5102 294.808 79.7632C294.808 79.7632 293.153 82.0098 293.801 83.9991C294.449 85.9885 296.838 85.695 296.871 87.5358C296.905 89.3765 295.301 91.7717 297.11 92.6559C298.918 93.54 297.69 95.3446 298.304 97.0042C298.918 98.6638 303.079 98.4753 303.079 98.4753Z" fill="#EBEBEB"/>
<path d="M297.599 95.1812C297.599 95.1812 297.706 100.588 301.847 100.588C305.988 100.588 306.098 95.1812 306.098 95.1812H297.599Z" fill="#F5F5F5"/>
<path d="M268.866 96.377C268.866 96.377 269.007 100.588 274.453 100.588C279.899 100.588 280.043 96.377 280.043 96.377H268.866Z" fill="#EBEBEB"/>
<path d="M281.506 97.4207C281.506 97.4207 281.613 100.588 285.707 100.588C289.801 100.588 289.905 97.4207 289.905 97.4207H281.506Z" fill="#EBEBEB"/>
<path d="M272.701 103.215H263.534V142.918H272.701V103.215Z" fill="#EBEBEB"/>
<path d="M310.497 142.915H265.292V145.636H310.497V142.915Z" fill="#EBEBEB"/>
<path d="M272.701 142.915H312.26V103.211H272.701V142.915Z" fill="#F5F5F5"/>
<path d="M276.305 121.133H308.656V107.052H276.305V121.133Z" fill="#EBEBEB"/>
<path d="M276.305 137.78H308.656V123.699H276.305V137.78Z" fill="#EBEBEB"/>
<path d="M296.126 108.596H288.848C288.611 108.596 288.383 108.494 288.215 108.314C288.047 108.133 287.953 107.888 287.952 107.632C287.953 107.376 288.047 107.13 288.215 106.949C288.383 106.768 288.61 106.666 288.848 106.665H296.126C296.363 106.666 296.59 106.768 296.758 106.949C296.926 107.13 297.021 107.376 297.022 107.632C297.021 107.888 296.926 108.133 296.758 108.314C296.59 108.494 296.363 108.596 296.126 108.596Z" fill="#F5F5F5"/>
<path d="M296.126 125.242H288.848C288.611 125.242 288.383 125.141 288.215 124.96C288.047 124.78 287.953 124.534 287.952 124.279C287.953 124.022 288.047 123.777 288.215 123.595C288.383 123.414 288.61 123.312 288.848 123.311H296.126C296.363 123.312 296.59 123.414 296.758 123.595C296.926 123.777 297.021 124.022 297.022 124.279C297.021 124.534 296.926 124.78 296.758 124.96C296.59 125.141 296.363 125.242 296.126 125.242Z" fill="#F5F5F5"/>
<path d="M313.478 100.588H272.698V103.215H313.478V100.588Z" fill="#EBEBEB"/>
<path d="M262.249 103.211H272.698V100.584H262.249V103.211Z" fill="#E0E0E0"/>
<path d="M311.434 42.4036H291.576V67.1091H311.434V42.4036Z" fill="#EBEBEB"/>
<path d="M313.689 42.4036H292.17V67.1091H313.689V42.4036Z" fill="#F5F5F5"/>
<path d="M311.887 65.1598V44.3496H293.972V65.1598H311.887Z" fill="white"/>
<path d="M307.545 58.4093V51.1005C307.545 50.1579 306.837 49.3938 305.964 49.3938H299.894C299.021 49.3938 298.314 50.1579 298.314 51.1005V58.4093C298.314 59.3518 299.021 60.116 299.894 60.116H305.964C306.837 60.116 307.545 59.3518 307.545 58.4093Z" fill="#F5F5F5"/>
<path d="M260.923 122.634H258.618V145.636H260.923V122.634Z" fill="#E0E0E0"/>
<path opacity="0.5" d="M260.923 122.634H259.769V145.636H260.923V122.634Z" fill="#F5F5F5"/>
<path d="M250.826 129.076H249.242C249.416 128.917 249.555 128.72 249.651 128.497C249.746 128.274 249.796 128.032 249.796 127.786H231.029C231.029 128.032 231.08 128.275 231.176 128.497C231.272 128.72 231.412 128.918 231.586 129.076H230.022C229.461 129.076 228.924 129.317 228.527 129.745C228.131 130.173 227.908 130.754 227.908 131.359V138.015C227.908 138.621 228.131 139.202 228.527 139.63C228.924 140.058 229.461 140.298 230.022 140.298H250.826C251.387 140.298 251.925 140.058 252.321 139.63C252.718 139.202 252.94 138.621 252.94 138.015V131.359C252.94 130.754 252.718 130.173 252.321 129.745C251.925 129.317 251.387 129.076 250.826 129.076Z" fill="#F5F5F5"/>
<path d="M233.468 133.993H220.848C220.062 133.993 219.425 134.681 219.425 135.53V138.762C219.425 139.61 220.062 140.298 220.848 140.298H233.468C234.254 140.298 234.891 139.61 234.891 138.762V135.53C234.891 134.681 234.254 133.993 233.468 133.993Z" fill="#EBEBEB"/>
<path d="M234.414 132.602H219.902C219.638 132.602 219.425 132.832 219.425 133.117V133.704C219.425 133.988 219.638 134.218 219.902 134.218H234.414C234.677 134.218 234.891 133.988 234.891 133.704V133.117C234.891 132.832 234.677 132.602 234.414 132.602Z" fill="#E0E0E0"/>
<path d="M236.317 112.361C236.317 112.361 236.535 119.97 244.79 119.97C253.044 119.97 253.262 112.361 253.262 112.361H236.317Z" fill="#EBEBEB"/>
<path d="M196.504 122.634H206.798V119.974H196.504V122.634Z" fill="#E0E0E0"/>
<path d="M268.913 119.974H206.802V122.634H268.913V119.974Z" fill="#F5F5F5"/>
<path d="M196.504 142.958H206.798V140.299H196.504V142.958Z" fill="#E0E0E0"/>
<path d="M198.812 122.634H196.507V145.636H198.812V122.634Z" fill="#E0E0E0"/>
<path opacity="0.5" d="M198.812 122.634H197.658V145.636H198.812V122.634Z" fill="#F5F5F5"/>
<path d="M207.953 122.634H205.647V145.636H207.953V122.634Z" fill="#F5F5F5"/>
<path d="M206.802 122.634H205.647V145.636H206.802V122.634Z" fill="#E0E0E0"/>
<path d="M268.909 122.634H266.604V145.636H268.909V122.634Z" fill="#F5F5F5"/>
<path d="M267.758 122.634H266.604V145.636H267.758V122.634Z" fill="#E0E0E0"/>
<path d="M268.913 140.298H206.802V142.958H268.913V140.298Z" fill="#F5F5F5"/>
<path d="M223.364 118.405H210.842V119.974H223.364V118.405Z" fill="#E0E0E0"/>
<path d="M223.364 119.97H227.851V118.401H223.364V119.97Z" fill="#EBEBEB"/>
<path d="M254.517 162C290.449 162 319.578 160.163 319.578 157.898C319.578 155.633 290.449 153.796 254.517 153.796C218.586 153.796 189.457 155.633 189.457 157.898C189.457 160.163 218.586 162 254.517 162Z" fill="#F5F5F5"/>
<path d="M243.736 61.6776C243.759 65.9716 240.91 65.9281 240.967 64.5946C241.024 63.2611 240.32 60.0688 240.967 60.3768C241.615 60.6848 243.725 59.7789 243.736 61.6776Z" fill="#263238"/>
<path d="M241.944 69.4538C242.336 69.4211 243.125 69.8161 243.195 70.9358C243.214 71.2611 243.302 71.5774 243.453 71.8597C243.603 72.1421 243.813 72.3827 244.065 72.5628C244.065 72.5628 242.759 72.7331 241.904 72.0011C241.206 71.4105 240.897 70.1169 241.263 69.827C241.463 69.6525 241.695 69.5254 241.944 69.4538Z" fill="#263238"/>
<path d="M241.43 66.4026C242.101 67.044 242.715 68.7398 241.202 69.5442C239.689 70.3487 237.31 68.4753 237.31 68.4753L239.924 67.1672L241.43 66.4026Z" fill="#263238"/>
<path d="M242.176 69.6095C242.139 69.3747 242.078 69.145 241.994 68.9246C241.987 68.9036 241.976 68.8847 241.961 68.8692C241.946 68.8537 241.928 68.842 241.908 68.835C241.889 68.8281 241.868 68.826 241.847 68.8289C241.827 68.8319 241.807 68.8398 241.79 68.8521L240.86 69.5225C240.842 69.5361 240.826 69.5544 240.816 69.5759C240.805 69.5974 240.8 69.6214 240.8 69.6457C240.8 69.67 240.805 69.694 240.816 69.7155C240.826 69.737 240.842 69.7553 240.86 69.7689C240.994 69.8748 241.138 69.9647 241.29 70.037C241.508 70.1313 241.961 69.8631 242.115 69.7472C242.136 69.7328 242.153 69.7123 242.164 69.6879C242.175 69.6635 242.179 69.6362 242.176 69.6095Z" fill="#412525"/>
<path opacity="0.3" d="M242.176 69.6095C242.139 69.3747 242.078 69.145 241.994 68.9246C241.987 68.9036 241.976 68.8847 241.961 68.8692C241.946 68.8537 241.928 68.842 241.908 68.835C241.889 68.8281 241.868 68.826 241.847 68.8289C241.827 68.8319 241.807 68.8398 241.79 68.8521L240.86 69.5225C240.842 69.5361 240.826 69.5544 240.816 69.5759C240.805 69.5974 240.8 69.6214 240.8 69.6457C240.8 69.67 240.805 69.694 240.816 69.7155C240.826 69.737 240.842 69.7553 240.86 69.7689C240.994 69.8748 241.138 69.9647 241.29 70.037C241.508 70.1313 241.961 69.8631 242.115 69.7472C242.136 69.7328 242.153 69.7123 242.164 69.6879C242.175 69.6635 242.179 69.6362 242.176 69.6095Z" fill="black"/>
<path d="M232.173 67.8304C231.8 67.6963 230.948 67.8775 230.632 68.9501C230.543 69.2613 230.388 69.5459 230.179 69.7816C229.971 70.0174 229.715 70.1978 229.431 70.3089C229.431 70.3089 230.663 70.809 231.656 70.3089C232.461 69.914 233.032 68.7327 232.753 68.3558C232.597 68.1375 232.399 67.9582 232.173 67.8304Z" fill="#263238"/>
<path d="M235.87 60.4563C234.511 60.8549 232.683 62.5942 233.495 64.7285C232.693 65.3191 231.666 67.0186 232.867 68.1057C234.159 69.2761 237.337 67.6346 237.337 67.6346L237.36 67.0766L237.739 62.924L235.87 60.4563Z" fill="#263238"/>
<path d="M231.914 67.9247C232.004 67.7053 232.117 67.4975 232.249 67.3051C232.263 67.2876 232.279 67.2736 232.298 67.2639C232.317 67.2543 232.338 67.2493 232.358 67.2493C232.379 67.2493 232.4 67.2543 232.419 67.2639C232.438 67.2736 232.454 67.2876 232.467 67.3051L233.219 68.1928C233.234 68.2109 233.245 68.2326 233.251 68.2562C233.257 68.2798 233.257 68.3045 233.252 68.3283C233.247 68.3521 233.237 68.3743 233.223 68.393C233.208 68.4116 233.19 68.4263 233.169 68.4356C233.016 68.5028 232.858 68.5526 232.696 68.5842C232.461 68.6204 232.098 68.2472 231.957 68.095C231.935 68.075 231.918 68.0479 231.91 68.0174C231.903 67.9869 231.904 67.9545 231.914 67.9247Z" fill="#412525"/>
<path opacity="0.3" d="M231.914 67.9247C232.004 67.7053 232.117 67.4975 232.249 67.3051C232.263 67.2876 232.279 67.2736 232.298 67.2639C232.317 67.2543 232.338 67.2493 232.358 67.2493C232.379 67.2493 232.4 67.2543 232.419 67.2639C232.438 67.2736 232.454 67.2876 232.467 67.3051L233.219 68.1928C233.234 68.2109 233.245 68.2326 233.251 68.2562C233.257 68.2798 233.257 68.3045 233.252 68.3283C233.247 68.3521 233.237 68.3743 233.223 68.393C233.208 68.4116 233.19 68.4263 233.169 68.4356C233.016 68.5028 232.858 68.5526 232.696 68.5842C232.461 68.6204 232.098 68.2472 231.957 68.095C231.935 68.075 231.918 68.0479 231.91 68.0174C231.903 67.9869 231.904 67.9545 231.914 67.9247Z" fill="black"/>
<path d="M244.141 75.5811C244.782 76.1173 245.484 76.6899 246.188 77.2117C246.893 77.7335 247.601 78.2589 248.329 78.7408C249.057 79.2227 249.795 79.6721 250.54 80.0997L251.101 80.4077L251.671 80.6939C251.859 80.7918 252.05 80.8787 252.245 80.9584L252.53 81.0853C252.628 81.1251 252.732 81.1759 252.792 81.194C253.143 81.31 253.502 81.3937 253.866 81.444C254.262 81.5056 254.678 81.5491 255.101 81.5817C255.943 81.6397 256.809 81.665 257.678 81.6687C258.547 81.6723 259.426 81.6687 260.302 81.6397C261.177 81.6107 262.063 81.5889 262.936 81.56L263.1 82.984C261.338 83.3678 259.558 83.6521 257.768 83.8356C256.866 83.9225 255.96 83.9878 255.033 83.995C254.57 83.995 254.101 83.995 253.617 83.9479C253.098 83.9148 252.583 83.8238 252.081 83.6761C251.926 83.6326 251.829 83.5892 251.715 83.5493L251.379 83.4225C251.154 83.3428 250.933 83.2558 250.708 83.158L250.057 82.8753L249.42 82.5709C248.577 82.1606 247.756 81.7009 246.96 81.194C246.168 80.6903 245.39 80.1685 244.638 79.6105C243.886 79.0524 243.162 78.4763 242.423 77.7987L244.141 75.5811Z" fill="#E4897B"/>
<path d="M240.659 73.9544C241.494 73.2514 244.934 75.5524 245.981 76.5127L245.219 81.4878C245.219 81.4878 240.269 79.2485 239.971 77.7193C239.662 76.1213 240.028 74.4907 240.659 73.9544Z" fill="#263238"/>
<path d="M262.57 81.6835L264.644 79.9478L264.808 82.6328C264.808 82.6328 263.379 83.5895 262.436 82.9952L262.57 81.6835Z" fill="#E4897B"/>
<path d="M266.493 79.6831L267.553 80.9586L264.795 82.6327L264.631 79.9476L266.493 79.6831Z" fill="#E4897B"/>
<path d="M227.096 154.358L229.71 154.568L230.663 148.071L228.052 147.861L227.096 154.358Z" fill="#E4897B"/>
<path d="M208.603 145.277L210.821 146.784L214.771 141.726L212.553 140.215L208.603 145.277Z" fill="#E4897B"/>
<path d="M211.523 146.245L209.446 143.987C209.41 143.948 209.363 143.924 209.312 143.92C209.261 143.916 209.211 143.932 209.17 143.965L207.281 145.491C207.235 145.531 207.198 145.581 207.171 145.638C207.144 145.695 207.128 145.758 207.125 145.822C207.122 145.886 207.131 145.949 207.152 146.009C207.173 146.069 207.206 146.123 207.248 146.169C207.983 146.94 208.375 147.274 209.288 148.267C209.848 148.879 210.61 149.832 211.385 150.676C212.16 151.521 212.972 150.734 212.727 150.314C211.593 148.404 211.798 147.69 211.721 146.719C211.709 146.541 211.639 146.372 211.523 146.245Z" fill="#263238"/>
<path d="M229.884 154.162H226.938C226.886 154.162 226.836 154.182 226.796 154.218C226.756 154.253 226.729 154.303 226.72 154.358L226.254 156.873C226.243 156.936 226.246 157.002 226.262 157.064C226.278 157.127 226.307 157.184 226.346 157.233C226.386 157.281 226.436 157.32 226.491 157.344C226.546 157.369 226.606 157.38 226.666 157.376C227.693 157.358 228.193 157.293 229.488 157.293C230.284 157.293 232.508 157.38 233.619 157.38C234.73 157.38 234.84 156.206 234.387 156.101C232.357 155.623 230.988 154.967 230.327 154.336C230.205 154.22 230.047 154.158 229.884 154.162Z" fill="#263238"/>
<path d="M230.662 148.071L230.132 151.68L227.555 151.212L228.048 147.864L230.662 148.071Z" fill="#CE6F64"/>
<path d="M212.552 140.219L214.77 141.726L213.136 143.821L210.868 142.375L212.552 140.219Z" fill="#CE6F64"/>
<path d="M229.082 89.0103L239.531 91.2098C244.93 75.4219 243.756 74.9037 243.756 74.9037C242.997 74.4531 242.212 74.0537 241.407 73.7079L241.266 73.6499C240.595 73.3854 240.461 73.3455 239.568 73.0629C238.031 72.6679 236.599 72.3382 234.824 72.0664L234.488 72.0157C234.152 71.9722 233.847 71.936 233.538 71.9034C233.33 71.878 233.122 71.8635 232.924 71.849L232.253 71.8092C231.106 71.7476 230.284 71.7657 230.284 71.7657C230.602 81.6254 230.086 84.4554 229.082 89.0103Z" fill="#263238"/>
<path d="M236.333 66.4026C236.333 68.1129 236.088 71.1966 234.82 72.0735C234.82 72.0735 234.938 73.8345 237.773 74.4288C240.894 75.0847 239.565 73.07 239.565 73.07C237.944 72.2728 238.223 70.9176 238.759 69.7L236.333 66.4026Z" fill="#E4897B"/>
<path d="M237.323 67.7473L238.759 69.7004C238.634 69.9827 238.53 70.2761 238.451 70.5773C237.817 70.3382 237.062 69.3815 237.109 68.6315C237.13 68.3251 237.203 68.0256 237.323 67.7473Z" fill="#CE6F64"/>
<path d="M236.182 62.4749C235.847 65.2614 235.642 66.4319 236.675 68.1168C238.229 70.6533 241.47 70.4903 242.574 67.8704C243.581 65.5115 243.957 61.348 241.658 59.7355C241.154 59.3756 240.572 59.161 239.969 59.1121C239.366 59.0632 238.761 59.1816 238.213 59.4561C237.664 59.7306 237.189 60.152 236.834 60.6804C236.479 61.2088 236.254 61.8265 236.182 62.4749Z" fill="#E4897B"/>
<path d="M244.581 58.0613C244.628 58.5032 244.597 58.9506 244.491 59.3802C244.466 59.2345 244.434 59.0905 244.393 58.949C243.474 55.6661 239.333 56.4488 238.085 57.862C236.072 57.2387 234.156 57.7351 234.411 60.3985C234.442 61.0846 234.671 61.7431 235.065 62.2827C234.753 63.2176 235.065 64.7069 236.095 64.7504C237.545 64.812 238.92 62.7393 239.474 61.6015C240.481 61.7863 241.93 61.9639 243.031 61.674C243.216 61.7936 243.367 61.8769 243.367 61.8769C244.538 61.1993 245.43 60.5434 244.581 58.0613Z" fill="#263238"/>
<path d="M235.29 64.3771C235.249 64.9178 235.407 65.4542 235.729 65.87C236.166 66.4172 236.736 66.0947 236.941 65.4461C237.112 64.859 237.088 63.8698 236.505 63.5618C236.376 63.4965 236.234 63.467 236.092 63.4759C235.95 63.4849 235.813 63.532 235.692 63.6131C235.571 63.6941 235.471 63.8064 235.401 63.9399C235.331 64.0733 235.293 64.2236 235.29 64.3771Z" fill="#E4897B"/>
<path d="M239.374 91.2099C239.374 91.2099 239.414 113.611 237.716 122.047C235.951 130.823 230.76 150.789 230.76 150.789L227.002 150.263C227.002 150.263 229.945 130.095 231.196 121.373C232.562 111.868 231.726 89.6011 231.726 89.6011L239.374 91.2099Z" fill="#412525"/>
<path opacity="0.3" d="M239.374 91.2099C239.374 91.2099 239.414 113.611 237.716 122.047C235.951 130.823 230.76 150.789 230.76 150.789L227.002 150.263C227.002 150.263 229.945 130.095 231.196 121.373C232.562 111.868 231.726 89.6011 231.726 89.6011L239.374 91.2099Z" fill="black"/>
<path d="M231.401 151.14L226.357 150.437L226.572 148.509L232.297 149.234L231.401 151.14Z" fill="#263238"/>
<path d="M236.773 90.63C236.773 90.63 231.146 109.143 228.351 119.807C225.405 131.058 214.11 143.502 214.11 143.502L210.872 141.48C210.872 141.48 218.59 129.667 221.425 119.169C227.2 97.859 224.827 93.3441 229.082 89.0103L236.773 90.63Z" fill="#412525"/>
<path opacity="0.3" d="M236.773 90.63C236.773 90.63 231.146 109.143 228.351 119.807C225.405 131.058 214.11 143.502 214.11 143.502L210.872 141.48C210.872 141.48 218.59 129.667 221.425 119.169C227.2 97.859 224.827 93.3441 229.082 89.0103L236.773 90.63Z" fill="black"/>
<path d="M214.636 144.063L210.137 141.258L211.257 139.526L216.254 142.501L214.636 144.063Z" fill="#263238"/>
<path d="M239.907 64.0584C239.867 64.2831 239.944 64.486 240.082 64.515C240.219 64.544 240.36 64.3845 240.417 64.1526C240.474 63.9207 240.38 63.7214 240.243 63.6924C240.105 63.6634 239.947 63.8338 239.907 64.0584Z" fill="#263238"/>
<path d="M242.252 64.5514C242.212 64.776 242.289 64.9826 242.427 65.0116C242.564 65.0406 242.705 64.8811 242.746 64.6492C242.786 64.4173 242.709 64.218 242.571 64.1926C242.434 64.1673 242.293 64.3231 242.252 64.5514Z" fill="#263238"/>
<path d="M242.511 64.196L243.038 64.1489C243.038 64.1489 242.705 64.5149 242.511 64.196Z" fill="#263238"/>
<path d="M241.565 64.8081C241.657 65.3575 241.82 65.8904 242.048 66.3916C241.928 66.4524 241.797 66.4839 241.664 66.4839C241.531 66.4839 241.4 66.4524 241.28 66.3916L241.565 64.8081Z" fill="#DE5753"/>
<path d="M240.4 67.1165C240.12 67.0669 239.855 66.9448 239.627 66.7605C239.4 66.5763 239.218 66.3354 239.095 66.0584C239.092 66.0503 239.09 66.0416 239.09 66.0328C239.09 66.024 239.092 66.0153 239.095 66.0072C239.098 65.999 239.102 65.9917 239.108 65.9855C239.114 65.9794 239.121 65.9746 239.129 65.9714C239.144 65.9653 239.161 65.9656 239.176 65.9723C239.191 65.9791 239.203 65.9917 239.209 66.0077C239.326 66.2622 239.497 66.4834 239.708 66.6534C239.919 66.8233 240.165 66.9373 240.424 66.986C240.432 66.9873 240.44 66.9904 240.446 66.9949C240.453 66.9995 240.459 67.0055 240.464 67.0126C240.469 67.0197 240.472 67.0277 240.474 67.0362C240.476 67.0447 240.476 67.0535 240.474 67.0621C240.471 67.0798 240.461 67.0954 240.448 67.1056C240.434 67.1158 240.417 67.1197 240.4 67.1165Z" fill="#263238"/>
<path d="M239.373 63.0945C239.349 63.0943 239.324 63.086 239.304 63.0708C239.284 63.0556 239.268 63.0342 239.259 63.0092C239.25 62.9843 239.248 62.9569 239.253 62.9308C239.259 62.9047 239.271 62.8809 239.29 62.8626C239.433 62.7169 239.607 62.6103 239.797 62.5517C239.987 62.4931 240.187 62.4842 240.38 62.5256C240.412 62.5357 240.439 62.5588 240.455 62.5899C240.471 62.621 240.476 62.6577 240.467 62.6923C240.459 62.7263 240.438 62.7552 240.41 62.7728C240.381 62.7905 240.348 62.7954 240.316 62.7865C240.163 62.7571 240.005 62.7666 239.855 62.8144C239.705 62.8622 239.568 62.9469 239.454 63.0619C239.432 63.0831 239.403 63.0947 239.373 63.0945Z" fill="#263238"/>
<path d="M243.555 63.598C243.53 63.5983 243.506 63.5905 243.485 63.5756C243.465 63.5607 243.449 63.5394 243.44 63.5146C243.383 63.3577 243.292 63.2173 243.176 63.1048C243.059 62.9922 242.92 62.9104 242.769 62.866C242.753 62.863 242.738 62.8565 242.724 62.847C242.71 62.8375 242.698 62.8252 242.689 62.8107C242.68 62.7962 242.673 62.7799 242.67 62.7626C242.666 62.7454 242.666 62.7276 242.669 62.7102C242.676 62.676 242.695 62.6459 242.721 62.6258C242.748 62.6057 242.781 62.597 242.813 62.6015C243.004 62.6531 243.182 62.7534 243.33 62.8939C243.478 63.0345 243.593 63.2113 243.665 63.4096C243.672 63.4259 243.675 63.4436 243.676 63.4615C243.676 63.4793 243.673 63.497 243.666 63.5136C243.66 63.5301 243.651 63.5452 243.639 63.5578C243.627 63.5704 243.614 63.5804 243.598 63.5871L243.555 63.598Z" fill="#263238"/>
<path d="M240.189 66.0437C240.085 66.0442 239.982 66.0185 239.889 65.9689C239.796 65.9192 239.715 65.8468 239.652 65.7575C239.494 65.4917 239.389 65.1936 239.342 64.8818C239.296 64.5701 239.31 64.2514 239.383 63.9457C239.574 62.8006 240.239 61.8694 240.866 61.8694C240.971 61.8707 241.074 61.8975 241.167 61.9477C241.261 61.9979 241.343 62.0702 241.407 62.1593C241.564 62.4253 241.669 62.7234 241.715 63.0351C241.761 63.3467 241.748 63.6653 241.675 63.9711C241.484 65.1161 240.816 66.0437 240.189 66.0437ZM240.86 61.9708C240.272 61.9708 239.642 62.8695 239.457 63.9711C239.34 64.6958 239.434 65.348 239.709 65.6995C239.765 65.7777 239.836 65.8412 239.918 65.8852C240 65.9291 240.09 65.9523 240.182 65.9532C240.772 65.9532 241.4 65.0581 241.584 63.9566H241.625H241.584C241.656 63.6654 241.67 63.3613 241.627 63.0638C241.583 62.7663 241.483 62.4817 241.333 62.2281C241.278 62.1504 241.207 62.0869 241.127 62.0424C241.046 61.9979 240.957 61.9734 240.866 61.9708H240.86Z" fill="#FAFAFA"/>
<path d="M242.796 66.4062C242.688 66.4037 242.581 66.3752 242.484 66.3225C242.387 66.2698 242.302 66.1944 242.236 66.1018C242.085 65.8578 241.983 65.5827 241.936 65.2938C241.889 65.005 241.899 64.7088 241.964 64.4241C242.135 63.3587 242.779 62.4963 243.4 62.4963C243.509 62.4992 243.616 62.5284 243.713 62.5817C243.81 62.635 243.894 62.711 243.96 62.8043C244.11 63.0481 244.211 63.3227 244.258 63.6107C244.305 63.8988 244.296 64.1942 244.232 64.4784C244.064 65.5474 243.42 66.4062 242.796 66.4062ZM243.39 62.5869C242.806 62.5869 242.202 63.4167 242.048 64.4422C241.987 64.7139 241.979 64.996 242.023 65.2713C242.067 65.5467 242.162 65.8095 242.303 66.0438C242.362 66.126 242.437 66.1929 242.523 66.2399C242.609 66.2869 242.703 66.3128 242.799 66.3156C243.383 66.3156 243.991 65.4894 244.142 64.4639C244.202 64.1924 244.21 63.9106 244.167 63.6354C244.124 63.3602 244.03 63.0972 243.89 62.8623C243.831 62.7795 243.756 62.7118 243.67 62.6642C243.584 62.6166 243.49 62.5902 243.393 62.5869H243.39Z" fill="#FAFAFA"/>
<path d="M212.294 147.56C211.959 147.56 211.606 147.002 211.425 146.679C211.419 146.669 211.415 146.656 211.415 146.643C211.415 146.63 211.419 146.618 211.425 146.607C211.433 146.597 211.442 146.588 211.454 146.583C211.465 146.578 211.477 146.576 211.489 146.578C211.596 146.603 212.519 146.821 212.637 147.161C212.65 147.199 212.654 147.24 212.647 147.279C212.641 147.319 212.624 147.356 212.6 147.386C212.567 147.441 212.521 147.485 212.468 147.516C212.414 147.546 212.355 147.561 212.294 147.56ZM211.593 146.745C211.851 147.165 212.103 147.415 212.284 147.426C212.324 147.426 212.364 147.415 212.399 147.394C212.435 147.373 212.464 147.343 212.486 147.306C212.497 147.293 212.505 147.277 212.508 147.26C212.51 147.243 212.509 147.225 212.502 147.208C212.442 147.027 211.962 146.846 211.593 146.745Z" fill="#412525"/>
<path d="M211.744 146.745C211.642 146.746 211.541 146.734 211.442 146.709C211.432 146.705 211.423 146.699 211.415 146.69C211.408 146.682 211.402 146.672 211.398 146.661C211.391 146.641 211.391 146.617 211.398 146.596C211.422 146.574 211.935 146.027 212.315 146.027H212.341C212.388 146.031 212.434 146.045 212.476 146.068C212.517 146.092 212.554 146.125 212.583 146.165C212.617 146.204 212.638 146.254 212.643 146.307C212.648 146.36 212.636 146.413 212.61 146.459C212.502 146.654 212.073 146.745 211.744 146.745ZM211.593 146.603C211.908 146.643 212.419 146.546 212.523 146.382C212.539 146.357 212.553 146.317 212.502 146.248C212.485 146.222 212.462 146.2 212.435 146.185C212.408 146.17 212.378 146.162 212.348 146.161C212.06 146.221 211.796 146.375 211.593 146.603Z" fill="#412525"/>
<path d="M230.847 154.659C230.569 154.65 230.293 154.614 230.022 154.55C230.009 154.547 229.997 154.54 229.988 154.53C229.979 154.519 229.973 154.506 229.971 154.492C229.97 154.478 229.972 154.464 229.978 154.452C229.984 154.44 229.994 154.43 230.005 154.423C230.129 154.358 231.206 153.778 231.518 153.974C231.547 153.993 231.57 154.02 231.587 154.051C231.603 154.083 231.612 154.119 231.612 154.155C231.616 154.216 231.606 154.277 231.583 154.333C231.561 154.39 231.526 154.439 231.481 154.477C231.295 154.613 231.071 154.676 230.847 154.659ZM230.233 154.463C230.807 154.564 231.24 154.539 231.408 154.383C231.436 154.356 231.459 154.323 231.473 154.285C231.488 154.247 231.494 154.207 231.491 154.166C231.492 154.152 231.489 154.139 231.483 154.126C231.478 154.114 231.469 154.104 231.458 154.097C231.29 153.992 230.693 154.238 230.233 154.463Z" fill="#412525"/>
<path d="M230.038 154.55C230.026 154.553 230.013 154.553 230.001 154.55C229.991 154.543 229.984 154.533 229.979 154.521C229.974 154.51 229.973 154.497 229.974 154.485C229.974 154.434 230.135 153.281 230.719 153.281H230.77C230.937 153.3 230.984 153.39 230.994 153.466C231.041 153.785 230.39 154.401 230.062 154.553L230.038 154.55ZM230.709 153.405C230.33 153.405 230.162 154.071 230.105 154.361C230.441 154.148 230.887 153.666 230.86 153.474C230.86 153.474 230.86 153.416 230.743 153.405H230.709Z" fill="#412525"/>
<path d="M240.166 63.7031L240.692 63.6523C240.692 63.6523 240.36 64.0219 240.166 63.7031Z" fill="#263238"/>
<path d="M237.86 76.8384C233.498 75.052 232.136 72.3778 232.24 71.8162L232.911 71.8596H233.025C233.186 71.8596 233.36 71.885 233.525 71.9068C233.833 71.9357 234.152 71.972 234.474 72.0191L234.81 72.0698C236.412 72.2793 237.997 72.6123 239.555 73.0663C240.266 73.291 240.501 73.3634 240.897 73.5156L241.249 73.6533L241.39 73.7113C241.739 74.523 241.662 76.1826 237.86 76.8384Z" fill="#E4897B"/>
<path d="M237.86 76.8384C233.498 75.052 232.136 72.3778 232.24 71.8162L232.911 71.8596H233.025C233.911 73.2185 235.85 75.0955 237.827 75.3528C239.417 74.9904 240.917 74.5773 240.904 73.5156L241.256 73.6533L241.397 73.7113C241.739 74.523 241.662 76.1826 237.86 76.8384Z" fill="#412525"/>
<path opacity="0.3" d="M237.86 76.8384C233.498 75.052 232.136 72.3778 232.24 71.8162L232.911 71.8596H233.025C233.911 73.2185 235.85 75.0955 237.827 75.3528C239.417 74.9904 240.917 74.5773 240.904 73.5156L241.256 73.6533L241.397 73.7113C241.739 74.523 241.662 76.1826 237.86 76.8384Z" fill="black"/>
<path d="M229.045 88.3145L228.374 89.2277C228.324 89.2965 228.398 89.3944 228.518 89.4197L239.478 91.7243C239.572 91.7461 239.659 91.7243 239.676 91.6482L239.951 90.659C239.971 90.5901 239.9 90.5141 239.796 90.4923L229.213 88.2674C229.184 88.2608 229.153 88.2615 229.124 88.2697C229.095 88.2779 229.068 88.2932 229.045 88.3145Z" fill="#263238"/>
<path d="M230.236 89.8907L229.954 89.8327C229.897 89.8327 229.86 89.782 229.871 89.7421L230.24 88.4594C230.24 88.4195 230.307 88.4014 230.36 88.4123L230.646 88.4703C230.703 88.4703 230.74 88.5246 230.73 88.5609L230.36 89.8472C230.347 89.8682 230.328 89.8838 230.305 89.8917C230.283 89.8995 230.259 89.8992 230.236 89.8907Z" fill="#412525"/>
<path opacity="0.3" d="M230.236 89.8907L229.954 89.8327C229.897 89.8327 229.86 89.782 229.871 89.7421L230.24 88.4594C230.24 88.4195 230.307 88.4014 230.36 88.4123L230.646 88.4703C230.703 88.4703 230.74 88.5246 230.73 88.5609L230.36 89.8472C230.347 89.8682 230.328 89.8838 230.305 89.8917C230.283 89.8995 230.259 89.8992 230.236 89.8907Z" fill="black"/>
<path d="M230.982 76.1393C230.854 76.9981 230.733 77.9511 230.646 78.8425C230.559 79.7339 230.482 80.6543 230.441 81.5819C230.419 82.0385 230.406 82.4951 230.401 82.9516C230.401 83.4046 230.401 83.8575 230.401 84.3105C230.418 85.1979 230.482 86.0835 230.592 86.9629C230.656 87.2641 230.769 87.5502 230.928 87.8072C231.129 88.1601 231.353 88.4968 231.599 88.8146C232.135 89.5017 232.709 90.1539 233.317 90.7677C233.931 91.4055 234.575 92.0215 235.236 92.623C235.897 93.2245 236.579 93.8224 237.25 94.3985L236.528 95.6016C234.949 94.6669 233.439 93.602 232.012 92.4164C231.275 91.8069 230.58 91.1409 229.931 90.4235C229.586 90.0387 229.268 89.6256 228.982 89.1878C228.627 88.6701 228.375 88.0793 228.24 87.4521L228.116 86.6839C228.072 86.4339 228.042 86.1839 228.015 85.9375C227.948 85.4374 227.911 84.941 227.874 84.4446C227.805 83.4572 227.783 82.4666 227.811 81.4768C227.837 80.4949 227.888 79.5165 227.978 78.5418C228.069 77.567 228.183 76.6104 228.364 75.603L230.982 76.1393Z" fill="#E4897B"/>
<path d="M228.754 72.5229C227.317 73.7767 227.66 77.5017 227.66 77.5017L232.492 79.2193C232.492 79.2193 232.27 74.9254 232.035 73.3817C231.747 71.5446 230.163 71.2873 228.754 72.5229Z" fill="#263238"/>
<path d="M236.659 94.1665L238.843 93.2896L238.508 95.5325C238.508 95.5325 236.924 96.1486 236.112 95.3586L236.659 94.1665Z" fill="#E4897B"/>
<path d="M241.444 93.6229V95.355L238.508 95.5325L238.843 93.2896L241.444 93.6229Z" fill="#E4897B"/>
<path d="M238.675 91.6663L238.393 91.6084C238.336 91.6084 238.299 91.5576 238.31 91.5178L238.679 90.235C238.679 90.1952 238.746 90.1771 238.803 90.1879L239.085 90.2459C239.142 90.2459 239.179 90.3002 239.169 90.3365L238.799 91.6229C238.789 91.6591 238.746 91.6808 238.675 91.6663Z" fill="#412525"/>
<path opacity="0.3" d="M238.675 91.6663L238.393 91.6084C238.336 91.6084 238.299 91.5576 238.31 91.5178L238.679 90.235C238.679 90.1952 238.746 90.1771 238.803 90.1879L239.085 90.2459C239.142 90.2459 239.179 90.3002 239.169 90.3365L238.799 91.6229C238.789 91.6591 238.746 91.6808 238.675 91.6663Z" fill="black"/>
<path d="M234.458 90.7747L234.172 90.7168C234.115 90.7168 234.078 90.666 234.092 90.6262L234.461 89.3434C234.461 89.3036 234.525 89.2854 234.582 89.2963L234.867 89.3543C234.921 89.3543 234.961 89.4087 234.948 89.4449L234.578 90.7313C234.568 90.7747 234.515 90.7929 234.458 90.7747Z" fill="#412525"/>
<path opacity="0.3" d="M234.458 90.7747L234.172 90.7168C234.115 90.7168 234.078 90.666 234.092 90.6262L234.461 89.3434C234.461 89.3036 234.525 89.2854 234.582 89.2963L234.867 89.3543C234.921 89.3543 234.961 89.4087 234.948 89.4449L234.578 90.7313C234.568 90.7747 234.515 90.7929 234.458 90.7747Z" fill="black"/>
<path d="M213.086 111.904L230.481 152.93C230.88 153.863 231.604 154.587 232.496 154.945C233.387 155.302 234.373 155.265 235.239 154.84L238.001 153.477L301.947 121.862C302.811 121.432 303.482 120.651 303.814 119.689C304.146 118.727 304.112 117.662 303.719 116.727L288.347 80.4912L286.334 75.7045C285.935 74.7728 285.21 74.0492 284.319 73.6915C283.428 73.3339 282.442 73.371 281.576 73.7949L214.864 106.769C214.001 107.199 213.329 107.979 212.996 108.941C212.663 109.903 212.695 110.968 213.086 111.904Z" fill="#412525"/>
<path opacity="0.1" d="M213.086 111.904L230.481 152.93C230.88 153.863 231.604 154.587 232.496 154.945C233.387 155.302 234.373 155.265 235.239 154.84L238.001 153.477L301.947 121.862C302.811 121.432 303.482 120.651 303.814 119.689C304.146 118.727 304.112 117.662 303.719 116.727L288.347 80.4912L286.334 75.7045C285.935 74.7728 285.21 74.0492 284.319 73.6915C283.428 73.3339 282.442 73.371 281.576 73.7949L214.864 106.769C214.001 107.199 213.329 107.979 212.996 108.941C212.663 109.903 212.695 110.968 213.086 111.904Z" fill="white"/>
<path d="M228.717 148.77L301.953 112.562L293.382 92.3458L220.146 128.554L228.717 148.77Z" fill="#412525"/>
<path opacity="0.3" d="M228.717 148.77L301.953 112.562L293.382 92.3458L220.146 128.554L228.717 148.77Z" fill="white"/>
<path d="M247.136 131.814L293.417 108.932L290.349 101.697L244.069 124.579L247.136 131.814Z" fill="#412525"/>
<path opacity="0.8" d="M247.136 131.814L293.417 108.932L290.349 101.697L244.069 124.579L247.136 131.814Z" fill="white"/>
<path d="M221.782 132.418L295.017 96.2102L290.444 85.4234L217.208 121.632L221.782 132.418Z" fill="#412525"/>
<path opacity="0.3" d="M221.782 132.418L295.017 96.2102L290.444 85.4234L217.208 121.632L221.782 132.418Z" fill="black"/>
<g style="mix-blend-mode:multiply">
<path d="M223.032 112.419L238.001 153.463L301.947 121.847C302.811 121.418 303.482 120.637 303.814 119.675C304.146 118.713 304.112 117.648 303.719 116.713L288.347 80.4768L225.059 107.393C224.175 107.772 223.465 108.513 223.086 109.454C222.706 110.396 222.687 111.462 223.032 112.419Z" fill="#412525"/>
</g>
<path d="M307.672 99.4454L307.356 99.5652L307.879 101.175L308.195 101.055L307.672 99.4454Z" fill="#412525"/>
<path opacity="0.1" d="M307.672 99.4454L307.356 99.5652L307.879 101.175L308.195 101.055L307.672 99.4454Z" fill="white"/>
<path d="M305.028 91.348L304.711 91.468L306.775 97.8135L307.091 97.6934L305.028 91.348Z" fill="#412525"/>
<path opacity="0.1" d="M305.028 91.348L304.711 91.468L306.775 97.8135L307.091 97.6934L305.028 91.348Z" fill="white"/>
<path d="M227.485 107.534L296.71 81.281C297.608 80.9435 298.593 81.0037 299.45 81.4485C300.307 81.8932 300.966 82.6864 301.283 83.6545L315.128 126.228C315.441 127.198 315.386 128.262 314.975 129.188C314.564 130.114 313.83 130.827 312.934 131.17L243.709 157.423C242.81 157.76 241.825 157.699 240.968 157.255C240.11 156.81 239.451 156.018 239.132 155.05L225.287 112.476C224.974 111.506 225.03 110.442 225.442 109.516C225.854 108.589 226.588 107.877 227.485 107.534Z" fill="#412525"/>
<path opacity="0.1" d="M227.485 107.534L296.71 81.281C297.608 80.9435 298.593 81.0037 299.45 81.4485C300.307 81.8932 300.966 82.6864 301.283 83.6545L315.128 126.228C315.441 127.198 315.386 128.262 314.975 129.188C314.564 130.114 313.83 130.827 312.934 131.17L243.709 157.423C242.81 157.76 241.825 157.699 240.968 157.255C240.11 156.81 239.451 156.018 239.132 155.05L225.287 112.476C224.974 111.506 225.03 110.442 225.442 109.516C225.854 108.589 226.588 107.877 227.485 107.534Z" fill="white"/>
<path d="M236.609 147.286L312.605 118.467L306.583 99.9464L230.586 128.766L236.609 147.286Z" fill="#412525"/>
<path opacity="0.3" d="M236.609 147.286L312.605 118.467L306.583 99.9464L230.586 128.766L236.609 147.286Z" fill="white"/>
<path d="M282.635 99.5354L298.345 93.5779L297.486 90.9351L281.776 96.8926L282.635 99.5354Z" fill="#412525"/>
<path opacity="0.8" d="M282.635 99.5354L298.345 93.5779L297.486 90.9351L281.776 96.8926L282.635 99.5354Z" fill="white"/>
<path d="M295.857 129.458L308.46 124.679L308.011 123.297L295.407 128.077L295.857 129.458Z" fill="#412525"/>
<path opacity="0.8" d="M295.857 129.458L308.46 124.679L308.011 123.297L295.407 128.077L295.857 129.458Z" fill="white"/>
<path d="M293.077 133.482L309.319 127.323L308.869 125.941L292.628 132.101L293.077 133.482Z" fill="#412525"/>
<path opacity="0.8" d="M293.077 133.482L309.319 127.323L308.869 125.941L292.628 132.101L293.077 133.482Z" fill="white"/>
<path d="M243.804 152.168L251.924 149.089L250.958 146.118L242.837 149.197L243.804 152.168Z" fill="#412525"/>
<path opacity="0.8" d="M243.804 152.168L251.924 149.089L250.958 146.118L242.837 149.197L243.804 152.168Z" fill="white"/>
<path d="M294.378 120.669L303.86 117.075C304.36 116.883 304.77 116.485 305 115.969C305.23 115.452 305.261 114.859 305.088 114.317C304.91 113.777 304.542 113.335 304.064 113.087C303.586 112.839 303.036 112.804 302.535 112.991L293.049 116.589C292.549 116.781 292.139 117.179 291.909 117.695C291.679 118.212 291.647 118.805 291.821 119.347C291.999 119.887 292.368 120.329 292.847 120.576C293.326 120.824 293.876 120.858 294.378 120.669Z" fill="#412525"/>
<path d="M278.133 126.829L287.62 123.231C288.116 123.038 288.522 122.643 288.751 122.13C288.98 121.617 289.013 121.027 288.844 120.488C288.666 119.949 288.297 119.508 287.819 119.26C287.341 119.012 286.792 118.978 286.291 119.165L276.808 122.764C276.308 122.956 275.899 123.353 275.669 123.87C275.439 124.386 275.407 124.98 275.58 125.521C275.761 126.058 276.131 126.496 276.608 126.74C277.086 126.985 277.634 127.017 278.133 126.829Z" fill="#412525"/>
<path d="M261.899 132.99L271.385 129.391C271.88 129.197 272.285 128.801 272.513 128.288C272.74 127.775 272.773 127.187 272.603 126.648C272.425 126.109 272.056 125.668 271.578 125.42C271.1 125.172 270.551 125.139 270.05 125.326L260.557 128.909C260.058 129.102 259.649 129.5 259.42 130.016C259.19 130.533 259.159 131.126 259.332 131.667C259.511 132.209 259.881 132.653 260.362 132.901C260.844 133.149 261.396 133.181 261.899 132.99Z" fill="#412525"/>
<path d="M245.648 139.15L255.134 135.551C255.631 135.359 256.038 134.964 256.268 134.451C256.498 133.938 256.532 133.348 256.363 132.808C256.184 132.269 255.816 131.828 255.338 131.58C254.859 131.333 254.31 131.299 253.809 131.486L244.323 135.084C243.823 135.276 243.414 135.674 243.184 136.19C242.954 136.706 242.922 137.3 243.095 137.842C243.276 138.378 243.645 138.816 244.123 139.061C244.601 139.306 245.149 139.337 245.648 139.15Z" fill="#412525"/>
<g opacity="0.8">
<path opacity="0.8" d="M294.378 120.669L303.86 117.075C304.36 116.883 304.77 116.485 305 115.969C305.23 115.452 305.262 114.859 305.089 114.317C304.911 113.777 304.543 113.335 304.064 113.087C303.586 112.839 303.037 112.804 302.535 112.991L293.049 116.589C292.549 116.781 292.14 117.179 291.91 117.695C291.68 118.212 291.648 118.805 291.821 119.347C291.999 119.887 292.368 120.329 292.847 120.576C293.326 120.824 293.876 120.858 294.378 120.669Z" fill="white"/>
<path opacity="0.8" d="M278.134 126.829L287.62 123.231C288.116 123.038 288.522 122.643 288.751 122.13C288.98 121.617 289.014 121.027 288.845 120.488C288.666 119.949 288.298 119.507 287.82 119.26C287.341 119.012 286.792 118.978 286.291 119.165L276.808 122.763C276.308 122.956 275.899 123.353 275.669 123.869C275.439 124.386 275.407 124.979 275.58 125.521C275.761 126.058 276.131 126.495 276.609 126.74C277.086 126.985 277.634 127.017 278.134 126.829Z" fill="white"/>
<path opacity="0.8" d="M261.899 132.99L271.386 129.391C271.88 129.197 272.285 128.801 272.513 128.288C272.74 127.775 272.773 127.187 272.604 126.648C272.425 126.109 272.057 125.668 271.579 125.42C271.1 125.172 270.551 125.139 270.05 125.326L260.557 128.909C260.058 129.102 259.649 129.5 259.42 130.016C259.191 130.533 259.159 131.126 259.332 131.667C259.511 132.209 259.881 132.653 260.363 132.901C260.844 133.149 261.397 133.181 261.899 132.99Z" fill="white"/>
<path opacity="0.8" d="M245.648 139.15L255.134 135.552C255.631 135.359 256.038 134.964 256.268 134.451C256.498 133.938 256.532 133.348 256.363 132.808C256.184 132.269 255.816 131.828 255.338 131.58C254.859 131.333 254.31 131.299 253.809 131.486L244.323 135.084C243.823 135.276 243.414 135.674 243.184 136.19C242.954 136.706 242.922 137.3 243.095 137.842C243.276 138.378 243.645 138.816 244.123 139.061C244.601 139.306 245.149 139.338 245.648 139.15Z" fill="white"/>
</g>
<path d="M293.533 112.428L301.974 109.227C302.691 108.955 303.068 108.107 302.816 107.333L301.057 101.924C300.805 101.15 300.02 100.743 299.303 101.015L290.863 104.216C290.146 104.487 289.769 105.335 290.021 106.11L291.78 111.518C292.031 112.292 292.817 112.7 293.533 112.428Z" fill="#412525"/>
<path opacity="0.3" d="M293.533 112.428L301.974 109.227C302.691 108.955 303.068 108.107 302.816 107.333L301.057 101.924C300.805 101.15 300.02 100.743 299.303 101.015L290.863 104.216C290.146 104.487 289.769 105.335 290.021 106.11L291.78 111.518C292.031 112.292 292.817 112.7 293.533 112.428Z" fill="black"/>
<path d="M243.779 118.028C242.562 118.028 241.388 117.535 240.491 116.645C239.595 115.756 239.04 114.535 238.937 113.225C238.834 111.915 239.19 110.61 239.935 109.57C240.68 108.53 241.76 107.83 242.96 107.609C244.16 107.387 245.394 107.661 246.416 108.375C247.439 109.089 248.176 110.191 248.481 111.464C248.787 112.737 248.639 114.087 248.066 115.248C247.494 116.408 246.539 117.294 245.39 117.731C244.872 117.928 244.328 118.028 243.779 118.028ZM243.779 107.882C243.264 107.883 242.752 107.977 242.266 108.161C241.126 108.594 240.192 109.497 239.669 110.674C239.146 111.85 239.077 113.202 239.477 114.433C239.755 115.283 240.243 116.035 240.889 116.605C241.536 117.176 242.315 117.544 243.141 117.669C243.968 117.794 244.81 117.671 245.577 117.314C246.343 116.956 247.004 116.378 247.486 115.643C247.969 114.908 248.256 114.043 248.314 113.144C248.373 112.245 248.202 111.346 247.819 110.545C247.436 109.744 246.857 109.072 246.145 108.602C245.432 108.132 244.614 107.883 243.779 107.882Z" fill="#412525"/>
<path opacity="0.8" d="M243.779 118.028C242.562 118.028 241.388 117.535 240.491 116.645C239.595 115.756 239.04 114.535 238.937 113.225C238.834 111.915 239.19 110.61 239.935 109.57C240.68 108.53 241.76 107.83 242.96 107.609C244.16 107.387 245.394 107.661 246.416 108.375C247.439 109.089 248.176 110.191 248.481 111.464C248.787 112.737 248.639 114.087 248.066 115.248C247.494 116.408 246.539 117.294 245.39 117.731C244.872 117.928 244.328 118.028 243.779 118.028ZM243.779 107.882C243.264 107.883 242.752 107.977 242.266 108.161C241.126 108.594 240.192 109.497 239.669 110.674C239.146 111.85 239.077 113.202 239.477 114.433C239.755 115.283 240.243 116.035 240.889 116.605C241.536 117.176 242.315 117.544 243.141 117.669C243.968 117.794 244.81 117.671 245.577 117.314C246.343 116.956 247.004 116.378 247.486 115.643C247.969 114.908 248.256 114.043 248.314 113.144C248.373 112.245 248.202 111.346 247.819 110.545C247.436 109.744 246.857 109.072 246.145 108.602C245.432 108.132 244.614 107.883 243.779 107.882Z" fill="white"/>
<path d="M232.398 117.107C232.707 118.053 233.269 118.878 234.012 119.479C234.755 120.079 235.647 120.429 236.574 120.483C237.501 120.537 238.422 120.293 239.221 119.782C240.02 119.271 240.661 118.516 241.062 117.612C241.464 116.708 241.609 115.696 241.478 114.703C241.347 113.711 240.947 112.782 240.328 112.035C239.709 111.288 238.899 110.755 238 110.505C237.101 110.255 236.153 110.298 235.277 110.628C234.693 110.849 234.155 111.191 233.695 111.636C233.234 112.082 232.859 112.621 232.592 113.222C232.324 113.824 232.169 114.477 232.136 115.144C232.103 115.811 232.192 116.478 232.398 117.107Z" fill="#412525"/>
<path opacity="0.8" d="M232.398 117.107C232.707 118.053 233.269 118.878 234.012 119.479C234.755 120.079 235.647 120.429 236.574 120.483C237.501 120.537 238.422 120.293 239.221 119.782C240.02 119.271 240.661 118.516 241.062 117.612C241.464 116.708 241.609 115.696 241.478 114.703C241.347 113.711 240.947 112.782 240.328 112.035C239.709 111.288 238.899 110.755 238 110.505C237.101 110.255 236.153 110.298 235.277 110.628C234.693 110.849 234.155 111.191 233.695 111.636C233.234 112.082 232.859 112.621 232.592 113.222C232.324 113.824 232.169 114.477 232.136 115.144C232.103 115.811 232.192 116.478 232.398 117.107Z" fill="white"/>
<path d="M50.3456 52.695V54H42.7256V43.5H50.1356V44.805H44.2256V48.03H49.4906V49.305H44.2256V52.695H50.3456ZM55.3569 45.975C56.4569 45.975 57.2969 46.245 57.8769 46.785C58.4669 47.325 58.7619 48.13 58.7619 49.2V54H57.3969V52.95C57.1569 53.32 56.8119 53.605 56.3619 53.805C55.9219 53.995 55.3969 54.09 54.7869 54.09C53.8969 54.09 53.1819 53.875 52.6419 53.445C52.1119 53.015 51.8469 52.45 51.8469 51.75C51.8469 51.05 52.1019 50.49 52.6119 50.07C53.1219 49.64 53.9319 49.425 55.0419 49.425H57.3219V49.14C57.3219 48.52 57.1419 48.045 56.7819 47.715C56.4219 47.385 55.8919 47.22 55.1919 47.22C54.7219 47.22 54.2619 47.3 53.8119 47.46C53.3619 47.61 52.9819 47.815 52.6719 48.075L52.0719 46.995C52.4819 46.665 52.9719 46.415 53.5419 46.245C54.1119 46.065 54.7169 45.975 55.3569 45.975ZM55.0269 52.98C55.5769 52.98 56.0519 52.86 56.4519 52.62C56.8519 52.37 57.1419 52.02 57.3219 51.57V50.46H55.1019C53.8819 50.46 53.2719 50.87 53.2719 51.69C53.2719 52.09 53.4269 52.405 53.7369 52.635C54.0469 52.865 54.4769 52.98 55.0269 52.98ZM62.8068 47.385C63.0568 46.925 63.4268 46.575 63.9168 46.335C64.4068 46.095 65.0018 45.975 65.7018 45.975V47.37C65.6218 47.36 65.5118 47.355 65.3718 47.355C64.5918 47.355 63.9768 47.59 63.5268 48.06C63.0868 48.52 62.8668 49.18 62.8668 50.04V54H61.4268V46.05H62.8068V47.385ZM71.7216 45.975C72.7316 45.975 73.5316 46.27 74.1216 46.86C74.7216 47.44 75.0216 48.295 75.0216 49.425V54H73.5816V49.59C73.5816 48.82 73.3966 48.24 73.0266 47.85C72.6566 47.46 72.1266 47.265 71.4366 47.265C70.6566 47.265 70.0416 47.495 69.5916 47.955C69.1416 48.405 68.9166 49.055 68.9166 49.905V54H67.4766V46.05H68.8566V47.25C69.1466 46.84 69.5366 46.525 70.0266 46.305C70.5266 46.085 71.0916 45.975 71.7216 45.975ZM77.6865 46.05H79.1265V54H77.6865V46.05ZM78.4065 44.52C78.1265 44.52 77.8915 44.43 77.7015 44.25C77.5215 44.07 77.4315 43.85 77.4315 43.59C77.4315 43.33 77.5215 43.11 77.7015 42.93C77.8915 42.74 78.1265 42.645 78.4065 42.645C78.6865 42.645 78.9165 42.735 79.0965 42.915C79.2865 43.085 79.3815 43.3 79.3815 43.56C79.3815 43.83 79.2865 44.06 79.0965 44.25C78.9165 44.43 78.6865 44.52 78.4065 44.52ZM86.121 45.975C87.131 45.975 87.931 46.27 88.521 46.86C89.121 47.44 89.421 48.295 89.421 49.425V54H87.981V49.59C87.981 48.82 87.796 48.24 87.426 47.85C87.056 47.46 86.526 47.265 85.836 47.265C85.056 47.265 84.441 47.495 83.991 47.955C83.541 48.405 83.316 49.055 83.316 49.905V54H81.876V46.05H83.256V47.25C83.546 46.84 83.936 46.525 84.426 46.305C84.926 46.085 85.491 45.975 86.121 45.975ZM99.7349 46.05V52.92C99.7349 54.31 99.3899 55.335 98.6999 55.995C98.0099 56.665 96.9799 57 95.6099 57C94.8599 57 94.1449 56.895 93.4649 56.685C92.7849 56.485 92.2349 56.195 91.8149 55.815L92.5049 54.705C92.8749 55.025 93.3299 55.275 93.8699 55.455C94.4199 55.645 94.9849 55.74 95.5649 55.74C96.4949 55.74 97.1799 55.52 97.6199 55.08C98.0699 54.64 98.2949 53.97 98.2949 53.07V52.44C97.9549 52.85 97.5349 53.16 97.0349 53.37C96.5449 53.57 96.0099 53.67 95.4299 53.67C94.6699 53.67 93.9799 53.51 93.3599 53.19C92.7499 52.86 92.2699 52.405 91.9199 51.825C91.5699 51.235 91.3949 50.565 91.3949 49.815C91.3949 49.065 91.5699 48.4 91.9199 47.82C92.2699 47.23 92.7499 46.775 93.3599 46.455C93.9799 46.135 94.6699 45.975 95.4299 45.975C96.0299 45.975 96.5849 46.085 97.0949 46.305C97.6149 46.525 98.0399 46.85 98.3699 47.28V46.05H99.7349ZM95.5949 52.41C96.1149 52.41 96.5799 52.3 96.9899 52.08C97.4099 51.86 97.7349 51.555 97.9649 51.165C98.2049 50.765 98.3249 50.315 98.3249 49.815C98.3249 49.045 98.0699 48.425 97.5599 47.955C97.0499 47.475 96.3949 47.235 95.5949 47.235C94.7849 47.235 94.1249 47.475 93.6149 47.955C93.1049 48.425 92.8499 49.045 92.8499 49.815C92.8499 50.315 92.9649 50.765 93.1949 51.165C93.4349 51.555 93.7599 51.86 94.1699 52.08C94.5899 52.3 95.0649 52.41 95.5949 52.41ZM104.766 54.09C104.116 54.09 103.491 54.005 102.891 53.835C102.291 53.655 101.821 53.43 101.481 53.16L102.081 52.02C102.431 52.27 102.856 52.47 103.356 52.62C103.856 52.77 104.361 52.845 104.871 52.845C106.131 52.845 106.761 52.485 106.761 51.765C106.761 51.525 106.676 51.335 106.506 51.195C106.336 51.055 106.121 50.955 105.861 50.895C105.611 50.825 105.251 50.75 104.781 50.67C104.141 50.57 103.616 50.455 103.206 50.325C102.806 50.195 102.461 49.975 102.171 49.665C101.881 49.355 101.736 48.92 101.736 48.36C101.736 47.64 102.036 47.065 102.636 46.635C103.236 46.195 104.041 45.975 105.051 45.975C105.581 45.975 106.111 46.04 106.641 46.17C107.171 46.3 107.606 46.475 107.946 46.695L107.331 47.835C106.681 47.415 105.916 47.205 105.036 47.205C104.426 47.205 103.961 47.305 103.641 47.505C103.321 47.705 103.161 47.97 103.161 48.3C103.161 48.56 103.251 48.765 103.431 48.915C103.611 49.065 103.831 49.175 104.091 49.245C104.361 49.315 104.736 49.395 105.216 49.485C105.856 49.595 106.371 49.715 106.761 49.845C107.161 49.965 107.501 50.175 107.781 50.475C108.061 50.775 108.201 51.195 108.201 51.735C108.201 52.455 107.891 53.03 107.271 53.46C106.661 53.88 105.826 54.09 104.766 54.09Z" fill="#6C2C00"/>
<rect opacity="0.2" x="43.0027" y="129" width="12.9644" height="16" fill="#FEA401"/>
<rect opacity="0.05" x="73.5615" y="107" width="12.0384" height="15" fill="#FEA401"/>
<rect opacity="0.15" x="147.644" y="115" width="33.337" height="32" fill="#FEA401"/>
<rect x="330.071" y="64" width="1.35193" height="1.45992" fill="#6C2C00"/>
<rect x="330.071" y="71.2996" width="1.35193" height="1.45992" fill="#6C2C00"/>
<rect x="330.071" y="80.0591" width="1.35193" height="1.45992" fill="#6C2C00"/>
<rect x="330.071" y="87.3588" width="1.35193" height="1.45992" fill="#6C2C00"/>
<rect x="330.071" y="96.1183" width="1.35193" height="1.45992" fill="#6C2C00"/>
<rect x="330.071" y="103.418" width="1.35193" height="1.45992" fill="#6C2C00"/>
<rect x="330.071" y="110.718" width="1.35193" height="1.45992" fill="#6C2C00"/>
<rect x="330.071" y="119.477" width="1.35193" height="1.45992" fill="#6C2C00"/>
<rect x="336.831" y="64" width="1.35193" height="1.45992" fill="#6C2C00"/>
<rect x="336.831" y="71.2996" width="1.35193" height="1.45992" fill="#6C2C00"/>
<rect x="336.831" y="80.0591" width="1.35193" height="1.45992" fill="#6C2C00"/>
<rect x="336.831" y="87.3589" width="1.35193" height="1.45992" fill="#6C2C00"/>
<rect x="336.831" y="96.1184" width="1.35193" height="1.45992" fill="#6C2C00"/>
<rect x="336.831" y="103.418" width="1.35193" height="1.45992" fill="#6C2C00"/>
<rect x="336.831" y="110.718" width="1.35193" height="1.45992" fill="#6C2C00"/>
<rect x="336.831" y="119.477" width="1.35193" height="1.45992" fill="#6C2C00"/>
<rect x="344.943" y="64" width="1.35193" height="1.45992" fill="#6C2C00"/>
<rect x="344.943" y="71.2996" width="1.35193" height="1.45992" fill="#6C2C00"/>
<rect x="344.943" y="80.0591" width="1.35193" height="1.45992" fill="#6C2C00"/>
<rect x="344.943" y="87.3589" width="1.35193" height="1.45992" fill="#6C2C00"/>
<rect x="344.943" y="96.1184" width="1.35193" height="1.45992" fill="#6C2C00"/>
<rect x="344.943" y="103.418" width="1.35193" height="1.45992" fill="#6C2C00"/>
<rect x="344.943" y="110.718" width="1.35193" height="1.45992" fill="#6C2C00"/>
<rect x="344.943" y="119.477" width="1.35193" height="1.45992" fill="#6C2C00"/>
<rect x="66.1533" y="153.519" width="1.45992" height="1.35193" transform="rotate(-90 66.1533 153.519)" fill="#6C2C00"/>
<rect x="72.9131" y="153.519" width="1.45992" height="1.35193" transform="rotate(-90 72.9131 153.519)" fill="#6C2C00"/>
<rect x="81.0244" y="153.519" width="1.45992" height="1.35193" transform="rotate(-90 81.0244 153.519)" fill="#6C2C00"/>
<rect x="87.7842" y="153.519" width="1.45992" height="1.35193" transform="rotate(-90 87.7842 153.519)" fill="#6C2C00"/>
<rect x="95.8958" y="153.519" width="1.45992" height="1.35193" transform="rotate(-90 95.8958 153.519)" fill="#6C2C00"/>
<rect x="102.655" y="153.519" width="1.45992" height="1.35193" transform="rotate(-90 102.655 153.519)" fill="#6C2C00"/>
<rect x="109.415" y="153.519" width="1.45992" height="1.35193" transform="rotate(-90 109.415 153.519)" fill="#6C2C00"/>
<rect x="117.527" y="153.519" width="1.45992" height="1.35193" transform="rotate(-90 117.527 153.519)" fill="#6C2C00"/>
<rect x="66.1533" y="146.219" width="1.45992" height="1.35193" transform="rotate(-90 66.1533 146.219)" fill="#6C2C00"/>
<rect x="72.9131" y="146.219" width="1.45992" height="1.35193" transform="rotate(-90 72.9131 146.219)" fill="#6C2C00"/>
<rect x="81.0244" y="146.219" width="1.45992" height="1.35193" transform="rotate(-90 81.0244 146.219)" fill="#6C2C00"/>
<rect x="87.7842" y="146.219" width="1.45992" height="1.35193" transform="rotate(-90 87.7842 146.219)" fill="#6C2C00"/>
<rect x="95.8958" y="146.219" width="1.45992" height="1.35193" transform="rotate(-90 95.8958 146.219)" fill="#6C2C00"/>
<rect x="102.655" y="146.219" width="1.45992" height="1.35193" transform="rotate(-90 102.655 146.219)" fill="#6C2C00"/>
<rect x="109.415" y="146.219" width="1.45992" height="1.35193" transform="rotate(-90 109.415 146.219)" fill="#6C2C00"/>
<rect x="117.527" y="146.219" width="1.45992" height="1.35193" transform="rotate(-90 117.527 146.219)" fill="#6C2C00"/>
<rect x="66.1533" y="137.46" width="1.45992" height="1.35193" transform="rotate(-90 66.1533 137.46)" fill="#6C2C00"/>
<rect x="72.9131" y="137.46" width="1.45992" height="1.35193" transform="rotate(-90 72.9131 137.46)" fill="#6C2C00"/>
<rect x="81.0244" y="137.46" width="1.45992" height="1.35193" transform="rotate(-90 81.0244 137.46)" fill="#6C2C00"/>
<rect x="87.7842" y="137.46" width="1.45992" height="1.35193" transform="rotate(-90 87.7842 137.46)" fill="#6C2C00"/>
<rect x="95.8958" y="137.46" width="1.45992" height="1.35193" transform="rotate(-90 95.8958 137.46)" fill="#6C2C00"/>
<rect x="102.655" y="137.46" width="1.45992" height="1.35193" transform="rotate(-90 102.655 137.46)" fill="#6C2C00"/>
<rect x="109.415" y="137.46" width="1.45992" height="1.35193" transform="rotate(-90 109.415 137.46)" fill="#6C2C00"/>
<rect x="117.527" y="137.46" width="1.45992" height="1.35193" transform="rotate(-90 117.527 137.46)" fill="#6C2C00"/>
<defs>
<filter id="filter0_d_502_2909" x="-22" y="0" width="418" height="229" filterUnits="userSpaceOnUse" color-interpolation-filters="sRGB">
<feFlood flood-opacity="0" result="BackgroundImageFix"/>
<feColorMatrix in="SourceAlpha" type="matrix" values="0 0 0 0 0 0 0 0 0 0 0 0 0 0 0 0 0 0 127 0" result="hardAlpha"/>
<feOffset dy="20"/>
<feGaussianBlur stdDeviation="20"/>
<feColorMatrix type="matrix" values="0 0 0 0 0.00954862 0 0 0 0 0.124514 0 0 0 0 0.173785 0 0 0 0.05 0"/>
<feBlend mode="normal" in2="BackgroundImageFix" result="effect1_dropShadow_502_2909"/>
<feBlend mode="normal" in="SourceGraphic" in2="effect1_dropShadow_502_2909" result="shape"/>
</filter>
</defs>
</svg>
