<svg width="304" height="110" viewBox="0 0 304 110" fill="none" xmlns="http://www.w3.org/2000/svg">
<path d="M264.333 96.6663H127.626V96.7401H264.333V96.6663Z" fill="#E0E0E0"/>
<path d="M245.118 100.522H237.356V100.596H245.118V100.522Z" fill="#E0E0E0"/>
<path d="M235.351 100.558H228.415V100.632H235.351V100.558Z" fill="#E0E0E0"/>
<path d="M203.258 98.8482H193.921V98.922H203.258V98.8482Z" fill="#E0E0E0"/>
<path d="M220.866 101.137H207.89V101.21H220.866V101.137Z" fill="#E0E0E0"/>
<path d="M166.681 98.7627H154.118V98.8365H166.681V98.7627Z" fill="#E0E0E0"/>
<path d="M172.466 98.7627H168.198V98.8365H172.466V98.7627Z" fill="#E0E0E0"/>
<path d="M155.698 100.091H144.704V100.165H155.698V100.091Z" fill="#E0E0E0"/>
<path d="M192.425 83.498H139.632C139.218 83.4972 138.822 83.3193 138.53 83.0032C138.238 82.6871 138.073 82.2587 138.073 81.8121V1.67114C138.077 1.22709 138.243 0.802496 138.535 0.489597C138.826 0.176698 139.221 0.00076069 139.632 0H192.425C192.839 0 193.237 0.177622 193.529 0.49379C193.822 0.809958 193.987 1.23877 193.987 1.6859V81.8121C193.987 82.2592 193.822 82.6881 193.529 83.0042C193.237 83.3204 192.839 83.498 192.425 83.498ZM139.632 0.0590512C139.236 0.0598333 138.857 0.230023 138.578 0.532263C138.299 0.834504 138.142 1.2441 138.142 1.67114V81.8121C138.142 82.2392 138.299 82.6487 138.578 82.951C138.857 83.2532 139.236 83.4234 139.632 83.4242H192.425C192.821 83.4234 193.2 83.2533 193.48 82.9512C193.76 82.649 193.918 82.2394 193.918 81.8121V1.67114C193.918 1.24383 193.76 0.83424 193.48 0.532083C193.2 0.229927 192.821 0.0598316 192.425 0.0590512H139.632Z" fill="#E0E0E0"/>
<path d="M251.568 83.498H198.772C198.358 83.4972 197.961 83.3194 197.669 83.0034C197.376 82.6874 197.211 82.259 197.21 81.8121V1.67114C197.215 1.22682 197.381 0.80223 197.673 0.489412C197.966 0.176594 198.36 0.000752394 198.772 0H251.568C251.979 0.00153665 252.372 0.177817 252.663 0.490633C252.955 0.803449 253.12 1.2276 253.124 1.67114V81.8121C253.124 82.2582 252.96 82.6861 252.668 83.0021C252.377 83.3181 251.981 83.4964 251.568 83.498ZM198.772 0.0590512C198.376 0.0598316 197.997 0.229927 197.717 0.532083C197.437 0.83424 197.28 1.24383 197.279 1.67114V81.8121C197.28 82.2394 197.437 82.649 197.717 82.9512C197.997 83.2533 198.376 83.4234 198.772 83.4242H251.568C251.964 83.4234 252.343 83.2533 252.623 82.9512C252.902 82.649 253.06 82.2394 253.061 81.8121V1.67114C253.06 1.24383 252.902 0.83424 252.623 0.532083C252.343 0.229927 251.964 0.0598316 251.568 0.0590512H198.772Z" fill="#E0E0E0"/>
<path d="M217.405 7.16583H147.137V45.419H217.405V7.16583Z" fill="#E0E0E0"/>
<path d="M218.32 7.16583H148.053V45.419H218.32V7.16583Z" fill="#F0F0F0"/>
<path d="M216.677 43.6209V8.95801L149.699 8.95801V43.6209L216.677 43.6209Z" fill="#F5F5F5"/>
<path d="M154.659 43.6239L172.824 8.961H181.336L163.173 43.6239H154.659Z" fill="white"/>
<path d="M166.03 43.6239L184.196 8.961H192.707L174.544 43.6239H166.03Z" fill="white"/>
<path d="M189.691 43.6239L207.854 8.961H211.359L193.197 43.6239H189.691Z" fill="white"/>
<path d="M194.873 43.6209V8.95801H192.395V43.6209H194.873Z" fill="#E0E0E0"/>
<path d="M172.152 43.6209V8.95801H169.675V43.6209H172.152Z" fill="#E0E0E0"/>
<path d="M195.742 44.7636V7.62653H193.265V44.7636H195.742Z" fill="#F5F5F5"/>
<path d="M173.021 44.7637V7.62653H170.544V44.7637H173.021Z" fill="#F5F5F5"/>
<path d="M216.677 43.6209V8.95801H215.986V43.6209H216.677Z" fill="#E0E0E0"/>
<path d="M234.761 56.7124C234.761 56.7124 229.746 47.3794 236.702 39.9508C236.702 39.9508 238.518 41.2263 238.49 42.9447C238.463 44.6631 236.546 45.0971 236.956 46.532C237.367 47.967 239.179 49.3724 237.993 50.5563C236.806 51.7403 238.181 52.7973 238.102 54.247C238.023 55.6967 234.761 56.7124 234.761 56.7124Z" fill="#E0E0E0"/>
<path d="M235.549 58.2392C235.549 58.2392 237.58 47.675 228.809 42.9922C228.809 42.9922 227.461 44.8228 227.989 46.4438C228.516 48.0647 230.463 47.8256 230.49 49.3255C230.518 50.8254 229.211 52.777 230.685 53.4974C232.158 54.2178 231.158 55.6882 231.658 57.0405C232.158 58.3927 235.549 58.2392 235.549 58.2392Z" fill="#EBEBEB"/>
<path d="M231.083 55.555C231.083 55.555 231.171 59.9602 234.545 59.9602C237.919 59.9602 238.009 55.555 238.009 55.555H231.083Z" fill="#F5F5F5"/>
<path d="M207.671 56.5294C207.671 56.5294 207.786 59.9602 212.223 59.9602C216.661 59.9602 216.778 56.5294 216.778 56.5294H207.671Z" fill="#EBEBEB"/>
<path d="M217.971 57.3798C217.971 57.3798 218.058 59.9603 221.394 59.9603C224.729 59.9603 224.814 57.3798 224.814 57.3798H217.971Z" fill="#EBEBEB"/>
<path d="M210.796 62.1008H203.327V94.4518H210.796V62.1008Z" fill="#EBEBEB"/>
<path d="M241.593 94.4489H204.759V96.6663H241.593V94.4489Z" fill="#EBEBEB"/>
<path d="M210.796 94.4489H243.029V62.0979L210.796 62.0979V94.4489Z" fill="#F5F5F5"/>
<path d="M213.733 76.7012H240.092V65.2276H213.733V76.7012Z" fill="#EBEBEB"/>
<path d="M213.733 90.2652H240.092V78.7916H213.733V90.2652Z" fill="#EBEBEB"/>
<path d="M229.883 66.4856H223.953C223.76 66.4856 223.574 66.4029 223.437 66.2557C223.301 66.1085 223.223 65.9088 223.223 65.7002C223.223 65.4914 223.301 65.2913 223.437 65.1436C223.574 64.996 223.759 64.9126 223.953 64.9119H229.883C230.076 64.9126 230.262 64.996 230.398 65.1436C230.535 65.2913 230.612 65.4914 230.613 65.7002C230.612 65.9088 230.535 66.1085 230.398 66.2557C230.261 66.4029 230.076 66.4856 229.883 66.4856Z" fill="#F5F5F5"/>
<path d="M229.883 80.0494H223.953C223.76 80.0494 223.574 79.9667 223.437 79.8195C223.301 79.6723 223.223 79.4725 223.223 79.264C223.223 79.0551 223.301 78.8551 223.437 78.7074C223.574 78.5597 223.759 78.4764 223.953 78.4756H229.883C230.076 78.4764 230.262 78.5597 230.398 78.7074C230.535 78.8551 230.612 79.0551 230.613 79.264C230.612 79.4725 230.535 79.6723 230.398 79.8195C230.261 79.9667 230.076 80.0494 229.883 80.0494Z" fill="#F5F5F5"/>
<path d="M244.021 59.9603H210.793V62.1009H244.021V59.9603Z" fill="#EBEBEB"/>
<path d="M202.279 62.098H210.793V59.9574H202.279V62.098Z" fill="#E0E0E0"/>
<path d="M242.357 12.551H226.176V32.6815H242.357V12.551Z" fill="#EBEBEB"/>
<path d="M244.194 12.551H226.66V32.6815H244.194V12.551Z" fill="#F5F5F5"/>
<path d="M242.726 31.0932V14.1367L228.128 14.1367V31.0932H242.726Z" fill="white"/>
<path d="M239.188 25.5928V19.6375C239.188 18.8694 238.611 18.2468 237.9 18.2468H232.954C232.243 18.2468 231.666 18.8694 231.666 19.6375V25.5928C231.666 26.3608 232.243 26.9834 232.954 26.9834H237.9C238.611 26.9834 239.188 26.3608 239.188 25.5928Z" fill="#F5F5F5"/>
<path d="M201.199 77.9236H199.321V96.6664H201.199V77.9236Z" fill="#E0E0E0"/>
<path opacity="0.5" d="M201.199 77.9236H200.259V96.6664H201.199V77.9236Z" fill="#F5F5F5"/>
<path d="M192.972 83.1732H191.682C191.823 83.0438 191.937 82.8828 192.015 82.7013C192.092 82.5198 192.133 82.3221 192.133 82.1221H176.841C176.841 82.3223 176.882 82.52 176.961 82.7015C177.039 82.883 177.153 83.044 177.295 83.1732H176.021C175.564 83.1732 175.126 83.3691 174.803 83.718C174.48 84.0668 174.298 84.5399 174.298 85.0333V90.4571C174.298 90.9504 174.48 91.4236 174.803 91.7724C175.126 92.1212 175.564 92.3172 176.021 92.3172H192.972C193.429 92.3172 193.867 92.1212 194.19 91.7724C194.513 91.4236 194.695 90.9504 194.695 90.4571V85.0333C194.695 84.5399 194.513 84.0668 194.19 83.718C193.867 83.3691 193.429 83.1732 192.972 83.1732Z" fill="#F5F5F5"/>
<path d="M178.828 87.1796H168.545C167.905 87.1796 167.386 87.7401 167.386 88.4315V91.0652C167.386 91.7566 167.905 92.3171 168.545 92.3171H178.828C179.469 92.3171 179.988 91.7566 179.988 91.0652V88.4315C179.988 87.7401 179.469 87.1796 178.828 87.1796Z" fill="#EBEBEB"/>
<path d="M179.6 86.0461H167.774C167.56 86.0461 167.386 86.2339 167.386 86.4654V86.9437C167.386 87.1753 167.56 87.363 167.774 87.363H179.6C179.814 87.363 179.988 87.1753 179.988 86.9437V86.4654C179.988 86.2339 179.814 86.0461 179.6 86.0461Z" fill="#E0E0E0"/>
<path d="M181.15 69.5531C181.15 69.5531 181.327 75.7534 188.053 75.7534C194.779 75.7534 194.957 69.5531 194.957 69.5531H181.15Z" fill="#EBEBEB"/>
<path d="M148.709 77.9236H157.098V75.7565H148.709V77.9236Z" fill="#E0E0E0"/>
<path d="M207.709 75.7565H157.101V77.9236H207.709V75.7565Z" fill="#F5F5F5"/>
<path d="M148.709 94.4845H157.098V92.3173H148.709V94.4845Z" fill="#E0E0E0"/>
<path d="M150.591 77.9236H148.712V96.6664H150.591V77.9236Z" fill="#E0E0E0"/>
<path opacity="0.5" d="M150.59 77.9236H149.65V96.6664H150.59V77.9236Z" fill="#F5F5F5"/>
<path d="M158.038 77.9236H156.16V96.6664H158.038V77.9236Z" fill="#F5F5F5"/>
<path d="M157.101 77.9236H156.16V96.6664H157.101V77.9236Z" fill="#E0E0E0"/>
<path d="M207.707 77.9236H205.828V96.6664H207.707V77.9236Z" fill="#F5F5F5"/>
<path d="M206.769 77.9236H205.828V96.6664H206.769V77.9236Z" fill="#E0E0E0"/>
<path d="M207.709 92.3172H157.101V94.4844H207.709V92.3172Z" fill="#F5F5F5"/>
<path d="M170.596 74.478H160.392V75.7564H170.596V74.478Z" fill="#E0E0E0"/>
<path d="M170.596 75.7535H174.252V74.4751H170.596V75.7535Z" fill="#EBEBEB"/>
<path d="M195.98 110C225.258 110 248.992 108.504 248.992 106.658C248.992 104.812 225.258 103.315 195.98 103.315C166.702 103.315 142.968 104.812 142.968 106.658C142.968 108.504 166.702 110 195.98 110Z" fill="#F5F5F5"/>
<path d="M187.195 28.2559C187.214 31.7546 184.893 31.7192 184.939 30.6327C184.985 29.5461 184.411 26.9449 184.939 27.1959C185.467 27.4469 187.186 26.7087 187.195 28.2559Z" fill="#263238"/>
<path d="M185.735 34.592C186.055 34.5654 186.697 34.8872 186.755 35.7996C186.77 36.0646 186.841 36.3224 186.964 36.5524C187.087 36.7825 187.258 36.9785 187.463 37.1252C187.463 37.1252 186.399 37.264 185.702 36.6676C185.133 36.1863 184.882 35.1323 185.18 34.8961C185.343 34.7539 185.532 34.6503 185.735 34.592Z" fill="#263238"/>
<path d="M185.316 32.1058C185.863 32.6284 186.363 34.0102 185.13 34.6657C183.897 35.3212 181.959 33.7947 181.959 33.7947L184.089 32.7288L185.316 32.1058Z" fill="#263238"/>
<path d="M185.924 34.7188C185.894 34.5275 185.844 34.3404 185.776 34.1608C185.77 34.1437 185.761 34.1283 185.749 34.1156C185.736 34.103 185.722 34.0935 185.706 34.0878C185.69 34.0821 185.673 34.0804 185.656 34.0829C185.639 34.0853 185.623 34.0917 185.609 34.1017L184.852 34.648C184.837 34.6591 184.824 34.674 184.816 34.6915C184.807 34.709 184.802 34.7285 184.802 34.7484C184.802 34.7682 184.807 34.7877 184.816 34.8052C184.824 34.8227 184.837 34.8377 184.852 34.8487C184.961 34.9351 185.078 35.0083 185.202 35.0672C185.38 35.144 185.749 34.9255 185.874 34.831C185.892 34.8194 185.905 34.8026 185.914 34.7827C185.923 34.7628 185.926 34.7407 185.924 34.7188Z" fill="#412525"/>
<path opacity="0.3" d="M185.924 34.7188C185.894 34.5275 185.844 34.3404 185.776 34.1608C185.77 34.1437 185.761 34.1283 185.749 34.1156C185.736 34.103 185.722 34.0935 185.706 34.0878C185.69 34.0821 185.673 34.0804 185.656 34.0829C185.639 34.0853 185.623 34.0917 185.609 34.1017L184.852 34.648C184.837 34.6591 184.824 34.674 184.816 34.6915C184.807 34.709 184.802 34.7285 184.802 34.7484C184.802 34.7682 184.807 34.7877 184.816 34.8052C184.824 34.8227 184.837 34.8377 184.852 34.8487C184.961 34.9351 185.078 35.0083 185.202 35.0672C185.38 35.144 185.749 34.9255 185.874 34.831C185.892 34.8194 185.905 34.8026 185.914 34.7827C185.923 34.7628 185.926 34.7407 185.924 34.7188Z" fill="black"/>
<path d="M177.773 33.2692C177.469 33.16 176.775 33.3076 176.518 34.1815C176.445 34.4351 176.319 34.667 176.149 34.8591C175.979 35.0512 175.77 35.1982 175.539 35.2888C175.539 35.2888 176.543 35.6962 177.352 35.2888C178.008 34.9669 178.473 34.0044 178.246 33.6973C178.119 33.5194 177.957 33.3733 177.773 33.2692Z" fill="#263238"/>
<path d="M180.786 27.2607C179.679 27.5855 178.189 29.0027 178.85 30.7417C178.197 31.223 177.36 32.6077 178.339 33.4935C179.392 34.4472 181.981 33.1097 181.981 33.1097L182 32.655L182.309 29.2714L180.786 27.2607Z" fill="#263238"/>
<path d="M177.562 33.3461C177.636 33.1673 177.727 32.998 177.836 32.8412C177.846 32.827 177.86 32.8155 177.875 32.8077C177.891 32.7998 177.908 32.7957 177.925 32.7957C177.942 32.7957 177.958 32.7998 177.974 32.8077C177.989 32.8155 178.003 32.827 178.013 32.8412L178.626 33.5645C178.638 33.5793 178.647 33.597 178.652 33.6162C178.656 33.6354 178.657 33.6556 178.653 33.6749C178.649 33.6943 178.641 33.7124 178.629 33.7276C178.617 33.7428 178.602 33.7547 178.585 33.7624C178.461 33.8171 178.331 33.8577 178.199 33.8834C178.008 33.9129 177.713 33.6088 177.598 33.4848C177.579 33.4686 177.566 33.4465 177.559 33.4216C177.553 33.3967 177.554 33.3703 177.562 33.3461Z" fill="#412525"/>
<path opacity="0.3" d="M177.562 33.3461C177.636 33.1673 177.727 32.998 177.836 32.8412C177.846 32.827 177.86 32.8155 177.875 32.8077C177.891 32.7998 177.908 32.7957 177.925 32.7957C177.942 32.7957 177.958 32.7998 177.974 32.8077C177.989 32.8155 178.003 32.827 178.013 32.8412L178.626 33.5645C178.638 33.5793 178.647 33.597 178.652 33.6162C178.656 33.6354 178.657 33.6556 178.653 33.6749C178.649 33.6943 178.641 33.7124 178.629 33.7276C178.617 33.7428 178.602 33.7547 178.585 33.7624C178.461 33.8171 178.331 33.8577 178.199 33.8834C178.008 33.9129 177.713 33.6088 177.598 33.4848C177.579 33.4686 177.566 33.4465 177.559 33.4216C177.553 33.3967 177.554 33.3703 177.562 33.3461Z" fill="black"/>
<path d="M187.525 39.5846C188.048 40.0216 188.619 40.4881 189.193 40.9132C189.767 41.3384 190.344 41.7665 190.938 42.1592C191.531 42.5519 192.133 42.918 192.739 43.2664L193.196 43.5174L193.661 43.7506C193.814 43.8304 193.97 43.9012 194.128 43.9662L194.361 44.0695C194.44 44.102 194.525 44.1433 194.574 44.1581C194.86 44.2526 195.153 44.3208 195.449 44.3618C195.772 44.412 196.111 44.4474 196.455 44.474C197.141 44.5213 197.847 44.5419 198.555 44.5449C199.263 44.5478 199.979 44.5449 200.693 44.5212C201.407 44.4976 202.129 44.4799 202.839 44.4563L202.973 45.6166C201.537 45.9294 200.087 46.161 198.629 46.3105C197.893 46.3814 197.155 46.4345 196.401 46.4404C196.023 46.4404 195.64 46.4404 195.247 46.402C194.823 46.3751 194.404 46.3009 193.994 46.1806C193.869 46.1452 193.789 46.1097 193.696 46.0772L193.423 45.9739C193.24 45.9089 193.059 45.8381 192.876 45.7584L192.346 45.5281L191.826 45.2801C191.14 44.9457 190.471 44.5711 189.822 44.1581C189.177 43.7477 188.543 43.3225 187.93 42.8678C187.318 42.4131 186.727 41.9437 186.126 41.3916L187.525 39.5846Z" fill="#E4897B"/>
<path d="M184.688 38.2592C185.369 37.6864 188.171 39.5612 189.024 40.3437L188.403 44.3975C188.403 44.3975 184.371 42.5728 184.127 41.3269C183.876 40.0248 184.174 38.6962 184.688 38.2592Z" fill="#263238"/>
<path d="M202.541 44.5569L204.231 43.1426L204.365 45.3305C204.365 45.3305 203.2 46.1099 202.432 45.6257L202.541 44.5569Z" fill="#E4897B"/>
<path d="M205.738 42.927L206.602 43.9663L204.354 45.3304L204.22 43.1425L205.738 42.927Z" fill="#E4897B"/>
<path d="M173.636 103.773L175.766 103.944L176.543 98.6505L174.416 98.4792L173.636 103.773Z" fill="#E4897B"/>
<path d="M158.568 96.3739L160.376 97.6021L163.594 93.4804L161.786 92.2491L158.568 96.3739Z" fill="#E4897B"/>
<path d="M160.947 97.1623L159.255 95.3228C159.226 95.2908 159.187 95.2713 159.146 95.2681C159.104 95.2648 159.064 95.278 159.031 95.3051L157.491 96.5481C157.454 96.5809 157.423 96.6218 157.401 96.6683C157.379 96.7147 157.366 96.7656 157.364 96.8176C157.361 96.8697 157.369 96.9217 157.386 96.9704C157.403 97.0191 157.43 97.0634 157.464 97.1003C158.063 97.7292 158.383 98.0008 159.126 98.8098C159.583 99.3088 160.204 100.085 160.835 100.773C161.467 101.461 162.128 100.82 161.929 100.478C161.005 98.922 161.171 98.3403 161.109 97.5491C161.099 97.4035 161.042 97.2663 160.947 97.1623Z" fill="#263238"/>
<path d="M175.908 103.614H173.508C173.466 103.614 173.425 103.63 173.392 103.659C173.36 103.688 173.338 103.728 173.33 103.773L172.95 105.822C172.941 105.874 172.944 105.928 172.957 105.978C172.97 106.029 172.993 106.076 173.026 106.116C173.058 106.155 173.099 106.186 173.144 106.207C173.189 106.227 173.238 106.236 173.286 106.233C174.123 106.218 174.53 106.165 175.586 106.165C176.234 106.165 178.047 106.236 178.952 106.236C179.857 106.236 179.947 105.279 179.578 105.193C177.923 104.804 176.808 104.269 176.269 103.755C176.17 103.661 176.041 103.61 175.908 103.614Z" fill="#263238"/>
<path d="M176.542 98.6503L176.11 101.591L174.011 101.21L174.413 98.482L176.542 98.6503Z" fill="#CE6F64"/>
<path d="M161.786 92.2523L163.593 93.4806L162.262 95.1872L160.414 94.0091L161.786 92.2523Z" fill="#CE6F64"/>
<path d="M175.255 50.5269L183.769 52.3191C188.168 39.4548 187.211 39.0326 187.211 39.0326C186.593 38.6655 185.953 38.3401 185.297 38.0583L185.183 38.011C184.636 37.7955 184.526 37.763 183.799 37.5327C182.547 37.2109 181.379 36.9422 179.933 36.7208L179.66 36.6794C179.386 36.644 179.137 36.6145 178.886 36.5879C178.716 36.5672 178.547 36.5554 178.385 36.5436L177.839 36.5112C176.904 36.461 176.234 36.4757 176.234 36.4757C176.493 44.5096 176.072 46.8155 175.255 50.5269Z" fill="#263238"/>
<path d="M181.163 32.1058C181.163 33.4994 180.964 36.0121 179.93 36.7266C179.93 36.7266 180.026 38.1615 182.336 38.6457C184.879 39.1801 183.796 37.5385 183.796 37.5385C182.476 36.889 182.703 35.7847 183.14 34.7926L181.163 32.1058Z" fill="#E4897B"/>
<path d="M181.97 33.2015L183.14 34.793C183.038 35.023 182.954 35.262 182.889 35.5075C182.372 35.3126 181.757 34.5331 181.795 33.922C181.812 33.6724 181.872 33.4283 181.97 33.2015Z" fill="#CE6F64"/>
<path d="M181.04 28.9055C180.767 31.176 180.6 32.1297 181.442 33.5026C182.708 35.5694 185.349 35.4365 186.249 33.3018C187.069 31.3797 187.375 27.9872 185.502 26.6733C185.091 26.3801 184.617 26.2052 184.126 26.1654C183.635 26.1255 183.142 26.222 182.695 26.4457C182.248 26.6694 181.861 27.0128 181.571 27.4433C181.282 27.8738 181.099 28.3771 181.04 28.9055Z" fill="#E4897B"/>
<path d="M187.884 25.3092C187.922 25.6692 187.897 26.0338 187.81 26.3839C187.79 26.2652 187.764 26.1478 187.731 26.0325C186.982 23.3575 183.608 23.9953 182.591 25.1468C180.95 24.6389 179.389 25.0434 179.597 27.2136C179.623 27.7727 179.809 28.3092 180.13 28.7489C179.876 29.5106 180.13 30.7241 180.969 30.7596C182.15 30.8098 183.271 29.1209 183.723 28.1938C184.543 28.3444 185.724 28.4891 186.621 28.2529C186.771 28.3503 186.894 28.4182 186.894 28.4182C187.848 27.8661 188.576 27.3317 187.884 25.3092Z" fill="#263238"/>
<path d="M180.313 30.4554C180.28 30.896 180.408 31.3331 180.671 31.6719C181.027 32.1177 181.491 31.8549 181.658 31.3264C181.798 30.8481 181.779 30.042 181.303 29.7911C181.198 29.7379 181.083 29.7138 180.967 29.7211C180.851 29.7284 180.739 29.7668 180.641 29.8329C180.542 29.8989 180.461 29.9904 180.404 30.0992C180.346 30.2079 180.315 30.3304 180.313 30.4554Z" fill="#E4897B"/>
<path d="M183.641 52.3192C183.641 52.3192 183.673 70.5719 182.29 77.4454C180.852 84.5965 176.622 100.865 176.622 100.865L173.56 100.437C173.56 100.437 175.958 84.003 176.977 76.8962C178.09 69.1517 177.409 51.0083 177.409 51.0083L183.641 52.3192Z" fill="#412525"/>
<path opacity="0.3" d="M183.641 52.3192C183.641 52.3192 183.673 70.5719 182.29 77.4454C180.852 84.5965 176.622 100.865 176.622 100.865L173.56 100.437C173.56 100.437 175.958 84.003 176.977 76.8962C178.09 69.1517 177.409 51.0083 177.409 51.0083L183.641 52.3192Z" fill="black"/>
<path d="M177.144 101.151L173.035 100.578L173.21 99.0076L177.874 99.5981L177.144 101.151Z" fill="#263238"/>
<path d="M181.522 51.8466C181.522 51.8466 176.937 66.9312 174.659 75.6205C172.258 84.7882 163.055 94.9272 163.055 94.9272L160.417 93.2797C160.417 93.2797 166.705 83.6544 169.016 75.1009C173.721 57.737 171.788 54.0581 175.255 50.5269L181.522 51.8466Z" fill="#412525"/>
<path opacity="0.3" d="M181.522 51.8466C181.522 51.8466 176.937 66.9312 174.659 75.6205C172.258 84.7882 163.055 94.9272 163.055 94.9272L160.417 93.2797C160.417 93.2797 166.705 83.6544 169.016 75.1009C173.721 57.737 171.788 54.0581 175.255 50.5269L181.522 51.8466Z" fill="black"/>
<path d="M163.484 95.3848L159.818 93.0995L160.731 91.6882L164.802 94.1122L163.484 95.3848Z" fill="#263238"/>
<path d="M184.075 30.1957C184.042 30.3788 184.105 30.5441 184.217 30.5678C184.329 30.5914 184.444 30.4615 184.491 30.2725C184.537 30.0835 184.461 29.9211 184.349 29.8975C184.237 29.8739 184.108 30.0127 184.075 30.1957Z" fill="#263238"/>
<path d="M185.986 30.5974C185.953 30.7805 186.016 30.9488 186.128 30.9724C186.241 30.996 186.355 30.8661 186.388 30.6771C186.421 30.4882 186.358 30.3258 186.246 30.3051C186.134 30.2845 186.019 30.4114 185.986 30.5974Z" fill="#263238"/>
<path d="M186.197 30.3079L186.626 30.2695C186.626 30.2695 186.355 30.5677 186.197 30.3079Z" fill="#263238"/>
<path d="M185.426 30.8066C185.501 31.2542 185.634 31.6884 185.82 32.0968C185.722 32.1464 185.615 32.1721 185.507 32.1721C185.398 32.1721 185.292 32.1464 185.194 32.0968L185.426 30.8066Z" fill="#DE5753"/>
<path d="M184.477 32.6875C184.249 32.6471 184.033 32.5476 183.847 32.3975C183.662 32.2473 183.513 32.051 183.414 31.8253C183.411 31.8188 183.409 31.8117 183.409 31.8045C183.409 31.7973 183.411 31.7902 183.413 31.7836C183.416 31.777 183.42 31.771 183.424 31.766C183.429 31.761 183.435 31.7571 183.441 31.7545C183.453 31.7495 183.467 31.7497 183.479 31.7552C183.491 31.7607 183.501 31.771 183.507 31.784C183.602 31.9914 183.741 32.1717 183.913 32.3101C184.085 32.4486 184.285 32.5415 184.496 32.5812C184.503 32.5823 184.509 32.5847 184.515 32.5885C184.52 32.5922 184.525 32.5971 184.529 32.6028C184.533 32.6086 184.535 32.6152 184.537 32.6221C184.538 32.629 184.538 32.6362 184.537 32.6432C184.535 32.6576 184.527 32.6703 184.516 32.6786C184.504 32.6869 184.491 32.6901 184.477 32.6875Z" fill="#263238"/>
<path d="M183.64 29.4103C183.62 29.4101 183.6 29.4034 183.584 29.391C183.567 29.3786 183.554 29.3612 183.547 29.3408C183.539 29.3205 183.538 29.2982 183.542 29.2769C183.547 29.2556 183.557 29.2363 183.572 29.2213C183.689 29.1026 183.831 29.0158 183.985 28.9681C184.14 28.9203 184.303 28.913 184.461 28.9468C184.486 28.955 184.508 28.9738 184.521 28.9991C184.535 29.0245 184.538 29.0544 184.532 29.0826C184.525 29.1103 184.508 29.1338 184.485 29.1482C184.462 29.1626 184.434 29.1666 184.409 29.1593C184.283 29.1354 184.155 29.1432 184.033 29.1821C183.911 29.221 183.799 29.2901 183.706 29.3837C183.688 29.401 183.664 29.4104 183.64 29.4103Z" fill="#263238"/>
<path d="M187.047 29.8206C187.027 29.8208 187.008 29.8145 186.991 29.8023C186.974 29.7902 186.962 29.7729 186.954 29.7527C186.908 29.6248 186.834 29.5104 186.739 29.4187C186.644 29.327 186.53 29.2604 186.408 29.2242C186.394 29.2217 186.382 29.2164 186.371 29.2087C186.359 29.2009 186.35 29.1909 186.342 29.1791C186.335 29.1673 186.329 29.154 186.326 29.1399C186.323 29.1259 186.323 29.1114 186.326 29.0972C186.331 29.0693 186.347 29.0448 186.369 29.0284C186.39 29.012 186.417 29.005 186.443 29.0086C186.599 29.0507 186.743 29.1324 186.864 29.2469C186.985 29.3615 187.079 29.5055 187.138 29.667C187.143 29.6804 187.146 29.6948 187.146 29.7093C187.146 29.7239 187.144 29.7383 187.138 29.7518C187.133 29.7653 187.126 29.7775 187.116 29.7878C187.107 29.7981 187.095 29.8062 187.083 29.8117L187.047 29.8206Z" fill="#263238"/>
<path d="M184.305 31.8134C184.22 31.8138 184.136 31.7929 184.061 31.7524C183.985 31.7119 183.918 31.653 183.867 31.5802C183.739 31.3636 183.653 31.1207 183.615 30.8667C183.578 30.6127 183.589 30.353 183.649 30.1039C183.804 29.1709 184.346 28.4121 184.857 28.4121C184.942 28.4132 185.026 28.435 185.102 28.4759C185.178 28.5168 185.245 28.5757 185.297 28.6483C185.425 28.8651 185.511 29.108 185.548 29.3619C185.586 29.6159 185.575 29.8755 185.516 30.1246C185.36 31.0576 184.816 31.8134 184.305 31.8134ZM184.852 28.4948C184.373 28.4948 183.859 29.227 183.709 30.1246C183.613 30.7151 183.69 31.2466 183.914 31.533C183.959 31.5967 184.018 31.6484 184.084 31.6842C184.151 31.72 184.225 31.739 184.299 31.7396C184.78 31.7396 185.292 31.0104 185.442 30.1128H185.475H185.442C185.5 29.8755 185.512 29.6278 185.477 29.3853C185.441 29.1429 185.36 28.911 185.237 28.7044C185.192 28.6411 185.135 28.5894 185.069 28.5531C185.003 28.5168 184.931 28.4969 184.857 28.4948H184.852Z" fill="#FAFAFA"/>
<path d="M186.429 32.1088C186.341 32.1068 186.254 32.0835 186.175 32.0406C186.096 31.9977 186.027 31.9362 185.973 31.8608C185.85 31.662 185.767 31.4378 185.729 31.2024C185.691 30.9671 185.698 30.7257 185.751 30.4937C185.891 29.6257 186.416 28.923 186.921 28.923C187.01 28.9253 187.097 28.9491 187.176 28.9925C187.255 29.0359 187.324 29.0979 187.378 29.1739C187.5 29.3726 187.583 29.5963 187.621 29.831C187.659 30.0657 187.652 30.3064 187.599 30.538C187.463 31.409 186.938 32.1088 186.429 32.1088ZM186.913 28.9968C186.437 28.9968 185.945 29.6729 185.82 30.5085C185.77 30.7299 185.763 30.9597 185.799 31.1841C185.835 31.4084 185.912 31.6226 186.027 31.8135C186.075 31.8804 186.137 31.935 186.207 31.9733C186.277 32.0116 186.354 32.0327 186.432 32.035C186.908 32.035 187.403 31.3618 187.526 30.5262C187.575 30.305 187.582 30.0753 187.546 29.8511C187.511 29.6268 187.434 29.4126 187.321 29.2212C187.273 29.1537 187.212 29.0986 187.142 29.0598C187.072 29.021 186.995 28.9994 186.916 28.9968H186.913Z" fill="#FAFAFA"/>
<path d="M161.576 98.234C161.303 98.234 161.016 97.7793 160.868 97.5165C160.863 97.5078 160.86 97.4975 160.86 97.487C160.86 97.4765 160.863 97.4662 160.868 97.4575C160.874 97.4491 160.882 97.4425 160.891 97.4383C160.9 97.4342 160.91 97.4327 160.92 97.4339C161.007 97.4545 161.759 97.6317 161.855 97.9092C161.866 97.9398 161.869 97.973 161.863 98.0053C161.858 98.0375 161.845 98.0676 161.825 98.0923C161.798 98.1368 161.761 98.1731 161.717 98.1979C161.674 98.2227 161.625 98.2351 161.576 98.234ZM161.005 97.5697C161.215 97.9122 161.42 98.1159 161.568 98.1248C161.601 98.1251 161.633 98.1163 161.662 98.0992C161.69 98.0821 161.715 98.0574 161.732 98.0273C161.741 98.0169 161.747 98.0039 161.75 97.9897C161.752 97.9755 161.751 97.9609 161.746 97.9476C161.696 97.8 161.305 97.6524 161.005 97.5697Z" fill="#412525"/>
<path d="M161.128 97.5698C161.045 97.5712 160.962 97.5613 160.882 97.5403C160.873 97.5372 160.866 97.5322 160.86 97.5255C160.853 97.5189 160.849 97.5108 160.846 97.5019C160.84 97.4849 160.84 97.4658 160.846 97.4488C160.865 97.4311 161.283 96.9852 161.592 96.9852H161.614C161.653 96.988 161.69 96.9994 161.724 97.0187C161.758 97.038 161.787 97.0649 161.811 97.0974C161.839 97.1289 161.856 97.1696 161.86 97.2129C161.864 97.2563 161.855 97.2998 161.833 97.3366C161.746 97.496 161.396 97.5698 161.128 97.5698ZM161.005 97.4547C161.262 97.4872 161.677 97.4074 161.762 97.2746C161.776 97.2539 161.787 97.2214 161.746 97.1653C161.731 97.1436 161.712 97.1259 161.691 97.1135C161.669 97.1012 161.644 97.0947 161.62 97.0945C161.385 97.1431 161.17 97.2689 161.005 97.4547Z" fill="#412525"/>
<path d="M176.693 104.018C176.467 104.011 176.242 103.982 176.02 103.93C176.01 103.927 176 103.921 175.993 103.913C175.986 103.904 175.981 103.894 175.979 103.882C175.978 103.871 175.98 103.86 175.985 103.85C175.99 103.84 175.997 103.831 176.007 103.826C176.108 103.773 176.986 103.301 177.24 103.46C177.263 103.476 177.282 103.498 177.295 103.523C177.309 103.549 177.316 103.578 177.316 103.608C177.319 103.658 177.311 103.707 177.293 103.753C177.274 103.799 177.246 103.839 177.21 103.87C177.058 103.981 176.876 104.033 176.693 104.018ZM176.193 103.859C176.66 103.941 177.013 103.921 177.15 103.794C177.173 103.772 177.191 103.745 177.203 103.714C177.215 103.683 177.22 103.65 177.218 103.617C177.218 103.605 177.216 103.594 177.211 103.584C177.207 103.575 177.199 103.566 177.191 103.56C177.054 103.475 176.567 103.676 176.193 103.859Z" fill="#412525"/>
<path d="M176.034 103.929C176.024 103.932 176.014 103.932 176.004 103.929C175.996 103.924 175.989 103.916 175.986 103.906C175.982 103.897 175.98 103.887 175.982 103.876C175.982 103.835 176.113 102.896 176.589 102.896H176.63C176.767 102.911 176.805 102.985 176.813 103.047C176.851 103.306 176.321 103.808 176.053 103.932L176.034 103.929ZM176.581 102.996C176.272 102.996 176.135 103.54 176.089 103.776C176.362 103.602 176.726 103.209 176.704 103.053C176.704 103.053 176.704 103.005 176.608 102.996H176.581Z" fill="#412525"/>
<path d="M184.286 29.9062L184.715 29.8649C184.715 29.8649 184.444 30.166 184.286 29.9062Z" fill="#263238"/>
<path d="M182.407 40.6091C178.853 39.1535 177.743 36.9746 177.828 36.5169L178.375 36.5523H178.467C178.599 36.5523 178.741 36.573 178.875 36.5907C179.126 36.6143 179.386 36.6439 179.649 36.6823L179.922 36.7236C181.227 36.8942 182.519 37.1656 183.788 37.5355C184.368 37.7186 184.559 37.7776 184.882 37.9017L185.169 38.0138L185.284 38.0611C185.568 38.7225 185.505 40.0747 182.407 40.6091Z" fill="#E4897B"/>
<path d="M182.407 40.6091C178.853 39.1535 177.743 36.9746 177.828 36.5169L178.375 36.5523H178.467C179.189 37.6595 180.77 39.189 182.38 39.3986C183.676 39.1033 184.898 38.7667 184.887 37.9017L185.174 38.0138L185.289 38.0611C185.568 38.7225 185.505 40.0747 182.407 40.6091Z" fill="#412525"/>
<path opacity="0.3" d="M182.407 40.6091C178.853 39.1535 177.743 36.9746 177.828 36.5169L178.375 36.5523H178.467C179.189 37.6595 180.77 39.189 182.38 39.3986C183.676 39.1033 184.898 38.7667 184.887 37.9017L185.174 38.0138L185.289 38.0611C185.568 38.7225 185.505 40.0747 182.407 40.6091Z" fill="black"/>
<path d="M175.225 49.96L174.678 50.7041C174.637 50.7602 174.697 50.8399 174.796 50.8605L183.725 52.7384C183.802 52.7561 183.873 52.7384 183.887 52.6764L184.111 51.8703C184.127 51.8142 184.07 51.7522 183.985 51.7345L175.362 49.9216C175.338 49.9162 175.313 49.9168 175.289 49.9235C175.265 49.9301 175.243 49.9426 175.225 49.96Z" fill="#263238"/>
<path d="M176.195 51.2443L175.966 51.197C175.919 51.197 175.889 51.1557 175.897 51.1232L176.198 50.078C176.198 50.0455 176.253 50.0308 176.297 50.0396L176.529 50.0869C176.575 50.0869 176.605 50.1312 176.597 50.1607L176.297 51.2089C176.286 51.2259 176.27 51.2387 176.252 51.2451C176.233 51.2515 176.213 51.2512 176.195 51.2443Z" fill="#412525"/>
<path opacity="0.3" d="M176.195 51.2443L175.966 51.197C175.919 51.197 175.889 51.1557 175.897 51.1232L176.198 50.078C176.198 50.0455 176.253 50.0308 176.297 50.0396L176.529 50.0869C176.575 50.0869 176.605 50.1312 176.597 50.1607L176.297 51.2089C176.286 51.2259 176.27 51.2387 176.252 51.2451C176.233 51.2515 176.213 51.2512 176.195 51.2443Z" fill="black"/>
<path d="M176.802 40.0395C176.699 40.7392 176.6 41.5157 176.529 42.2421C176.458 42.9684 176.395 43.7183 176.362 44.4742C176.344 44.8462 176.333 45.2182 176.329 45.5902C176.329 45.9593 176.329 46.3284 176.329 46.6974C176.343 47.4205 176.395 48.1421 176.485 48.8587C176.537 49.1041 176.63 49.3372 176.759 49.5467C176.922 49.8342 177.105 50.1085 177.306 50.3675C177.743 50.9273 178.21 51.4587 178.705 51.9589C179.206 52.4785 179.731 52.9805 180.269 53.4706C180.808 53.9607 181.363 54.4479 181.91 54.9173L181.322 55.8976C180.035 55.136 178.805 54.2683 177.642 53.3023C177.041 52.8056 176.475 52.2629 175.947 51.6784C175.665 51.3649 175.406 51.0283 175.173 50.6716C174.884 50.2497 174.678 49.7684 174.569 49.2573L174.468 48.6314C174.432 48.4276 174.407 48.2239 174.386 48.0231C174.331 47.6157 174.301 47.2112 174.271 46.8067C174.214 46.0022 174.196 45.195 174.219 44.3886C174.241 43.5884 174.282 42.7912 174.355 41.997C174.429 41.2028 174.522 40.4233 174.67 39.6025L176.802 40.0395Z" fill="#E4897B"/>
<path d="M174.987 37.0928C173.817 38.1144 174.096 41.1496 174.096 41.1496L178.033 42.5491C178.033 42.5491 177.853 39.0503 177.661 37.7925C177.426 36.2956 176.135 36.086 174.987 37.0928Z" fill="#263238"/>
<path d="M181.428 54.7282L183.208 54.0137L182.935 55.8414C182.935 55.8414 181.644 56.3433 180.983 55.6996L181.428 54.7282Z" fill="#E4897B"/>
<path d="M185.327 54.2854V55.6967L182.935 55.8414L183.208 54.0137L185.327 54.2854Z" fill="#E4897B"/>
<path d="M183.072 52.6911L182.842 52.6439C182.795 52.6439 182.765 52.6025 182.774 52.5701L183.074 51.5249C183.074 51.4924 183.129 51.4776 183.175 51.4865L183.405 51.5337C183.452 51.5337 183.482 51.578 183.474 51.6075L183.173 52.6557C183.165 52.6852 183.129 52.7029 183.072 52.6911Z" fill="#412525"/>
<path opacity="0.3" d="M183.072 52.6911L182.842 52.6439C182.795 52.6439 182.765 52.6025 182.774 52.5701L183.074 51.5249C183.074 51.4924 183.129 51.4776 183.175 51.4865L183.405 51.5337C183.452 51.5337 183.482 51.578 183.474 51.6075L183.173 52.6557C183.165 52.6852 183.129 52.7029 183.072 52.6911Z" fill="black"/>
<path d="M179.635 51.9646L179.403 51.9174C179.356 51.9174 179.326 51.876 179.337 51.8436L179.638 50.7984C179.638 50.7659 179.69 50.7511 179.736 50.76L179.969 50.8072C180.012 50.8072 180.045 50.8515 180.034 50.881L179.734 51.9292C179.725 51.9646 179.682 51.9794 179.635 51.9646Z" fill="#412525"/>
<path opacity="0.3" d="M179.635 51.9646L179.403 51.9174C179.356 51.9174 179.326 51.876 179.337 51.8436L179.638 50.7984C179.638 50.7659 179.69 50.7511 179.736 50.76L179.969 50.8072C180.012 50.8072 180.045 50.8515 180.034 50.881L179.734 51.9292C179.725 51.9646 179.682 51.9794 179.635 51.9646Z" fill="black"/>
<path d="M162.221 69.1811L176.395 102.61C176.72 103.37 177.31 103.96 178.036 104.251C178.763 104.543 179.566 104.512 180.272 104.166L182.522 103.056L234.627 77.2947C235.33 76.9449 235.877 76.3085 236.148 75.5245C236.418 74.7405 236.391 73.8727 236.07 73.1109L223.545 43.5854L221.905 39.6851C221.579 38.9259 220.989 38.3364 220.263 38.045C219.537 37.7535 218.733 37.7838 218.028 38.1291L163.67 64.9973C162.966 65.3472 162.419 65.9832 162.148 66.7669C161.876 67.5506 161.903 68.4183 162.221 69.1811Z" fill="#412525"/>
<path opacity="0.1" d="M162.221 69.1811L176.395 102.61C176.72 103.37 177.31 103.96 178.036 104.251C178.763 104.543 179.566 104.512 180.272 104.166L182.522 103.056L234.627 77.2947C235.33 76.9449 235.877 76.3085 236.148 75.5245C236.418 74.7405 236.391 73.8727 236.07 73.1109L223.545 43.5854L221.905 39.6851C221.579 38.9259 220.989 38.3364 220.263 38.045C219.537 37.7535 218.733 37.7838 218.028 38.1291L163.67 64.9973C162.966 65.3472 162.419 65.9832 162.148 66.7669C161.876 67.5506 161.903 68.4183 162.221 69.1811Z" fill="white"/>
<path d="M174.958 99.2203L234.631 69.7172L227.647 53.2447L167.974 82.7478L174.958 99.2203Z" fill="#412525"/>
<path opacity="0.3" d="M174.958 99.2203L234.631 69.7172L227.647 53.2447L167.974 82.7478L174.958 99.2203Z" fill="white"/>
<path d="M189.966 85.4037L227.676 66.7597L225.176 60.8644L187.466 79.5085L189.966 85.4037Z" fill="#412525"/>
<path opacity="0.8" d="M189.966 85.4037L227.676 66.7597L225.176 60.8644L187.466 79.5085L189.966 85.4037Z" fill="white"/>
<path d="M169.306 85.8965L228.98 56.3935L225.253 47.6042L165.58 77.1073L169.306 85.8965Z" fill="#412525"/>
<path opacity="0.3" d="M169.306 85.8965L228.98 56.3935L225.253 47.6042L165.58 77.1073L169.306 85.8965Z" fill="black"/>
<g style="mix-blend-mode:multiply">
<path d="M170.325 69.6004L182.522 103.044L234.627 77.283C235.33 76.9332 235.877 76.2968 236.148 75.5128C236.418 74.7288 236.391 73.861 236.07 73.0992L223.545 43.5737L171.977 65.5052C171.256 65.8139 170.678 66.4178 170.369 67.1851C170.059 67.9524 170.044 68.8207 170.325 69.6004Z" fill="#412525"/>
</g>
<path d="M239.291 59.0296L239.033 59.1272L239.46 60.4388L239.718 60.3412L239.291 59.0296Z" fill="#412525"/>
<path opacity="0.1" d="M239.291 59.0296L239.033 59.1272L239.46 60.4388L239.718 60.3412L239.291 59.0296Z" fill="white"/>
<path d="M237.137 52.4317L236.879 52.5295L238.56 57.6999L238.818 57.602L237.137 52.4317Z" fill="#412525"/>
<path opacity="0.1" d="M237.137 52.4317L236.879 52.5295L238.56 57.6999L238.818 57.602L237.137 52.4317Z" fill="white"/>
<path d="M173.954 65.6202L230.359 44.229C231.091 43.954 231.893 44.003 232.592 44.3654C233.29 44.7278 233.827 45.3741 234.085 46.1629L245.367 80.8523C245.621 81.6426 245.576 82.5096 245.241 83.2641C244.906 84.0187 244.309 84.5994 243.578 84.8796L187.173 106.271C186.441 106.545 185.638 106.496 184.94 106.133C184.241 105.771 183.703 105.125 183.444 104.337L172.163 69.6474C171.908 68.8568 171.953 67.9895 172.289 67.2349C172.624 66.4803 173.223 65.8998 173.954 65.6202Z" fill="#412525"/>
<path opacity="0.1" d="M173.954 65.6202L230.359 44.229C231.091 43.954 231.893 44.003 232.592 44.3654C233.29 44.7278 233.827 45.3741 234.085 46.1629L245.367 80.8523C245.621 81.6426 245.576 82.5096 245.241 83.2641C244.906 84.0187 244.309 84.5994 243.578 84.8796L187.173 106.271C186.441 106.545 185.638 106.496 184.94 106.133C184.241 105.771 183.703 105.125 183.444 104.337L172.163 69.6474C171.908 68.8568 171.953 67.9895 172.289 67.2349C172.624 66.4803 173.223 65.8998 173.954 65.6202Z" fill="white"/>
<path d="M181.388 98.0112L243.311 74.5283L238.404 59.4378L176.481 82.9207L181.388 98.0112Z" fill="#412525"/>
<path opacity="0.3" d="M181.388 98.0112L243.311 74.5283L238.404 59.4378L176.481 82.9207L181.388 98.0112Z" fill="white"/>
<path d="M218.891 59.1029L231.691 54.2487L230.991 52.0953L218.191 56.9495L218.891 59.1029Z" fill="#412525"/>
<path opacity="0.8" d="M218.891 59.1029L231.691 54.2487L230.991 52.0953L218.191 56.9495L218.891 59.1029Z" fill="white"/>
<path d="M229.664 83.4847L239.934 79.5901L239.568 78.4646L229.298 82.3592L229.664 83.4847Z" fill="#412525"/>
<path opacity="0.8" d="M229.664 83.4847L239.934 79.5901L239.568 78.4646L229.298 82.3592L229.664 83.4847Z" fill="white"/>
<path d="M227.399 86.7629L240.633 81.7443L240.267 80.6188L227.033 85.6374L227.399 86.7629Z" fill="#412525"/>
<path opacity="0.8" d="M227.399 86.7629L240.633 81.7443L240.267 80.6188L227.033 85.6374L227.399 86.7629Z" fill="white"/>
<path d="M187.25 101.989L193.867 99.4799L193.08 97.059L186.463 99.5683L187.25 101.989Z" fill="#412525"/>
<path opacity="0.8" d="M187.25 101.989L193.867 99.4799L193.08 97.059L186.463 99.5683L187.25 101.989Z" fill="white"/>
<path d="M228.459 76.3232L236.185 73.3943C236.593 73.2377 236.926 72.9139 237.114 72.4931C237.301 72.0724 237.327 71.5887 237.186 71.1474C237.041 70.7075 236.741 70.3473 236.352 70.1449C235.962 69.9425 235.514 69.9145 235.105 70.0668L227.376 72.9986C226.969 73.1552 226.635 73.479 226.448 73.8998C226.26 74.3206 226.234 74.8042 226.375 75.2455C226.521 75.6855 226.821 76.0457 227.212 76.2475C227.602 76.4494 228.05 76.4766 228.459 76.3232Z" fill="#412525"/>
<path d="M215.223 81.3424L222.952 78.4105C223.356 78.2533 223.687 77.9311 223.874 77.5132C224.061 77.0953 224.088 76.6149 223.95 76.1755C223.805 75.7361 223.504 75.3766 223.115 75.1748C222.725 74.973 222.278 74.9453 221.869 75.0978L214.143 78.0297C213.735 78.1862 213.402 78.5101 213.214 78.9308C213.027 79.3516 213.001 79.8352 213.142 80.2766C213.29 80.7137 213.591 81.0706 213.98 81.27C214.369 81.4695 214.816 81.4955 215.223 81.3424Z" fill="#412525"/>
<path d="M201.995 86.3618L209.724 83.43C210.128 83.2716 210.457 82.9489 210.643 82.5311C210.828 82.1133 210.855 81.6336 210.717 81.1949C210.571 80.7556 210.271 80.396 209.882 80.1942C209.492 79.9924 209.044 79.9647 208.636 80.1172L200.901 83.0373C200.494 83.1944 200.161 83.5185 199.975 83.9392C199.788 84.3599 199.762 84.8432 199.903 85.2842C200.049 85.7263 200.351 86.088 200.743 86.2901C201.135 86.4921 201.585 86.5179 201.995 86.3618Z" fill="#412525"/>
<path d="M188.753 91.3812L196.483 88.4494C196.887 88.2927 197.219 87.9708 197.406 87.5528C197.593 87.1348 197.621 86.6541 197.483 86.2143C197.338 85.775 197.038 85.4154 196.648 85.2136C196.259 85.0118 195.811 84.9842 195.403 85.1366L187.673 88.0685C187.266 88.225 186.932 88.5489 186.745 88.9696C186.558 89.3904 186.532 89.874 186.673 90.3154C186.82 90.7525 187.121 91.1094 187.511 91.3088C187.9 91.5083 188.346 91.5343 188.753 91.3812Z" fill="#412525"/>
<g opacity="0.8">
<path opacity="0.8" d="M228.459 76.3232L236.185 73.3943C236.593 73.2377 236.926 72.9139 237.114 72.4931C237.301 72.0724 237.327 71.5887 237.186 71.1474C237.041 70.7075 236.741 70.3473 236.352 70.1449C235.962 69.9425 235.514 69.9145 235.105 70.0668L227.376 72.9986C226.969 73.1552 226.635 73.479 226.448 73.8998C226.26 74.3206 226.234 74.8042 226.375 75.2455C226.521 75.6855 226.821 76.0457 227.212 76.2475C227.602 76.4494 228.05 76.4766 228.459 76.3232Z" fill="white"/>
<path opacity="0.8" d="M215.223 81.3422L222.952 78.4104C223.356 78.2532 223.687 77.931 223.874 77.513C224.061 77.0951 224.088 76.6147 223.95 76.1753C223.805 75.736 223.505 75.3764 223.115 75.1746C222.725 74.9728 222.278 74.9452 221.869 75.0976L214.143 78.0295C213.735 78.186 213.402 78.5099 213.214 78.9306C213.027 79.3514 213.001 79.835 213.142 80.2764C213.29 80.7135 213.591 81.0704 213.98 81.2698C214.369 81.4693 214.816 81.4953 215.223 81.3422Z" fill="white"/>
<path opacity="0.8" d="M201.995 86.3618L209.724 83.43C210.128 83.2716 210.457 82.9489 210.643 82.5311C210.828 82.1133 210.855 81.6336 210.717 81.1949C210.571 80.7556 210.271 80.396 209.882 80.1942C209.492 79.9924 209.044 79.9647 208.636 80.1172L200.901 83.0373C200.494 83.1944 200.161 83.5185 199.975 83.9392C199.788 84.3599 199.762 84.8432 199.903 85.2842C200.049 85.7263 200.351 86.088 200.743 86.2901C201.135 86.4921 201.585 86.5179 201.995 86.3618Z" fill="white"/>
<path opacity="0.8" d="M188.753 91.3813L196.483 88.4494C196.887 88.2928 197.219 87.9708 197.406 87.5528C197.593 87.1348 197.621 86.6542 197.483 86.2143C197.338 85.775 197.038 85.4154 196.648 85.2137C196.259 85.0119 195.811 84.9842 195.403 85.1367L187.673 88.0685C187.266 88.2251 186.932 88.5489 186.745 88.9697C186.557 89.3905 186.531 89.8741 186.673 90.3154C186.82 90.7526 187.121 91.1095 187.511 91.3089C187.9 91.5083 188.346 91.5343 188.753 91.3813Z" fill="white"/>
</g>
<path d="M227.771 69.6078L234.648 66.9997C235.232 66.7781 235.54 66.0872 235.334 65.4564L233.901 61.0493C233.696 60.4185 233.056 60.0867 232.472 60.3083L225.595 62.9164C225.011 63.1379 224.703 63.8289 224.908 64.4597L226.342 68.8667C226.547 69.4975 227.187 69.8293 227.771 69.6078Z" fill="#412525"/>
<path opacity="0.3" d="M227.771 69.6078L234.648 66.9997C235.232 66.7781 235.54 66.0872 235.334 65.4564L233.901 61.0493C233.696 60.4185 233.056 60.0867 232.472 60.3083L225.595 62.9164C225.011 63.1379 224.703 63.8289 224.908 64.4597L226.342 68.8667C226.547 69.4975 227.187 69.8293 227.771 69.6078Z" fill="black"/>
<path d="M187.23 74.1708C186.238 74.1711 185.282 73.7691 184.551 73.0443C183.821 72.3195 183.368 71.3249 183.284 70.2573C183.201 69.1897 183.491 68.127 184.098 67.2796C184.705 66.4321 185.585 65.8617 186.563 65.6813C187.541 65.5009 188.546 65.7236 189.379 66.3053C190.212 66.8871 190.813 67.7855 191.062 68.8226C191.311 69.8597 191.19 70.96 190.723 71.9057C190.257 72.8513 189.479 73.5733 188.543 73.9287C188.121 74.0891 187.677 74.171 187.23 74.1708ZM187.23 65.9037C186.81 65.9046 186.394 65.9814 185.997 66.131C185.068 66.4836 184.307 67.22 183.881 68.1785C183.455 69.1369 183.399 70.2388 183.725 71.2419C183.951 71.9346 184.349 72.5469 184.876 73.0118C185.402 73.4768 186.037 73.7765 186.71 73.8783C187.384 73.98 188.07 73.8799 188.695 73.5888C189.319 73.2977 189.858 72.8269 190.251 72.2278C190.644 71.6287 190.878 70.9243 190.926 70.1917C190.973 69.459 190.834 68.7263 190.522 68.0736C190.21 67.4209 189.738 66.8732 189.158 66.4905C188.577 66.1079 187.91 65.9048 187.23 65.9037Z" fill="#412525"/>
<path opacity="0.8" d="M187.23 74.1708C186.238 74.1711 185.282 73.7691 184.551 73.0443C183.821 72.3195 183.368 71.3249 183.284 70.2573C183.201 69.1897 183.491 68.127 184.098 67.2796C184.705 66.4321 185.585 65.8617 186.563 65.6813C187.541 65.5009 188.546 65.7236 189.379 66.3053C190.212 66.8871 190.813 67.7855 191.062 68.8226C191.311 69.8597 191.19 70.96 190.723 71.9057C190.257 72.8513 189.479 73.5733 188.543 73.9287C188.121 74.0891 187.677 74.171 187.23 74.1708ZM187.23 65.9037C186.81 65.9046 186.394 65.9814 185.997 66.131C185.068 66.4836 184.307 67.22 183.881 68.1785C183.455 69.1369 183.399 70.2388 183.725 71.2419C183.951 71.9346 184.349 72.5469 184.876 73.0118C185.402 73.4768 186.037 73.7765 186.71 73.8783C187.384 73.98 188.07 73.8799 188.695 73.5888C189.319 73.2977 189.858 72.8269 190.251 72.2278C190.644 71.6287 190.878 70.9243 190.926 70.1917C190.973 69.459 190.834 68.7263 190.522 68.0736C190.21 67.4209 189.738 66.8732 189.158 66.4905C188.577 66.1079 187.91 65.9048 187.23 65.9037Z" fill="white"/>
<path d="M177.956 73.4209C178.208 74.1912 178.666 74.8635 179.272 75.353C179.878 75.8426 180.604 76.1273 181.359 76.1713C182.115 76.2153 182.865 76.0166 183.516 75.6002C184.167 75.1839 184.689 74.5686 185.016 73.832C185.344 73.0955 185.462 72.2707 185.355 71.4619C185.249 70.6531 184.923 69.8965 184.418 69.2876C183.914 68.6788 183.254 68.245 182.521 68.041C181.788 67.8371 181.016 67.8721 180.302 68.1417C179.827 68.3213 179.389 68.6004 179.013 68.9631C178.638 69.3258 178.332 69.765 178.114 70.2554C177.896 70.7458 177.77 71.2779 177.743 71.8211C177.716 72.3643 177.789 72.908 177.956 73.4209Z" fill="#412525"/>
<path opacity="0.8" d="M177.956 73.4209C178.208 74.1912 178.666 74.8635 179.272 75.353C179.878 75.8426 180.604 76.1273 181.359 76.1713C182.115 76.2153 182.865 76.0166 183.516 75.6002C184.167 75.1839 184.689 74.5686 185.016 73.832C185.344 73.0955 185.462 72.2707 185.355 71.4619C185.249 70.6531 184.923 69.8965 184.418 69.2876C183.914 68.6788 183.254 68.245 182.521 68.041C181.788 67.8371 181.016 67.8721 180.302 68.1417C179.827 68.3213 179.389 68.6004 179.013 68.9631C178.638 69.3258 178.332 69.765 178.114 70.2554C177.896 70.7458 177.77 71.2779 177.743 71.8211C177.716 72.3643 177.789 72.908 177.956 73.4209Z" fill="white"/>
<rect opacity="0.2" y="31" width="12.9644" height="16" fill="#FEA401"/>
<rect opacity="0.15" x="103.997" y="60" width="33.337" height="32" fill="#FEA401"/>
<rect opacity="0.15" x="21.9973" y="78" width="33.337" height="32" fill="#412525"/>
<rect x="287.069" y="37" width="1.35193" height="1.45992" fill="#6C2C00"/>
<rect x="287.069" y="44.2996" width="1.35193" height="1.45992" fill="#6C2C00"/>
<rect x="287.069" y="53.0591" width="1.35193" height="1.45992" fill="#6C2C00"/>
<rect x="287.069" y="60.3588" width="1.35193" height="1.45992" fill="#6C2C00"/>
<rect x="287.069" y="69.1183" width="1.35193" height="1.45992" fill="#6C2C00"/>
<rect x="287.069" y="76.4179" width="1.35193" height="1.45992" fill="#6C2C00"/>
<rect x="287.069" y="83.7176" width="1.35193" height="1.45992" fill="#6C2C00"/>
<rect x="287.069" y="92.4771" width="1.35193" height="1.45992" fill="#6C2C00"/>
<rect x="293.828" y="37" width="1.35193" height="1.45992" fill="#6C2C00"/>
<rect x="293.828" y="44.2996" width="1.35193" height="1.45992" fill="#6C2C00"/>
<rect x="293.828" y="53.0591" width="1.35193" height="1.45992" fill="#6C2C00"/>
<rect x="293.828" y="60.3589" width="1.35193" height="1.45992" fill="#6C2C00"/>
<rect x="293.828" y="69.1184" width="1.35193" height="1.45992" fill="#6C2C00"/>
<rect x="293.828" y="76.418" width="1.35193" height="1.45992" fill="#6C2C00"/>
<rect x="293.828" y="83.7175" width="1.35193" height="1.45992" fill="#6C2C00"/>
<rect x="293.828" y="92.4771" width="1.35193" height="1.45992" fill="#6C2C00"/>
<rect x="301.94" y="37" width="1.35193" height="1.45992" fill="#6C2C00"/>
<rect x="301.94" y="44.2996" width="1.35193" height="1.45992" fill="#6C2C00"/>
<rect x="301.94" y="53.0591" width="1.35193" height="1.45992" fill="#6C2C00"/>
<rect x="301.94" y="60.3589" width="1.35193" height="1.45992" fill="#6C2C00"/>
<rect x="301.94" y="69.1184" width="1.35193" height="1.45992" fill="#6C2C00"/>
<rect x="301.94" y="76.418" width="1.35193" height="1.45992" fill="#6C2C00"/>
<rect x="301.94" y="83.7175" width="1.35193" height="1.45992" fill="#6C2C00"/>
<rect x="301.94" y="92.4771" width="1.35193" height="1.45992" fill="#6C2C00"/>
<rect x="23.1508" y="55.519" width="1.45992" height="1.35193" transform="rotate(-90 23.1508 55.519)" fill="#6C2C00"/>
<rect x="29.9105" y="55.519" width="1.45992" height="1.35193" transform="rotate(-90 29.9105 55.519)" fill="#6C2C00"/>
<rect x="38.022" y="55.519" width="1.45992" height="1.35193" transform="rotate(-90 38.022 55.519)" fill="#6C2C00"/>
<rect x="44.7816" y="55.519" width="1.45992" height="1.35193" transform="rotate(-90 44.7816 55.519)" fill="#6C2C00"/>
<rect x="52.8931" y="55.519" width="1.45992" height="1.35193" transform="rotate(-90 52.8931 55.519)" fill="#6C2C00"/>
<rect x="59.6527" y="55.519" width="1.45992" height="1.35193" transform="rotate(-90 59.6527 55.519)" fill="#6C2C00"/>
<rect x="66.4126" y="55.519" width="1.45992" height="1.35193" transform="rotate(-90 66.4126 55.519)" fill="#6C2C00"/>
<rect x="74.524" y="55.519" width="1.45992" height="1.35193" transform="rotate(-90 74.524 55.519)" fill="#6C2C00"/>
<rect x="23.1508" y="48.2195" width="1.45992" height="1.35193" transform="rotate(-90 23.1508 48.2195)" fill="#6C2C00"/>
<rect x="29.9105" y="48.2195" width="1.45992" height="1.35193" transform="rotate(-90 29.9105 48.2195)" fill="#6C2C00"/>
<rect x="38.022" y="48.2195" width="1.45992" height="1.35193" transform="rotate(-90 38.022 48.2195)" fill="#6C2C00"/>
<rect x="44.7816" y="48.2195" width="1.45992" height="1.35193" transform="rotate(-90 44.7816 48.2195)" fill="#6C2C00"/>
<rect x="52.8931" y="48.2195" width="1.45992" height="1.35193" transform="rotate(-90 52.8931 48.2195)" fill="#6C2C00"/>
<rect x="59.6527" y="48.2195" width="1.45992" height="1.35193" transform="rotate(-90 59.6527 48.2195)" fill="#6C2C00"/>
<rect x="66.4126" y="48.2195" width="1.45992" height="1.35193" transform="rotate(-90 66.4126 48.2195)" fill="#6C2C00"/>
<rect x="74.524" y="48.2195" width="1.45992" height="1.35193" transform="rotate(-90 74.524 48.2195)" fill="#6C2C00"/>
<rect x="23.1508" y="39.46" width="1.45992" height="1.35193" transform="rotate(-90 23.1508 39.46)" fill="#6C2C00"/>
<rect x="29.9105" y="39.46" width="1.45992" height="1.35193" transform="rotate(-90 29.9105 39.46)" fill="#6C2C00"/>
<rect x="38.022" y="39.46" width="1.45992" height="1.35193" transform="rotate(-90 38.022 39.46)" fill="#6C2C00"/>
<rect x="44.7816" y="39.46" width="1.45992" height="1.35193" transform="rotate(-90 44.7816 39.46)" fill="#6C2C00"/>
<rect x="52.8931" y="39.46" width="1.45992" height="1.35193" transform="rotate(-90 52.8931 39.46)" fill="#6C2C00"/>
<rect x="59.6527" y="39.46" width="1.45992" height="1.35193" transform="rotate(-90 59.6527 39.46)" fill="#6C2C00"/>
<rect x="66.4126" y="39.46" width="1.45992" height="1.35193" transform="rotate(-90 66.4126 39.46)" fill="#6C2C00"/>
<rect x="74.524" y="39.46" width="1.45992" height="1.35193" transform="rotate(-90 74.524 39.46)" fill="#6C2C00"/>
</svg>
