<svg width="147" height="131" viewBox="0 0 147 131" fill="none" xmlns="http://www.w3.org/2000/svg">
<path fill-rule="evenodd" clip-rule="evenodd" d="M50.0987 25.5754L69.8779 7.17175C72.5274 4.70613 76.7124 4.85689 79.178 7.50678L95.9301 25.5108C98.3957 28.1603 98.9489 33.0504 96.299 35.5156L83.3674 47.5478C80.2872 50.3748 73.611 49.4738 70.1304 46.2691L90.8712 26.7591C86.1222 20.0718 77.5763 16.215 70.6895 18.5522C56.5447 23.3526 58.022 30.7567 52.2592 37.5158L49.7633 34.8755C47.2769 32.2452 47.4484 28.0406 50.0983 25.575L50.0987 25.5754ZM73.1815 33.9434L65.8748 41.2414C64.4649 39.4657 63.7015 37.2933 63.7015 35.0598C63.7015 29.4326 68.4457 24.871 74.2978 24.871C76.6358 24.871 78.9084 25.6145 80.7614 26.9861L73.1815 33.9434Z" fill="url(#paint0_linear_502_6755)"/>
<path fill-rule="evenodd" clip-rule="evenodd" d="M91.2229 49.8209C87.7024 56.4304 80.4878 60.5867 72.5736 60.5867C61.0783 60.5867 51.7594 51.1155 51.7594 39.4311C51.7594 28.2752 60.2547 19.1374 71.0285 18.3337C63.0784 20.6709 57.265 28.1232 57.265 36.9571C57.265 47.664 65.8041 56.3431 76.3378 56.3431C82.1709 56.3431 87.7243 54.0139 91.2229 49.8209Z" fill="#FE9400"/>
<path d="M53.7725 18.5929C53.2333 19.095 52.3885 19.0647 51.8868 18.5251C51.3847 17.9859 51.415 17.1411 51.9546 16.6394C56.6605 12.2697 61.3501 7.86972 66.0787 3.52597L66.1601 3.45737C67.2297 2.51371 69.5618 0.784348 72.5263 0.20324C75.6409 -0.406984 79.4011 0.204835 83.0621 4.14776L83.2643 4.3727L83.2663 4.37111L90.348 11.9825V8.02048C90.348 7.29739 90.9391 6.70591 91.6622 6.70591C92.3853 6.70591 92.9768 7.29739 92.9768 8.02048V14.8079L96.9097 19.0348C97.4119 19.5744 97.3816 20.4188 96.8419 20.9209C96.3027 21.4227 95.458 21.3924 94.9562 20.8531L81.3127 6.18981L81.3147 6.18822L81.1089 5.96646C78.2321 2.86828 75.3744 2.36854 73.0384 2.8264C70.6789 3.28866 68.7984 4.6838 67.9289 5.44997C63.3275 9.88705 58.4672 14.2352 53.7729 18.5937L53.7725 18.5929Z" fill="#532929"/>
<path d="M35.1283 84.52C35.1283 84.5867 35.1083 84.94 35.0683 85.58H27.4683C27.6283 85.9933 27.8949 86.3133 28.2683 86.54C28.6416 86.7533 29.1083 86.86 29.6683 86.86C30.1483 86.86 30.5483 86.8 30.8683 86.68C31.2016 86.56 31.5616 86.3533 31.9483 86.06L34.3083 88.44C33.2416 89.6133 31.6483 90.2 29.5283 90.2C28.2083 90.2 27.0483 89.96 26.0483 89.48C25.0483 88.9867 24.2749 88.3067 23.7283 87.44C23.1816 86.5733 22.9083 85.6 22.9083 84.52C22.9083 83.4267 23.1749 82.4533 23.7083 81.6C24.2549 80.7333 24.9949 80.06 25.9283 79.58C26.8749 79.1 27.9349 78.86 29.1083 78.86C30.2149 78.86 31.2216 79.08 32.1283 79.52C33.0483 79.96 33.7749 80.6067 34.3083 81.46C34.8549 82.3133 35.1283 83.3333 35.1283 84.52ZM29.1483 81.94C28.6816 81.94 28.2949 82.0667 27.9883 82.32C27.6816 82.5733 27.4816 82.9333 27.3883 83.4H30.9083C30.8149 82.9467 30.6149 82.5933 30.3083 82.34C30.0016 82.0733 29.6149 81.94 29.1483 81.94ZM44.1547 78.86C45.5014 78.86 46.5814 79.2667 47.3947 80.08C48.2214 80.8933 48.6347 82.12 48.6347 83.76V90H44.1147V84.54C44.1147 83.2867 43.668 82.66 42.7747 82.66C42.268 82.66 41.8547 82.84 41.5347 83.2C41.228 83.5467 41.0747 84.1 41.0747 84.86V90H36.5547V79.06H40.8547V80.14C41.2814 79.7133 41.7747 79.3933 42.3347 79.18C42.8947 78.9667 43.5014 78.86 44.1547 78.86ZM56.673 90.2C55.433 90.2 54.3196 89.96 53.333 89.48C52.3596 89 51.593 88.3267 51.033 87.46C50.4863 86.5933 50.213 85.6133 50.213 84.52C50.213 83.4267 50.4863 82.4533 51.033 81.6C51.593 80.7333 52.3596 80.06 53.333 79.58C54.3196 79.1 55.433 78.86 56.673 78.86C58.0063 78.86 59.1463 79.1467 60.093 79.72C61.0396 80.2933 61.693 81.0867 62.053 82.1L58.553 83.82C58.1263 82.86 57.493 82.38 56.653 82.38C56.1196 82.38 55.673 82.5667 55.313 82.94C54.9663 83.3133 54.793 83.84 54.793 84.52C54.793 85.2133 54.9663 85.7467 55.313 86.12C55.673 86.4933 56.1196 86.68 56.653 86.68C57.493 86.68 58.1263 86.2 58.553 85.24L62.053 86.96C61.693 87.9733 61.0396 88.7667 60.093 89.34C59.1463 89.9133 58.0063 90.2 56.673 90.2ZM68.78 90.2C67.5667 90.2 66.4733 89.96 65.5 89.48C64.54 88.9867 63.7867 88.3133 63.24 87.46C62.6933 86.5933 62.42 85.6133 62.42 84.52C62.42 83.4267 62.6933 82.4533 63.24 81.6C63.7867 80.7333 64.54 80.06 65.5 79.58C66.4733 79.1 67.5667 78.86 68.78 78.86C70.0067 78.86 71.1 79.1 72.06 79.58C73.0333 80.06 73.7867 80.7333 74.32 81.6C74.8667 82.4533 75.14 83.4267 75.14 84.52C75.14 85.6133 74.8667 86.5933 74.32 87.46C73.7867 88.3133 73.0333 88.9867 72.06 89.48C71.1 89.96 70.0067 90.2 68.78 90.2ZM68.78 86.68C69.3 86.68 69.7267 86.4933 70.06 86.12C70.3933 85.7333 70.56 85.2 70.56 84.52C70.56 83.84 70.3933 83.3133 70.06 82.94C69.7267 82.5667 69.3 82.38 68.78 82.38C68.26 82.38 67.8333 82.5667 67.5 82.94C67.1667 83.3133 67 83.84 67 84.52C67 85.2 67.1667 85.7333 67.5 86.12C67.8333 86.4933 68.26 86.68 68.78 86.68ZM80.8347 90.2C79.9014 90.2 78.9814 90.1 78.0747 89.9C77.168 89.7 76.4347 89.44 75.8747 89.12L77.1147 86.14C77.6214 86.4467 78.2214 86.6867 78.9147 86.86C79.608 87.0333 80.2814 87.12 80.9347 87.12C81.4547 87.12 81.8147 87.08 82.0147 87C82.228 86.9067 82.3347 86.7733 82.3347 86.6C82.3347 86.4267 82.2014 86.3067 81.9347 86.24C81.6814 86.1733 81.2614 86.1067 80.6747 86.04C79.7814 85.9333 79.0214 85.8 78.3947 85.64C77.768 85.4667 77.2147 85.14 76.7347 84.66C76.268 84.18 76.0347 83.4933 76.0347 82.6C76.0347 81.8933 76.248 81.26 76.6747 80.7C77.1014 80.14 77.7347 79.6933 78.5747 79.36C79.428 79.0267 80.448 78.86 81.6347 78.86C82.4614 78.86 83.268 78.94 84.0547 79.1C84.8547 79.2467 85.5347 79.4667 86.0947 79.76L84.8547 82.74C83.8947 82.2067 82.8414 81.94 81.6947 81.94C80.708 81.94 80.2147 82.1133 80.2147 82.46C80.2147 82.6333 80.348 82.76 80.6147 82.84C80.8814 82.9067 81.3014 82.9733 81.8747 83.04C82.768 83.1467 83.5214 83.2867 84.1347 83.46C84.7614 83.6333 85.308 83.96 85.7747 84.44C86.2547 84.92 86.4947 85.6067 86.4947 86.5C86.4947 87.18 86.2814 87.8 85.8547 88.36C85.428 88.92 84.788 89.3667 83.9347 89.7C83.0814 90.0333 82.048 90.2 80.8347 90.2ZM95.9233 89.62C95.2433 90.0067 94.3166 90.2 93.1433 90.2C91.6099 90.2 90.4299 89.8333 89.6033 89.1C88.7766 88.3533 88.3633 87.24 88.3633 85.76V82.96H86.8633V79.66H88.3633V76.6H92.8833V79.66H95.1233V82.96H92.8833V85.72C92.8833 86.0533 92.9699 86.3133 93.1433 86.5C93.3166 86.6867 93.5433 86.78 93.8233 86.78C94.2099 86.78 94.5499 86.68 94.8433 86.48L95.9233 89.62ZM101.963 78.86C103.883 78.86 105.349 79.2933 106.363 80.16C107.376 81.0133 107.883 82.3333 107.883 84.12V90H103.683V88.56C103.163 89.6533 102.129 90.2 100.583 90.2C99.7158 90.2 98.9758 90.0533 98.3625 89.76C97.7625 89.4533 97.3025 89.0467 96.9825 88.54C96.6758 88.02 96.5225 87.44 96.5225 86.8C96.5225 85.72 96.9358 84.9 97.7625 84.34C98.5892 83.78 99.8425 83.5 101.523 83.5H103.343C103.196 82.6467 102.509 82.22 101.283 82.22C100.789 82.22 100.289 82.3 99.7825 82.46C99.2758 82.6067 98.8425 82.8133 98.4825 83.08L97.0425 80.1C97.6692 79.7133 98.4225 79.4133 99.3025 79.2C100.196 78.9733 101.083 78.86 101.963 78.86ZM101.942 87.48C102.263 87.48 102.549 87.3933 102.803 87.22C103.056 87.0467 103.243 86.7867 103.363 86.44V85.68H102.243C101.323 85.68 100.863 85.9867 100.863 86.6C100.863 86.8533 100.956 87.0667 101.143 87.24C101.343 87.4 101.609 87.48 101.942 87.48ZM121.821 79.06L117.321 90.22C116.747 91.6467 116.034 92.6467 115.181 93.22C114.327 93.7933 113.281 94.08 112.041 94.08C111.427 94.08 110.807 93.9867 110.181 93.8C109.567 93.6267 109.081 93.3933 108.721 93.1L110.221 90C110.447 90.1733 110.701 90.3133 110.981 90.42C111.274 90.5267 111.554 90.58 111.821 90.58C112.314 90.58 112.687 90.4333 112.941 90.14L108.341 79.06H112.981L115.241 84.92L117.541 79.06H121.821Z" fill="#412525"/>
<path d="M8.03297 109.869V111H1.42896V101.9H7.85097V103.031H2.72897V105.826H7.29197V106.931H2.72897V109.869H8.03297ZM13.6349 104.045C14.5103 104.045 15.2036 104.301 15.7149 104.812C16.2349 105.315 16.4949 106.056 16.4949 107.035V111H15.2469V107.178C15.2469 106.511 15.0866 106.008 14.7659 105.67C14.4453 105.332 13.9859 105.163 13.3879 105.163C12.7119 105.163 12.1789 105.362 11.7889 105.761C11.3989 106.151 11.2039 106.714 11.2039 107.451V111H9.95595V104.11H11.1519V105.15C11.4033 104.795 11.7413 104.522 12.1659 104.331C12.5993 104.14 13.0889 104.045 13.6349 104.045ZM17.9206 113.6C17.6172 113.6 17.3356 113.565 17.0756 113.496C16.8156 113.427 16.5989 113.323 16.4256 113.184L16.8286 112.222C17.0886 112.439 17.4266 112.547 17.8426 112.547C18.1719 112.547 18.4232 112.443 18.5966 112.235C18.7786 112.036 18.8696 111.737 18.8696 111.338V104.11H20.1176V111.312C20.1176 112.023 19.9269 112.582 19.5456 112.989C19.1642 113.396 18.6226 113.6 17.9206 113.6ZM19.4936 102.784C19.2509 102.784 19.0472 102.706 18.8826 102.55C18.7266 102.394 18.6486 102.203 18.6486 101.978C18.6486 101.753 18.7266 101.562 18.8826 101.406C19.0472 101.241 19.2509 101.159 19.4936 101.159C19.7362 101.159 19.9356 101.237 20.0916 101.393C20.2562 101.54 20.3386 101.727 20.3386 101.952C20.3386 102.186 20.2562 102.385 20.0916 102.55C19.9356 102.706 19.7362 102.784 19.4936 102.784ZM25.4499 111.078C24.7653 111.078 24.1499 110.926 23.6039 110.623C23.0579 110.32 22.6289 109.904 22.3169 109.375C22.0136 108.838 21.8619 108.231 21.8619 107.555C21.8619 106.879 22.0136 106.277 22.3169 105.748C22.6289 105.211 23.0579 104.795 23.6039 104.5C24.1499 104.197 24.7653 104.045 25.4499 104.045C26.1346 104.045 26.7456 104.197 27.2829 104.5C27.8289 104.795 28.2536 105.211 28.5569 105.748C28.8689 106.277 29.0249 106.879 29.0249 107.555C29.0249 108.231 28.8689 108.838 28.5569 109.375C28.2536 109.904 27.8289 110.32 27.2829 110.623C26.7456 110.926 26.1346 111.078 25.4499 111.078ZM25.4499 109.986C25.8919 109.986 26.2863 109.886 26.6329 109.687C26.9883 109.479 27.2656 109.193 27.4649 108.829C27.6643 108.456 27.7639 108.032 27.7639 107.555C27.7639 107.078 27.6643 106.658 27.4649 106.294C27.2656 105.921 26.9883 105.635 26.6329 105.436C26.2863 105.237 25.8919 105.137 25.4499 105.137C25.0079 105.137 24.6093 105.237 24.2539 105.436C23.9073 105.635 23.6299 105.921 23.4219 106.294C23.2226 106.658 23.1229 107.078 23.1229 107.555C23.1229 108.032 23.2226 108.456 23.4219 108.829C23.6299 109.193 23.9073 109.479 24.2539 109.687C24.6093 109.886 25.0079 109.986 25.4499 109.986ZM36.6574 104.11L33.3164 111.689C33.0218 112.391 32.6751 112.885 32.2764 113.171C31.8864 113.457 31.4141 113.6 30.8594 113.6C30.5214 113.6 30.1921 113.544 29.8714 113.431C29.5594 113.327 29.2994 113.171 29.0914 112.963L29.6244 112.027C29.9798 112.365 30.3914 112.534 30.8594 112.534C31.1628 112.534 31.4141 112.452 31.6134 112.287C31.8214 112.131 32.0078 111.858 32.1724 111.468L32.3934 110.987L29.3514 104.11H30.6514L33.0564 109.622L35.4354 104.11H36.6574ZM44.3164 111.078C43.6144 111.078 42.986 110.926 42.4314 110.623C41.8854 110.32 41.4564 109.904 41.1444 109.375C40.8324 108.838 40.6764 108.231 40.6764 107.555C40.6764 106.879 40.8324 106.277 41.1444 105.748C41.4564 105.211 41.8854 104.795 42.4314 104.5C42.986 104.197 43.6144 104.045 44.3164 104.045C44.9404 104.045 45.495 104.171 45.9804 104.422C46.4744 104.673 46.8557 105.037 47.1244 105.514L46.1754 106.125C45.9587 105.796 45.69 105.549 45.3694 105.384C45.0487 105.219 44.6934 105.137 44.3034 105.137C43.8527 105.137 43.4454 105.237 43.0814 105.436C42.726 105.635 42.4444 105.921 42.2364 106.294C42.037 106.658 41.9374 107.078 41.9374 107.555C41.9374 108.04 42.037 108.469 42.2364 108.842C42.4444 109.206 42.726 109.488 43.0814 109.687C43.4454 109.886 43.8527 109.986 44.3034 109.986C44.6934 109.986 45.0487 109.904 45.3694 109.739C45.69 109.574 45.9587 109.327 46.1754 108.998L47.1244 109.596C46.8557 110.073 46.4744 110.441 45.9804 110.701C45.495 110.952 44.9404 111.078 44.3164 111.078ZM51.5896 111.078C50.9049 111.078 50.2896 110.926 49.7436 110.623C49.1976 110.32 48.7686 109.904 48.4566 109.375C48.1532 108.838 48.0016 108.231 48.0016 107.555C48.0016 106.879 48.1532 106.277 48.4566 105.748C48.7686 105.211 49.1976 104.795 49.7436 104.5C50.2896 104.197 50.9049 104.045 51.5896 104.045C52.2742 104.045 52.8852 104.197 53.4226 104.5C53.9686 104.795 54.3932 105.211 54.6966 105.748C55.0086 106.277 55.1646 106.879 55.1646 107.555C55.1646 108.231 55.0086 108.838 54.6966 109.375C54.3932 109.904 53.9686 110.32 53.4226 110.623C52.8852 110.926 52.2742 111.078 51.5896 111.078ZM51.5896 109.986C52.0316 109.986 52.4259 109.886 52.7726 109.687C53.1279 109.479 53.4052 109.193 53.6046 108.829C53.8039 108.456 53.9036 108.032 53.9036 107.555C53.9036 107.078 53.8039 106.658 53.6046 106.294C53.4052 105.921 53.1279 105.635 52.7726 105.436C52.4259 105.237 52.0316 105.137 51.5896 105.137C51.1476 105.137 50.7489 105.237 50.3936 105.436C50.0469 105.635 49.7696 105.921 49.5616 106.294C49.3622 106.658 49.2626 107.078 49.2626 107.555C49.2626 108.032 49.3622 108.456 49.5616 108.829C49.7696 109.193 50.0469 109.479 50.3936 109.687C50.7489 109.886 51.1476 109.986 51.5896 109.986ZM60.5695 104.045C61.4449 104.045 62.1382 104.301 62.6495 104.812C63.1695 105.315 63.4295 106.056 63.4295 107.035V111H62.1815V107.178C62.1815 106.511 62.0212 106.008 61.7005 105.67C61.3799 105.332 60.9205 105.163 60.3225 105.163C59.6465 105.163 59.1135 105.362 58.7235 105.761C58.3335 106.151 58.1385 106.714 58.1385 107.451V111H56.8905V104.11H58.0865V105.15C58.3379 104.795 58.6759 104.522 59.1005 104.331C59.5339 104.14 60.0235 104.045 60.5695 104.045ZM71.7092 104.11L68.6932 111H67.4192L64.4032 104.11H65.7032L68.0692 109.635L70.4872 104.11H71.7092ZM78.9105 107.594C78.9105 107.689 78.9018 107.815 78.8845 107.971H73.2945C73.3725 108.578 73.6368 109.067 74.0875 109.44C74.5468 109.804 75.1145 109.986 75.7905 109.986C76.6138 109.986 77.2768 109.709 77.7795 109.154L78.4685 109.96C78.1565 110.324 77.7665 110.601 77.2985 110.792C76.8392 110.983 76.3235 111.078 75.7515 111.078C75.0235 111.078 74.3778 110.931 73.8145 110.636C73.2512 110.333 72.8135 109.912 72.5015 109.375C72.1982 108.838 72.0465 108.231 72.0465 107.555C72.0465 106.888 72.1938 106.285 72.4885 105.748C72.7918 105.211 73.2035 104.795 73.7235 104.5C74.2522 104.197 74.8458 104.045 75.5045 104.045C76.1632 104.045 76.7482 104.197 77.2595 104.5C77.7795 104.795 78.1825 105.211 78.4685 105.748C78.7632 106.285 78.9105 106.901 78.9105 107.594ZM75.5045 105.098C74.9065 105.098 74.4038 105.28 73.9965 105.644C73.5978 106.008 73.3638 106.485 73.2945 107.074H77.7145C77.6452 106.493 77.4068 106.021 76.9995 105.657C76.6008 105.284 76.1025 105.098 75.5045 105.098ZM84.3224 104.045C85.1978 104.045 85.8911 104.301 86.4024 104.812C86.9224 105.315 87.1824 106.056 87.1824 107.035V111H85.9344V107.178C85.9344 106.511 85.7741 106.008 85.4534 105.67C85.1328 105.332 84.6734 105.163 84.0754 105.163C83.3994 105.163 82.8664 105.362 82.4764 105.761C82.0864 106.151 81.8914 106.714 81.8914 107.451V111H80.6434V104.11H81.8394V105.15C82.0908 104.795 82.4288 104.522 82.8534 104.331C83.2868 104.14 83.7764 104.045 84.3224 104.045ZM89.4921 104.11H90.7401V111H89.4921V104.11ZM90.1161 102.784C89.8734 102.784 89.6697 102.706 89.5051 102.55C89.3491 102.394 89.2711 102.203 89.2711 101.978C89.2711 101.753 89.3491 101.562 89.5051 101.406C89.6697 101.241 89.8734 101.159 90.1161 101.159C90.3587 101.159 90.5581 101.237 90.7141 101.393C90.8787 101.54 90.9611 101.727 90.9611 101.952C90.9611 102.186 90.8787 102.385 90.7141 102.55C90.5581 102.706 90.3587 102.784 90.1161 102.784ZM99.3499 107.594C99.3499 107.689 99.3413 107.815 99.3239 107.971H93.7339C93.8119 108.578 94.0763 109.067 94.5269 109.44C94.9863 109.804 95.5539 109.986 96.2299 109.986C97.0533 109.986 97.7163 109.709 98.2189 109.154L98.9079 109.96C98.5959 110.324 98.2059 110.601 97.7379 110.792C97.2786 110.983 96.7629 111.078 96.1909 111.078C95.4629 111.078 94.8173 110.931 94.2539 110.636C93.6906 110.333 93.2529 109.912 92.9409 109.375C92.6376 108.838 92.4859 108.231 92.4859 107.555C92.4859 106.888 92.6333 106.285 92.9279 105.748C93.2313 105.211 93.6429 104.795 94.1629 104.5C94.6916 104.197 95.2853 104.045 95.9439 104.045C96.6026 104.045 97.1876 104.197 97.6989 104.5C98.2189 104.795 98.6219 105.211 98.9079 105.748C99.2026 106.285 99.3499 106.901 99.3499 107.594ZM95.9439 105.098C95.3459 105.098 94.8433 105.28 94.4359 105.644C94.0373 106.008 93.8033 106.485 93.7339 107.074H98.1539C98.0846 106.493 97.8463 106.021 97.4389 105.657C97.0403 105.284 96.5419 105.098 95.9439 105.098ZM104.762 104.045C105.637 104.045 106.331 104.301 106.842 104.812C107.362 105.315 107.622 106.056 107.622 107.035V111H106.374V107.178C106.374 106.511 106.214 106.008 105.893 105.67C105.572 105.332 105.113 105.163 104.515 105.163C103.839 105.163 103.306 105.362 102.916 105.761C102.526 106.151 102.331 106.714 102.331 107.451V111H101.083V104.11H102.279V105.15C102.53 104.795 102.868 104.522 103.293 104.331C103.726 104.14 104.216 104.045 104.762 104.045ZM113.806 110.597C113.624 110.753 113.398 110.874 113.13 110.961C112.861 111.039 112.584 111.078 112.298 111.078C111.604 111.078 111.067 110.892 110.686 110.519C110.304 110.146 110.114 109.613 110.114 108.92V105.137H108.944V104.11H110.114V102.602H111.362V104.11H113.338V105.137H111.362V108.868C111.362 109.241 111.453 109.527 111.635 109.726C111.825 109.925 112.094 110.025 112.441 110.025C112.822 110.025 113.147 109.917 113.416 109.7L113.806 110.597ZM120.782 111.078C120.218 111.078 119.677 111.004 119.157 110.857C118.637 110.701 118.229 110.506 117.935 110.272L118.455 109.284C118.758 109.501 119.126 109.674 119.56 109.804C119.993 109.934 120.431 109.999 120.873 109.999C121.965 109.999 122.511 109.687 122.511 109.063C122.511 108.855 122.437 108.69 122.29 108.569C122.142 108.448 121.956 108.361 121.731 108.309C121.514 108.248 121.202 108.183 120.795 108.114C120.24 108.027 119.785 107.928 119.43 107.815C119.083 107.702 118.784 107.512 118.533 107.243C118.281 106.974 118.156 106.597 118.156 106.112C118.156 105.488 118.416 104.99 118.936 104.617C119.456 104.236 120.153 104.045 121.029 104.045C121.488 104.045 121.947 104.101 122.407 104.214C122.866 104.327 123.243 104.478 123.538 104.669L123.005 105.657C122.441 105.293 121.778 105.111 121.016 105.111C120.487 105.111 120.084 105.198 119.807 105.371C119.529 105.544 119.391 105.774 119.391 106.06C119.391 106.285 119.469 106.463 119.625 106.593C119.781 106.723 119.971 106.818 120.197 106.879C120.431 106.94 120.756 107.009 121.172 107.087C121.726 107.182 122.173 107.286 122.511 107.399C122.857 107.503 123.152 107.685 123.395 107.945C123.637 108.205 123.759 108.569 123.759 109.037C123.759 109.661 123.49 110.159 122.953 110.532C122.424 110.896 121.7 111.078 120.782 111.078ZM129.192 110.597C129.01 110.753 128.785 110.874 128.516 110.961C128.248 111.039 127.97 111.078 127.684 111.078C126.991 111.078 126.454 110.892 126.072 110.519C125.691 110.146 125.5 109.613 125.5 108.92V105.137H124.33V104.11H125.5V102.602H126.748V104.11H128.724V105.137H126.748V108.868C126.748 109.241 126.839 109.527 127.021 109.726C127.212 109.925 127.481 110.025 127.827 110.025C128.209 110.025 128.534 109.917 128.802 109.7L129.192 110.597ZM133.21 104.045C134.163 104.045 134.891 104.279 135.394 104.747C135.905 105.215 136.161 105.913 136.161 106.84V111H134.978V110.09C134.77 110.411 134.471 110.658 134.081 110.831C133.7 110.996 133.245 111.078 132.716 111.078C131.945 111.078 131.325 110.892 130.857 110.519C130.398 110.146 130.168 109.657 130.168 109.05C130.168 108.443 130.389 107.958 130.831 107.594C131.273 107.221 131.975 107.035 132.937 107.035H134.913V106.788C134.913 106.251 134.757 105.839 134.445 105.553C134.133 105.267 133.674 105.124 133.067 105.124C132.66 105.124 132.261 105.193 131.871 105.332C131.481 105.462 131.152 105.64 130.883 105.865L130.363 104.929C130.718 104.643 131.143 104.426 131.637 104.279C132.131 104.123 132.655 104.045 133.21 104.045ZM132.924 110.116C133.401 110.116 133.812 110.012 134.159 109.804C134.506 109.587 134.757 109.284 134.913 108.894V107.932H132.989C131.932 107.932 131.403 108.287 131.403 108.998C131.403 109.345 131.537 109.618 131.806 109.817C132.075 110.016 132.447 110.116 132.924 110.116ZM144.441 104.11L141.1 111.689C140.805 112.391 140.458 112.885 140.06 113.171C139.67 113.457 139.197 113.6 138.643 113.6C138.305 113.6 137.975 113.544 137.655 113.431C137.343 113.327 137.083 113.171 136.875 112.963L137.408 112.027C137.763 112.365 138.175 112.534 138.643 112.534C138.946 112.534 139.197 112.452 139.397 112.287C139.605 112.131 139.791 111.858 139.956 111.468L140.177 110.987L137.135 104.11H138.435L140.84 109.622L143.219 104.11H144.441ZM145.473 111.078C145.23 111.078 145.022 110.996 144.849 110.831C144.675 110.658 144.589 110.441 144.589 110.181C144.589 109.93 144.675 109.722 144.849 109.557C145.022 109.384 145.23 109.297 145.473 109.297C145.715 109.297 145.919 109.379 146.084 109.544C146.248 109.709 146.331 109.921 146.331 110.181C146.331 110.441 146.244 110.658 146.071 110.831C145.906 110.996 145.707 111.078 145.473 111.078Z" fill="#412525"/>
<defs>
<linearGradient id="paint0_linear_502_6755" x1="79.6534" y1="42.7797" x2="74.7378" y2="-6.38239" gradientUnits="userSpaceOnUse">
<stop stop-color="#FDCE02"/>
<stop offset="1" stop-color="#FE9400"/>
</linearGradient>
</defs>
</svg>
