<svg width="20" height="20" viewBox="0 0 20 20" fill="none" xmlns="http://www.w3.org/2000/svg">
<g clip-path="url(#clip0_502_9423)">
<path d="M16.9677 1.55775C15.8791 0.506059 13.9113 0.0551758 11.3938 0.0551758H4.08759C3.83852 0.0551836 3.59762 0.130502 3.4082 0.26759C3.21878 0.404679 3.09327 0.594544 3.05423 0.80305L0.0120449 17.1569C-0.0484238 17.4794 0.246186 17.7714 0.631811 17.7714H5.14244L6.27525 11.6812L6.24009 11.8719C6.3208 11.4414 6.75517 11.1239 7.26955 11.1239H9.41298C13.6238 11.1239 16.9209 9.67424 17.884 5.48068C17.9126 5.35665 17.9374 5.23593 17.9588 5.118C17.8372 5.06343 17.8372 5.06343 17.9588 5.118C18.2456 3.56801 17.9568 2.51295 16.9677 1.55775Z" fill="#27346A"/>
<path d="M8.00119 4.55964C8.1245 4.50987 8.25937 4.48408 8.39595 4.48415H14.1239C14.8022 4.48415 15.4349 4.52156 16.013 4.60043C16.1748 4.62229 16.3357 4.6484 16.4956 4.6787C16.7222 4.72108 16.9461 4.77295 17.1667 4.83412C17.4509 4.91457 17.7156 5.00827 17.9588 5.118C18.2456 3.56742 17.9568 2.51295 16.9677 1.55775C15.8785 0.506059 13.9113 0.0551758 11.3938 0.0551758H4.08697C3.57251 0.0551758 3.13486 0.372628 3.05423 0.80305L0.0120453 17.1563C-0.0484234 17.4793 0.246186 17.7709 0.631186 17.7709H5.14244L7.49267 5.13839C7.51578 5.01423 7.57414 4.89668 7.66272 4.79586C7.7513 4.69504 7.86746 4.61398 8.00119 4.55964Z" fill="#27346A"/>
<path d="M17.8827 5.48084C16.9196 9.67382 13.6226 11.1241 9.41172 11.1241H7.26765C6.75328 11.1241 6.31883 11.4416 6.2389 11.8721L4.82961 19.4445C4.77695 19.7267 5.03445 19.9825 5.37133 19.9825H9.17367C9.39148 19.9824 9.60212 19.9165 9.76772 19.7966C9.93331 19.6767 10.043 19.5106 10.077 19.3282L10.1141 19.164L10.8307 15.3143L10.8769 15.1016C10.9109 14.9192 11.0206 14.7532 11.1862 14.6332C11.3517 14.5133 11.5624 14.4474 11.7802 14.4473H12.3492C16.0326 14.4473 18.9167 13.179 19.7595 9.51072C20.1113 7.97775 19.9293 6.69788 18.9987 5.79889C18.7164 5.5266 18.3659 5.30172 17.9575 5.11816C17.9354 5.2367 17.9114 5.35682 17.8827 5.48084Z" fill="#2790C3"/>
<path d="M16.9491 4.77717C16.7989 4.74 16.6473 4.7071 16.4946 4.67851C16.3346 4.6487 16.1737 4.62277 16.012 4.60076C15.4332 4.52137 14.801 4.48389 14.1221 4.48389H8.39487C8.25819 4.48363 8.12322 4.50964 8.00011 4.55997C7.86622 4.61414 7.74994 4.69516 7.66132 4.79601C7.5727 4.89685 7.51441 5.01449 7.49151 5.13872L6.27417 11.681L6.23901 11.8717C6.31909 11.4412 6.75347 11.1237 7.26792 11.1237H9.41198C13.6228 11.1237 16.9198 9.67403 17.8829 5.48048C17.9116 5.35645 17.9357 5.23626 17.9578 5.1178C17.7139 5.00867 17.4499 4.91438 17.1656 4.83445C17.0938 4.81429 17.0217 4.7952 16.9492 4.77717" fill="#1F264F"/>
</g>
<defs>
<clipPath id="clip0_502_9423">
<rect width="20" height="20" fill="white"/>
</clipPath>
</defs>
</svg>
