<svg width="233" height="187" viewBox="0 0 233 187" fill="none" xmlns="http://www.w3.org/2000/svg">
<mask id="mask0_502_10000" style="mask-type:luminance" maskUnits="userSpaceOnUse" x="6" y="29" width="223" height="130">
<rect x="6.10645" y="29.4297" width="222.893" height="128.754" fill="white"/>
</mask>
<g mask="url(#mask0_502_10000)">
<path d="M0 124.939C27.5817 102.63 72.0444 92.876 106.182 104.945C126.871 112.258 154.606 131.003 178.582 126.112C214.706 118.743 235.727 93.4084 277.243 93.1938" stroke="#A1A0A6" stroke-width="2" stroke-linecap="round" stroke-dasharray="0 20"/>
<path fill-rule="evenodd" clip-rule="evenodd" d="M28.9707 126.699L69.6264 125.033C69.6264 125.033 66.8432 122.182 65.0562 121.485C63.7029 120.957 61.6742 120.77 60.4935 121.038C59.3226 119.393 57.4312 116.854 52.5315 117.043C48.3144 117.206 45.2793 120.65 43.6328 122.683C42.023 121.941 39.3583 121.746 37.31 122.448C33.3332 123.812 28.9707 126.699 28.9707 126.699" fill="#FEA401"/>
<path d="M31.6416 96.3778L26.2588 96.5632" stroke="#363636" stroke-width="2" stroke-linecap="round"/>
<path d="M68.2211 94.9526L35.3862 96.2485" stroke="#363636" stroke-width="2" stroke-linecap="round"/>
<path d="M63.4087 98.7129L42.8604 99.3512" stroke="#363636" stroke-width="2" stroke-linecap="round"/>
<path d="M95.7606 91.6984L92.355 91.8159" stroke="#363636" stroke-width="2" stroke-linecap="round"/>
<path d="M106.227 91.3325L98.1289 91.6164" stroke="#363636" stroke-width="2" stroke-linecap="round"/>
<path d="M79.9824 103.74L85.3676 103.63" stroke="#363636" stroke-width="2" stroke-linecap="round"/>
<path d="M60.2593 104.609L76.2367 103.817" stroke="#363636" stroke-width="2" stroke-linecap="round"/>
<path d="M92.6279 123.951L98.0131 123.841" stroke="#363636" stroke-width="2" stroke-linecap="round"/>
<mask id="mask1_502_10000" style="mask-type:luminance" maskUnits="userSpaceOnUse" x="96" y="76" width="89" height="22">
<path fill-rule="evenodd" clip-rule="evenodd" d="M96.0674 76.9648H184.373V97.1753H96.0674V76.9648Z" fill="white"/>
</mask>
<g mask="url(#mask1_502_10000)">
<path fill-rule="evenodd" clip-rule="evenodd" d="M171.727 93.8296C171.727 93.8296 178.05 93.4221 184.373 96.5979L96.0879 97.1753C95.3537 96.5728 114.588 94.8655 114.588 94.8655C114.588 94.8655 114.822 91.9784 117.866 89.9571C120.172 88.4268 123.018 88.8023 125.078 89.391C125.13 82.5216 132.012 76.9648 140.499 76.9648C147.803 76.9648 152.102 81.5437 153.695 87.0701C156.43 84.9468 159.414 84.227 162.126 84.4716C169.387 85.1266 171.727 93.8296 171.727 93.8296" fill="#FFF4E0"/>
</g>
<path fill-rule="evenodd" clip-rule="evenodd" d="M106.86 96.363L104.49 91.4082C104.205 90.811 104.12 90.1366 104.25 89.487L104.611 87.6756C104.677 87.3412 105.065 87.187 105.342 87.3854L116.227 95.188" fill="#363636"/>
<path fill-rule="evenodd" clip-rule="evenodd" d="M170.557 99.8878C170.557 99.8878 170.088 106.233 152.291 107.173C134.493 108.113 78.0568 108.818 78.0568 108.818L55.0841 114.982C54.6415 115.1 54.1731 115.086 53.7375 114.94L52.1615 114.414C51.9604 114.345 51.9461 114.063 52.1381 113.976L66.5821 107.408L58.5569 98.1699L54.0394 92.9693L50.9365 89.3972C50.815 89.2585 50.8946 89.04 51.0773 89.0118L54.4143 88.483C54.8663 88.4101 55.3299 88.4736 55.7468 88.664L57.5242 89.4724L65.1628 92.9505L80.3986 99.8878C80.3986 99.8878 127 93.0727 133.791 91.8976C140.582 90.7226 151.354 89.3126 154.398 91.8976L161.892 94.2477C161.892 94.2477 167.512 94.4827 169.152 96.3627C170.791 98.2428 170.557 99.8878 170.557 99.8878" fill="white"/>
<path fill-rule="evenodd" clip-rule="evenodd" d="M122.316 111.638C122.316 111.638 118.592 111.161 117.164 110.933C115.335 110.641 112.85 110.188 111.832 110.232C110.739 110.28 109.906 110.769 109.62 111.63C109.02 113.436 109.989 114.774 110.91 114.959C111.883 115.154 122.033 116.767 122.033 116.767L122.316 111.638Z" fill="white"/>
<path fill-rule="evenodd" clip-rule="evenodd" d="M123.626 114.219C123.626 115.649 123.018 116.808 122.268 116.808C121.519 116.808 120.911 115.649 120.911 114.219C120.911 112.789 121.519 111.63 122.268 111.63C123.018 111.63 123.626 112.789 123.626 114.219" fill="black"/>
<path fill-rule="evenodd" clip-rule="evenodd" d="M123.626 114.219C123.626 115.649 123.018 116.808 122.268 116.808C121.519 116.808 120.911 115.649 120.911 114.219C120.911 112.789 121.519 111.63 122.268 111.63C123.018 111.63 123.626 112.789 123.626 114.219Z" stroke="#363636" stroke-width="2" stroke-linecap="round"/>
<path fill-rule="evenodd" clip-rule="evenodd" d="M122.316 111.638C122.316 111.638 118.592 111.161 117.164 110.933C115.335 110.641 112.85 110.188 111.832 110.232C110.739 110.28 109.906 110.769 109.62 111.63C109.02 113.436 109.989 114.774 110.91 114.959C111.883 115.154 122.033 116.767 122.033 116.767L122.316 111.638Z" stroke="#363636" stroke-width="2" stroke-linecap="round"/>
<path fill-rule="evenodd" clip-rule="evenodd" d="M92.9271 104.941C92.9271 104.941 133.582 102.701 140.465 102.355C145.149 102.12 157.56 100.945 162.946 99.3004C166.362 98.257 169.035 96.2453 169.152 96.3628C170.674 97.8904 170.557 99.8879 170.557 99.8879C170.557 99.8879 170.088 106.233 152.291 107.173C134.493 108.113 78.0568 108.818 78.0568 108.818L55.0836 114.981C54.641 115.1 54.1734 115.086 53.7383 114.94L52.1616 114.413C51.9597 114.345 51.945 114.064 52.1388 113.976L66.5822 107.408L65.3694 106.012L92.9271 104.941Z" fill="#FECE00"/>
<path fill-rule="evenodd" clip-rule="evenodd" d="M80.3985 99.8882C80.3985 99.8882 127 93.073 133.791 91.898C140.582 90.7229 151.354 89.3129 154.398 91.898L161.892 94.248C161.892 94.248 167.512 94.483 169.152 96.3631C170.791 98.2431 170.557 99.8882 170.557 99.8882C170.557 99.8882 170.088 106.233 152.291 107.173C134.493 108.113 78.0567 108.818 78.0567 108.818L55.0835 114.982C54.6409 115.1 54.1732 115.086 53.7381 114.941L52.1614 114.413C51.9596 114.346 51.9448 114.064 52.1387 113.976L66.582 107.408L50.9362 89.3982C50.8154 89.2589 50.8945 89.0405 51.0762 89.0116L54.414 88.4829C54.8664 88.4112 55.3296 88.4742 55.7467 88.6641L80.3985 99.8882Z" stroke="#363636" stroke-width="2" stroke-linecap="round"/>
<path fill-rule="evenodd" clip-rule="evenodd" d="M114.823 115.163C114.823 115.163 110.139 114.223 107.797 113.988C105.456 113.753 103.237 113.33 101.943 113.387C100.554 113.448 99.4964 114.069 99.1328 115.163C98.3703 117.459 99.6011 119.159 100.772 119.394C102.008 119.642 114.312 121.691 114.312 121.691L114.823 115.163Z" fill="white"/>
<path fill-rule="evenodd" clip-rule="evenodd" d="M116.93 118.453C116.93 120.27 115.934 121.743 114.705 121.743C113.476 121.743 112.48 120.27 112.48 118.453C112.48 116.636 113.476 115.163 114.705 115.163C115.934 115.163 116.93 116.636 116.93 118.453" fill="black"/>
<path fill-rule="evenodd" clip-rule="evenodd" d="M116.93 118.453C116.93 120.27 115.934 121.743 114.705 121.743C113.476 121.743 112.48 120.27 112.48 118.453C112.48 116.636 113.476 115.163 114.705 115.163C115.934 115.163 116.93 116.636 116.93 118.453Z" stroke="#363636" stroke-width="2" stroke-linecap="round"/>
<path fill-rule="evenodd" clip-rule="evenodd" d="M114.823 115.163C114.823 115.163 110.139 114.223 107.797 113.988C105.456 113.753 103.237 113.33 101.943 113.387C100.554 113.448 99.4964 114.069 99.1328 115.163C98.3703 117.459 99.6011 119.159 100.772 119.394C102.008 119.642 114.312 121.691 114.312 121.691L114.823 115.163Z" stroke="#363636" stroke-width="2" stroke-linecap="round"/>
<path fill-rule="evenodd" clip-rule="evenodd" d="M50.0781 127.08L96.791 107.643L128.352 106.745C128.618 106.737 128.69 107.109 128.44 107.2C122.51 109.347 99.044 117.816 92.1074 119.863C85.546 121.8 65.3087 127.088 58.3909 128.889C56.8523 129.289 55.2382 129.29 53.6994 128.891L50.1404 127.97C49.705 127.857 49.6629 127.253 50.0781 127.08" fill="white"/>
<path fill-rule="evenodd" clip-rule="evenodd" d="M50.0781 127.08L96.791 107.643L121.38 106.938C121.38 106.938 97.6389 114.996 90.7024 117.043C84.141 118.98 54.7731 129.192 53.2341 128.794L50.1404 127.97C49.705 127.857 49.6629 127.253 50.0781 127.08" fill="#FECE00"/>
<path fill-rule="evenodd" clip-rule="evenodd" d="M154.398 91.8979C154.398 91.8979 153.93 93.073 150.417 94.013C148.808 94.4438 145.506 95.1674 144.434 95.3622C144.232 95.3988 144.078 95.564 144.054 95.7694L143.692 98.8539C143.658 99.1476 143.898 99.4003 144.192 99.3775C146.085 99.2297 152.375 98.6445 157.677 97.0681C161.015 96.0756 161.892 94.248 161.892 94.248" fill="#363636"/>
<path fill-rule="evenodd" clip-rule="evenodd" d="M65.1629 92.9507L64.2405 94.248L58.5571 98.1702L54.0396 92.9695L57.5243 89.4727L65.1629 92.9507Z" fill="#363636"/>
<path fill-rule="evenodd" clip-rule="evenodd" d="M134.094 104.709L132.505 104.855C131.603 104.939 130.805 104.273 130.722 103.368L130.299 98.7465C130.216 97.8419 130.88 97.041 131.781 96.9578L133.37 96.8112C134.272 96.7282 135.07 97.3942 135.153 98.2988L135.576 102.92C135.659 103.825 134.995 104.626 134.094 104.709Z" stroke="#363636" stroke-width="2" stroke-linecap="round"/>
<path fill-rule="evenodd" clip-rule="evenodd" d="M95.9628 102.685C95.9899 103.008 95.7508 103.292 95.4288 103.319C95.1066 103.347 94.8232 103.107 94.7961 102.783C94.7687 102.46 95.008 102.176 95.3302 102.149C95.6525 102.121 95.9356 102.361 95.9628 102.685" fill="#363636"/>
<path fill-rule="evenodd" clip-rule="evenodd" d="M99.2291 102.408C99.2563 102.731 99.0174 103.016 98.6952 103.043C98.373 103.07 98.0896 102.83 98.0627 102.507C98.0353 102.184 98.2744 101.899 98.5966 101.872C98.9188 101.845 99.2022 102.085 99.2291 102.408" fill="#363636"/>
<path fill-rule="evenodd" clip-rule="evenodd" d="M88.9193 103.179C88.9465 103.502 88.7074 103.786 88.3854 103.814C88.0631 103.841 87.7798 103.601 87.7526 103.277C87.7252 102.954 87.9646 102.67 88.2868 102.643C88.609 102.615 88.8921 102.856 88.9193 103.179" fill="#363636"/>
<path fill-rule="evenodd" clip-rule="evenodd" d="M92.1862 102.902C92.2133 103.226 91.9745 103.51 91.6522 103.537C91.33 103.564 91.0466 103.324 91.0197 103.001C90.9923 102.678 91.2314 102.394 91.5536 102.366C91.8759 102.339 92.1592 102.579 92.1862 102.902" fill="#363636"/>
<path fill-rule="evenodd" clip-rule="evenodd" d="M102.496 102.131C102.524 102.455 102.285 102.739 101.962 102.766C101.64 102.793 101.357 102.553 101.33 102.23C101.302 101.907 101.542 101.623 101.864 101.595C102.186 101.568 102.469 101.808 102.496 102.131" fill="#363636"/>
<path fill-rule="evenodd" clip-rule="evenodd" d="M105.764 101.855C105.791 102.178 105.552 102.462 105.229 102.489C104.907 102.517 104.624 102.277 104.597 101.953C104.569 101.63 104.809 101.346 105.131 101.319C105.453 101.291 105.736 101.531 105.764 101.855" fill="#363636"/>
<path fill-rule="evenodd" clip-rule="evenodd" d="M109.03 101.578C109.057 101.902 108.818 102.186 108.496 102.213C108.174 102.24 107.891 102 107.863 101.677C107.836 101.354 108.075 101.069 108.398 101.042C108.72 101.015 109.003 101.255 109.03 101.578" fill="#363636"/>
<path fill-rule="evenodd" clip-rule="evenodd" d="M112.297 101.301C112.324 101.625 112.085 101.909 111.763 101.936C111.441 101.963 111.158 101.723 111.131 101.4C111.103 101.077 111.342 100.793 111.665 100.765C111.987 100.738 112.27 100.978 112.297 101.301" fill="#363636"/>
<path fill-rule="evenodd" clip-rule="evenodd" d="M115.564 101.025C115.591 101.348 115.352 101.632 115.03 101.66C114.707 101.687 114.424 101.447 114.397 101.124C114.37 100.801 114.609 100.516 114.931 100.489C115.253 100.462 115.537 100.702 115.564 101.025" fill="#363636"/>
<path fill-rule="evenodd" clip-rule="evenodd" d="M118.83 100.748C118.858 101.071 118.619 101.356 118.296 101.383C117.974 101.41 117.691 101.17 117.664 100.847C117.636 100.524 117.876 100.239 118.198 100.212C118.52 100.185 118.803 100.425 118.83 100.748" fill="#363636"/>
<path fill-rule="evenodd" clip-rule="evenodd" d="M117.51 67.2295L114.765 70.8084L111.145 65.1631L117.51 67.2295Z" fill="#FEA401"/>
<path fill-rule="evenodd" clip-rule="evenodd" d="M50.0781 127.08L96.791 107.643L128.352 106.745C128.618 106.737 128.69 107.109 128.44 107.2C122.51 109.347 99.044 117.816 92.1074 119.863C85.546 121.8 65.3087 127.088 58.3909 128.889C56.8523 129.289 55.2382 129.29 53.6994 128.891L50.1404 127.97C49.705 127.857 49.6629 127.253 50.0781 127.08Z" stroke="#363636" stroke-width="2" stroke-linecap="round"/>
<path fill-rule="evenodd" clip-rule="evenodd" d="M215.871 134.886C217.388 134.886 218.619 133.65 218.619 132.127C218.619 130.603 217.388 129.368 215.871 129.368C214.353 129.368 213.123 130.603 213.123 132.127C213.123 133.65 214.353 134.886 215.871 134.886Z" fill="#FEA401"/>
</g>
</svg>
