<svg width="181" height="147" viewBox="0 0 181 147" fill="none" xmlns="http://www.w3.org/2000/svg">
<path d="M181 128.43H0.776672V128.527H181V128.43Z" fill="#E0E0E0"/>
<path d="M155.668 133.513H145.435V133.61H155.668V133.513Z" fill="#E0E0E0"/>
<path d="M142.792 133.56H133.648V133.657H142.792V133.56Z" fill="#E0E0E0"/>
<path d="M100.484 131.306H88.1745V131.403H100.484V131.306Z" fill="#E0E0E0"/>
<path d="M123.696 134.323H106.589V134.42H123.696V134.323Z" fill="#E0E0E0"/>
<path d="M52.2629 131.193H35.7004V131.29H52.2629V131.193Z" fill="#E0E0E0"/>
<path d="M59.8896 131.193H54.263V131.29H59.8896V131.193Z" fill="#E0E0E0"/>
<path d="M37.7836 132.945H23.2901V133.042H37.7836V132.945Z" fill="#E0E0E0"/>
<path d="M86.2024 111.069H16.6037C16.0585 111.068 15.5359 110.834 15.1507 110.417C14.7655 110 14.5492 109.436 14.5492 108.847V3.19553C14.5539 2.61012 14.7724 2.05038 15.1571 1.63788C15.5418 1.22538 16.0616 0.993434 16.6037 0.992432H86.2024C86.7482 0.992432 87.2717 1.22659 87.6577 1.6434C88.0437 2.06021 88.2605 2.62553 88.2605 3.21499V108.847C88.2605 109.436 88.0437 110.002 87.6577 110.418C87.2717 110.835 86.7482 111.069 86.2024 111.069ZM16.6037 1.07028C16.0824 1.07131 15.5828 1.29567 15.2145 1.69412C14.8462 2.09257 14.6393 2.63255 14.6393 3.19553V108.847C14.6393 109.41 14.8462 109.95 15.2145 110.348C15.5828 110.747 16.0824 110.971 16.6037 110.972H86.2024C86.724 110.971 87.2241 110.747 87.5929 110.349C87.9618 109.95 88.1695 109.41 88.1704 108.847V3.19553C88.1695 2.63219 87.9618 2.09223 87.5929 1.69389C87.2241 1.29555 86.724 1.07131 86.2024 1.07028H16.6037Z" fill="#E0E0E0"/>
<path d="M164.171 111.069H94.5686C94.0231 111.068 93.5001 110.834 93.1143 110.417C92.7286 110.001 92.5114 109.436 92.5105 108.847V3.19553C92.5162 2.60977 92.7354 2.05003 93.1207 1.63763C93.5059 1.22524 94.0262 0.993424 94.5686 0.992432H164.171C164.712 0.994457 165.231 1.22685 165.615 1.63924C165.999 2.05163 166.217 2.61079 166.222 3.19553V108.847C166.222 109.435 166.006 109.999 165.622 110.416C165.237 110.832 164.715 111.067 164.171 111.069ZM94.5686 1.07028C94.047 1.07131 93.5469 1.29555 93.1781 1.69389C92.8092 2.09223 92.6015 2.63219 92.6006 3.19553V108.847C92.6015 109.41 92.8092 109.95 93.1781 110.349C93.5469 110.747 94.047 110.971 94.5686 110.972H164.171C164.693 110.971 165.193 110.747 165.561 110.349C165.93 109.95 166.138 109.41 166.139 108.847V3.19553C166.138 2.63219 165.93 2.09223 165.561 1.69389C165.193 1.29555 164.693 1.07131 164.171 1.07028H94.5686Z" fill="#E0E0E0"/>
<path d="M119.133 10.4393H26.4981V60.8692H119.133V10.4393Z" fill="#E0E0E0"/>
<path d="M120.34 10.4393H27.7054V60.8692H120.34V10.4393Z" fill="#F0F0F0"/>
<path d="M118.174 58.4987V12.8019L29.8755 12.8019V58.4987L118.174 58.4987Z" fill="#F5F5F5"/>
<path d="M36.4137 58.5027L60.3618 12.8059H71.5825L47.638 58.5027H36.4137Z" fill="white"/>
<path d="M51.4051 58.5027L75.3531 12.8059H86.5738L62.6294 58.5027H51.4051Z" fill="white"/>
<path d="M82.5981 58.5027L106.543 12.8059H111.163L87.219 58.5027H82.5981Z" fill="white"/>
<path d="M89.4284 58.4987V12.8019H86.1628V58.4987H89.4284Z" fill="#E0E0E0"/>
<path d="M59.4752 58.4987V12.8019H56.2095V58.4987H59.4752Z" fill="#E0E0E0"/>
<path d="M90.5748 60.0053V11.0467H87.3091V60.0053H90.5748Z" fill="#F5F5F5"/>
<path d="M60.6213 60.0053V11.0467H57.3556V60.0053H60.6213Z" fill="#F5F5F5"/>
<path d="M118.174 58.4987V12.8019H117.262V58.4987H118.174Z" fill="#E0E0E0"/>
<path d="M142.014 75.7575C142.014 75.7575 135.403 63.4536 144.573 53.6603C144.573 53.6603 146.967 55.3419 146.931 57.6072C146.894 59.8726 144.368 60.4448 144.908 62.3365C145.449 64.2282 147.839 66.081 146.275 67.6418C144.71 69.2027 146.523 70.5962 146.419 72.5073C146.314 74.4185 142.014 75.7575 142.014 75.7575Z" fill="#E0E0E0"/>
<path d="M143.053 77.7703C143.053 77.7703 145.731 63.8433 134.168 57.6699C134.168 57.6699 132.391 60.0832 133.086 62.2201C133.782 64.3571 136.348 64.0418 136.384 66.0191C136.42 67.9965 134.697 70.5693 136.64 71.5191C138.583 72.4688 137.264 74.4072 137.923 76.19C138.583 77.9727 143.053 77.7703 143.053 77.7703Z" fill="#EBEBEB"/>
<path d="M137.166 74.2317C137.166 74.2317 137.281 80.0391 141.729 80.0391C146.177 80.0391 146.296 74.2317 146.296 74.2317H137.166Z" fill="#F5F5F5"/>
<path d="M106.301 75.5162C106.301 75.5162 106.452 80.0391 112.302 80.0391C118.152 80.0391 118.307 75.5162 118.307 75.5162H106.301Z" fill="#EBEBEB"/>
<path d="M119.879 76.6373C119.879 76.6373 119.994 80.0393 124.392 80.0393C128.789 80.0393 128.901 76.6373 128.901 76.6373H119.879Z" fill="#EBEBEB"/>
<path d="M110.421 82.8611H100.574V125.51H110.421V82.8611Z" fill="#EBEBEB"/>
<path d="M151.021 125.506H102.462V128.429H151.021V125.506Z" fill="#EBEBEB"/>
<path d="M110.421 125.506H152.914V82.8572H110.421V125.506Z" fill="#F5F5F5"/>
<path d="M114.292 102.109H149.043V86.9833H114.292V102.109Z" fill="#EBEBEB"/>
<path d="M114.292 119.991H149.043V104.865H114.292V119.991Z" fill="#EBEBEB"/>
<path d="M135.583 88.6417H127.765C127.511 88.6417 127.266 88.5327 127.086 88.3386C126.906 88.1446 126.804 87.8812 126.803 87.6063C126.804 87.331 126.906 87.0672 127.086 86.8725C127.266 86.6779 127.51 86.568 127.765 86.567H135.583C135.838 86.568 136.083 86.6779 136.263 86.8725C136.443 87.0672 136.545 87.331 136.546 87.6063C136.545 87.8812 136.443 88.1446 136.263 88.3386C136.082 88.5327 135.838 88.6417 135.583 88.6417Z" fill="#F5F5F5"/>
<path d="M135.583 106.523H127.765C127.511 106.523 127.266 106.414 127.086 106.22C126.906 106.026 126.804 105.763 126.803 105.488C126.804 105.212 126.906 104.949 127.086 104.754C127.266 104.559 127.51 104.449 127.765 104.448H135.583C135.838 104.449 136.083 104.559 136.263 104.754C136.443 104.949 136.545 105.212 136.546 105.488C136.545 105.763 136.443 106.026 136.263 106.22C136.082 106.414 135.838 106.523 135.583 106.523Z" fill="#F5F5F5"/>
<path d="M154.222 80.0392H110.417V82.8612H154.222V80.0392Z" fill="#EBEBEB"/>
<path d="M99.193 82.8574H110.417V80.0354H99.193V82.8574Z" fill="#E0E0E0"/>
<path d="M152.027 17.5388H130.696V44.0771H152.027V17.5388Z" fill="#EBEBEB"/>
<path d="M154.449 17.5388H131.334V44.0771H154.449V17.5388Z" fill="#F5F5F5"/>
<path d="M152.514 41.9832V19.6292H133.27V41.9832H152.514Z" fill="white"/>
<path d="M147.85 34.7318V26.8809C147.85 25.8683 147.09 25.0475 146.152 25.0475H139.632C138.694 25.0475 137.934 25.8683 137.934 26.8809V34.7318C137.934 35.7443 138.694 36.5651 139.632 36.5651H146.152C147.09 36.5651 147.85 35.7443 147.85 34.7318Z" fill="#F5F5F5"/>
<path d="M97.7692 103.721H95.293V128.43H97.7692V103.721Z" fill="#E0E0E0"/>
<path opacity="0.5" d="M97.7689 103.721H96.529V128.43H97.7689V103.721Z" fill="#F5F5F5"/>
<path d="M86.9232 110.641H85.2219C85.4082 110.471 85.5579 110.258 85.6606 110.019C85.7633 109.78 85.8165 109.519 85.8166 109.255H65.6568C65.6576 109.519 65.7116 109.78 65.8149 110.019C65.9182 110.259 66.0684 110.471 66.2552 110.641H64.5755C63.9732 110.641 63.3957 110.9 62.9698 111.359C62.5439 111.819 62.3047 112.443 62.3047 113.093V120.244C62.3047 120.894 62.5439 121.518 62.9698 121.978C63.3957 122.438 63.9732 122.696 64.5755 122.696H86.9232C87.5255 122.696 88.103 122.438 88.5289 121.978C88.9548 121.518 89.194 120.894 89.194 120.244V113.093C89.194 112.443 88.9548 111.819 88.5289 111.359C88.103 110.9 87.5255 110.641 86.9232 110.641Z" fill="#F5F5F5"/>
<path d="M68.2773 115.923H54.7209C53.8768 115.923 53.1926 116.662 53.1926 117.573V121.045C53.1926 121.957 53.8768 122.696 54.7209 122.696H68.2773C69.1213 122.696 69.8055 121.957 69.8055 121.045V117.573C69.8055 116.662 69.1213 115.923 68.2773 115.923Z" fill="#EBEBEB"/>
<path d="M69.2937 114.429H53.7044C53.4217 114.429 53.1926 114.676 53.1926 114.981V115.612C53.1926 115.917 53.4217 116.165 53.7044 116.165H69.2937C69.5764 116.165 69.8055 115.917 69.8055 115.612V114.981C69.8055 114.676 69.5764 114.429 69.2937 114.429Z" fill="#E0E0E0"/>
<path d="M71.3374 92.6856C71.3374 92.6856 71.5717 100.86 80.4387 100.86C89.3057 100.86 89.54 92.6856 89.54 92.6856H71.3374Z" fill="#EBEBEB"/>
<path d="M28.5707 103.721H39.6292V100.864H28.5707V103.721Z" fill="#E0E0E0"/>
<path d="M106.352 100.864H39.6329V103.721H106.352V100.864Z" fill="#F5F5F5"/>
<path d="M28.5707 125.553H39.6292V122.696H28.5707V125.553Z" fill="#E0E0E0"/>
<path d="M31.0507 103.721H28.5744V128.43H31.0507V103.721Z" fill="#E0E0E0"/>
<path opacity="0.5" d="M31.0506 103.721H29.8107V128.43H31.0506V103.721Z" fill="#F5F5F5"/>
<path d="M40.8692 103.721H38.3929V128.43H40.8692V103.721Z" fill="#F5F5F5"/>
<path d="M39.6329 103.721H38.3929V128.43H39.6329V103.721Z" fill="#E0E0E0"/>
<path d="M106.348 103.721H103.872V128.43H106.348V103.721Z" fill="#F5F5F5"/>
<path d="M105.111 103.721H103.872V128.43H105.111V103.721Z" fill="#E0E0E0"/>
<path d="M106.352 122.696H39.6329V125.553H106.352V122.696Z" fill="#F5F5F5"/>
<path d="M57.4242 99.1782H43.9724V100.864H57.4242V99.1782Z" fill="#E0E0E0"/>
<path d="M57.4243 100.86H62.2435V99.1743H57.4243V100.86Z" fill="#EBEBEB"/>
<path d="M90.8883 146.007C129.486 146.007 160.775 144.035 160.775 141.601C160.775 139.168 129.486 137.195 90.8883 137.195C52.2908 137.195 21.0013 139.168 21.0013 141.601C21.0013 144.035 52.2908 146.007 90.8883 146.007Z" fill="#F5F5F5"/>
<path d="M79.3067 38.2426C79.3319 42.8551 76.2717 42.8084 76.333 41.376C76.3942 39.9436 75.6373 36.5144 76.333 36.8452C77.0286 37.1761 79.2958 36.203 79.3067 38.2426Z" fill="#263238"/>
<path d="M77.3821 46.5956C77.8038 46.5606 78.6509 46.9849 78.7266 48.1876C78.7463 48.5371 78.8408 48.8768 79.0029 49.1801C79.1649 49.4834 79.3898 49.7419 79.6601 49.9353C79.6601 49.9353 78.258 50.1182 77.3388 49.332C76.5891 48.6975 76.2575 47.3079 76.6504 46.9965C76.8657 46.8092 77.1149 46.6726 77.3821 46.5956Z" fill="#263238"/>
<path d="M76.8302 43.3181C77.5511 44.0071 78.2107 45.8287 76.5851 46.6928C74.9595 47.5569 72.4039 45.5446 72.4039 45.5446L75.2118 44.1394L76.8302 43.3181Z" fill="#263238"/>
<path d="M77.6309 46.7629C77.5912 46.5107 77.526 46.2639 77.4362 46.0272C77.4285 46.0047 77.4162 45.9843 77.4002 45.9677C77.3841 45.951 77.3648 45.9385 77.3437 45.931C77.3226 45.9235 77.3001 45.9213 77.2781 45.9244C77.256 45.9276 77.235 45.9361 77.2164 45.9493L76.2179 46.6694C76.1979 46.6841 76.1814 46.7038 76.1701 46.7268C76.1587 46.7499 76.1527 46.7756 76.1527 46.8018C76.1527 46.8279 76.1587 46.8537 76.1701 46.8767C76.1814 46.8998 76.1979 46.9195 76.2179 46.9341C76.3616 47.0479 76.5163 47.1445 76.6793 47.2222C76.9136 47.3234 77.4002 47.0353 77.566 46.9108C77.5888 46.8954 77.607 46.8733 77.6185 46.8471C77.63 46.8209 77.6343 46.7916 77.6309 46.7629Z" fill="#412525"/>
<path opacity="0.3" d="M77.6309 46.7629C77.5912 46.5107 77.526 46.2639 77.4362 46.0272C77.4285 46.0047 77.4162 45.9843 77.4002 45.9677C77.3841 45.951 77.3648 45.9385 77.3437 45.931C77.3226 45.9235 77.3001 45.9213 77.2781 45.9244C77.256 45.9276 77.235 45.9361 77.2164 45.9493L76.2179 46.6694C76.1979 46.6841 76.1814 46.7038 76.1701 46.7268C76.1587 46.7499 76.1527 46.7756 76.1527 46.8018C76.1527 46.8279 76.1587 46.8537 76.1701 46.8767C76.1814 46.8998 76.1979 46.9195 76.2179 46.9341C76.3616 47.0479 76.5163 47.1445 76.6793 47.2222C76.9136 47.3234 77.4002 47.0353 77.566 46.9108C77.5888 46.8954 77.607 46.8733 77.6185 46.8471C77.63 46.8209 77.6343 46.7916 77.6309 46.7629Z" fill="black"/>
<path d="M66.8858 44.8519C66.4857 44.7078 65.5702 44.9025 65.2314 46.0546C65.1351 46.3889 64.9686 46.6946 64.7447 46.9479C64.5208 47.2011 64.2458 47.3949 63.941 47.5143C63.941 47.5143 65.2638 48.0514 66.3307 47.5143C67.1958 47.09 67.8086 45.8211 67.5094 45.4163C67.3417 45.1817 67.129 44.9891 66.8858 44.8519Z" fill="#263238"/>
<path d="M70.858 36.9307C69.3981 37.3588 67.4337 39.2272 68.306 41.5198C67.4445 42.1543 66.3416 43.9798 67.632 45.1475C69.0197 46.4048 72.4331 44.6415 72.4331 44.6415L72.4583 44.0421L72.8656 39.5814L70.858 36.9307Z" fill="#263238"/>
<path d="M66.6079 44.9531C66.7047 44.7175 66.8256 44.4942 66.9683 44.2875C66.9825 44.2688 67.0004 44.2537 67.0207 44.2433C67.0409 44.233 67.0631 44.2276 67.0855 44.2276C67.1079 44.2276 67.13 44.233 67.1503 44.2433C67.1705 44.2537 67.1884 44.2688 67.2026 44.2875L68.01 45.2412C68.0263 45.2606 68.038 45.2839 68.0442 45.3092C68.0504 45.3346 68.0509 45.3611 68.0456 45.3867C68.0403 45.4123 68.0294 45.4361 68.0138 45.4561C67.9982 45.4762 67.9784 45.4919 67.956 45.502C67.7921 45.5741 67.6218 45.6276 67.4477 45.6615C67.1954 45.7005 66.8061 45.2996 66.6547 45.1361C66.6303 45.1146 66.6126 45.0855 66.6042 45.0527C66.5958 45.0199 66.5971 44.9851 66.6079 44.9531Z" fill="#412525"/>
<path opacity="0.3" d="M66.6079 44.9531C66.7047 44.7175 66.8256 44.4942 66.9683 44.2875C66.9825 44.2688 67.0004 44.2537 67.0207 44.2433C67.0409 44.233 67.0631 44.2276 67.0855 44.2276C67.1079 44.2276 67.13 44.233 67.1503 44.2433C67.1705 44.2537 67.1884 44.2688 67.2026 44.2875L68.01 45.2412C68.0263 45.2606 68.038 45.2839 68.0442 45.3092C68.0504 45.3346 68.0509 45.3611 68.0456 45.3867C68.0403 45.4123 68.0294 45.4361 68.0138 45.4561C67.9982 45.4762 67.9784 45.4919 67.956 45.502C67.7921 45.5741 67.6218 45.6276 67.4477 45.6615C67.1954 45.7005 66.8061 45.2996 66.6547 45.1361C66.6303 45.1146 66.6126 45.0855 66.6042 45.0527C66.5958 45.0199 66.5971 44.9851 66.6079 44.9531Z" fill="black"/>
<path d="M79.7426 53.1775C80.4311 53.7536 81.1844 54.3686 81.9414 54.9291C82.6983 55.4896 83.4588 56.054 84.241 56.5717C85.0232 57.0893 85.8162 57.572 86.6164 58.0313L87.2183 58.3622L87.8311 58.6697C88.0329 58.7748 88.2384 58.8682 88.4474 58.9538L88.7538 59.09C88.8583 59.1329 88.9701 59.1873 89.035 59.2068C89.4117 59.3315 89.7976 59.4213 90.1884 59.4754C90.6137 59.5416 91.0607 59.5883 91.5148 59.6233C92.4196 59.6856 93.3495 59.7128 94.2831 59.7167C95.2166 59.7206 96.161 59.7167 97.1018 59.6856C98.0425 59.6544 98.9941 59.6311 99.9313 59.5999L100.108 61.1297C98.2147 61.5419 96.303 61.8473 94.3804 62.0444C93.4108 62.1378 92.4376 62.2078 91.4427 62.2156C90.9453 62.2156 90.4407 62.2156 89.9217 62.165C89.3635 62.1295 88.8103 62.0317 88.2708 61.8731C88.105 61.8264 88.0005 61.7797 87.8779 61.7369L87.5175 61.6006C87.276 61.515 87.0381 61.4216 86.7966 61.3165L86.0973 61.0129L85.4125 60.6859C84.5075 60.2451 83.6255 59.7513 82.7704 59.2068C81.9197 58.6658 81.0835 58.1053 80.2761 57.5058C79.4687 56.9064 78.6901 56.2875 77.8972 55.5596L79.7426 53.1775Z" fill="#E4897B"/>
<path d="M76.0015 51.4302C76.899 50.675 80.5935 53.1467 81.7181 54.1782L80.8999 59.5225C80.8999 59.5225 75.5833 57.117 75.2625 55.4744C74.9309 53.7578 75.3238 52.0062 76.0015 51.4302Z" fill="#263238"/>
<path d="M99.5384 59.7326L101.766 57.8681L101.943 60.7524C101.943 60.7524 100.407 61.78 99.3942 61.1416L99.5384 59.7326Z" fill="#E4897B"/>
<path d="M103.752 57.5839L104.891 58.954L101.929 60.7523L101.752 57.868L103.752 57.5839Z" fill="#E4897B"/>
<path d="M61.4324 137.798L64.2403 138.024L65.2639 131.045L62.4596 130.819L61.4324 137.798Z" fill="#E4897B"/>
<path d="M41.568 128.044L43.9506 129.663L48.193 124.229L45.8105 122.606L41.568 128.044Z" fill="#E4897B"/>
<path d="M44.704 129.083L42.4729 126.658C42.4348 126.616 42.3836 126.59 42.3292 126.586C42.2747 126.582 42.2207 126.599 42.1773 126.635L40.148 128.274C40.0985 128.317 40.058 128.371 40.029 128.432C40 128.493 39.9833 128.56 39.9799 128.629C39.9765 128.698 39.9865 128.766 40.0093 128.83C40.032 128.895 40.067 128.953 40.1119 129.002C40.9013 129.831 41.323 130.189 42.3035 131.255C42.9054 131.913 43.7236 132.937 44.5563 133.844C45.3889 134.751 46.2612 133.906 45.998 133.454C44.7797 131.403 44.9996 130.636 44.9167 129.593C44.9045 129.401 44.829 129.22 44.704 129.083Z" fill="#263238"/>
<path d="M64.4278 137.588H61.263C61.2074 137.588 61.1535 137.609 61.1107 137.648C61.0679 137.686 61.0389 137.739 61.0288 137.799L60.5277 140.5C60.5162 140.568 60.5191 140.639 60.5364 140.706C60.5537 140.773 60.5849 140.835 60.6276 140.887C60.6703 140.939 60.7234 140.98 60.7829 141.007C60.8424 141.033 60.9068 141.045 60.9711 141.041C62.0741 141.021 62.6111 140.951 64.0024 140.951C64.8567 140.951 67.2465 141.045 68.4395 141.045C69.6326 141.045 69.7516 139.784 69.265 139.671C67.0843 139.157 65.6136 138.452 64.9036 137.775C64.7723 137.651 64.6025 137.584 64.4278 137.588Z" fill="#263238"/>
<path d="M65.2636 131.045L64.6941 134.922L61.9259 134.42L62.4558 130.823L65.2636 131.045Z" fill="#CE6F64"/>
<path d="M45.8101 122.61L48.1927 124.23L46.4373 126.479L44.0007 124.926L45.8101 122.61Z" fill="#CE6F64"/>
<path d="M63.5663 67.603L74.7906 69.9657C80.5901 53.0065 79.3286 52.4499 79.3286 52.4499C78.5129 51.9659 77.6703 51.5369 76.8055 51.1654L76.6541 51.1031C75.9332 50.819 75.789 50.7762 74.8302 50.4726C73.1794 50.0483 71.6403 49.6941 69.7335 49.4022L69.373 49.3477C69.0126 49.301 68.6846 49.262 68.353 49.227C68.1295 49.1998 67.906 49.1842 67.6934 49.1686L66.9725 49.1258C65.7397 49.0596 64.8567 49.0791 64.8567 49.0791C65.1991 59.6703 64.644 62.7103 63.5663 67.603Z" fill="#263238"/>
<path d="M71.3554 43.3181C71.3554 45.1553 71.0923 48.4678 69.7298 49.4097C69.7298 49.4097 69.856 51.3014 72.9018 51.9398C76.2539 52.6443 74.8265 50.4801 74.8265 50.4801C73.0856 49.6238 73.3848 48.168 73.9615 46.8602L71.3554 43.3181Z" fill="#E4897B"/>
<path d="M72.4187 44.7626L73.9614 46.8606C73.8262 47.1638 73.7153 47.4789 73.6298 47.8025C72.9485 47.5456 72.1375 46.518 72.188 45.7123C72.211 45.3833 72.2892 45.0615 72.4187 44.7626Z" fill="#CE6F64"/>
<path d="M71.193 39.0991C70.8325 42.0923 70.6126 43.3496 71.7228 45.1596C73.3917 47.8842 76.8736 47.7091 78.0595 44.8949C79.1408 42.3609 79.5445 37.8886 77.0754 36.1564C76.5334 35.7698 75.9088 35.5393 75.261 35.4868C74.6132 35.4342 73.9637 35.5614 73.3743 35.8563C72.7849 36.1512 72.275 36.6039 71.8932 37.1715C71.5114 37.739 71.2704 38.4026 71.193 39.0991Z" fill="#E4897B"/>
<path d="M80.2152 34.358C80.2655 34.8327 80.2325 35.3133 80.1179 35.7748C80.0916 35.6183 80.0567 35.4636 80.0133 35.3116C79.0257 31.7851 74.5778 32.6259 73.2369 34.1439C71.0743 33.4744 69.0161 34.0077 69.29 36.8686C69.3243 37.6056 69.5699 38.313 69.9929 38.8926C69.6577 39.8969 69.9929 41.4966 71.0995 41.5433C72.6566 41.6095 74.1344 39.3831 74.7292 38.1609C75.8105 38.3594 77.3677 38.5501 78.5499 38.2387C78.7482 38.3671 78.9104 38.4567 78.9104 38.4567C80.1683 37.7288 81.1271 37.0243 80.2152 34.358Z" fill="#263238"/>
<path d="M70.2344 41.1424C70.1903 41.7232 70.3599 42.2994 70.7066 42.746C71.1752 43.3338 71.7879 42.9874 72.0078 42.2906C72.1916 41.6601 72.1664 40.5974 71.5392 40.2666C71.401 40.1964 71.2488 40.1647 71.0964 40.1744C70.9439 40.184 70.7962 40.2346 70.6665 40.3216C70.5368 40.4087 70.4293 40.5294 70.3539 40.6727C70.2784 40.8161 70.2373 40.9775 70.2344 41.1424Z" fill="#E4897B"/>
<path d="M74.6212 69.9658C74.6212 69.9658 74.6645 94.0286 72.8406 103.09C70.9447 112.518 65.3685 133.965 65.3685 133.965L61.3315 133.4C61.3315 133.4 64.4927 111.735 65.8371 102.366C67.3041 92.1564 66.4066 68.2376 66.4066 68.2376L74.6212 69.9658Z" fill="#412525"/>
<path opacity="0.3" d="M74.6212 69.9658C74.6212 69.9658 74.6645 94.0286 72.8406 103.09C70.9447 112.518 65.3685 133.965 65.3685 133.965L61.3315 133.4C61.3315 133.4 64.4927 111.735 65.8371 102.366C67.3041 92.1564 66.4066 68.2376 66.4066 68.2376L74.6212 69.9658Z" fill="black"/>
<path d="M66.0569 134.342L60.6394 133.587L60.8701 131.516L67.0193 132.294L66.0569 134.342Z" fill="#263238"/>
<path d="M71.8278 69.3429C71.8278 69.3429 65.7831 89.2291 62.7806 100.684C59.6159 112.77 47.4832 126.137 47.4832 126.137L44.0049 123.965C44.0049 123.965 52.2952 111.276 55.341 99.9994C61.5443 77.1082 58.9959 72.2583 63.5664 67.603L71.8278 69.3429Z" fill="#412525"/>
<path opacity="0.3" d="M71.8278 69.3429C71.8278 69.3429 65.7831 89.2291 62.7806 100.684C59.6159 112.77 47.4832 126.137 47.4832 126.137L44.0049 123.965C44.0049 123.965 52.2952 111.276 55.341 99.9994C61.5443 77.1082 58.9959 72.2583 63.5664 67.603L71.8278 69.3429Z" fill="black"/>
<path d="M48.0489 126.74L43.2153 123.727L44.4192 121.867L49.7863 125.062L48.0489 126.74Z" fill="#263238"/>
<path d="M75.1941 40.8C75.1509 41.0414 75.2338 41.2593 75.3816 41.2905C75.5293 41.3216 75.6807 41.1504 75.742 40.9012C75.8033 40.6521 75.7024 40.438 75.5546 40.4069C75.4068 40.3758 75.2374 40.5587 75.1941 40.8Z" fill="#263238"/>
<path d="M77.7134 41.3295C77.6702 41.5709 77.7531 41.7927 77.9009 41.8239C78.0486 41.855 78.2 41.6837 78.2433 41.4346C78.2865 41.1855 78.2036 40.9714 78.0558 40.9442C77.9081 40.9169 77.7567 41.0843 77.7134 41.3295Z" fill="#263238"/>
<path d="M77.991 40.9478L78.5569 40.8972C78.5569 40.8972 78.2001 41.2903 77.991 40.9478Z" fill="#263238"/>
<path d="M76.9748 41.6053C77.0742 42.1955 77.2489 42.7679 77.4938 43.3063C77.3646 43.3716 77.2237 43.4055 77.0811 43.4055C76.9385 43.4055 76.7976 43.3716 76.6684 43.3063L76.9748 41.6053Z" fill="#DE5753"/>
<path d="M75.724 44.0849C75.4227 44.0317 75.1378 43.9005 74.8937 43.7026C74.6495 43.5047 74.4533 43.2459 74.3218 42.9483C74.3183 42.9397 74.3165 42.9303 74.3164 42.9209C74.3163 42.9114 74.318 42.9021 74.3214 42.8933C74.3248 42.8846 74.3297 42.8767 74.336 42.8701C74.3423 42.8635 74.3497 42.8583 74.3579 42.8549C74.3742 42.8483 74.3922 42.8487 74.4083 42.8559C74.4243 42.8631 74.4373 42.8767 74.4444 42.8938C74.5703 43.1673 74.754 43.4049 74.9807 43.5875C75.2073 43.77 75.4706 43.8925 75.7492 43.9448C75.7578 43.9462 75.766 43.9495 75.7734 43.9544C75.7808 43.9593 75.7872 43.9657 75.7922 43.9733C75.7973 43.981 75.8008 43.9896 75.8027 43.9987C75.8046 44.0079 75.8048 44.0173 75.8033 44.0265C75.7998 44.0456 75.7895 44.0623 75.7747 44.0732C75.7599 44.0842 75.7416 44.0884 75.724 44.0849Z" fill="#263238"/>
<path d="M74.6208 39.7646C74.5941 39.7643 74.5681 39.7555 74.5462 39.7392C74.5242 39.7228 74.5073 39.6998 74.4976 39.673C74.4879 39.6462 74.4859 39.6168 74.4918 39.5887C74.4976 39.5607 74.5112 39.5351 74.5306 39.5155C74.6852 39.359 74.8721 39.2445 75.0759 39.1816C75.2796 39.1186 75.4942 39.109 75.7021 39.1535C75.7362 39.1644 75.765 39.1891 75.7825 39.2225C75.8 39.2559 75.8048 39.2954 75.7958 39.3325C75.7865 39.369 75.7643 39.4001 75.7339 39.4191C75.7036 39.438 75.6675 39.4433 75.6336 39.4337C75.4685 39.4021 75.2989 39.4124 75.1382 39.4637C74.9774 39.5151 74.8299 39.6061 74.7073 39.7295C74.6834 39.7523 74.6526 39.7648 74.6208 39.7646Z" fill="#263238"/>
<path d="M79.1123 40.3054C79.0859 40.3058 79.0599 40.2974 79.038 40.2814C79.0161 40.2654 78.9993 40.2425 78.9897 40.2159C78.9279 40.0473 78.8306 39.8965 78.7055 39.7756C78.5803 39.6547 78.4309 39.5669 78.2688 39.5192C78.2516 39.5159 78.235 39.5089 78.2202 39.4987C78.2054 39.4885 78.1926 39.4753 78.1826 39.4597C78.1725 39.4442 78.1654 39.4266 78.1617 39.4081C78.1579 39.3896 78.1576 39.3704 78.1607 39.3518C78.1685 39.315 78.1887 39.2827 78.2173 39.2611C78.246 39.2395 78.2811 39.2302 78.3157 39.235C78.5213 39.2905 78.7117 39.3982 78.8709 39.5491C79.0302 39.7001 79.1537 39.89 79.2312 40.103C79.2383 40.1206 79.2421 40.1396 79.2423 40.1588C79.2424 40.178 79.2391 40.197 79.2324 40.2148C79.2257 40.2325 79.2157 40.2487 79.2031 40.2622C79.1906 40.2758 79.1756 40.2865 79.1592 40.2937L79.1123 40.3054Z" fill="#263238"/>
<path d="M75.4965 42.9327C75.3849 42.9331 75.2747 42.9056 75.1747 42.8522C75.0746 42.7988 74.9873 42.7211 74.9198 42.6252C74.7503 42.3397 74.6372 42.0194 74.5876 41.6845C74.538 41.3497 74.5529 41.0073 74.6315 40.679C74.8369 39.449 75.5506 38.4486 76.2246 38.4486C76.3368 38.4501 76.4473 38.4788 76.5477 38.5327C76.6482 38.5866 76.7361 38.6643 76.805 38.76C76.9739 39.0458 77.0866 39.366 77.1362 39.7008C77.1858 40.0356 77.1712 40.3778 77.0933 40.7062C76.8879 41.9362 76.1706 42.9327 75.4965 42.9327ZM76.2174 38.5576C75.5867 38.5576 74.909 39.5229 74.7108 40.7062C74.5846 41.4847 74.6855 42.1853 74.9811 42.5629C75.0412 42.6469 75.1181 42.7151 75.2062 42.7623C75.2942 42.8095 75.391 42.8345 75.4893 42.8353C76.1237 42.8353 76.7978 41.8739 76.996 40.6906H77.0393H76.996C77.0725 40.3778 77.088 40.0512 77.0414 39.7316C76.9949 39.412 76.8874 39.1063 76.7257 38.834C76.6665 38.7504 76.5908 38.6823 76.5042 38.6345C76.4175 38.5866 76.322 38.5604 76.2246 38.5576H76.2174Z" fill="#FAFAFA"/>
<path d="M78.2974 43.322C78.1809 43.3194 78.0663 43.2886 77.9622 43.2321C77.858 43.1755 77.7669 43.0945 77.6955 42.995C77.5336 42.7329 77.4241 42.4374 77.3738 42.1271C77.3236 41.8168 77.3337 41.4986 77.4035 41.1928C77.5873 40.0485 78.2794 39.1221 78.9462 39.1221C79.0631 39.1251 79.1778 39.1565 79.282 39.2137C79.3861 39.271 79.4771 39.3527 79.5482 39.4529C79.7089 39.7148 79.8178 40.0097 79.868 40.3191C79.9183 40.6286 79.9088 40.9459 79.8401 41.2512C79.6599 42.3995 78.9678 43.322 78.2974 43.322ZM78.9354 39.2194C78.3082 39.2194 77.6594 40.1107 77.4936 41.2123C77.4287 41.5041 77.4196 41.8072 77.4667 42.1029C77.5138 42.3987 77.6162 42.681 77.7676 42.9327C77.831 43.021 77.9117 43.0929 78.0039 43.1434C78.0962 43.1939 78.1976 43.2216 78.301 43.2247C78.9282 43.2247 79.5806 42.3372 79.7428 41.2356C79.8074 40.944 79.8167 40.6413 79.7702 40.3456C79.7238 40.05 79.6225 39.7675 79.4725 39.5152C79.4094 39.4263 79.3289 39.3536 79.2366 39.3024C79.1443 39.2512 79.0427 39.2229 78.939 39.2194H78.9354Z" fill="#FAFAFA"/>
<path d="M45.5331 130.496C45.1726 130.496 44.7941 129.897 44.5995 129.55C44.5924 129.539 44.5886 129.525 44.5886 129.511C44.5886 129.497 44.5924 129.484 44.5995 129.472C44.6075 129.461 44.618 129.453 44.63 129.447C44.642 129.442 44.655 129.44 44.668 129.441C44.7833 129.469 45.7746 129.702 45.9007 130.068C45.915 130.108 45.9189 130.152 45.9119 130.195C45.905 130.237 45.8874 130.277 45.8611 130.309C45.8256 130.368 45.7768 130.416 45.7195 130.449C45.6621 130.481 45.5979 130.498 45.5331 130.496ZM44.7797 129.62C45.0573 130.072 45.3276 130.34 45.5222 130.352C45.5655 130.352 45.608 130.341 45.6459 130.318C45.6838 130.296 45.7157 130.263 45.7385 130.224C45.7507 130.21 45.7589 130.193 45.7621 130.174C45.7653 130.155 45.7634 130.136 45.7565 130.119C45.6916 129.924 45.1762 129.729 44.7797 129.62Z" fill="#412525"/>
<path d="M44.942 129.621C44.8327 129.622 44.7238 129.609 44.6176 129.582C44.6067 129.578 44.5969 129.571 44.5887 129.562C44.5806 129.553 44.5745 129.543 44.5707 129.531C44.5623 129.509 44.5623 129.483 44.5707 129.461C44.5959 129.438 45.1474 128.85 45.5547 128.85H45.5836C45.634 128.854 45.6832 128.869 45.7279 128.894C45.7726 128.92 45.8118 128.955 45.8431 128.998C45.8798 129.039 45.9026 129.093 45.9079 129.15C45.9131 129.207 45.9004 129.265 45.8719 129.313C45.7566 129.523 45.2952 129.621 44.942 129.621ZM44.7798 129.469C45.1186 129.512 45.6665 129.407 45.7782 129.231C45.7962 129.204 45.8106 129.161 45.7566 129.087C45.7378 129.059 45.7129 129.035 45.6841 129.019C45.6553 129.003 45.6233 128.994 45.5908 128.994C45.2815 129.058 44.9982 129.224 44.7798 129.469Z" fill="#412525"/>
<path d="M65.4621 138.121C65.1638 138.113 64.867 138.073 64.5754 138.005C64.5616 138.002 64.5489 137.994 64.5392 137.983C64.5296 137.972 64.5233 137.958 64.5214 137.942C64.5198 137.928 64.5224 137.913 64.5288 137.899C64.5352 137.886 64.5452 137.875 64.5574 137.868C64.6908 137.798 65.8478 137.176 66.183 137.386C66.2135 137.407 66.2388 137.435 66.2564 137.469C66.274 137.503 66.2835 137.541 66.2839 137.58C66.2881 137.646 66.2775 137.712 66.253 137.772C66.2285 137.833 66.1909 137.886 66.1434 137.927C65.9428 138.072 65.703 138.141 65.4621 138.121ZM64.8025 137.911C65.4189 138.02 65.8839 137.993 66.0641 137.826C66.0948 137.797 66.1189 137.761 66.1345 137.72C66.1502 137.68 66.1569 137.636 66.1542 137.592C66.1549 137.577 66.1519 137.563 66.1456 137.55C66.1392 137.537 66.1298 137.526 66.1181 137.518C65.9379 137.405 65.2963 137.67 64.8025 137.911Z" fill="#412525"/>
<path d="M64.5932 138.005C64.5802 138.009 64.5665 138.009 64.5535 138.005C64.5429 137.997 64.5346 137.987 64.5295 137.974C64.5243 137.962 64.5227 137.948 64.5247 137.934C64.5247 137.88 64.6977 136.642 65.3249 136.642H65.379C65.5592 136.662 65.6096 136.759 65.6205 136.841C65.6709 137.183 64.9717 137.845 64.6184 138.008L64.5932 138.005ZM65.3141 136.775C64.9068 136.775 64.7266 137.491 64.6653 137.802C65.0257 137.572 65.5051 137.055 65.4763 136.849C65.4763 136.849 65.4763 136.786 65.3501 136.775H65.3141Z" fill="#412525"/>
<path d="M75.4717 40.4183L76.0376 40.3638C76.0376 40.3638 75.6808 40.7609 75.4717 40.4183Z" fill="#263238"/>
<path d="M72.9954 54.5282C68.3096 52.6092 66.8462 49.7366 66.9579 49.1333L67.6788 49.18H67.8014C67.9744 49.18 68.1618 49.2073 68.3384 49.2306C68.6701 49.2617 69.0125 49.3007 69.3585 49.3513L69.719 49.4058C71.4393 49.6307 73.1426 49.9885 74.8157 50.4762C75.5798 50.7175 75.8321 50.7954 76.2575 50.9588L76.6359 51.1067L76.7873 51.169C77.1622 52.0409 77.0793 53.8236 72.9954 54.5282Z" fill="#E4897B"/>
<path d="M72.9954 54.5282C68.3096 52.6092 66.8462 49.7366 66.9579 49.1333L67.6788 49.18H67.8014C68.753 50.6397 70.8363 52.6559 72.9594 52.9323C74.6679 52.543 76.2791 52.0993 76.2647 50.9588L76.6431 51.1067L76.7945 51.169C77.1622 52.0409 77.0793 53.8236 72.9954 54.5282Z" fill="#412525"/>
<path opacity="0.3" d="M72.9954 54.5282C68.3096 52.6092 66.8462 49.7366 66.9579 49.1333L67.6788 49.18H67.8014C68.753 50.6397 70.8363 52.6559 72.9594 52.9323C74.6679 52.543 76.2791 52.0993 76.2647 50.9588L76.6431 51.1067L76.7945 51.169C77.1622 52.0409 77.0793 53.8236 72.9954 54.5282Z" fill="black"/>
<path d="M63.5265 66.8556L62.8056 67.8365C62.7515 67.9104 62.8308 68.0155 62.9606 68.0428L74.7328 70.5183C74.8337 70.5417 74.9274 70.5183 74.9454 70.4366L75.241 69.374C75.2626 69.3 75.1869 69.2183 75.0752 69.1949L63.7067 66.805C63.6751 66.7978 63.6424 66.7987 63.6111 66.8074C63.5798 66.8162 63.5509 66.8327 63.5265 66.8556Z" fill="#263238"/>
<path d="M64.806 68.5487L64.5032 68.4864C64.442 68.4864 64.4023 68.4319 64.4131 68.3891L64.8096 67.0112C64.8096 66.9684 64.8817 66.9489 64.9394 66.9606L65.2458 67.0229C65.307 67.0229 65.3467 67.0813 65.3359 67.1202L64.9394 68.502C64.925 68.5245 64.9041 68.5413 64.88 68.5498C64.8559 68.5582 64.8299 68.5578 64.806 68.5487Z" fill="#412525"/>
<path opacity="0.3" d="M64.806 68.5487L64.5032 68.4864C64.442 68.4864 64.4023 68.4319 64.4131 68.3891L64.8096 67.0112C64.8096 66.9684 64.8817 66.9489 64.9394 66.9606L65.2458 67.0229C65.307 67.0229 65.3467 67.0813 65.3359 67.1202L64.9394 68.502C64.925 68.5245 64.9041 68.5413 64.88 68.5498C64.8559 68.5582 64.8299 68.5578 64.806 68.5487Z" fill="black"/>
<path d="M65.6064 53.7772C65.4695 54.6997 65.3397 55.7234 65.246 56.6809C65.1523 57.6384 65.0694 58.6271 65.0261 59.6236C65.0021 60.114 64.9877 60.6045 64.9829 61.0949C64.9829 61.5814 64.9829 62.068 64.9829 62.5545C65.0007 63.5078 65.0693 64.4591 65.1883 65.4038C65.2563 65.7273 65.3785 66.0346 65.5488 66.3107C65.7645 66.6898 66.0054 67.0514 66.2696 67.3928C66.8459 68.1309 67.4621 68.8314 68.1151 69.4908C68.7748 70.1759 69.4668 70.8376 70.1769 71.4837C70.887 72.1298 71.6187 72.7721 72.3396 73.391L71.5646 74.6833C69.8683 73.6792 68.2463 72.5354 66.713 71.2618C65.9214 70.6071 65.1746 69.8916 64.4782 69.121C64.1069 68.7077 63.7659 68.2639 63.4582 67.7937C63.0774 67.2375 62.8063 66.603 62.6616 65.9293L62.5282 65.1041C62.4814 64.8355 62.4489 64.5669 62.4201 64.3022C62.348 63.7651 62.3083 63.2318 62.2687 62.6986C62.1937 61.638 62.1709 60.5739 62.2002 59.5107C62.229 58.4558 62.2831 57.4049 62.3804 56.3578C62.4777 55.3108 62.6003 54.2832 62.7949 53.2011L65.6064 53.7772Z" fill="#E4897B"/>
<path d="M63.2132 49.8925C61.6705 51.2393 62.0382 55.2406 62.0382 55.2406L67.2286 57.0856C67.2286 57.0856 66.9907 52.4732 66.7384 50.815C66.4284 48.8416 64.7271 48.5652 63.2132 49.8925Z" fill="#263238"/>
<path d="M71.705 73.1417L74.0515 72.1997L73.6911 74.6091C73.6911 74.6091 71.9897 75.2708 71.1175 74.4223L71.705 73.1417Z" fill="#E4897B"/>
<path d="M76.8449 72.5578V74.4184L73.6909 74.6091L74.0514 72.1997L76.8449 72.5578Z" fill="#E4897B"/>
<path d="M73.871 70.4561L73.5682 70.3938C73.5069 70.3938 73.4673 70.3393 73.4781 70.2965L73.8746 68.9186C73.8746 68.8757 73.9467 68.8563 74.008 68.868L74.3107 68.9302C74.372 68.9302 74.4116 68.9886 74.4008 69.0275L74.0043 70.4093C73.9935 70.4483 73.9467 70.4716 73.871 70.4561Z" fill="#412525"/>
<path opacity="0.3" d="M73.871 70.4561L73.5682 70.3938C73.5069 70.3938 73.4673 70.3393 73.4781 70.2965L73.8746 68.9186C73.8746 68.8757 73.9467 68.8563 74.008 68.868L74.3107 68.9302C74.372 68.9302 74.4116 68.9886 74.4008 69.0275L74.0043 70.4093C73.9935 70.4483 73.9467 70.4716 73.871 70.4561Z" fill="black"/>
<path d="M69.3406 69.4984L69.0342 69.4361C68.9729 69.4361 68.9333 69.3816 68.9477 69.3388L69.3442 67.9609C69.3442 67.918 69.4127 67.8986 69.4739 67.9103L69.7803 67.9725C69.838 67.9725 69.8813 68.0309 69.8668 68.0698L69.4703 69.4517C69.4595 69.4984 69.4019 69.5178 69.3406 69.4984Z" fill="#412525"/>
<path opacity="0.3" d="M69.3406 69.4984L69.0342 69.4361C68.9729 69.4361 68.9333 69.3816 68.9477 69.3388L69.3442 67.9609C69.3442 67.918 69.4127 67.8986 69.4739 67.9103L69.7803 67.9725C69.838 67.9725 69.8813 68.0309 69.8668 68.0698L69.4703 69.4517C69.4595 69.4984 69.4019 69.5178 69.3406 69.4984Z" fill="black"/>
<path d="M46.3835 92.1951L65.069 136.265C65.4974 137.266 66.2753 138.044 67.2329 138.429C68.1905 138.813 69.2501 138.773 70.1802 138.316L73.1466 136.853L141.837 102.891C142.765 102.43 143.486 101.591 143.843 100.558C144.199 99.5242 144.162 98.3802 143.74 97.3759L127.228 58.4519L125.065 53.3101C124.636 52.3092 123.858 51.532 122.901 51.1478C121.944 50.7636 120.884 50.8035 119.954 51.2588L48.2938 86.6796C47.366 87.1408 46.6446 87.9794 46.2867 89.0125C45.9289 90.0456 45.9637 91.1896 46.3835 92.1951Z" fill="#412525"/>
<path opacity="0.1" d="M46.3835 92.1951L65.069 136.265C65.4974 137.266 66.2753 138.044 67.2329 138.429C68.1905 138.813 69.2501 138.773 70.1802 138.316L73.1466 136.853L141.837 102.891C142.765 102.43 143.486 101.591 143.843 100.558C144.199 99.5242 144.162 98.3802 143.74 97.3759L127.228 58.4519L125.065 53.3101C124.636 52.3092 123.858 51.532 122.901 51.1478C121.944 50.7636 120.884 50.8035 119.954 51.2588L48.2938 86.6796C47.366 87.1408 46.6446 87.9794 46.2867 89.0125C45.9289 90.0456 45.9637 91.1896 46.3835 92.1951Z" fill="white"/>
<path d="M63.1741 131.796L141.843 92.9019L132.636 71.1859L53.9672 110.08L63.1741 131.796Z" fill="#412525"/>
<path opacity="0.3" d="M63.1741 131.796L141.843 92.9019L132.636 71.1859L53.9672 110.08L63.1741 131.796Z" fill="white"/>
<path d="M82.9597 113.582L132.673 89.003L129.378 81.2311L79.6646 105.81L82.9597 113.582Z" fill="#412525"/>
<path opacity="0.8" d="M82.9597 113.582L132.673 89.003L129.378 81.2311L79.6646 105.81L82.9597 113.582Z" fill="white"/>
<path d="M55.724 114.231L134.393 75.337L129.48 63.75L50.8115 102.644L55.724 114.231Z" fill="#412525"/>
<path opacity="0.3" d="M55.724 114.231L134.393 75.337L129.48 63.75L50.8115 102.644L55.724 114.231Z" fill="black"/>
<g style="mix-blend-mode:multiply">
<path d="M57.0672 92.7479L73.1467 136.837L141.837 102.876C142.765 102.415 143.486 101.576 143.843 100.542C144.199 99.5087 144.162 98.3647 143.74 97.3604L127.228 58.4365L59.2443 87.3492C58.2946 87.7561 57.5327 88.5522 57.1248 89.5638C56.7169 90.5753 56.6962 91.72 57.0672 92.7479Z" fill="#412525"/>
</g>
<path d="M147.986 78.8122L147.646 78.9409L148.209 80.6701L148.548 80.5414L147.986 78.8122Z" fill="#412525"/>
<path opacity="0.1" d="M147.986 78.8122L147.646 78.9409L148.209 80.6701L148.548 80.5414L147.986 78.8122Z" fill="white"/>
<path d="M145.146 70.1141L144.806 70.243L147.022 77.0592L147.362 76.9303L145.146 70.1141Z" fill="#412525"/>
<path opacity="0.1" d="M145.146 70.1141L144.806 70.243L147.022 77.0592L147.362 76.9303L145.146 70.1141Z" fill="white"/>
<path d="M61.8506 87.5007L136.211 59.3003C137.175 58.9378 138.234 59.0025 139.154 59.4802C140.075 59.958 140.783 60.8099 141.124 61.8498L155.996 107.582C156.332 108.623 156.272 109.766 155.831 110.761C155.389 111.756 154.601 112.521 153.638 112.891L79.2782 141.091C78.313 141.453 77.2546 141.388 76.3336 140.91C75.4127 140.433 74.7039 139.581 74.3617 138.542L59.4897 92.81C59.1539 91.7677 59.2136 90.6243 59.656 89.6295C60.0984 88.6347 60.8874 87.8693 61.8506 87.5007Z" fill="#412525"/>
<path opacity="0.1" d="M61.8506 87.5007L136.211 59.3003C137.175 58.9378 138.234 59.0025 139.154 59.4802C140.075 59.958 140.783 60.8099 141.124 61.8498L155.996 107.582C156.332 108.623 156.272 109.766 155.831 110.761C155.389 111.756 154.601 112.521 153.638 112.891L79.2782 141.091C78.313 141.453 77.2546 141.388 76.3336 140.91C75.4127 140.433 74.7039 139.581 74.3617 138.542L59.4897 92.81C59.1539 91.7677 59.2136 90.6243 59.656 89.6295C60.0984 88.6347 60.8874 87.8693 61.8506 87.5007Z" fill="white"/>
<path d="M71.6515 130.202L153.286 99.2444L146.816 79.3504L65.1819 110.308L71.6515 130.202Z" fill="#412525"/>
<path opacity="0.3" d="M71.6515 130.202L153.286 99.2444L146.816 79.3504L65.1819 110.308L71.6515 130.202Z" fill="white"/>
<path d="M121.092 78.9089L137.967 72.5094L137.044 69.6705L120.169 76.07L121.092 78.9089Z" fill="#412525"/>
<path opacity="0.8" d="M121.092 78.9089L137.967 72.5094L137.044 69.6705L120.169 76.07L121.092 78.9089Z" fill="white"/>
<path d="M135.294 111.052L148.833 105.917L148.351 104.434L134.812 109.568L135.294 111.052Z" fill="#412525"/>
<path opacity="0.8" d="M135.294 111.052L148.833 105.917L148.351 104.434L134.812 109.568L135.294 111.052Z" fill="white"/>
<path d="M132.309 115.374L149.755 108.757L149.272 107.274L131.826 113.89L132.309 115.374Z" fill="#412525"/>
<path opacity="0.8" d="M132.309 115.374L149.755 108.757L149.272 107.274L131.826 113.89L132.309 115.374Z" fill="white"/>
<path d="M79.3796 135.447L88.1028 132.139L87.065 128.947L78.3418 132.255L79.3796 135.447Z" fill="#412525"/>
<path opacity="0.8" d="M79.3796 135.447L88.1028 132.139L87.065 128.947L78.3418 132.255L79.3796 135.447Z" fill="white"/>
<path d="M133.706 101.611L143.892 97.7495C144.429 97.5431 144.869 97.1162 145.116 96.5615C145.363 96.0068 145.397 95.3692 145.211 94.7874C145.02 94.2075 144.625 93.7325 144.111 93.4657C143.597 93.199 143.007 93.162 142.468 93.3628L132.278 97.2279C131.741 97.4343 131.301 97.8612 131.054 98.4159C130.807 98.9706 130.773 99.6082 130.959 100.19C131.151 100.77 131.547 101.245 132.061 101.511C132.576 101.777 133.167 101.813 133.706 101.611Z" fill="#412525"/>
<path d="M116.256 108.228L126.446 104.363C126.979 104.155 127.415 103.731 127.661 103.18C127.907 102.629 127.944 101.995 127.762 101.416C127.57 100.837 127.174 100.363 126.661 100.097C126.147 99.8307 125.557 99.7943 125.019 99.9953L114.833 103.86C114.296 104.067 113.856 104.494 113.609 105.048C113.362 105.603 113.327 106.241 113.513 106.823C113.708 107.399 114.105 107.869 114.618 108.132C115.131 108.395 115.72 108.429 116.256 108.228Z" fill="#412525"/>
<path d="M98.8178 114.845L109.008 110.98C109.539 110.771 109.974 110.345 110.219 109.795C110.463 109.244 110.498 108.611 110.316 108.033C110.124 107.454 109.729 106.98 109.215 106.714C108.701 106.448 108.111 106.411 107.573 106.612L97.376 110.462C96.8397 110.669 96.4007 111.096 96.1543 111.651C95.908 112.206 95.8742 112.843 96.0604 113.424C96.2521 114.007 96.6501 114.484 97.167 114.75C97.6839 115.017 98.2776 115.051 98.8178 114.845Z" fill="#412525"/>
<path d="M81.3613 121.462L91.5511 117.597C92.0847 117.39 92.5219 116.966 92.7686 116.415C93.0154 115.864 93.0519 115.23 92.8703 114.65C92.6785 114.071 92.2829 113.597 91.7693 113.331C91.2557 113.065 90.6657 113.029 90.1273 113.23L79.9375 117.095C79.4005 117.301 78.9607 117.728 78.7137 118.283C78.4666 118.837 78.4323 119.475 78.6183 120.057C78.813 120.633 79.2098 121.104 79.7231 121.367C80.2363 121.629 80.8248 121.664 81.3613 121.462Z" fill="#412525"/>
<g opacity="0.8">
<path opacity="0.8" d="M133.706 101.611L143.892 97.7494C144.429 97.543 144.869 97.1161 145.116 96.5614C145.363 96.0067 145.397 95.3691 145.211 94.7873C145.02 94.2074 144.625 93.7325 144.111 93.4657C143.598 93.1989 143.007 93.1619 142.468 93.3627L132.278 97.2278C131.741 97.4342 131.302 97.8612 131.055 98.4159C130.808 98.9705 130.773 99.6081 130.959 100.19C131.151 100.77 131.547 101.245 132.062 101.511C132.576 101.777 133.167 101.813 133.706 101.611Z" fill="white"/>
<path opacity="0.8" d="M116.257 108.227L126.446 104.362C126.979 104.155 127.416 103.73 127.662 103.179C127.908 102.628 127.944 101.995 127.762 101.416C127.57 100.837 127.175 100.362 126.661 100.096C126.147 99.8304 125.557 99.794 125.019 99.995L114.833 103.86C114.296 104.066 113.856 104.493 113.609 105.048C113.362 105.603 113.328 106.24 113.514 106.822C113.708 107.399 114.105 107.869 114.618 108.132C115.132 108.395 115.72 108.429 116.257 108.227Z" fill="white"/>
<path opacity="0.8" d="M98.818 114.845L109.008 110.98C109.539 110.771 109.974 110.345 110.219 109.795C110.463 109.244 110.498 108.611 110.316 108.033C110.124 107.454 109.729 106.98 109.215 106.714C108.702 106.448 108.112 106.411 107.573 106.612L97.3762 110.462C96.8399 110.669 96.4009 111.096 96.1546 111.651C95.9083 112.206 95.8745 112.843 96.0606 113.424C96.2523 114.007 96.6503 114.484 97.1672 114.75C97.6842 115.017 98.2779 115.051 98.818 114.845Z" fill="white"/>
<path opacity="0.8" d="M81.3612 121.462L91.551 117.597C92.0846 117.39 92.5218 116.966 92.7685 116.415C93.0152 115.864 93.0518 115.23 92.8702 114.65C92.6784 114.071 92.2827 113.597 91.7692 113.331C91.2556 113.065 90.6656 113.029 90.1272 113.23L79.9374 117.095C79.4004 117.301 78.9606 117.728 78.7135 118.283C78.4665 118.837 78.4322 119.475 78.6182 120.057C78.8128 120.633 79.2097 121.104 79.723 121.367C80.2362 121.629 80.8247 121.664 81.3612 121.462Z" fill="white"/>
</g>
<path d="M132.799 92.7577L141.865 89.3194C142.635 89.0273 143.04 88.1165 142.77 87.2849L140.881 81.4749C140.61 80.6433 139.767 80.2059 138.997 80.498L129.93 83.9363C129.16 84.2283 128.755 85.1392 129.025 85.9708L130.915 91.7808C131.185 92.6123 132.029 93.0497 132.799 92.7577Z" fill="#412525"/>
<path opacity="0.3" d="M132.799 92.7577L141.865 89.3194C142.635 89.0273 143.04 88.1165 142.77 87.2849L140.881 81.4749C140.61 80.6433 139.767 80.2059 138.997 80.498L129.93 83.9363C129.16 84.2283 128.755 85.1392 129.025 85.9708L130.915 91.7808C131.185 92.6123 132.029 93.0497 132.799 92.7577Z" fill="black"/>
<path d="M79.3535 98.7732C78.0455 98.7735 76.785 98.2435 75.8217 97.2881C74.8583 96.3326 74.2623 95.0214 74.1516 93.614C74.0409 92.2065 74.4237 90.8055 75.224 89.6883C76.0243 88.5711 77.184 87.8192 78.4733 87.5813C79.7626 87.3434 81.0876 87.637 82.1861 88.404C83.2845 89.1709 84.0762 90.3552 84.4044 91.7225C84.7327 93.0898 84.5736 94.5404 83.9586 95.787C83.3436 97.0336 82.3176 97.9854 81.0836 98.454C80.5278 98.6655 79.9428 98.7734 79.3535 98.7732ZM79.3535 87.8745C78.7999 87.8756 78.2504 87.977 77.7279 88.1742C76.5034 88.639 75.5001 89.6098 74.9384 90.8733C74.3767 92.1368 74.3026 93.5895 74.7326 94.9119C75.0306 95.8251 75.5553 96.6323 76.2493 97.2453C76.9434 97.8582 77.7801 98.2534 78.6681 98.3875C79.5561 98.5216 80.4611 98.3896 81.2843 98.0059C82.1075 97.6222 82.8172 97.0015 83.3358 96.2117C83.8544 95.4218 84.162 94.4932 84.225 93.5274C84.2879 92.5615 84.1038 91.5956 83.6928 90.7351C83.2818 89.8746 82.6596 89.1526 81.8944 88.6481C81.1291 88.1436 80.2501 87.876 79.3535 87.8745Z" fill="#412525"/>
<path opacity="0.8" d="M79.3535 98.7732C78.0455 98.7735 76.785 98.2435 75.8217 97.2881C74.8583 96.3326 74.2623 95.0214 74.1516 93.614C74.0409 92.2065 74.4237 90.8055 75.224 89.6883C76.0243 88.5711 77.184 87.8192 78.4733 87.5813C79.7626 87.3434 81.0876 87.637 82.1861 88.404C83.2845 89.1709 84.0762 90.3552 84.4044 91.7225C84.7327 93.0898 84.5736 94.5404 83.9586 95.787C83.3436 97.0336 82.3176 97.9854 81.0836 98.454C80.5278 98.6655 79.9428 98.7734 79.3535 98.7732ZM79.3535 87.8745C78.7999 87.8756 78.2504 87.977 77.7279 88.1742C76.5034 88.639 75.5001 89.6098 74.9384 90.8733C74.3767 92.1368 74.3026 93.5895 74.7326 94.9119C75.0306 95.8251 75.5553 96.6323 76.2493 97.2453C76.9434 97.8582 77.7801 98.2534 78.6681 98.3875C79.5561 98.5216 80.4611 98.3896 81.2843 98.0059C82.1075 97.6222 82.8172 97.0015 83.3358 96.2117C83.8544 95.4218 84.162 94.4932 84.225 93.5274C84.2879 92.5615 84.1038 91.5956 83.6928 90.7351C83.2818 89.8746 82.6596 89.1526 81.8944 88.6481C81.1291 88.1436 80.2501 87.876 79.3535 87.8745Z" fill="white"/>
<path d="M67.1276 97.7845C67.4598 98.8 68.0633 99.6863 68.8618 100.332C69.6602 100.977 70.6179 101.352 71.6138 101.41C72.6097 101.468 73.5991 101.206 74.4572 100.658C75.3153 100.109 76.0036 99.2975 76.4351 98.3265C76.8665 97.3555 77.0219 96.2682 76.8815 95.2019C76.7412 94.1357 76.3113 93.1382 75.6464 92.3355C74.9814 91.5329 74.1111 90.961 73.1453 90.6921C72.1795 90.4233 71.1617 90.4695 70.2202 90.8249C69.5933 91.0615 69.0158 91.4295 68.5209 91.9077C68.0259 92.3858 67.6233 92.9648 67.336 93.6114C67.0487 94.2579 66.8823 94.9594 66.8466 95.6755C66.8108 96.3916 66.9063 97.1083 67.1276 97.7845Z" fill="#412525"/>
<path opacity="0.8" d="M67.1276 97.7845C67.4598 98.8 68.0633 99.6863 68.8618 100.332C69.6602 100.977 70.6179 101.352 71.6138 101.41C72.6097 101.468 73.5991 101.206 74.4572 100.658C75.3153 100.109 76.0036 99.2975 76.4351 98.3265C76.8665 97.3555 77.0219 96.2682 76.8815 95.2019C76.7412 94.1357 76.3113 93.1382 75.6464 92.3355C74.9814 91.5329 74.1111 90.961 73.1453 90.6921C72.1795 90.4233 71.1617 90.4695 70.2202 90.8249C69.5933 91.0615 69.0158 91.4295 68.5209 91.9077C68.0259 92.3858 67.6233 92.9648 67.336 93.6114C67.0487 94.2579 66.8823 94.9594 66.8466 95.6755C66.8108 96.3916 66.9063 97.1083 67.1276 97.7845Z" fill="white"/>
</svg>
