<svg width="24" height="24" viewBox="0 0 24 24" fill="none" xmlns="http://www.w3.org/2000/svg">
<g clip-path="url(#clip0_502_8379)">
<path d="M2.66667 3.3335C1.95942 3.3335 1.28115 3.61445 0.781049 4.11454C0.280952 4.61464 0 5.29292 0 6.00016L0 18.0002C0 18.7074 0.280952 19.3857 0.781049 19.8858C1.28115 20.3859 1.95942 20.6668 2.66667 20.6668H8V3.3335H2.66667Z" fill="#009A49"/>
<path d="M8.00006 3.3335H16.0001V20.6668H8.00006V3.3335Z" fill="#EEEEEE"/>
<path d="M21.3333 3.3335H15.9999V20.6668H21.3333C22.0405 20.6668 22.7188 20.3859 23.2189 19.8858C23.719 19.3857 23.9999 18.7074 23.9999 18.0002V6.00016C23.9999 5.29292 23.719 4.61464 23.2189 4.11454C22.7188 3.61445 22.0405 3.3335 21.3333 3.3335Z" fill="#009A49"/>
</g>
<defs>
<clipPath id="clip0_502_8379">
<rect width="24" height="24" fill="white"/>
</clipPath>
</defs>
</svg>
