<svg width="346" height="139" viewBox="0 0 346 139" fill="none" xmlns="http://www.w3.org/2000/svg">
<path d="M337.406 118.636H169.629V118.727H337.406V118.636Z" fill="#E0E0E0"/>
<path d="M313.823 123.368H304.297V123.459H313.823V123.368Z" fill="#E0E0E0"/>
<path d="M301.837 123.412H293.324V123.502H301.837V123.412Z" fill="#E0E0E0"/>
<path d="M262.45 121.314H250.991V121.404H262.45V121.314Z" fill="#E0E0E0"/>
<path d="M284.059 124.122H268.134V124.213H284.059V124.122Z" fill="#E0E0E0"/>
<path d="M217.56 121.209H202.141V121.299H217.56V121.209Z" fill="#E0E0E0"/>
<path d="M224.66 121.209H219.422V121.299H224.66V121.209Z" fill="#E0E0E0"/>
<path d="M204.08 122.839H190.588V122.93H204.08V122.839Z" fill="#E0E0E0"/>
<path d="M249.155 102.475H184.363C183.856 102.474 183.369 102.255 183.01 101.868C182.652 101.48 182.45 100.954 182.45 100.406V2.05095C182.455 1.50597 182.658 0.984881 183.016 0.600869C183.374 0.216856 183.858 0.000933574 184.363 0H249.155C249.663 0 250.151 0.21799 250.51 0.606015C250.869 0.99404 251.071 1.52031 251.071 2.06906V100.406C251.071 100.955 250.869 101.481 250.51 101.869C250.151 102.257 249.663 102.475 249.155 102.475V102.475ZM184.363 0.0724719C183.878 0.0734317 183.413 0.2823 183.07 0.653232C182.727 1.02416 182.534 1.52685 182.534 2.05095V100.406C182.534 100.93 182.727 101.433 183.07 101.803C183.413 102.174 183.878 102.383 184.363 102.384H249.155C249.641 102.383 250.106 102.175 250.45 101.804C250.793 101.433 250.986 100.93 250.987 100.406V2.05095C250.986 1.52652 250.793 1.02384 250.45 0.653011C250.106 0.282183 249.641 0.0734297 249.155 0.0724719H184.363Z" fill="#E0E0E0"/>
<path d="M321.739 102.475H256.944C256.436 102.474 255.949 102.256 255.59 101.868C255.231 101.48 255.028 100.954 255.028 100.406V2.05095C255.033 1.50564 255.237 0.984554 255.596 0.600642C255.954 0.216729 256.439 0.000923393 256.944 0H321.739C322.243 0.00188589 322.726 0.21823 323.084 0.60214C323.441 0.986051 323.644 1.50659 323.648 2.05095V100.406C323.648 100.953 323.447 101.478 323.089 101.866C322.732 102.254 322.246 102.473 321.739 102.475V102.475ZM256.944 0.0724719C256.458 0.0734297 255.992 0.282183 255.649 0.653011C255.306 1.02384 255.112 1.52652 255.111 2.05095V100.406C255.112 100.93 255.306 101.433 255.649 101.804C255.992 102.175 256.458 102.383 256.944 102.384H321.739C322.225 102.383 322.69 102.175 323.033 101.804C323.377 101.433 323.57 100.93 323.571 100.406V2.05095C323.57 1.52652 323.377 1.02384 323.033 0.653011C322.69 0.282183 322.225 0.0734297 321.739 0.0724719H256.944Z" fill="#E0E0E0"/>
<path d="M279.811 8.79443H193.574V55.7415H279.811V8.79443Z" fill="#E0E0E0"/>
<path d="M280.935 8.79443H194.698V55.7415H280.935V8.79443Z" fill="#F0F0F0"/>
<path d="M278.919 53.5347V10.9939L196.718 10.9939V53.5347L278.919 53.5347Z" fill="#F5F5F5"/>
<path d="M202.805 53.5384L225.099 10.9976H235.545L213.254 53.5384H202.805Z" fill="white"/>
<path d="M216.761 53.5384L239.055 10.9976H249.501L227.21 53.5384H216.761Z" fill="white"/>
<path d="M245.8 53.5384L268.091 10.9976H272.392L250.102 53.5384H245.8Z" fill="white"/>
<path d="M252.158 53.5347V10.9939H249.118V53.5347H252.158Z" fill="#E0E0E0"/>
<path d="M224.274 53.5347V10.9939H221.234V53.5347H224.274Z" fill="#E0E0E0"/>
<path d="M253.226 54.9372V9.35986H250.185V54.9372H253.226Z" fill="#F5F5F5"/>
<path d="M225.341 54.9372V9.35986H222.301V54.9372H225.341Z" fill="#F5F5F5"/>
<path d="M278.919 53.5347V10.9939H278.07V53.5347H278.919Z" fill="#E0E0E0"/>
<path d="M301.112 69.6016C301.112 69.6016 294.958 58.1474 303.495 49.0305C303.495 49.0305 305.723 50.5959 305.689 52.7048C305.656 54.8137 303.304 55.3464 303.807 57.1075C304.31 58.8685 306.535 60.5934 305.079 62.0464C303.622 63.4995 305.31 64.7967 305.213 66.5759C305.116 68.3551 301.112 69.6016 301.112 69.6016Z" fill="#E0E0E0"/>
<path d="M302.079 71.4753C302.079 71.4753 304.572 58.5102 293.808 52.7632C293.808 52.7632 292.153 55.0098 292.801 56.9991C293.449 58.9885 295.838 58.695 295.871 60.5358C295.905 62.3765 294.301 64.7717 296.11 65.6559C297.918 66.54 296.69 68.3446 297.304 70.0042C297.918 71.6638 302.079 71.4753 302.079 71.4753Z" fill="#EBEBEB"/>
<path d="M296.599 68.1812C296.599 68.1812 296.706 73.5875 300.847 73.5875C304.988 73.5875 305.098 68.1812 305.098 68.1812H296.599Z" fill="#F5F5F5"/>
<path d="M267.866 69.377C267.866 69.377 268.007 73.5875 273.453 73.5875C278.899 73.5875 279.043 69.377 279.043 69.377H267.866Z" fill="#EBEBEB"/>
<path d="M280.506 70.4207C280.506 70.4207 280.613 73.5877 284.707 73.5877C288.801 73.5877 288.905 70.4207 288.905 70.4207H280.506Z" fill="#EBEBEB"/>
<path d="M271.701 76.2146H262.534V115.918H271.701V76.2146Z" fill="#EBEBEB"/>
<path d="M309.497 115.915H264.292V118.636H309.497V115.915Z" fill="#EBEBEB"/>
<path d="M271.701 115.915H311.26V76.211H271.701V115.915Z" fill="#F5F5F5"/>
<path d="M275.305 94.1333H307.656V80.0521H275.305V94.1333Z" fill="#EBEBEB"/>
<path d="M275.305 110.78H307.656V96.6988H275.305V110.78Z" fill="#EBEBEB"/>
<path d="M295.126 81.5959H287.848C287.611 81.5959 287.383 81.4945 287.215 81.3138C287.047 81.1332 286.953 80.888 286.952 80.632V80.632C286.953 80.3757 287.047 80.1302 287.215 79.949C287.383 79.7677 287.61 79.6655 287.848 79.6646H295.126C295.363 79.6655 295.59 79.7677 295.758 79.949C295.926 80.1302 296.021 80.3757 296.022 80.632V80.632C296.021 80.888 295.926 81.1332 295.758 81.3138C295.59 81.4945 295.363 81.5959 295.126 81.5959V81.5959Z" fill="#F5F5F5"/>
<path d="M295.126 98.2424H287.848C287.611 98.2424 287.383 98.141 287.215 97.9603C287.047 97.7797 286.953 97.5345 286.952 97.2785V97.2785C286.953 97.0222 287.047 96.7767 287.215 96.5955C287.383 96.4142 287.61 96.312 287.848 96.311H295.126C295.363 96.312 295.59 96.4142 295.758 96.5955C295.926 96.7767 296.021 97.0222 296.022 97.2785V97.2785C296.021 97.5345 295.926 97.7797 295.758 97.9603C295.59 98.141 295.363 98.2424 295.126 98.2424V98.2424Z" fill="#F5F5F5"/>
<path d="M312.478 73.5876H271.698V76.2147H312.478V73.5876Z" fill="#EBEBEB"/>
<path d="M261.249 76.2112H271.698V73.5841H261.249V76.2112Z" fill="#E0E0E0"/>
<path d="M310.434 15.4036H290.576V40.1091H310.434V15.4036Z" fill="#EBEBEB"/>
<path d="M312.689 15.4036H291.17V40.1091H312.689V15.4036Z" fill="#F5F5F5"/>
<path d="M310.887 38.1598V17.3496H292.972V38.1598H310.887Z" fill="white"/>
<path d="M306.545 31.4093V24.1005C306.545 23.1579 305.837 22.3938 304.964 22.3938H298.894C298.021 22.3938 297.314 23.1579 297.314 24.1005V31.4093C297.314 32.3518 298.021 33.116 298.894 33.116H304.964C305.837 33.116 306.545 32.3518 306.545 31.4093Z" fill="#F5F5F5"/>
<path d="M259.923 95.6335H257.618V118.636H259.923V95.6335Z" fill="#E0E0E0"/>
<path opacity="0.5" d="M259.923 95.6335H258.769V118.636H259.923V95.6335Z" fill="#F5F5F5"/>
<path d="M249.826 102.076H248.242C248.416 101.917 248.555 101.72 248.651 101.497C248.746 101.274 248.796 101.032 248.796 100.786H230.029C230.029 101.032 230.08 101.275 230.176 101.497C230.272 101.72 230.412 101.918 230.586 102.076H229.022C228.461 102.076 227.924 102.317 227.527 102.745C227.131 103.173 226.908 103.754 226.908 104.359V111.015C226.908 111.621 227.131 112.202 227.527 112.63C227.924 113.058 228.461 113.298 229.022 113.298H249.826C250.387 113.298 250.925 113.058 251.321 112.63C251.718 112.202 251.94 111.621 251.94 111.015V104.359C251.94 103.754 251.718 103.173 251.321 102.745C250.925 102.317 250.387 102.076 249.826 102.076V102.076Z" fill="#F5F5F5"/>
<path d="M232.468 106.993H219.848C219.062 106.993 218.425 107.681 218.425 108.53V111.762C218.425 112.61 219.062 113.298 219.848 113.298H232.468C233.254 113.298 233.891 112.61 233.891 111.762V108.53C233.891 107.681 233.254 106.993 232.468 106.993Z" fill="#EBEBEB"/>
<path d="M233.414 105.602H218.902C218.638 105.602 218.425 105.832 218.425 106.117V106.704C218.425 106.988 218.638 107.218 218.902 107.218H233.414C233.677 107.218 233.891 106.988 233.891 106.704V106.117C233.891 105.832 233.677 105.602 233.414 105.602Z" fill="#E0E0E0"/>
<path d="M235.317 85.3606C235.317 85.3606 235.535 92.9701 243.79 92.9701C252.044 92.9701 252.262 85.3606 252.262 85.3606H235.317Z" fill="#EBEBEB"/>
<path d="M195.504 95.6335H205.798V92.9738H195.504V95.6335Z" fill="#E0E0E0"/>
<path d="M267.913 92.9739H205.802V95.6336H267.913V92.9739Z" fill="#F5F5F5"/>
<path d="M195.504 115.958H205.798V113.299H195.504V115.958Z" fill="#E0E0E0"/>
<path d="M197.812 95.6335H195.507V118.636H197.812V95.6335Z" fill="#E0E0E0"/>
<path opacity="0.5" d="M197.812 95.6335H196.658V118.636H197.812V95.6335Z" fill="#F5F5F5"/>
<path d="M206.953 95.6335H204.647V118.636H206.953V95.6335Z" fill="#F5F5F5"/>
<path d="M205.802 95.6335H204.647V118.636H205.802V95.6335Z" fill="#E0E0E0"/>
<path d="M267.909 95.6335H265.604V118.636H267.909V95.6335Z" fill="#F5F5F5"/>
<path d="M266.758 95.6335H265.604V118.636H266.758V95.6335Z" fill="#E0E0E0"/>
<path d="M267.913 113.298H205.802V115.958H267.913V113.298Z" fill="#F5F5F5"/>
<path d="M222.364 91.4048H209.842V92.9738H222.364V91.4048Z" fill="#E0E0E0"/>
<path d="M222.364 92.9702H226.851V91.4012H222.364V92.9702Z" fill="#EBEBEB"/>
<path d="M253.517 135C289.449 135 318.578 133.163 318.578 130.898C318.578 128.633 289.449 126.796 253.517 126.796C217.586 126.796 188.457 128.633 188.457 130.898C188.457 133.163 217.586 135 253.517 135Z" fill="#F5F5F5"/>
<path d="M242.736 34.6776C242.759 38.9716 239.91 38.9281 239.967 37.5946C240.024 36.2611 239.32 33.0688 239.967 33.3768C240.615 33.6848 242.725 32.7789 242.736 34.6776Z" fill="#263238"/>
<path d="M240.944 42.4538C241.336 42.4211 242.125 42.8161 242.195 43.9358C242.214 44.2611 242.302 44.5774 242.453 44.8597C242.603 45.1421 242.813 45.3827 243.065 45.5628C243.065 45.5628 241.759 45.7331 240.904 45.0011C240.206 44.4105 239.897 43.1169 240.263 42.827C240.463 42.6525 240.695 42.5254 240.944 42.4538V42.4538Z" fill="#263238"/>
<path d="M240.43 39.4026C241.101 40.044 241.715 41.7398 240.202 42.5442C238.689 43.3487 236.31 41.4753 236.31 41.4753L238.924 40.1672L240.43 39.4026Z" fill="#263238"/>
<path d="M241.176 42.6095C241.139 42.3747 241.078 42.145 240.994 41.9246C240.987 41.9036 240.976 41.8847 240.961 41.8692C240.946 41.8537 240.928 41.842 240.908 41.835C240.889 41.8281 240.868 41.826 240.847 41.8289C240.827 41.8319 240.807 41.8398 240.79 41.8521L239.86 42.5225C239.842 42.5361 239.826 42.5544 239.816 42.5759C239.805 42.5974 239.8 42.6214 239.8 42.6457C239.8 42.67 239.805 42.694 239.816 42.7155C239.826 42.737 239.842 42.7553 239.86 42.7689C239.994 42.8748 240.138 42.9647 240.29 43.037C240.508 43.1313 240.961 42.8631 241.115 42.7472C241.136 42.7328 241.153 42.7123 241.164 42.6879C241.175 42.6635 241.179 42.6362 241.176 42.6095V42.6095Z" fill="#412525"/>
<path opacity="0.3" d="M241.176 42.6095C241.139 42.3747 241.078 42.145 240.994 41.9246C240.987 41.9036 240.976 41.8847 240.961 41.8692C240.946 41.8537 240.928 41.842 240.908 41.835C240.889 41.8281 240.868 41.826 240.847 41.8289C240.827 41.8319 240.807 41.8398 240.79 41.8521L239.86 42.5225C239.842 42.5361 239.826 42.5544 239.816 42.5759C239.805 42.5974 239.8 42.6214 239.8 42.6457C239.8 42.67 239.805 42.694 239.816 42.7155C239.826 42.737 239.842 42.7553 239.86 42.7689C239.994 42.8748 240.138 42.9647 240.29 43.037C240.508 43.1313 240.961 42.8631 241.115 42.7472C241.136 42.7328 241.153 42.7123 241.164 42.6879C241.175 42.6635 241.179 42.6362 241.176 42.6095V42.6095Z" fill="black"/>
<path d="M231.173 40.8304C230.8 40.6963 229.948 40.8775 229.632 41.9501C229.543 42.2613 229.388 42.5459 229.179 42.7816C228.971 43.0174 228.715 43.1978 228.431 43.3089C228.431 43.3089 229.663 43.809 230.656 43.3089C231.461 42.914 232.032 41.7327 231.753 41.3558C231.597 41.1375 231.399 40.9582 231.173 40.8304Z" fill="#263238"/>
<path d="M234.87 33.4563C233.511 33.8549 231.683 35.5942 232.495 37.7285C231.693 38.3191 230.666 40.0186 231.867 41.1057C233.159 42.2761 236.337 40.6346 236.337 40.6346L236.36 40.0766L236.739 35.924L234.87 33.4563Z" fill="#263238"/>
<path d="M230.914 40.9247C231.004 40.7053 231.117 40.4975 231.249 40.3051C231.263 40.2876 231.279 40.2736 231.298 40.2639C231.317 40.2543 231.338 40.2493 231.358 40.2493C231.379 40.2493 231.4 40.2543 231.419 40.2639C231.438 40.2736 231.454 40.2876 231.467 40.3051L232.219 41.1928C232.234 41.2109 232.245 41.2326 232.251 41.2562C232.257 41.2798 232.257 41.3045 232.252 41.3283C232.247 41.3521 232.237 41.3743 232.223 41.393C232.208 41.4116 232.19 41.4263 232.169 41.4356C232.016 41.5028 231.858 41.5526 231.696 41.5842C231.461 41.6204 231.098 41.2472 230.957 41.095C230.935 41.075 230.918 41.0479 230.91 41.0174C230.903 40.9869 230.904 40.9545 230.914 40.9247Z" fill="#412525"/>
<path opacity="0.3" d="M230.914 40.9247C231.004 40.7053 231.117 40.4975 231.249 40.3051C231.263 40.2876 231.279 40.2736 231.298 40.2639C231.317 40.2543 231.338 40.2493 231.358 40.2493C231.379 40.2493 231.4 40.2543 231.419 40.2639C231.438 40.2736 231.454 40.2876 231.467 40.3051L232.219 41.1928C232.234 41.2109 232.245 41.2326 232.251 41.2562C232.257 41.2798 232.257 41.3045 232.252 41.3283C232.247 41.3521 232.237 41.3743 232.223 41.393C232.208 41.4116 232.19 41.4263 232.169 41.4356C232.016 41.5028 231.858 41.5526 231.696 41.5842C231.461 41.6204 231.098 41.2472 230.957 41.095C230.935 41.075 230.918 41.0479 230.91 41.0174C230.903 40.9869 230.904 40.9545 230.914 40.9247Z" fill="black"/>
<path d="M243.141 48.5811C243.782 49.1173 244.484 49.6899 245.188 50.2117C245.893 50.7335 246.601 51.2589 247.329 51.7408C248.057 52.2227 248.795 52.6721 249.54 53.0997L250.101 53.4077L250.671 53.6939C250.859 53.7918 251.05 53.8787 251.245 53.9584L251.53 54.0853C251.628 54.1251 251.732 54.1759 251.792 54.194C252.143 54.31 252.502 54.3937 252.866 54.444C253.262 54.5056 253.678 54.5491 254.101 54.5817C254.943 54.6397 255.809 54.665 256.678 54.6687C257.547 54.6723 258.426 54.6687 259.302 54.6397C260.177 54.6107 261.063 54.5889 261.936 54.56L262.1 55.984C260.338 56.3678 258.558 56.6521 256.768 56.8356C255.866 56.9225 254.96 56.9878 254.033 56.995C253.57 56.995 253.101 56.995 252.617 56.9479C252.098 56.9148 251.583 56.8238 251.081 56.6761C250.926 56.6326 250.829 56.5892 250.715 56.5493L250.379 56.4225C250.154 56.3428 249.933 56.2558 249.708 56.158L249.057 55.8753L248.42 55.5709C247.577 55.1606 246.756 54.7009 245.96 54.194C245.168 53.6903 244.39 53.1685 243.638 52.6105C242.886 52.0524 242.162 51.4763 241.423 50.7987L243.141 48.5811Z" fill="#E4897B"/>
<path d="M239.659 46.9544C240.494 46.2514 243.934 48.5524 244.981 49.5127L244.219 54.4878C244.219 54.4878 239.269 52.2485 238.971 50.7193C238.662 49.1213 239.028 47.4907 239.659 46.9544Z" fill="#263238"/>
<path d="M261.57 54.6835L263.644 52.9478L263.808 55.6328C263.808 55.6328 262.379 56.5895 261.436 55.9952L261.57 54.6835Z" fill="#E4897B"/>
<path d="M265.493 52.6831L266.553 53.9586L263.795 55.6327L263.631 52.9476L265.493 52.6831Z" fill="#E4897B"/>
<path d="M226.096 127.358L228.71 127.568L229.663 121.071L227.052 120.861L226.096 127.358Z" fill="#E4897B"/>
<path d="M207.603 118.277L209.821 119.784L213.771 114.726L211.553 113.215L207.603 118.277Z" fill="#E4897B"/>
<path d="M210.523 119.245L208.446 116.987C208.41 116.948 208.363 116.924 208.312 116.92C208.261 116.916 208.211 116.932 208.17 116.965L206.281 118.491C206.235 118.531 206.198 118.581 206.171 118.638C206.144 118.695 206.128 118.758 206.125 118.822C206.122 118.886 206.131 118.949 206.152 119.009C206.173 119.069 206.206 119.123 206.248 119.169C206.983 119.94 207.375 120.274 208.288 121.267C208.848 121.879 209.61 122.832 210.385 123.676C211.16 124.521 211.972 123.734 211.727 123.314C210.593 121.404 210.798 120.69 210.721 119.719C210.709 119.541 210.639 119.372 210.523 119.245V119.245Z" fill="#263238"/>
<path d="M228.884 127.162H225.938C225.886 127.162 225.836 127.182 225.796 127.218C225.756 127.253 225.729 127.303 225.72 127.358L225.254 129.873C225.243 129.936 225.246 130.002 225.262 130.064C225.278 130.127 225.307 130.184 225.346 130.233C225.386 130.281 225.436 130.32 225.491 130.344C225.546 130.369 225.606 130.38 225.666 130.376C226.693 130.358 227.193 130.293 228.488 130.293C229.284 130.293 231.508 130.38 232.619 130.38C233.73 130.38 233.84 129.206 233.387 129.101C231.357 128.623 229.988 127.967 229.327 127.336C229.205 127.22 229.047 127.158 228.884 127.162Z" fill="#263238"/>
<path d="M229.662 121.071L229.132 124.68L226.555 124.212L227.048 120.864L229.662 121.071Z" fill="#CE6F64"/>
<path d="M211.552 113.219L213.77 114.726L212.136 116.821L209.868 115.375L211.552 113.219Z" fill="#CE6F64"/>
<path d="M228.082 62.0103L238.531 64.2098C243.93 48.4219 242.756 47.9037 242.756 47.9037C241.997 47.4531 241.212 47.0537 240.407 46.7079L240.266 46.6499C239.595 46.3854 239.461 46.3455 238.568 46.0629C237.031 45.6679 235.599 45.3382 233.824 45.0664L233.488 45.0157C233.152 44.9722 232.847 44.936 232.538 44.9034C232.33 44.878 232.122 44.8635 231.924 44.849L231.253 44.8092C230.106 44.7476 229.284 44.7657 229.284 44.7657C229.602 54.6254 229.086 57.4554 228.082 62.0103Z" fill="#263238"/>
<path d="M235.333 39.4026C235.333 41.1129 235.088 44.1966 233.82 45.0735C233.82 45.0735 233.938 46.8345 236.773 47.4288C239.894 48.0847 238.565 46.07 238.565 46.07C236.944 45.2728 237.223 43.9176 237.759 42.7L235.333 39.4026Z" fill="#E4897B"/>
<path d="M236.323 40.7473L237.759 42.7004C237.634 42.9827 237.53 43.2761 237.451 43.5773C236.817 43.3382 236.062 42.3815 236.109 41.6315C236.13 41.3251 236.203 41.0256 236.323 40.7473Z" fill="#CE6F64"/>
<path d="M235.182 35.4749C234.847 38.2614 234.642 39.4319 235.675 41.1168C237.229 43.6533 240.47 43.4903 241.574 40.8704C242.581 38.5115 242.957 34.348 240.658 32.7355C240.154 32.3756 239.572 32.161 238.969 32.1121C238.366 32.0632 237.761 32.1816 237.213 32.4561C236.664 32.7306 236.189 33.152 235.834 33.6804C235.479 34.2088 235.254 34.8265 235.182 35.4749V35.4749Z" fill="#E4897B"/>
<path d="M243.581 31.0613C243.628 31.5032 243.597 31.9506 243.491 32.3802C243.466 32.2345 243.434 32.0905 243.393 31.949C242.474 28.6661 238.333 29.4488 237.085 30.862C235.072 30.2387 233.156 30.7351 233.411 33.3985C233.442 34.0846 233.671 34.7431 234.065 35.2827C233.753 36.2176 234.065 37.7069 235.095 37.7504C236.545 37.812 237.92 35.7393 238.474 34.6015C239.481 34.7863 240.93 34.9639 242.031 34.674C242.216 34.7936 242.367 34.8769 242.367 34.8769C243.538 34.1993 244.43 33.5434 243.581 31.0613Z" fill="#263238"/>
<path d="M234.29 37.3771C234.249 37.9178 234.407 38.4542 234.729 38.87C235.166 39.4172 235.736 39.0947 235.941 38.4461C236.112 37.859 236.088 36.8698 235.505 36.5618C235.376 36.4965 235.234 36.467 235.092 36.4759C234.95 36.4849 234.813 36.532 234.692 36.6131C234.571 36.6941 234.471 36.8064 234.401 36.9399C234.331 37.0733 234.293 37.2236 234.29 37.3771V37.3771Z" fill="#E4897B"/>
<path d="M238.374 64.2099C238.374 64.2099 238.414 86.6109 236.716 95.0466C234.951 103.823 229.76 123.789 229.76 123.789L226.002 123.263C226.002 123.263 228.945 103.095 230.196 94.3726C231.562 84.868 230.726 62.6011 230.726 62.6011L238.374 64.2099Z" fill="#412525"/>
<path opacity="0.3" d="M238.374 64.2099C238.374 64.2099 238.414 86.6109 236.716 95.0466C234.951 103.823 229.76 123.789 229.76 123.789L226.002 123.263C226.002 123.263 228.945 103.095 230.196 94.3726C231.562 84.868 230.726 62.6011 230.726 62.6011L238.374 64.2099Z" fill="black"/>
<path d="M230.401 124.14L225.357 123.437L225.572 121.509L231.297 122.234L230.401 124.14Z" fill="#263238"/>
<path d="M235.773 63.63C235.773 63.63 230.146 82.1429 227.351 92.807C224.405 104.058 213.11 116.502 213.11 116.502L209.872 114.48C209.872 114.48 217.59 102.667 220.425 92.1693C226.2 70.859 223.827 66.3441 228.082 62.0103L235.773 63.63Z" fill="#412525"/>
<path opacity="0.3" d="M235.773 63.63C235.773 63.63 230.146 82.1429 227.351 92.807C224.405 104.058 213.11 116.502 213.11 116.502L209.872 114.48C209.872 114.48 217.59 102.667 220.425 92.1693C226.2 70.859 223.827 66.3441 228.082 62.0103L235.773 63.63Z" fill="black"/>
<path d="M213.636 117.063L209.137 114.258L210.257 112.526L215.254 115.501L213.636 117.063Z" fill="#263238"/>
<path d="M238.907 37.0584C238.867 37.2831 238.944 37.486 239.082 37.515C239.219 37.544 239.36 37.3845 239.417 37.1526C239.474 36.9207 239.38 36.7214 239.243 36.6924C239.105 36.6634 238.947 36.8338 238.907 37.0584Z" fill="#263238"/>
<path d="M241.252 37.5514C241.212 37.776 241.289 37.9826 241.427 38.0116C241.564 38.0406 241.705 37.8811 241.746 37.6492C241.786 37.4173 241.709 37.218 241.571 37.1926C241.434 37.1673 241.293 37.3231 241.252 37.5514Z" fill="#263238"/>
<path d="M241.511 37.196L242.038 37.1489C242.038 37.1489 241.705 37.5149 241.511 37.196Z" fill="#263238"/>
<path d="M240.565 37.8081C240.657 38.3575 240.82 38.8904 241.048 39.3916C240.928 39.4524 240.797 39.4839 240.664 39.4839C240.531 39.4839 240.4 39.4524 240.28 39.3916L240.565 37.8081Z" fill="#DE5753"/>
<path d="M239.4 40.1165C239.12 40.0669 238.855 39.9448 238.627 39.7605C238.4 39.5763 238.218 39.3354 238.095 39.0584C238.092 39.0503 238.09 39.0416 238.09 39.0328C238.09 39.024 238.092 39.0153 238.095 39.0072C238.098 38.999 238.102 38.9917 238.108 38.9855C238.114 38.9794 238.121 38.9746 238.129 38.9714C238.144 38.9653 238.161 38.9656 238.176 38.9723C238.191 38.9791 238.203 38.9917 238.209 39.0077C238.326 39.2622 238.497 39.4834 238.708 39.6534C238.919 39.8233 239.165 39.9373 239.424 39.986C239.432 39.9873 239.44 39.9904 239.446 39.9949C239.453 39.9995 239.459 40.0055 239.464 40.0126C239.469 40.0197 239.472 40.0277 239.474 40.0362C239.476 40.0447 239.476 40.0535 239.474 40.0621C239.471 40.0798 239.461 40.0954 239.448 40.1056C239.434 40.1158 239.417 40.1197 239.4 40.1165V40.1165Z" fill="#263238"/>
<path d="M238.373 36.0945C238.349 36.0943 238.324 36.086 238.304 36.0708C238.284 36.0556 238.268 36.0342 238.259 36.0092C238.25 35.9843 238.248 35.9569 238.253 35.9308C238.259 35.9047 238.271 35.8809 238.29 35.8626C238.433 35.7169 238.607 35.6103 238.797 35.5517C238.987 35.4931 239.187 35.4842 239.38 35.5256C239.412 35.5357 239.439 35.5588 239.455 35.5899C239.471 35.621 239.476 35.6577 239.467 35.6923C239.459 35.7263 239.438 35.7552 239.41 35.7728C239.381 35.7905 239.348 35.7954 239.316 35.7865V35.7865C239.163 35.7571 239.005 35.7666 238.855 35.8144C238.705 35.8622 238.568 35.9469 238.454 36.0619C238.432 36.0831 238.403 36.0947 238.373 36.0945Z" fill="#263238"/>
<path d="M242.555 36.598C242.53 36.5983 242.506 36.5905 242.485 36.5756C242.465 36.5607 242.449 36.5394 242.44 36.5146C242.383 36.3577 242.292 36.2173 242.176 36.1048C242.059 35.9922 241.92 35.9104 241.769 35.866C241.753 35.863 241.738 35.8565 241.724 35.847C241.71 35.8375 241.698 35.8252 241.689 35.8107C241.68 35.7962 241.673 35.7799 241.67 35.7626C241.666 35.7454 241.666 35.7276 241.669 35.7102C241.676 35.676 241.695 35.6459 241.721 35.6258C241.748 35.6057 241.781 35.597 241.813 35.6015C242.004 35.6531 242.182 35.7534 242.33 35.8939C242.478 36.0345 242.593 36.2113 242.665 36.4096C242.672 36.4259 242.675 36.4436 242.676 36.4615C242.676 36.4793 242.673 36.497 242.666 36.5136C242.66 36.5301 242.651 36.5452 242.639 36.5578C242.627 36.5704 242.614 36.5804 242.598 36.5871L242.555 36.598Z" fill="#263238"/>
<path d="M239.189 39.0437C239.085 39.0442 238.982 39.0185 238.889 38.9689C238.796 38.9192 238.715 38.8468 238.652 38.7575C238.494 38.4917 238.389 38.1936 238.342 37.8818C238.296 37.5701 238.31 37.2514 238.383 36.9457C238.574 35.8006 239.239 34.8694 239.866 34.8694C239.971 34.8707 240.074 34.8975 240.167 34.9477C240.261 34.9979 240.343 35.0702 240.407 35.1593C240.564 35.4253 240.669 35.7234 240.715 36.0351C240.761 36.3467 240.748 36.6653 240.675 36.9711C240.484 38.1161 239.816 39.0437 239.189 39.0437ZM239.86 34.9708C239.272 34.9708 238.642 35.8695 238.457 36.9711C238.34 37.6958 238.434 38.348 238.709 38.6995C238.765 38.7777 238.836 38.8412 238.918 38.8852C239 38.9291 239.09 38.9523 239.182 38.9532C239.772 38.9532 240.4 38.0581 240.584 36.9566H240.625H240.584C240.656 36.6654 240.67 36.3613 240.627 36.0638C240.583 35.7663 240.483 35.4817 240.333 35.2281C240.278 35.1504 240.207 35.0869 240.127 35.0424C240.046 34.9979 239.957 34.9734 239.866 34.9708H239.86Z" fill="#FAFAFA"/>
<path d="M241.796 39.4062C241.688 39.4037 241.581 39.3752 241.484 39.3225C241.387 39.2698 241.302 39.1944 241.236 39.1018C241.085 38.8578 240.983 38.5827 240.936 38.2938C240.889 38.005 240.899 37.7088 240.964 37.4241C241.135 36.3587 241.779 35.4963 242.4 35.4963C242.509 35.4992 242.616 35.5284 242.713 35.5817C242.81 35.635 242.894 35.711 242.96 35.8043C243.11 36.0481 243.211 36.3227 243.258 36.6107C243.305 36.8988 243.296 37.1942 243.232 37.4784C243.064 38.5474 242.42 39.4062 241.796 39.4062ZM242.39 35.5869C241.806 35.5869 241.202 36.4167 241.048 37.4422C240.987 37.7139 240.979 37.996 241.023 38.2713C241.067 38.5467 241.162 38.8095 241.303 39.0438C241.362 39.126 241.437 39.1929 241.523 39.2399C241.609 39.2869 241.703 39.3128 241.799 39.3156C242.383 39.3156 242.991 38.4894 243.142 37.4639C243.202 37.1924 243.21 36.9106 243.167 36.6354C243.124 36.3602 243.03 36.0972 242.89 35.8623C242.831 35.7795 242.756 35.7118 242.67 35.6642C242.584 35.6166 242.49 35.5902 242.393 35.5869H242.39Z" fill="#FAFAFA"/>
<path d="M211.294 120.56C210.959 120.56 210.606 120.002 210.425 119.679C210.419 119.669 210.415 119.656 210.415 119.643C210.415 119.63 210.419 119.618 210.425 119.607C210.433 119.597 210.442 119.588 210.454 119.583C210.465 119.578 210.477 119.576 210.489 119.578C210.596 119.603 211.519 119.821 211.637 120.161C211.65 120.199 211.654 120.24 211.647 120.279C211.641 120.319 211.624 120.356 211.6 120.386C211.567 120.441 211.521 120.485 211.468 120.516C211.414 120.546 211.355 120.561 211.294 120.56V120.56ZM210.593 119.745C210.851 120.165 211.103 120.415 211.284 120.426C211.324 120.426 211.364 120.415 211.399 120.394C211.435 120.373 211.464 120.343 211.486 120.306C211.497 120.293 211.505 120.277 211.508 120.26C211.51 120.243 211.509 120.225 211.502 120.208C211.442 120.027 210.962 119.846 210.593 119.745Z" fill="#412525"/>
<path d="M210.744 119.745C210.642 119.746 210.541 119.734 210.442 119.709C210.432 119.705 210.423 119.699 210.415 119.69C210.408 119.682 210.402 119.672 210.398 119.661C210.391 119.641 210.391 119.617 210.398 119.596C210.422 119.574 210.935 119.027 211.315 119.027H211.341C211.388 119.031 211.434 119.045 211.476 119.068C211.517 119.092 211.554 119.125 211.583 119.165C211.617 119.204 211.638 119.254 211.643 119.307C211.648 119.36 211.636 119.413 211.61 119.459C211.502 119.654 211.073 119.745 210.744 119.745ZM210.593 119.603C210.908 119.643 211.419 119.546 211.523 119.382C211.539 119.357 211.553 119.317 211.502 119.248C211.485 119.222 211.462 119.2 211.435 119.185C211.408 119.17 211.378 119.162 211.348 119.161C211.06 119.221 210.796 119.375 210.593 119.603V119.603Z" fill="#412525"/>
<path d="M229.847 127.659C229.569 127.65 229.293 127.614 229.022 127.55C229.009 127.547 228.997 127.54 228.988 127.53C228.979 127.519 228.973 127.506 228.971 127.492C228.97 127.478 228.972 127.464 228.978 127.452C228.984 127.44 228.994 127.43 229.005 127.423C229.129 127.358 230.206 126.778 230.518 126.974C230.547 126.993 230.57 127.02 230.587 127.051C230.603 127.083 230.612 127.119 230.612 127.155C230.616 127.216 230.606 127.277 230.583 127.333C230.561 127.39 230.526 127.439 230.481 127.477C230.295 127.613 230.071 127.676 229.847 127.659V127.659ZM229.233 127.463C229.807 127.564 230.24 127.539 230.408 127.383C230.436 127.356 230.459 127.323 230.473 127.285C230.488 127.247 230.494 127.207 230.491 127.166C230.492 127.152 230.489 127.139 230.483 127.126C230.478 127.114 230.469 127.104 230.458 127.097C230.29 126.992 229.693 127.238 229.233 127.463Z" fill="#412525"/>
<path d="M229.038 127.55C229.026 127.553 229.013 127.553 229.001 127.55C228.991 127.543 228.984 127.533 228.979 127.521C228.974 127.51 228.973 127.497 228.974 127.485C228.974 127.434 229.135 126.281 229.719 126.281H229.77C229.937 126.3 229.984 126.39 229.994 126.466C230.041 126.785 229.39 127.401 229.062 127.553L229.038 127.55ZM229.709 126.405C229.33 126.405 229.162 127.071 229.105 127.361C229.441 127.148 229.887 126.666 229.86 126.474C229.86 126.474 229.86 126.416 229.743 126.405H229.709Z" fill="#412525"/>
<path d="M239.166 36.7031L239.692 36.6523C239.692 36.6523 239.36 37.0219 239.166 36.7031Z" fill="#263238"/>
<path d="M236.86 49.8384C232.498 48.052 231.136 45.3778 231.24 44.8162L231.911 44.8596H232.025C232.186 44.8596 232.36 44.885 232.525 44.9068C232.833 44.9357 233.152 44.972 233.474 45.0191L233.81 45.0698C235.412 45.2793 236.997 45.6123 238.555 46.0663C239.266 46.291 239.501 46.3634 239.897 46.5156L240.249 46.6533L240.39 46.7113C240.739 47.523 240.662 49.1826 236.86 49.8384Z" fill="#E4897B"/>
<path d="M236.86 49.8384C232.498 48.052 231.136 45.3778 231.24 44.8162L231.911 44.8596H232.025C232.911 46.2185 234.85 48.0955 236.827 48.3528C238.417 47.9904 239.917 47.5773 239.904 46.5156L240.256 46.6533L240.397 46.7113C240.739 47.523 240.662 49.1826 236.86 49.8384Z" fill="#412525"/>
<path opacity="0.3" d="M236.86 49.8384C232.498 48.052 231.136 45.3778 231.24 44.8162L231.911 44.8596H232.025C232.911 46.2185 234.85 48.0955 236.827 48.3528C238.417 47.9904 239.917 47.5773 239.904 46.5156L240.256 46.6533L240.397 46.7113C240.739 47.523 240.662 49.1826 236.86 49.8384Z" fill="black"/>
<path d="M228.045 61.3145L227.374 62.2277C227.324 62.2965 227.398 62.3944 227.518 62.4197L238.478 64.7243C238.572 64.7461 238.659 64.7243 238.676 64.6482L238.951 63.659C238.971 63.5901 238.9 63.5141 238.796 63.4923L228.213 61.2674C228.184 61.2608 228.153 61.2615 228.124 61.2697C228.095 61.2779 228.068 61.2932 228.045 61.3145V61.3145Z" fill="#263238"/>
<path d="M229.236 62.8907L228.954 62.8327C228.897 62.8327 228.86 62.782 228.871 62.7421L229.24 61.4594C229.24 61.4195 229.307 61.4014 229.36 61.4123L229.646 61.4703C229.703 61.4703 229.74 61.5246 229.73 61.5609L229.36 62.8472C229.347 62.8682 229.328 62.8838 229.305 62.8917C229.283 62.8995 229.259 62.8992 229.236 62.8907V62.8907Z" fill="#412525"/>
<path opacity="0.3" d="M229.236 62.8907L228.954 62.8327C228.897 62.8327 228.86 62.782 228.871 62.7421L229.24 61.4594C229.24 61.4195 229.307 61.4014 229.36 61.4123L229.646 61.4703C229.703 61.4703 229.74 61.5246 229.73 61.5609L229.36 62.8472C229.347 62.8682 229.328 62.8838 229.305 62.8917C229.283 62.8995 229.259 62.8992 229.236 62.8907V62.8907Z" fill="black"/>
<path d="M229.982 49.1393C229.854 49.9981 229.733 50.9511 229.646 51.8425C229.559 52.7339 229.482 53.6543 229.441 54.5819C229.419 55.0385 229.406 55.4951 229.401 55.9516C229.401 56.4046 229.401 56.8575 229.401 57.3105C229.418 58.1979 229.482 59.0835 229.592 59.9629C229.656 60.2641 229.769 60.5502 229.928 60.8072C230.129 61.1601 230.353 61.4968 230.599 61.8146C231.135 62.5017 231.709 63.1539 232.317 63.7677C232.931 64.4055 233.575 65.0215 234.236 65.623C234.897 66.2245 235.579 66.8224 236.25 67.3985L235.528 68.6016C233.949 67.6669 232.439 66.602 231.012 65.4164C230.275 64.8069 229.58 64.1409 228.931 63.4235C228.586 63.0387 228.268 62.6256 227.982 62.1878C227.627 61.6701 227.375 61.0793 227.24 60.4521L227.116 59.6839C227.072 59.4339 227.042 59.1839 227.015 58.9375C226.948 58.4374 226.911 57.941 226.874 57.4446C226.805 56.4572 226.783 55.4666 226.811 54.4768C226.837 53.4949 226.888 52.5165 226.978 51.5418C227.069 50.567 227.183 49.6104 227.364 48.603L229.982 49.1393Z" fill="#E4897B"/>
<path d="M227.754 45.5229C226.317 46.7767 226.66 50.5017 226.66 50.5017L231.492 52.2193C231.492 52.2193 231.27 47.9254 231.035 46.3817C230.747 44.5446 229.163 44.2873 227.754 45.5229Z" fill="#263238"/>
<path d="M235.659 67.1665L237.843 66.2896L237.508 68.5325C237.508 68.5325 235.924 69.1486 235.112 68.3586L235.659 67.1665Z" fill="#E4897B"/>
<path d="M240.444 66.6229V68.355L237.508 68.5325L237.843 66.2896L240.444 66.6229Z" fill="#E4897B"/>
<path d="M237.675 64.6663L237.393 64.6084C237.336 64.6084 237.299 64.5576 237.31 64.5178L237.679 63.235C237.679 63.1952 237.746 63.1771 237.803 63.1879L238.085 63.2459C238.142 63.2459 238.179 63.3002 238.169 63.3365L237.799 64.6229C237.789 64.6591 237.746 64.6808 237.675 64.6663Z" fill="#412525"/>
<path opacity="0.3" d="M237.675 64.6663L237.393 64.6084C237.336 64.6084 237.299 64.5576 237.31 64.5178L237.679 63.235C237.679 63.1952 237.746 63.1771 237.803 63.1879L238.085 63.2459C238.142 63.2459 238.179 63.3002 238.169 63.3365L237.799 64.6229C237.789 64.6591 237.746 64.6808 237.675 64.6663Z" fill="black"/>
<path d="M233.458 63.7747L233.172 63.7168C233.115 63.7168 233.078 63.666 233.092 63.6262L233.461 62.3434C233.461 62.3036 233.525 62.2854 233.582 62.2963L233.867 62.3543C233.921 62.3543 233.961 62.4087 233.948 62.4449L233.578 63.7313C233.568 63.7747 233.515 63.7929 233.458 63.7747Z" fill="#412525"/>
<path opacity="0.3" d="M233.458 63.7747L233.172 63.7168C233.115 63.7168 233.078 63.666 233.092 63.6262L233.461 62.3434C233.461 62.3036 233.525 62.2854 233.582 62.2963L233.867 62.3543C233.921 62.3543 233.961 62.4087 233.948 62.4449L233.578 63.7313C233.568 63.7747 233.515 63.7929 233.458 63.7747Z" fill="black"/>
<path d="M212.086 84.904L229.481 125.93C229.88 126.863 230.604 127.587 231.496 127.945C232.387 128.302 233.373 128.265 234.239 127.84L237.001 126.477L300.947 94.8616C301.811 94.4324 302.482 93.6513 302.814 92.6892C303.146 91.727 303.112 90.662 302.719 89.727L287.347 53.4912L285.334 48.7045C284.935 47.7728 284.21 47.0492 283.319 46.6915C282.428 46.3339 281.442 46.371 280.576 46.7949L213.864 79.7694C213.001 80.1988 212.329 80.9794 211.996 81.9412C211.663 82.903 211.695 83.9679 212.086 84.904V84.904Z" fill="#412525"/>
<path opacity="0.1" d="M212.086 84.904L229.481 125.93C229.88 126.863 230.604 127.587 231.496 127.945C232.387 128.302 233.373 128.265 234.239 127.84L237.001 126.477L300.947 94.8616C301.811 94.4324 302.482 93.6513 302.814 92.6892C303.146 91.727 303.112 90.662 302.719 89.727L287.347 53.4912L285.334 48.7045C284.935 47.7728 284.21 47.0492 283.319 46.6915C282.428 46.3339 281.442 46.371 280.576 46.7949L213.864 79.7694C213.001 80.1988 212.329 80.9794 211.996 81.9412C211.663 82.903 211.695 83.9679 212.086 84.904V84.904Z" fill="white"/>
<path d="M227.717 121.77L300.953 85.562L292.382 65.3458L219.146 101.554L227.717 121.77Z" fill="#412525"/>
<path opacity="0.3" d="M227.717 121.77L300.953 85.562L292.382 65.3458L219.146 101.554L227.717 121.77Z" fill="white"/>
<path d="M246.136 104.814L292.417 81.9324L289.349 74.6972L243.069 97.5786L246.136 104.814Z" fill="#412525"/>
<path opacity="0.8" d="M246.136 104.814L292.417 81.9324L289.349 74.6972L243.069 97.5786L246.136 104.814Z" fill="white"/>
<path d="M220.782 105.418L294.017 69.2102L289.444 58.4234L216.208 94.6317L220.782 105.418Z" fill="#412525"/>
<path opacity="0.3" d="M220.782 105.418L294.017 69.2102L289.444 58.4234L216.208 94.6317L220.782 105.418Z" fill="black"/>
<g style="mix-blend-mode:multiply">
<path d="M222.032 85.4187L237.001 126.463L300.947 94.8472C301.811 94.418 302.482 93.6369 302.814 92.6747C303.146 91.7125 303.112 90.6476 302.719 89.7126L287.347 53.4768L224.059 80.3927C223.175 80.7716 222.465 81.5127 222.086 82.4544C221.706 83.396 221.687 84.4617 222.032 85.4187V85.4187Z" fill="#412525"/>
</g>
<path d="M306.672 72.4454L306.356 72.5652L306.879 74.1749L307.195 74.0551L306.672 72.4454Z" fill="#412525"/>
<path opacity="0.1" d="M306.672 72.4454L306.356 72.5652L306.879 74.1749L307.195 74.0551L306.672 72.4454Z" fill="white"/>
<path d="M304.028 64.348L303.711 64.468L305.775 70.8135L306.091 70.6934L304.028 64.348Z" fill="#412525"/>
<path opacity="0.1" d="M304.028 64.348L303.711 64.468L305.775 70.8135L306.091 70.6934L304.028 64.348Z" fill="white"/>
<path d="M226.485 80.5338L295.71 54.281C296.608 53.9435 297.593 54.0037 298.45 54.4485C299.307 54.8932 299.966 55.6864 300.283 56.6545L314.128 99.2279C314.441 100.198 314.386 101.262 313.975 102.188C313.564 103.114 312.83 103.827 311.934 104.17L242.709 130.423C241.81 130.76 240.825 130.699 239.968 130.255C239.11 129.81 238.451 129.018 238.132 128.05L224.287 85.4764C223.974 84.5061 224.03 83.4417 224.442 82.5156C224.854 81.5894 225.588 80.877 226.485 80.5338V80.5338Z" fill="#412525"/>
<path opacity="0.1" d="M226.485 80.5338L295.71 54.281C296.608 53.9435 297.593 54.0037 298.45 54.4485C299.307 54.8932 299.966 55.6864 300.283 56.6545L314.128 99.2279C314.441 100.198 314.386 101.262 313.975 102.188C313.564 103.114 312.83 103.827 311.934 104.17L242.709 130.423C241.81 130.76 240.825 130.699 239.968 130.255C239.11 129.81 238.451 129.018 238.132 128.05L224.287 85.4764C223.974 84.5061 224.03 83.4417 224.442 82.5156C224.854 81.5894 225.588 80.877 226.485 80.5338V80.5338Z" fill="white"/>
<path d="M235.609 120.286L311.605 91.4666L305.583 72.9464L229.586 101.766L235.609 120.286Z" fill="#412525"/>
<path opacity="0.3" d="M235.609 120.286L311.605 91.4666L305.583 72.9464L229.586 101.766L235.609 120.286Z" fill="white"/>
<path d="M281.635 72.5354L297.345 66.5779L296.486 63.9351L280.776 69.8926L281.635 72.5354Z" fill="#412525"/>
<path opacity="0.8" d="M281.635 72.5354L297.345 66.5779L296.486 63.9351L280.776 69.8926L281.635 72.5354Z" fill="white"/>
<path d="M294.857 102.458L307.46 97.6787L307.011 96.2975L294.407 101.077L294.857 102.458Z" fill="#412525"/>
<path opacity="0.8" d="M294.857 102.458L307.46 97.6787L307.011 96.2975L294.407 101.077L294.857 102.458Z" fill="white"/>
<path d="M292.077 106.482L308.319 100.323L307.869 98.9413L291.628 105.101L292.077 106.482Z" fill="#412525"/>
<path opacity="0.8" d="M292.077 106.482L308.319 100.323L307.869 98.9413L291.628 105.101L292.077 106.482Z" fill="white"/>
<path d="M242.804 125.168L250.924 122.089L249.958 119.118L241.837 122.197L242.804 125.168Z" fill="#412525"/>
<path opacity="0.8" d="M242.804 125.168L250.924 122.089L249.958 119.118L241.837 122.197L242.804 125.168Z" fill="white"/>
<path d="M293.378 93.6694L302.86 90.0748C303.36 89.8827 303.77 89.4852 304 88.9688C304.23 88.4524 304.261 87.8589 304.088 87.3172V87.3172C303.91 86.7774 303.542 86.3352 303.064 86.0869C302.586 85.8385 302.036 85.8041 301.535 85.991L292.049 89.5892C291.549 89.7813 291.139 90.1788 290.909 90.6952C290.679 91.2116 290.647 91.8051 290.821 92.3468V92.3468C290.999 92.8868 291.368 93.3288 291.847 93.5765C292.326 93.8242 292.876 93.8576 293.378 93.6694V93.6694Z" fill="#412525"/>
<path d="M277.133 99.8293L286.62 96.2311C287.116 96.0382 287.522 95.6428 287.751 95.1298C287.98 94.6169 288.013 94.0274 287.844 93.4881C287.666 92.9489 287.297 92.5076 286.819 92.26C286.341 92.0123 285.792 91.9784 285.291 92.1655L275.808 95.7637C275.308 95.9558 274.899 96.3533 274.669 96.8697C274.439 97.386 274.407 97.9796 274.58 98.5212C274.761 99.0578 275.131 99.4957 275.608 99.7405C276.086 99.9853 276.634 100.017 277.133 99.8293V99.8293Z" fill="#412525"/>
<path d="M260.899 105.99L270.385 102.391C270.88 102.197 271.285 101.801 271.513 101.288C271.74 100.775 271.773 100.187 271.603 99.6482V99.6482C271.425 99.1091 271.056 98.6678 270.578 98.4201C270.1 98.1725 269.551 98.1385 269.05 98.3256L259.557 101.909C259.058 102.102 258.649 102.5 258.42 103.016C258.19 103.533 258.159 104.126 258.332 104.667V104.667C258.511 105.209 258.881 105.653 259.362 105.901C259.844 106.149 260.396 106.181 260.899 105.99Z" fill="#412525"/>
<path d="M244.648 112.15L254.134 108.551C254.631 108.359 255.038 107.964 255.268 107.451C255.498 106.938 255.532 106.348 255.363 105.808V105.808C255.184 105.269 254.816 104.828 254.338 104.58C253.859 104.333 253.31 104.299 252.809 104.486L243.323 108.084C242.823 108.276 242.414 108.674 242.184 109.19C241.954 109.706 241.922 110.3 242.095 110.842V110.842C242.276 111.378 242.645 111.816 243.123 112.061C243.601 112.306 244.149 112.337 244.648 112.15Z" fill="#412525"/>
<g opacity="0.8">
<path opacity="0.8" d="M293.378 93.6694L302.86 90.0748C303.36 89.8827 303.77 89.4852 304 88.9688C304.23 88.4524 304.262 87.8589 304.089 87.3172V87.3172C303.911 86.7774 303.543 86.3352 303.064 86.0869C302.586 85.8385 302.037 85.8041 301.535 85.991L292.049 89.5892C291.549 89.7813 291.14 90.1788 290.91 90.6952C290.68 91.2116 290.648 91.8051 290.821 92.3468V92.3468C290.999 92.8868 291.368 93.3288 291.847 93.5765C292.326 93.8242 292.876 93.8576 293.378 93.6694V93.6694Z" fill="white"/>
<path opacity="0.8" d="M277.134 99.8291L286.62 96.2309C287.116 96.038 287.522 95.6425 287.751 95.1296C287.98 94.6167 288.014 94.0272 287.845 93.4878C287.666 92.9487 287.298 92.5074 286.82 92.2597C286.341 92.0121 285.792 91.9781 285.291 92.1652L275.808 95.7634C275.308 95.9556 274.899 96.353 274.669 96.8694C274.439 97.3858 274.407 97.9793 274.58 98.521C274.761 99.0575 275.131 99.4955 275.609 99.7402C276.086 99.985 276.634 100.017 277.134 99.8291V99.8291Z" fill="white"/>
<path opacity="0.8" d="M260.899 105.99L270.386 102.391C270.88 102.197 271.285 101.801 271.513 101.288C271.74 100.775 271.773 100.187 271.604 99.6482V99.6482C271.425 99.1091 271.057 98.6678 270.579 98.4201C270.1 98.1725 269.551 98.1385 269.05 98.3256L259.557 101.909C259.058 102.102 258.649 102.5 258.42 103.016C258.191 103.533 258.159 104.126 258.332 104.667V104.667C258.511 105.209 258.881 105.653 259.363 105.901C259.844 106.149 260.397 106.181 260.899 105.99Z" fill="white"/>
<path opacity="0.8" d="M244.648 112.15L254.134 108.552C254.631 108.359 255.038 107.964 255.268 107.451C255.498 106.938 255.532 106.348 255.363 105.808V105.808C255.184 105.269 254.816 104.828 254.338 104.58C253.859 104.333 253.31 104.299 252.809 104.486L243.323 108.084C242.823 108.276 242.414 108.674 242.184 109.19C241.954 109.706 241.922 110.3 242.095 110.842V110.842C242.276 111.378 242.645 111.816 243.123 112.061C243.601 112.306 244.149 112.338 244.648 112.15Z" fill="white"/>
</g>
<path d="M292.533 85.4278L300.974 82.2269C301.691 81.955 302.068 81.107 301.816 80.3329L300.057 74.9242C299.805 74.15 299.02 73.7428 298.303 74.0147L289.863 77.2156C289.146 77.4874 288.769 78.3354 289.021 79.1096L290.78 84.5183C291.031 85.2924 291.817 85.6996 292.533 85.4278Z" fill="#412525"/>
<path opacity="0.3" d="M292.533 85.4278L300.974 82.2269C301.691 81.955 302.068 81.107 301.816 80.3329L300.057 74.9242C299.805 74.15 299.02 73.7428 298.303 74.0147L289.863 77.2156C289.146 77.4874 288.769 78.3354 289.021 79.1096L290.78 84.5183C291.031 85.2924 291.817 85.6996 292.533 85.4278Z" fill="black"/>
<path d="M242.779 91.0278C241.562 91.0282 240.388 90.5347 239.491 89.6453C238.595 88.7558 238.04 87.5351 237.937 86.2249C237.834 84.9147 238.19 83.6104 238.935 82.5704C239.68 81.5303 240.76 80.8303 241.96 80.6089C243.16 80.3875 244.394 80.6608 245.416 81.3747C246.439 82.0887 247.176 83.1913 247.481 84.4641C247.787 85.737 247.639 87.0873 247.066 88.2479C246.494 89.4084 245.539 90.2945 244.39 90.7307C243.872 90.9276 243.328 91.028 242.779 91.0278ZM242.779 80.8818C242.264 80.8829 241.752 80.9772 241.266 81.1608C240.126 81.5935 239.192 82.4973 238.669 83.6736C238.146 84.8498 238.077 86.2022 238.477 87.4332V87.4332C238.755 88.2834 239.243 89.0348 239.889 89.6054C240.536 90.176 241.315 90.5439 242.141 90.6688C242.968 90.7937 243.81 90.6708 244.577 90.3135C245.343 89.9563 246.004 89.3785 246.486 88.6432C246.969 87.9079 247.256 87.0435 247.314 86.1443C247.373 85.2452 247.202 84.3459 246.819 83.5449C246.436 82.7438 245.857 82.0717 245.145 81.602C244.432 81.1324 243.614 80.8832 242.779 80.8818Z" fill="#412525"/>
<path opacity="0.8" d="M242.779 91.0278C241.562 91.0282 240.388 90.5347 239.491 89.6453C238.595 88.7558 238.04 87.5351 237.937 86.2249C237.834 84.9147 238.19 83.6104 238.935 82.5704C239.68 81.5303 240.76 80.8303 241.96 80.6089C243.16 80.3875 244.394 80.6608 245.416 81.3747C246.439 82.0887 247.176 83.1913 247.481 84.4641C247.787 85.737 247.639 87.0873 247.066 88.2479C246.494 89.4084 245.539 90.2945 244.39 90.7307C243.872 90.9276 243.328 91.028 242.779 91.0278ZM242.779 80.8818C242.264 80.8829 241.752 80.9772 241.266 81.1608C240.126 81.5935 239.192 82.4973 238.669 83.6736C238.146 84.8498 238.077 86.2022 238.477 87.4332V87.4332C238.755 88.2834 239.243 89.0348 239.889 89.6054C240.536 90.176 241.315 90.5439 242.141 90.6688C242.968 90.7937 243.81 90.6708 244.577 90.3135C245.343 89.9563 246.004 89.3785 246.486 88.6432C246.969 87.9079 247.256 87.0435 247.314 86.1443C247.373 85.2452 247.202 84.3459 246.819 83.5449C246.436 82.7438 245.857 82.0717 245.145 81.602C244.432 81.1324 243.614 80.8832 242.779 80.8818Z" fill="white"/>
<path d="M231.398 90.1074C231.707 91.0527 232.269 91.8779 233.012 92.4787C233.755 93.0795 234.647 93.4289 235.574 93.4829C236.501 93.5369 237.422 93.293 238.221 92.782C239.02 92.2711 239.661 91.5159 240.062 90.612C240.464 89.7081 240.609 88.6959 240.478 87.7032C240.347 86.7106 239.947 85.782 239.328 85.0348C238.709 84.2875 237.899 83.7552 237 83.5049C236.101 83.2546 235.153 83.2976 234.277 83.6284C233.693 83.8488 233.155 84.1913 232.695 84.6365C232.234 85.0816 231.859 85.6206 231.592 86.2225C231.324 86.8244 231.169 87.4774 231.136 88.1441C231.103 88.8107 231.192 89.4779 231.398 90.1074V90.1074Z" fill="#412525"/>
<path opacity="0.8" d="M231.398 90.1074C231.707 91.0527 232.269 91.8779 233.012 92.4787C233.755 93.0795 234.647 93.4289 235.574 93.4829C236.501 93.5369 237.422 93.293 238.221 92.782C239.02 92.2711 239.661 91.5159 240.062 90.612C240.464 89.7081 240.609 88.6959 240.478 87.7032C240.347 86.7106 239.947 85.782 239.328 85.0348C238.709 84.2875 237.899 83.7552 237 83.5049C236.101 83.2546 235.153 83.2976 234.277 83.6284C233.693 83.8488 233.155 84.1913 232.695 84.6365C232.234 85.0816 231.859 85.6206 231.592 86.2225C231.324 86.8244 231.169 87.4774 231.136 88.1441C231.103 88.8107 231.192 89.4779 231.398 90.1074V90.1074Z" fill="white"/>
<path d="M49.3456 25.695V27H41.7256V16.5H49.1356V17.805H43.2256V21.03H48.4906V22.305H43.2256V25.695H49.3456ZM54.3569 18.975C55.4569 18.975 56.2969 19.245 56.8769 19.785C57.4669 20.325 57.7619 21.13 57.7619 22.2V27H56.3969V25.95C56.1569 26.32 55.8119 26.605 55.3619 26.805C54.9219 26.995 54.3969 27.09 53.7869 27.09C52.8969 27.09 52.1819 26.875 51.6419 26.445C51.1119 26.015 50.8469 25.45 50.8469 24.75C50.8469 24.05 51.1019 23.49 51.6119 23.07C52.1219 22.64 52.9319 22.425 54.0419 22.425H56.3219V22.14C56.3219 21.52 56.1419 21.045 55.7819 20.715C55.4219 20.385 54.8919 20.22 54.1919 20.22C53.7219 20.22 53.2619 20.3 52.8119 20.46C52.3619 20.61 51.9819 20.815 51.6719 21.075L51.0719 19.995C51.4819 19.665 51.9719 19.415 52.5419 19.245C53.1119 19.065 53.7169 18.975 54.3569 18.975ZM54.0269 25.98C54.5769 25.98 55.0519 25.86 55.4519 25.62C55.8519 25.37 56.1419 25.02 56.3219 24.57V23.46H54.1019C52.8819 23.46 52.2719 23.87 52.2719 24.69C52.2719 25.09 52.4269 25.405 52.7369 25.635C53.0469 25.865 53.4769 25.98 54.0269 25.98ZM61.8068 20.385C62.0568 19.925 62.4268 19.575 62.9168 19.335C63.4068 19.095 64.0018 18.975 64.7018 18.975V20.37C64.6218 20.36 64.5118 20.355 64.3718 20.355C63.5918 20.355 62.9768 20.59 62.5268 21.06C62.0868 21.52 61.8668 22.18 61.8668 23.04V27H60.4268V19.05H61.8068V20.385ZM70.7216 18.975C71.7316 18.975 72.5316 19.27 73.1216 19.86C73.7216 20.44 74.0216 21.295 74.0216 22.425V27H72.5816V22.59C72.5816 21.82 72.3966 21.24 72.0266 20.85C71.6566 20.46 71.1266 20.265 70.4366 20.265C69.6566 20.265 69.0416 20.495 68.5916 20.955C68.1416 21.405 67.9166 22.055 67.9166 22.905V27H66.4766V19.05H67.8566V20.25C68.1466 19.84 68.5366 19.525 69.0266 19.305C69.5266 19.085 70.0916 18.975 70.7216 18.975ZM76.6865 19.05H78.1265V27H76.6865V19.05ZM77.4065 17.52C77.1265 17.52 76.8915 17.43 76.7015 17.25C76.5215 17.07 76.4315 16.85 76.4315 16.59C76.4315 16.33 76.5215 16.11 76.7015 15.93C76.8915 15.74 77.1265 15.645 77.4065 15.645C77.6865 15.645 77.9165 15.735 78.0965 15.915C78.2865 16.085 78.3815 16.3 78.3815 16.56C78.3815 16.83 78.2865 17.06 78.0965 17.25C77.9165 17.43 77.6865 17.52 77.4065 17.52ZM85.121 18.975C86.131 18.975 86.931 19.27 87.521 19.86C88.121 20.44 88.421 21.295 88.421 22.425V27H86.981V22.59C86.981 21.82 86.796 21.24 86.426 20.85C86.056 20.46 85.526 20.265 84.836 20.265C84.056 20.265 83.441 20.495 82.991 20.955C82.541 21.405 82.316 22.055 82.316 22.905V27H80.876V19.05H82.256V20.25C82.546 19.84 82.936 19.525 83.426 19.305C83.926 19.085 84.491 18.975 85.121 18.975ZM98.7349 19.05V25.92C98.7349 27.31 98.3899 28.335 97.6999 28.995C97.0099 29.665 95.9799 30 94.6099 30C93.8599 30 93.1449 29.895 92.4649 29.685C91.7849 29.485 91.2349 29.195 90.8149 28.815L91.5049 27.705C91.8749 28.025 92.3299 28.275 92.8699 28.455C93.4199 28.645 93.9849 28.74 94.5649 28.74C95.4949 28.74 96.1799 28.52 96.6199 28.08C97.0699 27.64 97.2949 26.97 97.2949 26.07V25.44C96.9549 25.85 96.5349 26.16 96.0349 26.37C95.5449 26.57 95.0099 26.67 94.4299 26.67C93.6699 26.67 92.9799 26.51 92.3599 26.19C91.7499 25.86 91.2699 25.405 90.9199 24.825C90.5699 24.235 90.3949 23.565 90.3949 22.815C90.3949 22.065 90.5699 21.4 90.9199 20.82C91.2699 20.23 91.7499 19.775 92.3599 19.455C92.9799 19.135 93.6699 18.975 94.4299 18.975C95.0299 18.975 95.5849 19.085 96.0949 19.305C96.6149 19.525 97.0399 19.85 97.3699 20.28V19.05H98.7349ZM94.5949 25.41C95.1149 25.41 95.5799 25.3 95.9899 25.08C96.4099 24.86 96.7349 24.555 96.9649 24.165C97.2049 23.765 97.3249 23.315 97.3249 22.815C97.3249 22.045 97.0699 21.425 96.5599 20.955C96.0499 20.475 95.3949 20.235 94.5949 20.235C93.7849 20.235 93.1249 20.475 92.6149 20.955C92.1049 21.425 91.8499 22.045 91.8499 22.815C91.8499 23.315 91.9649 23.765 92.1949 24.165C92.4349 24.555 92.7599 24.86 93.1699 25.08C93.5899 25.3 94.0649 25.41 94.5949 25.41ZM103.766 27.09C103.116 27.09 102.491 27.005 101.891 26.835C101.291 26.655 100.821 26.43 100.481 26.16L101.081 25.02C101.431 25.27 101.856 25.47 102.356 25.62C102.856 25.77 103.361 25.845 103.871 25.845C105.131 25.845 105.761 25.485 105.761 24.765C105.761 24.525 105.676 24.335 105.506 24.195C105.336 24.055 105.121 23.955 104.861 23.895C104.611 23.825 104.251 23.75 103.781 23.67C103.141 23.57 102.616 23.455 102.206 23.325C101.806 23.195 101.461 22.975 101.171 22.665C100.881 22.355 100.736 21.92 100.736 21.36C100.736 20.64 101.036 20.065 101.636 19.635C102.236 19.195 103.041 18.975 104.051 18.975C104.581 18.975 105.111 19.04 105.641 19.17C106.171 19.3 106.606 19.475 106.946 19.695L106.331 20.835C105.681 20.415 104.916 20.205 104.036 20.205C103.426 20.205 102.961 20.305 102.641 20.505C102.321 20.705 102.161 20.97 102.161 21.3C102.161 21.56 102.251 21.765 102.431 21.915C102.611 22.065 102.831 22.175 103.091 22.245C103.361 22.315 103.736 22.395 104.216 22.485C104.856 22.595 105.371 22.715 105.761 22.845C106.161 22.965 106.501 23.175 106.781 23.475C107.061 23.775 107.201 24.195 107.201 24.735C107.201 25.455 106.891 26.03 106.271 26.46C105.661 26.88 104.826 27.09 103.766 27.09Z" fill="#6C2C00"/>
<rect opacity="0.2" x="42.0027" y="102" width="12.9644" height="16" fill="#FEA401"/>
<rect opacity="0.05" x="72.5615" y="80" width="12.0384" height="15" fill="#FEA401"/>
<rect opacity="0.15" x="146.644" y="88" width="33.337" height="32" fill="#FEA401"/>
<rect x="329.071" y="37" width="1.35193" height="1.45992" fill="#6C2C00"/>
<rect x="329.071" y="44.2996" width="1.35193" height="1.45992" fill="#6C2C00"/>
<rect x="329.071" y="53.0591" width="1.35193" height="1.45992" fill="#6C2C00"/>
<rect x="329.071" y="60.3588" width="1.35193" height="1.45992" fill="#6C2C00"/>
<rect x="329.071" y="69.1183" width="1.35193" height="1.45992" fill="#6C2C00"/>
<rect x="329.071" y="76.4179" width="1.35193" height="1.45992" fill="#6C2C00"/>
<rect x="329.071" y="83.7176" width="1.35193" height="1.45992" fill="#6C2C00"/>
<rect x="329.071" y="92.4771" width="1.35193" height="1.45992" fill="#6C2C00"/>
<rect x="335.831" y="37" width="1.35193" height="1.45992" fill="#6C2C00"/>
<rect x="335.831" y="44.2996" width="1.35193" height="1.45992" fill="#6C2C00"/>
<rect x="335.831" y="53.0591" width="1.35193" height="1.45992" fill="#6C2C00"/>
<rect x="335.831" y="60.3589" width="1.35193" height="1.45992" fill="#6C2C00"/>
<rect x="335.831" y="69.1184" width="1.35193" height="1.45992" fill="#6C2C00"/>
<rect x="335.831" y="76.418" width="1.35193" height="1.45992" fill="#6C2C00"/>
<rect x="335.831" y="83.7175" width="1.35193" height="1.45992" fill="#6C2C00"/>
<rect x="335.831" y="92.4771" width="1.35193" height="1.45992" fill="#6C2C00"/>
<rect x="343.943" y="37" width="1.35193" height="1.45992" fill="#6C2C00"/>
<rect x="343.943" y="44.2996" width="1.35193" height="1.45992" fill="#6C2C00"/>
<rect x="343.943" y="53.0591" width="1.35193" height="1.45992" fill="#6C2C00"/>
<rect x="343.943" y="60.3589" width="1.35193" height="1.45992" fill="#6C2C00"/>
<rect x="343.943" y="69.1184" width="1.35193" height="1.45992" fill="#6C2C00"/>
<rect x="343.943" y="76.418" width="1.35193" height="1.45992" fill="#6C2C00"/>
<rect x="343.943" y="83.7175" width="1.35193" height="1.45992" fill="#6C2C00"/>
<rect x="343.943" y="92.4771" width="1.35193" height="1.45992" fill="#6C2C00"/>
<rect x="65.1533" y="126.519" width="1.45992" height="1.35193" transform="rotate(-90 65.1533 126.519)" fill="#6C2C00"/>
<rect x="71.9131" y="126.519" width="1.45992" height="1.35193" transform="rotate(-90 71.9131 126.519)" fill="#6C2C00"/>
<rect x="80.0244" y="126.519" width="1.45992" height="1.35193" transform="rotate(-90 80.0244 126.519)" fill="#6C2C00"/>
<rect x="86.7842" y="126.519" width="1.45992" height="1.35193" transform="rotate(-90 86.7842 126.519)" fill="#6C2C00"/>
<rect x="94.8958" y="126.519" width="1.45992" height="1.35193" transform="rotate(-90 94.8958 126.519)" fill="#6C2C00"/>
<rect x="101.655" y="126.519" width="1.45992" height="1.35193" transform="rotate(-90 101.655 126.519)" fill="#6C2C00"/>
<rect x="108.415" y="126.519" width="1.45992" height="1.35193" transform="rotate(-90 108.415 126.519)" fill="#6C2C00"/>
<rect x="116.527" y="126.519" width="1.45992" height="1.35193" transform="rotate(-90 116.527 126.519)" fill="#6C2C00"/>
<rect x="65.1533" y="119.219" width="1.45992" height="1.35193" transform="rotate(-90 65.1533 119.219)" fill="#6C2C00"/>
<rect x="71.9131" y="119.219" width="1.45992" height="1.35193" transform="rotate(-90 71.9131 119.219)" fill="#6C2C00"/>
<rect x="80.0244" y="119.219" width="1.45992" height="1.35193" transform="rotate(-90 80.0244 119.219)" fill="#6C2C00"/>
<rect x="86.7842" y="119.219" width="1.45992" height="1.35193" transform="rotate(-90 86.7842 119.219)" fill="#6C2C00"/>
<rect x="94.8958" y="119.219" width="1.45992" height="1.35193" transform="rotate(-90 94.8958 119.219)" fill="#6C2C00"/>
<rect x="101.655" y="119.219" width="1.45992" height="1.35193" transform="rotate(-90 101.655 119.219)" fill="#6C2C00"/>
<rect x="108.415" y="119.219" width="1.45992" height="1.35193" transform="rotate(-90 108.415 119.219)" fill="#6C2C00"/>
<rect x="116.527" y="119.219" width="1.45992" height="1.35193" transform="rotate(-90 116.527 119.219)" fill="#6C2C00"/>
<rect x="65.1533" y="110.46" width="1.45992" height="1.35193" transform="rotate(-90 65.1533 110.46)" fill="#6C2C00"/>
<rect x="71.9131" y="110.46" width="1.45992" height="1.35193" transform="rotate(-90 71.9131 110.46)" fill="#6C2C00"/>
<rect x="80.0244" y="110.46" width="1.45992" height="1.35193" transform="rotate(-90 80.0244 110.46)" fill="#6C2C00"/>
<rect x="86.7842" y="110.46" width="1.45992" height="1.35193" transform="rotate(-90 86.7842 110.46)" fill="#6C2C00"/>
<rect x="94.8958" y="110.46" width="1.45992" height="1.35193" transform="rotate(-90 94.8958 110.46)" fill="#6C2C00"/>
<rect x="101.655" y="110.46" width="1.45992" height="1.35193" transform="rotate(-90 101.655 110.46)" fill="#6C2C00"/>
<rect x="108.415" y="110.46" width="1.45992" height="1.35193" transform="rotate(-90 108.415 110.46)" fill="#6C2C00"/>
<rect x="116.527" y="110.46" width="1.45992" height="1.35193" transform="rotate(-90 116.527 110.46)" fill="#6C2C00"/>
<g filter="url(#filter0_d_1429_1669)">
<rect x="40.1506" y="47" width="83.3425" height="32" rx="16" fill="#FEA401"/>
</g>
<path d="M75.44 57.5L70.79 68H69.695L65.045 57.5H66.245L70.265 66.62L74.315 57.5H75.44ZM76.695 60.11H77.76V68H76.695V60.11ZM77.235 58.385C77.015 58.385 76.83 58.31 76.68 58.16C76.53 58.01 76.455 57.83 76.455 57.62C76.455 57.42 76.53 57.245 76.68 57.095C76.83 56.945 77.015 56.87 77.235 56.87C77.455 56.87 77.64 56.945 77.79 57.095C77.94 57.235 78.015 57.405 78.015 57.605C78.015 57.825 77.94 58.01 77.79 58.16C77.64 58.31 77.455 58.385 77.235 58.385ZM87.5933 64.385H80.9933C81.0533 65.205 81.3683 65.87 81.9383 66.38C82.5083 66.88 83.2283 67.13 84.0983 67.13C84.5883 67.13 85.0383 67.045 85.4483 66.875C85.8583 66.695 86.2133 66.435 86.5133 66.095L87.1133 66.785C86.7633 67.205 86.3233 67.525 85.7933 67.745C85.2733 67.965 84.6983 68.075 84.0683 68.075C83.2583 68.075 82.5383 67.905 81.9083 67.565C81.2883 67.215 80.8033 66.735 80.4533 66.125C80.1033 65.515 79.9283 64.825 79.9283 64.055C79.9283 63.285 80.0933 62.595 80.4233 61.985C80.7633 61.375 81.2233 60.9 81.8033 60.56C82.3933 60.22 83.0533 60.05 83.7833 60.05C84.5133 60.05 85.1683 60.22 85.7483 60.56C86.3283 60.9 86.7833 61.375 87.1133 61.985C87.4433 62.585 87.6083 63.275 87.6083 64.055L87.5933 64.385ZM83.7833 60.965C83.0233 60.965 82.3833 61.21 81.8633 61.7C81.3533 62.18 81.0633 62.81 80.9933 63.59H86.5883C86.5183 62.81 86.2233 62.18 85.7033 61.7C85.1933 61.21 84.5533 60.965 83.7833 60.965ZM101.21 60.11L98.2245 68H97.2195L94.7295 61.535L92.2395 68H91.2345L88.2645 60.11H89.2845L91.7595 66.815L94.2945 60.11H95.2095L97.7295 66.815L100.235 60.11H101.21Z" fill="white"/>
<defs>
<filter id="filter0_d_1429_1669" x="0.150635" y="27" width="163.343" height="112" filterUnits="userSpaceOnUse" color-interpolation-filters="sRGB">
<feFlood flood-opacity="0" result="BackgroundImageFix"/>
<feColorMatrix in="SourceAlpha" type="matrix" values="0 0 0 0 0 0 0 0 0 0 0 0 0 0 0 0 0 0 127 0" result="hardAlpha"/>
<feOffset dy="20"/>
<feGaussianBlur stdDeviation="20"/>
<feColorMatrix type="matrix" values="0 0 0 0 0.00954862 0 0 0 0 0.124514 0 0 0 0 0.173785 0 0 0 0.05 0"/>
<feBlend mode="normal" in2="BackgroundImageFix" result="effect1_dropShadow_1429_1669"/>
<feBlend mode="normal" in="SourceGraphic" in2="effect1_dropShadow_1429_1669" result="shape"/>
</filter>
</defs>
</svg>
