<svg width="200" height="135" viewBox="0 0 200 135" fill="none" xmlns="http://www.w3.org/2000/svg">
<path d="M191.406 118.636H23.6292V118.727H191.406V118.636Z" fill="#E0E0E0"/>
<path d="M167.823 123.368H158.297V123.459H167.823V123.368Z" fill="#E0E0E0"/>
<path d="M155.837 123.412H147.324V123.502H155.837V123.412Z" fill="#E0E0E0"/>
<path d="M116.45 121.314H104.991V121.404H116.45V121.314Z" fill="#E0E0E0"/>
<path d="M138.059 124.122H122.134V124.213H138.059V124.122Z" fill="#E0E0E0"/>
<path d="M71.5596 121.209H56.1409V121.299H71.5596V121.209Z" fill="#E0E0E0"/>
<path d="M78.6596 121.209H73.4216V121.299H78.6596V121.209Z" fill="#E0E0E0"/>
<path d="M58.0803 122.839H44.5877V122.93H58.0803V122.839Z" fill="#E0E0E0"/>
<path d="M103.155 102.475H38.3632C37.8556 102.474 37.3691 102.255 37.0105 101.868C36.6519 101.48 36.4505 100.954 36.4505 100.406V2.05095C36.4549 1.50597 36.6583 0.984881 37.0164 0.600869C37.3745 0.216856 37.8585 0.000933574 38.3632 0H103.155C103.663 0 104.151 0.21799 104.51 0.606015C104.869 0.99404 105.071 1.52031 105.071 2.06906V100.406C105.071 100.955 104.869 101.481 104.51 101.869C104.151 102.257 103.663 102.475 103.155 102.475ZM38.3632 0.0724719C37.8778 0.0734317 37.4127 0.2823 37.0698 0.653232C36.727 1.02416 36.5344 1.52685 36.5344 2.05095V100.406C36.5344 100.93 36.727 101.433 37.0698 101.803C37.4127 102.174 37.8778 102.383 38.3632 102.384H103.155C103.641 102.383 104.106 102.175 104.45 101.804C104.793 101.433 104.986 100.93 104.987 100.406V2.05095C104.986 1.52652 104.793 1.02384 104.45 0.653011C104.106 0.282183 103.641 0.0734297 103.155 0.0724719H38.3632Z" fill="#E0E0E0"/>
<path d="M175.739 102.475H110.944C110.436 102.474 109.949 102.256 109.59 101.868C109.231 101.48 109.028 100.954 109.028 100.406V2.05095C109.033 1.50564 109.237 0.984554 109.596 0.600642C109.954 0.216729 110.439 0.000923393 110.944 0H175.739C176.243 0.00188589 176.726 0.21823 177.084 0.60214C177.441 0.986051 177.644 1.50659 177.648 2.05095V100.406C177.648 100.953 177.447 101.478 177.089 101.866C176.732 102.254 176.246 102.473 175.739 102.475ZM110.944 0.0724719C110.458 0.0734297 109.992 0.282183 109.649 0.653011C109.306 1.02384 109.112 1.52652 109.111 2.05095V100.406C109.112 100.93 109.306 101.433 109.649 101.804C109.992 102.175 110.458 102.383 110.944 102.384H175.739C176.225 102.383 176.69 102.175 177.033 101.804C177.377 101.433 177.57 100.93 177.571 100.406V2.05095C177.57 1.52652 177.377 1.02384 177.033 0.653011C176.69 0.282183 176.225 0.0734297 175.739 0.0724719H110.944Z" fill="#E0E0E0"/>
<path d="M133.811 8.79443H47.5742V55.7415H133.811V8.79443Z" fill="#E0E0E0"/>
<path d="M134.935 8.79443H48.6982V55.7415H134.935V8.79443Z" fill="#F0F0F0"/>
<path d="M132.919 53.5347V10.9939L50.7183 10.9939V53.5347L132.919 53.5347Z" fill="#F5F5F5"/>
<path d="M56.805 53.5384L79.0992 10.9976H89.5449L67.2541 53.5384H56.805Z" fill="white"/>
<path d="M70.761 53.5384L93.0551 10.9976H103.501L81.2101 53.5384H70.761Z" fill="white"/>
<path d="M99.7998 53.5384L122.091 10.9976H126.392L104.102 53.5384H99.7998Z" fill="white"/>
<path d="M106.158 53.5347V10.9939H103.118V53.5347H106.158Z" fill="#E0E0E0"/>
<path d="M78.2737 53.5347V10.9939H75.2336V53.5347H78.2737Z" fill="#E0E0E0"/>
<path d="M107.226 54.9372V9.35986H104.185V54.9372H107.226Z" fill="#F5F5F5"/>
<path d="M79.3407 54.9372V9.35986H76.3006V54.9372H79.3407Z" fill="#F5F5F5"/>
<path d="M132.919 53.5347V10.9939H132.07V53.5347H132.919Z" fill="#E0E0E0"/>
<path d="M155.112 69.6016C155.112 69.6016 148.958 58.1474 157.495 49.0305C157.495 49.0305 159.723 50.5959 159.689 52.7048C159.656 54.8137 157.303 55.3464 157.807 57.1075C158.31 58.8685 160.535 60.5934 159.079 62.0464C157.622 63.4995 159.31 64.7967 159.213 66.5759C159.115 68.3551 155.112 69.6016 155.112 69.6016Z" fill="#E0E0E0"/>
<path d="M156.079 71.4753C156.079 71.4753 158.572 58.5102 147.808 52.7632C147.808 52.7632 146.153 55.0098 146.801 56.9991C147.449 58.9885 149.838 58.695 149.871 60.5358C149.905 62.3765 148.301 64.7717 150.11 65.6559C151.918 66.54 150.69 68.3446 151.304 70.0042C151.918 71.6638 156.079 71.4753 156.079 71.4753Z" fill="#EBEBEB"/>
<path d="M150.599 68.1812C150.599 68.1812 150.706 73.5875 154.847 73.5875C158.988 73.5875 159.098 68.1812 159.098 68.1812H150.599Z" fill="#F5F5F5"/>
<path d="M121.866 69.377C121.866 69.377 122.007 73.5875 127.453 73.5875C132.899 73.5875 133.043 69.377 133.043 69.377H121.866Z" fill="#EBEBEB"/>
<path d="M134.506 70.4207C134.506 70.4207 134.613 73.5877 138.707 73.5877C142.801 73.5877 142.905 70.4207 142.905 70.4207H134.506Z" fill="#EBEBEB"/>
<path d="M125.701 76.2146H116.534V115.918H125.701V76.2146Z" fill="#EBEBEB"/>
<path d="M163.498 115.915H118.292V118.636H163.498V115.915Z" fill="#EBEBEB"/>
<path d="M125.701 115.915H165.26V76.211H125.701V115.915Z" fill="#F5F5F5"/>
<path d="M129.305 94.1333H161.656V80.0521H129.305V94.1333Z" fill="#EBEBEB"/>
<path d="M129.305 110.78H161.656V96.6988H129.305V110.78Z" fill="#EBEBEB"/>
<path d="M149.126 81.5959H141.848C141.611 81.5959 141.383 81.4945 141.215 81.3138C141.047 81.1332 140.953 80.888 140.952 80.632C140.953 80.3757 141.047 80.1302 141.215 79.949C141.383 79.7677 141.61 79.6655 141.848 79.6646H149.126C149.363 79.6655 149.591 79.7677 149.758 79.949C149.926 80.1302 150.021 80.3757 150.022 80.632C150.021 80.888 149.926 81.1332 149.758 81.3138C149.59 81.4945 149.363 81.5959 149.126 81.5959Z" fill="#F5F5F5"/>
<path d="M149.126 98.2424H141.848C141.611 98.2424 141.383 98.141 141.215 97.9603C141.047 97.7797 140.953 97.5345 140.952 97.2785C140.953 97.0222 141.047 96.7767 141.215 96.5955C141.383 96.4142 141.61 96.312 141.848 96.311H149.126C149.363 96.312 149.591 96.4142 149.758 96.5955C149.926 96.7767 150.021 97.0222 150.022 97.2785C150.021 97.5345 149.926 97.7797 149.758 97.9603C149.59 98.141 149.363 98.2424 149.126 98.2424Z" fill="#F5F5F5"/>
<path d="M166.477 73.5876H125.698V76.2147H166.477V73.5876Z" fill="#EBEBEB"/>
<path d="M115.249 76.2112H125.698V73.5841H115.249V76.2112Z" fill="#E0E0E0"/>
<path d="M164.434 15.4036H144.576V40.1091H164.434V15.4036Z" fill="#EBEBEB"/>
<path d="M166.689 15.4036H145.17V40.1091H166.689V15.4036Z" fill="#F5F5F5"/>
<path d="M164.887 38.1598V17.3496H146.972V38.1598H164.887Z" fill="white"/>
<path d="M160.545 31.4093V24.1005C160.545 23.1579 159.837 22.3938 158.965 22.3938H152.894C152.022 22.3938 151.314 23.1579 151.314 24.1005V31.4093C151.314 32.3518 152.022 33.116 152.894 33.116H158.965C159.837 33.116 160.545 32.3518 160.545 31.4093Z" fill="#F5F5F5"/>
<path d="M113.923 95.6335H111.618V118.636H113.923V95.6335Z" fill="#E0E0E0"/>
<path opacity="0.5" d="M113.923 95.6335H112.769V118.636H113.923V95.6335Z" fill="#F5F5F5"/>
<path d="M103.826 102.076H102.242C102.416 101.917 102.555 101.72 102.651 101.497C102.746 101.274 102.796 101.032 102.796 100.786H84.0285C84.0293 101.032 84.0795 101.275 84.1757 101.497C84.2718 101.72 84.4117 101.918 84.5856 102.076H83.0219C82.4612 102.076 81.9235 102.317 81.5271 102.745C81.1306 103.173 80.9079 103.754 80.9079 104.359V111.015C80.9079 111.621 81.1306 112.202 81.5271 112.63C81.9235 113.058 82.4612 113.298 83.0219 113.298H103.826C104.387 113.298 104.925 113.058 105.321 112.63C105.717 112.202 105.94 111.621 105.94 111.015V104.359C105.94 103.754 105.717 103.173 105.321 102.745C104.925 102.317 104.387 102.076 103.826 102.076Z" fill="#F5F5F5"/>
<path d="M86.468 106.993H73.8478C73.062 106.993 72.425 107.681 72.425 108.53V111.762C72.425 112.61 73.062 113.298 73.8478 113.298H86.468C87.2537 113.298 87.8907 112.61 87.8907 111.762V108.53C87.8907 107.681 87.2537 106.993 86.468 106.993Z" fill="#EBEBEB"/>
<path d="M87.4142 105.602H72.9015C72.6384 105.602 72.425 105.832 72.425 106.117V106.704C72.425 106.988 72.6384 107.218 72.9015 107.218H87.4142C87.6774 107.218 87.8907 106.988 87.8907 106.704V106.117C87.8907 105.832 87.6774 105.602 87.4142 105.602Z" fill="#E0E0E0"/>
<path d="M89.3168 85.3606C89.3168 85.3606 89.5349 92.9701 97.7895 92.9701C106.044 92.9701 106.262 85.3606 106.262 85.3606H89.3168Z" fill="#EBEBEB"/>
<path d="M49.5036 95.6335H59.7984V92.9738H49.5036V95.6335Z" fill="#E0E0E0"/>
<path d="M121.913 92.9739H59.8019V95.6336H121.913V92.9739Z" fill="#F5F5F5"/>
<path d="M49.5036 115.958H59.7984V113.299H49.5036V115.958Z" fill="#E0E0E0"/>
<path d="M51.8124 95.6335H49.5071V118.636H51.8124V95.6335Z" fill="#E0E0E0"/>
<path opacity="0.5" d="M51.8123 95.6335H50.658V118.636H51.8123V95.6335Z" fill="#F5F5F5"/>
<path d="M60.9528 95.6335H58.6476V118.636H60.9528V95.6335Z" fill="#F5F5F5"/>
<path d="M59.8019 95.6335H58.6476V118.636H59.8019V95.6335Z" fill="#E0E0E0"/>
<path d="M121.909 95.6335H119.604V118.636H121.909V95.6335Z" fill="#F5F5F5"/>
<path d="M120.758 95.6335H119.604V118.636H120.758V95.6335Z" fill="#E0E0E0"/>
<path d="M121.913 113.298H59.8019V115.958H121.913V113.298Z" fill="#F5F5F5"/>
<path d="M76.3645 91.4048H63.8417V92.9738H76.3645V91.4048Z" fill="#E0E0E0"/>
<path d="M76.3645 92.9702H80.8509V91.4012H76.3645V92.9702Z" fill="#EBEBEB"/>
<path d="M107.517 135C143.449 135 172.578 133.163 172.578 130.898C172.578 128.633 143.449 126.796 107.517 126.796C71.5856 126.796 42.457 128.633 42.457 130.898C42.457 133.163 71.5856 135 107.517 135Z" fill="#F5F5F5"/>
<path d="M96.7357 34.6776C96.7591 38.9716 93.9103 38.9281 93.9673 37.5946C94.0244 36.2611 93.3197 33.0688 93.9673 33.3768C94.615 33.6848 96.7256 32.7789 96.7357 34.6776Z" fill="#263238"/>
<path d="M94.944 42.4538C95.3366 42.4211 96.1252 42.8161 96.1956 43.9358C96.214 44.2611 96.302 44.5774 96.4528 44.8597C96.6037 45.1421 96.8131 45.3827 97.0647 45.5628C97.0647 45.5628 95.7594 45.7331 94.9038 45.0011C94.2058 44.4105 93.8971 43.1169 94.2628 42.827C94.4633 42.6525 94.6953 42.5254 94.944 42.4538Z" fill="#263238"/>
<path d="M94.4302 39.4026C95.1013 40.044 95.7154 41.7398 94.2021 42.5442C92.6887 43.3487 90.3096 41.4753 90.3096 41.4753L92.9236 40.1672L94.4302 39.4026Z" fill="#263238"/>
<path d="M95.1756 42.6095C95.1387 42.3747 95.0779 42.145 94.9944 41.9246C94.9872 41.9036 94.9758 41.8847 94.9608 41.8692C94.9459 41.8537 94.928 41.842 94.9083 41.835C94.8886 41.8281 94.8677 41.826 94.8472 41.8289C94.8267 41.8319 94.807 41.8398 94.7897 41.8521L93.8603 42.5225C93.8416 42.5361 93.8263 42.5544 93.8157 42.5759C93.8051 42.5974 93.7996 42.6214 93.7996 42.6457C93.7996 42.67 93.8051 42.694 93.8157 42.7155C93.8263 42.737 93.8416 42.7553 93.8603 42.7689C93.994 42.8748 94.138 42.9647 94.2898 43.037C94.5079 43.1313 94.9609 42.8631 95.1152 42.7472C95.1364 42.7328 95.1534 42.7123 95.1641 42.6879C95.1748 42.6635 95.1788 42.6362 95.1756 42.6095Z" fill="#412525"/>
<path opacity="0.3" d="M95.1756 42.6095C95.1387 42.3747 95.0779 42.145 94.9944 41.9246C94.9872 41.9036 94.9758 41.8847 94.9608 41.8692C94.9459 41.8537 94.928 41.842 94.9083 41.835C94.8886 41.8281 94.8677 41.826 94.8472 41.8289C94.8267 41.8319 94.807 41.8398 94.7897 41.8521L93.8603 42.5225C93.8416 42.5361 93.8263 42.5544 93.8157 42.5759C93.8051 42.5974 93.7996 42.6214 93.7996 42.6457C93.7996 42.67 93.8051 42.694 93.8157 42.7155C93.8263 42.737 93.8416 42.7553 93.8603 42.7689C93.994 42.8748 94.138 42.9647 94.2898 43.037C94.5079 43.1313 94.9609 42.8631 95.1152 42.7472C95.1364 42.7328 95.1534 42.7123 95.1641 42.6879C95.1748 42.6635 95.1788 42.6362 95.1756 42.6095Z" fill="black"/>
<path d="M85.1726 40.8304C84.8001 40.6963 83.9478 40.8775 83.6324 41.9501C83.5428 42.2613 83.3877 42.5459 83.1793 42.7816C82.9709 43.0174 82.7148 43.1978 82.4311 43.3089C82.4311 43.3089 83.6626 43.809 84.6558 43.3089C85.4611 42.914 86.0316 41.7327 85.7531 41.3558C85.597 41.1375 85.3989 40.9582 85.1726 40.8304Z" fill="#263238"/>
<path d="M88.8703 33.4563C87.5113 33.8549 85.6826 35.5942 86.4946 37.7285C85.6927 38.3191 84.6659 40.0186 85.8671 41.1057C87.159 42.2761 90.3367 40.6346 90.3367 40.6346L90.3602 40.0766L90.7394 35.924L88.8703 33.4563Z" fill="#263238"/>
<path d="M84.9138 40.9247C85.004 40.7053 85.1165 40.4975 85.2493 40.3051C85.2626 40.2876 85.2792 40.2736 85.2981 40.2639C85.3169 40.2543 85.3375 40.2493 85.3584 40.2493C85.3793 40.2493 85.3999 40.2543 85.4187 40.2639C85.4376 40.2736 85.4542 40.2876 85.4675 40.3051L86.2191 41.1928C86.2343 41.2109 86.2452 41.2326 86.251 41.2562C86.2567 41.2798 86.2572 41.3045 86.2522 41.3283C86.2473 41.3521 86.2371 41.3743 86.2226 41.393C86.2081 41.4116 86.1896 41.4263 86.1688 41.4356C86.0163 41.5028 85.8577 41.5526 85.6956 41.5842C85.4607 41.6204 85.0984 41.2472 84.9574 41.095C84.9346 41.075 84.9182 41.0479 84.9104 41.0174C84.9026 40.9869 84.9037 40.9545 84.9138 40.9247Z" fill="#412525"/>
<path opacity="0.3" d="M84.9138 40.9247C85.004 40.7053 85.1165 40.4975 85.2493 40.3051C85.2626 40.2876 85.2792 40.2736 85.2981 40.2639C85.3169 40.2543 85.3375 40.2493 85.3584 40.2493C85.3793 40.2493 85.3999 40.2543 85.4187 40.2639C85.4376 40.2736 85.4542 40.2876 85.4675 40.3051L86.2191 41.1928C86.2343 41.2109 86.2452 41.2326 86.251 41.2562C86.2567 41.2798 86.2572 41.3045 86.2522 41.3283C86.2473 41.3521 86.2371 41.3743 86.2226 41.393C86.2081 41.4116 86.1896 41.4263 86.1688 41.4356C86.0163 41.5028 85.8577 41.5526 85.6956 41.5842C85.4607 41.6204 85.0984 41.2472 84.9574 41.095C84.9346 41.075 84.9182 41.0479 84.9104 41.0174C84.9026 40.9869 84.9037 40.9545 84.9138 40.9247Z" fill="black"/>
<path d="M97.1416 48.5811C97.7825 49.1173 98.4838 49.6899 99.1884 50.2117C99.8931 50.7335 100.601 51.2589 101.329 51.7408C102.057 52.2227 102.796 52.6721 103.541 53.0997L104.101 53.4077L104.671 53.6939C104.859 53.7918 105.051 53.8787 105.245 53.9584L105.53 54.0853C105.628 54.1251 105.732 54.1759 105.792 54.194C106.143 54.31 106.502 54.3937 106.866 54.444C107.262 54.5056 107.678 54.5491 108.101 54.5817C108.943 54.6397 109.809 54.665 110.678 54.6687C111.547 54.6723 112.426 54.6687 113.302 54.6397C114.178 54.6107 115.063 54.5889 115.936 54.56L116.1 55.984C114.338 56.3678 112.558 56.6521 110.768 56.8356C109.866 56.9225 108.96 56.9878 108.034 56.995C107.571 56.995 107.101 56.995 106.618 56.9479C106.098 56.9148 105.583 56.8238 105.081 56.6761C104.926 56.6326 104.829 56.5892 104.715 56.5493L104.379 56.4225C104.155 56.3428 103.933 56.2558 103.708 56.158L103.057 55.8753L102.42 55.5709C101.577 55.1606 100.756 54.7009 99.9602 54.194C99.1683 53.6903 98.3898 53.1685 97.6382 52.6105C96.8865 52.0524 96.1617 51.4763 95.4235 50.7987L97.1416 48.5811Z" fill="#E4897B"/>
<path d="M93.6587 46.9544C94.4943 46.2514 97.9337 48.5524 98.9806 49.5127L98.2189 54.4878C98.2189 54.4878 93.2695 52.2485 92.9709 50.7193C92.6621 49.1213 93.0279 47.4907 93.6587 46.9544Z" fill="#263238"/>
<path d="M115.57 54.6835L117.644 52.9478L117.808 55.6328C117.808 55.6328 116.379 56.5895 115.436 55.9952L115.57 54.6835Z" fill="#E4897B"/>
<path d="M119.493 52.6831L120.553 53.9586L117.795 55.6327L117.631 52.9476L119.493 52.6831Z" fill="#E4897B"/>
<path d="M80.0958 127.358L82.7097 127.568L83.6627 121.071L81.0521 120.861L80.0958 127.358Z" fill="#E4897B"/>
<path d="M61.6033 118.277L63.8213 119.784L67.7707 114.726L65.5527 113.215L61.6033 118.277Z" fill="#E4897B"/>
<path d="M64.5227 119.245L62.4456 116.987C62.4102 116.948 62.3626 116.924 62.3119 116.92C62.2612 116.916 62.2109 116.932 62.1705 116.965L60.2813 118.491C60.2352 118.531 60.1975 118.581 60.1706 118.638C60.1436 118.695 60.128 118.758 60.1249 118.822C60.1217 118.886 60.131 118.949 60.1522 119.009C60.1734 119.069 60.2059 119.123 60.2478 119.169C60.9826 119.94 61.3752 120.274 62.2879 121.267C62.8483 121.879 63.61 122.832 64.3851 123.676C65.1603 124.521 65.9723 123.734 65.7274 123.314C64.5932 121.404 64.7979 120.69 64.7207 119.719C64.7093 119.541 64.6391 119.372 64.5227 119.245Z" fill="#263238"/>
<path d="M82.8843 127.162H79.9381C79.8863 127.162 79.8361 127.182 79.7963 127.218C79.7564 127.253 79.7294 127.303 79.72 127.358L79.2536 129.873C79.2428 129.936 79.2456 130.002 79.2617 130.064C79.2778 130.127 79.3068 130.184 79.3466 130.233C79.3863 130.281 79.4357 130.32 79.4911 130.344C79.5465 130.369 79.6064 130.38 79.6663 130.376C80.6931 130.358 81.1931 130.293 82.4883 130.293C83.2836 130.293 85.5083 130.38 86.619 130.38C87.7297 130.38 87.8404 129.206 87.3874 129.101C85.3573 128.623 83.9882 127.967 83.3272 127.336C83.205 127.22 83.0469 127.158 82.8843 127.162Z" fill="#263238"/>
<path d="M83.6624 121.071L83.1322 124.68L80.5552 124.212L81.0484 120.864L83.6624 121.071Z" fill="#CE6F64"/>
<path d="M65.5524 113.219L67.7704 114.726L66.1363 116.821L63.8679 115.375L65.5524 113.219Z" fill="#CE6F64"/>
<path d="M82.0822 62.0103L92.5313 64.2098C97.9304 48.4219 96.756 47.9037 96.756 47.9037C95.9966 47.4531 95.2122 47.0537 94.4071 46.7079L94.2662 46.6499C93.595 46.3854 93.4608 46.3455 92.5683 46.0629C91.0314 45.6679 89.5986 45.3382 87.8235 45.0664L87.488 45.0157C87.1524 44.9722 86.8471 44.936 86.5384 44.9034C86.3303 44.878 86.1223 44.8635 85.9243 44.849L85.2532 44.8092C84.1056 44.7476 83.2835 44.7657 83.2835 44.7657C83.6023 54.6254 83.0855 57.4554 82.0822 62.0103Z" fill="#263238"/>
<path d="M89.3335 39.4026C89.3335 41.1129 89.0885 44.1966 87.8201 45.0735C87.8201 45.0735 87.9376 46.8345 90.773 47.4288C93.8936 48.0847 92.5649 46.07 92.5649 46.07C90.9441 45.2728 91.2226 43.9176 91.7595 42.7L89.3335 39.4026Z" fill="#E4897B"/>
<path d="M90.3234 40.7473L91.7596 42.7004C91.6338 42.9827 91.5305 43.2761 91.4509 43.5773C90.8167 43.3382 90.0617 42.3815 90.1087 41.6315C90.1301 41.3251 90.2028 41.0256 90.3234 40.7473Z" fill="#CE6F64"/>
<path d="M89.1822 35.4749C88.8466 38.2614 88.6419 39.4319 89.6755 41.1168C91.2291 43.6533 94.4705 43.4903 95.5745 40.8704C96.5811 38.5115 96.957 34.348 94.6584 32.7355C94.1538 32.3756 93.5723 32.161 92.9693 32.1121C92.3662 32.0632 91.7616 32.1816 91.2129 32.4561C90.6642 32.7306 90.1895 33.152 89.8341 33.6804C89.4787 34.2088 89.2543 34.8265 89.1822 35.4749Z" fill="#E4897B"/>
<path d="M97.5813 31.0613C97.6282 31.5032 97.5975 31.9506 97.4907 32.3802C97.4663 32.2345 97.4338 32.0905 97.3934 31.949C96.474 28.6661 92.3333 29.4488 91.085 30.862C89.0717 30.2387 87.1557 30.7351 87.4107 33.3985C87.4426 34.0846 87.6712 34.7431 88.0651 35.2827C87.753 36.2176 88.0651 37.7069 89.0952 37.7504C90.5448 37.812 91.9206 35.7393 92.4742 34.6015C93.4809 34.7863 94.9305 34.9639 96.0311 34.674C96.2156 34.7936 96.3666 34.8769 96.3666 34.8769C97.5377 34.1993 98.4303 33.5434 97.5813 31.0613Z" fill="#263238"/>
<path d="M88.2899 37.3771C88.2488 37.9178 88.4068 38.4542 88.7295 38.87C89.1657 39.4172 89.7361 39.0947 89.9408 38.4461C90.112 37.859 90.0885 36.8698 89.5046 36.5618C89.376 36.4965 89.2342 36.467 89.0923 36.4759C88.9504 36.4849 88.8129 36.532 88.6921 36.6131C88.5714 36.6941 88.4714 36.8064 88.4011 36.9399C88.3309 37.0733 88.2926 37.2236 88.2899 37.3771Z" fill="#E4897B"/>
<path d="M92.3737 64.2099C92.3737 64.2099 92.414 86.6109 90.7161 95.0466C88.9511 103.823 83.7601 123.789 83.7601 123.789L80.0019 123.263C80.0019 123.263 82.9447 103.095 84.1963 94.3726C85.562 84.868 84.7265 62.6011 84.7265 62.6011L92.3737 64.2099Z" fill="#412525"/>
<path opacity="0.3" d="M92.3737 64.2099C92.3737 64.2099 92.414 86.6109 90.7161 95.0466C88.9511 103.823 83.7601 123.789 83.7601 123.789L80.0019 123.263C80.0019 123.263 82.9447 103.095 84.1963 94.3726C85.562 84.868 84.7265 62.6011 84.7265 62.6011L92.3737 64.2099Z" fill="black"/>
<path d="M84.4008 124.14L79.3575 123.437L79.5722 121.509L85.2968 122.234L84.4008 124.14Z" fill="#263238"/>
<path d="M89.7732 63.63C89.7732 63.63 84.146 82.1429 81.3508 92.807C78.4046 104.058 67.1099 116.502 67.1099 116.502L63.8718 114.48C63.8718 114.48 71.5896 102.667 74.425 92.1693C80.1999 70.859 77.8275 66.3441 82.0823 62.0103L89.7732 63.63Z" fill="#412525"/>
<path opacity="0.3" d="M89.7732 63.63C89.7732 63.63 84.146 82.1429 81.3508 92.807C78.4046 104.058 67.1099 116.502 67.1099 116.502L63.8718 114.48C63.8718 114.48 71.5896 102.667 74.425 92.1693C80.1999 70.859 77.8275 66.3441 82.0823 62.0103L89.7732 63.63Z" fill="black"/>
<path d="M67.6366 117.063L63.1368 114.258L64.2576 112.526L69.254 115.501L67.6366 117.063Z" fill="#263238"/>
<path d="M92.9071 37.0584C92.8669 37.2831 92.9441 37.486 93.0816 37.515C93.2192 37.544 93.3601 37.3845 93.4172 37.1526C93.4742 36.9207 93.3803 36.7214 93.2427 36.6924C93.1051 36.6634 92.9474 36.8338 92.9071 37.0584Z" fill="#263238"/>
<path d="M95.2524 37.5514C95.2122 37.776 95.2893 37.9826 95.4269 38.0116C95.5645 38.0406 95.7054 37.8811 95.7457 37.6492C95.786 37.4173 95.7088 37.218 95.5712 37.1926C95.4336 37.1673 95.2927 37.3231 95.2524 37.5514Z" fill="#263238"/>
<path d="M95.5109 37.196L96.0377 37.1489C96.0377 37.1489 95.7055 37.5149 95.5109 37.196Z" fill="#263238"/>
<path d="M94.5648 37.8081C94.6574 38.3575 94.82 38.8904 95.048 39.3916C94.9278 39.4524 94.7966 39.4839 94.6638 39.4839C94.531 39.4839 94.3999 39.4524 94.2796 39.3916L94.5648 37.8081Z" fill="#DE5753"/>
<path d="M93.4004 40.1165C93.1199 40.0669 92.8547 39.9448 92.6274 39.7605C92.4001 39.5763 92.2175 39.3354 92.0951 39.0584C92.0918 39.0503 92.0901 39.0416 92.09 39.0328C92.09 39.024 92.0915 39.0153 92.0947 39.0072C92.0978 38.999 92.1024 38.9917 92.1083 38.9855C92.1141 38.9794 92.121 38.9746 92.1286 38.9714C92.1438 38.9653 92.1606 38.9656 92.1755 38.9723C92.1905 38.9791 92.2025 38.9917 92.2092 39.0077C92.3264 39.2622 92.4974 39.4834 92.7084 39.6534C92.9194 39.8233 93.1645 39.9373 93.4239 39.986C93.4319 39.9873 93.4395 39.9904 93.4464 39.9949C93.4533 39.9995 93.4592 40.0055 93.4639 40.0126C93.4686 40.0197 93.4719 40.0277 93.4737 40.0362C93.4755 40.0447 93.4756 40.0535 93.4742 40.0621C93.471 40.0798 93.4614 40.0954 93.4476 40.1056C93.4338 40.1158 93.4168 40.1197 93.4004 40.1165Z" fill="#263238"/>
<path d="M92.3734 36.0945C92.3486 36.0943 92.3244 36.086 92.304 36.0708C92.2835 36.0556 92.2678 36.0342 92.2588 36.0092C92.2497 35.9843 92.2478 35.9569 92.2533 35.9308C92.2588 35.9047 92.2714 35.8809 92.2895 35.8626C92.4334 35.7169 92.6074 35.6103 92.7971 35.5517C92.9867 35.4931 93.1866 35.4842 93.3801 35.5256C93.4118 35.5357 93.4386 35.5588 93.4549 35.5899C93.4712 35.621 93.4756 35.6577 93.4673 35.6923C93.4587 35.7263 93.438 35.7552 93.4097 35.7728C93.3814 35.7905 93.3479 35.7954 93.3163 35.7865C93.1626 35.7571 93.0047 35.7666 92.8551 35.8144C92.7054 35.8622 92.5681 35.9469 92.4539 36.0619C92.4317 36.0831 92.403 36.0947 92.3734 36.0945Z" fill="#263238"/>
<path d="M96.5547 36.598C96.5301 36.5983 96.506 36.5905 96.4856 36.5756C96.4652 36.5607 96.4495 36.5394 96.4406 36.5146C96.3831 36.3577 96.2925 36.2173 96.176 36.1048C96.0595 35.9922 95.9203 35.9104 95.7695 35.866C95.7534 35.863 95.738 35.8565 95.7242 35.847C95.7105 35.8375 95.6986 35.8252 95.6892 35.8107C95.6798 35.7962 95.6732 35.7799 95.6697 35.7626C95.6662 35.7454 95.6659 35.7276 95.6688 35.7102C95.6761 35.676 95.6949 35.6459 95.7215 35.6258C95.7482 35.6057 95.7809 35.597 95.8131 35.6015C96.0045 35.6531 96.1817 35.7534 96.33 35.8939C96.4782 36.0345 96.5933 36.2113 96.6654 36.4096C96.672 36.4259 96.6755 36.4436 96.6757 36.4615C96.6759 36.4793 96.6727 36.497 96.6665 36.5136C96.6602 36.5301 96.651 36.5452 96.6393 36.5578C96.6276 36.5704 96.6136 36.5804 96.5983 36.5871L96.5547 36.598Z" fill="#263238"/>
<path d="M93.1887 39.0437C93.0847 39.0442 92.9822 39.0185 92.889 38.9689C92.7958 38.9192 92.7146 38.8468 92.6518 38.7575C92.494 38.4917 92.3887 38.1936 92.3425 37.8818C92.2963 37.5701 92.3102 37.2514 92.3833 36.9457C92.5746 35.8006 93.239 34.8694 93.8665 34.8694C93.9709 34.8707 94.0737 34.8975 94.1673 34.9477C94.2608 34.9979 94.3426 35.0702 94.4067 35.1593C94.564 35.4253 94.6689 35.7234 94.7151 36.0351C94.7613 36.3467 94.7477 36.6653 94.6752 36.9711C94.4839 38.1161 93.8161 39.0437 93.1887 39.0437ZM93.8598 34.9708C93.2725 34.9708 92.6417 35.8695 92.4571 36.9711C92.3397 37.6958 92.4337 38.348 92.7088 38.6995C92.7647 38.7777 92.8364 38.8412 92.9183 38.8852C93.0003 38.9291 93.0904 38.9523 93.1819 38.9532C93.7725 38.9532 94.4 38.0581 94.5846 36.9566H94.6248H94.5846C94.6558 36.6654 94.6702 36.3613 94.6268 36.0638C94.5835 35.7663 94.4834 35.4817 94.3329 35.2281C94.2778 35.1504 94.2074 35.0869 94.1267 35.0424C94.046 34.9979 93.9571 34.9734 93.8665 34.9708H93.8598Z" fill="#FAFAFA"/>
<path d="M95.7962 39.4062C95.6876 39.4037 95.581 39.3752 95.4841 39.3225C95.3871 39.2698 95.3023 39.1944 95.2358 39.1018C95.0851 38.8578 94.9832 38.5827 94.9364 38.2938C94.8896 38.005 94.899 37.7088 94.964 37.4241C95.1351 36.3587 95.7794 35.4963 96.4001 35.4963C96.5089 35.4992 96.6157 35.5284 96.7127 35.5817C96.8097 35.635 96.8944 35.711 96.9605 35.8043C97.1101 36.0481 97.2115 36.3227 97.2583 36.6107C97.3051 36.8988 97.2962 37.1942 97.2323 37.4784C97.0645 38.5474 96.4203 39.4062 95.7962 39.4062ZM96.3901 35.5869C95.8062 35.5869 95.2022 36.4167 95.0479 37.4422C94.9875 37.7139 94.979 37.996 95.0228 38.2713C95.0666 38.5467 95.1619 38.8095 95.3029 39.0438C95.3619 39.126 95.4371 39.1929 95.5229 39.2399C95.6088 39.2869 95.7033 39.3128 95.7995 39.3156C96.3834 39.3156 96.9907 38.4894 97.1417 37.4639C97.2018 37.1924 97.2105 36.9106 97.1672 36.6354C97.124 36.3602 97.0297 36.0972 96.8901 35.8623C96.8314 35.7795 96.7564 35.7118 96.6705 35.6642C96.5846 35.6166 96.49 35.5902 96.3934 35.5869H96.3901Z" fill="#FAFAFA"/>
<path d="M65.2944 120.56C64.9589 120.56 64.6065 120.002 64.4253 119.679C64.4187 119.669 64.4152 119.656 64.4152 119.643C64.4152 119.63 64.4187 119.618 64.4253 119.607C64.4328 119.597 64.4425 119.588 64.4537 119.583C64.4649 119.578 64.4771 119.576 64.4891 119.578C64.5965 119.603 65.5192 119.821 65.6367 120.161C65.65 120.199 65.6537 120.24 65.6472 120.279C65.6406 120.319 65.6243 120.356 65.5998 120.386C65.5667 120.441 65.5214 120.485 65.468 120.516C65.4145 120.546 65.3548 120.561 65.2944 120.56ZM64.5931 119.745C64.8515 120.165 65.1032 120.415 65.2844 120.426C65.3246 120.426 65.3642 120.415 65.3995 120.394C65.4347 120.373 65.4644 120.343 65.4857 120.306C65.497 120.293 65.5046 120.277 65.5076 120.26C65.5106 120.243 65.5088 120.225 65.5025 120.208C65.4421 120.027 64.9622 119.846 64.5931 119.745Z" fill="#412525"/>
<path d="M64.7442 119.745C64.6425 119.746 64.5411 119.734 64.4422 119.709C64.4321 119.705 64.4229 119.699 64.4154 119.69C64.4078 119.682 64.4021 119.672 64.3986 119.661C64.3907 119.641 64.3907 119.617 64.3986 119.596C64.4221 119.574 64.9355 119.027 65.3146 119.027H65.3415C65.3884 119.031 65.4342 119.045 65.4758 119.068C65.5175 119.092 65.554 119.125 65.5831 119.165C65.6173 119.204 65.6385 119.254 65.6434 119.307C65.6483 119.36 65.6365 119.413 65.6099 119.459C65.5025 119.654 65.073 119.745 64.7442 119.745ZM64.5932 119.603C64.9086 119.643 65.4187 119.546 65.5227 119.382C65.5395 119.357 65.5529 119.317 65.5025 119.248C65.485 119.222 65.4619 119.2 65.4351 119.185C65.4082 119.17 65.3785 119.162 65.3482 119.161C65.0603 119.221 64.7966 119.375 64.5932 119.603Z" fill="#412525"/>
<path d="M83.8472 127.659C83.5695 127.65 83.2931 127.614 83.0217 127.55C83.0088 127.547 82.997 127.54 82.988 127.53C82.979 127.519 82.9732 127.506 82.9714 127.492C82.9699 127.478 82.9723 127.464 82.9783 127.452C82.9843 127.44 82.9936 127.43 83.0049 127.423C83.1291 127.358 84.2062 126.778 84.5183 126.974C84.5467 126.993 84.5702 127.02 84.5866 127.051C84.603 127.083 84.6118 127.119 84.6122 127.155C84.6161 127.216 84.6062 127.277 84.5834 127.333C84.5606 127.39 84.5256 127.439 84.4814 127.477C84.2946 127.613 84.0714 127.676 83.8472 127.659ZM83.2331 127.463C83.8069 127.564 84.2398 127.539 84.4075 127.383C84.4361 127.356 84.4586 127.323 84.4731 127.285C84.4877 127.247 84.494 127.207 84.4914 127.166C84.4921 127.152 84.4893 127.139 84.4834 127.126C84.4775 127.114 84.4687 127.104 84.4579 127.097C84.2901 126.992 83.6928 127.238 83.2331 127.463Z" fill="#412525"/>
<path d="M83.0383 127.55C83.0262 127.553 83.0134 127.553 83.0014 127.55C82.9915 127.543 82.9837 127.533 82.979 127.521C82.9742 127.51 82.9727 127.497 82.9745 127.485C82.9745 127.434 83.1356 126.281 83.7195 126.281H83.7698C83.9376 126.3 83.9845 126.39 83.9946 126.466C84.0416 126.785 83.3906 127.401 83.0618 127.553L83.0383 127.55ZM83.7094 126.405C83.3302 126.405 83.1624 127.071 83.1054 127.361C83.441 127.148 83.8872 126.666 83.8604 126.474C83.8604 126.474 83.8604 126.416 83.7429 126.405H83.7094Z" fill="#412525"/>
<path d="M93.1656 36.7031L93.6924 36.6523C93.6924 36.6523 93.3602 37.0219 93.1656 36.7031Z" fill="#263238"/>
<path d="M90.8602 49.8384C86.498 48.052 85.1356 45.3778 85.2397 44.8162L85.9108 44.8596H86.0249C86.1859 44.8596 86.3604 44.885 86.5248 44.9068C86.8335 44.9357 87.1523 44.972 87.4744 45.0191L87.81 45.0698C89.4116 45.2793 90.9972 45.6123 92.5547 46.0663C93.2661 46.291 93.501 46.3634 93.8969 46.5156L94.2493 46.6533L94.3902 46.7113C94.7392 47.523 94.662 49.1826 90.8602 49.8384Z" fill="#E4897B"/>
<path d="M90.8602 49.8384C86.498 48.052 85.1356 45.3778 85.2397 44.8162L85.9108 44.8596H86.0249C86.9107 46.2185 88.8502 48.0955 90.8266 48.3528C92.4171 47.9904 93.9171 47.5773 93.9036 46.5156L94.256 46.6533L94.3969 46.7113C94.7392 47.523 94.662 49.1826 90.8602 49.8384Z" fill="#412525"/>
<path opacity="0.3" d="M90.8602 49.8384C86.498 48.052 85.1356 45.3778 85.2397 44.8162L85.9108 44.8596H86.0249C86.9107 46.2185 88.8502 48.0955 90.8266 48.3528C92.4171 47.9904 93.9171 47.5773 93.9036 46.5156L94.256 46.6533L94.3969 46.7113C94.7392 47.523 94.662 49.1826 90.8602 49.8384Z" fill="black"/>
<path d="M82.0452 61.3145L81.3741 62.2277C81.3238 62.2965 81.3976 62.3944 81.5184 62.4197L92.4776 64.7243C92.5715 64.7461 92.6588 64.7243 92.6755 64.6482L92.9507 63.659C92.9708 63.5901 92.9004 63.5141 92.7963 63.4923L82.213 61.2674C82.1836 61.2608 82.1531 61.2615 82.124 61.2697C82.0949 61.2779 82.0679 61.2932 82.0452 61.3145Z" fill="#263238"/>
<path d="M83.2364 62.8907L82.9545 62.8327C82.8975 62.8327 82.8605 62.782 82.8706 62.7421L83.2397 61.4594C83.2397 61.4195 83.3068 61.4014 83.3605 61.4123L83.6457 61.4703C83.7028 61.4703 83.7397 61.5246 83.7296 61.5609L83.3605 62.8472C83.3471 62.8682 83.3277 62.8838 83.3053 62.8917C83.2828 62.8995 83.2586 62.8992 83.2364 62.8907Z" fill="#412525"/>
<path opacity="0.3" d="M83.2364 62.8907L82.9545 62.8327C82.8975 62.8327 82.8605 62.782 82.8706 62.7421L83.2397 61.4594C83.2397 61.4195 83.3068 61.4014 83.3605 61.4123L83.6457 61.4703C83.7028 61.4703 83.7397 61.5246 83.7296 61.5609L83.3605 62.8472C83.3471 62.8682 83.3277 62.8838 83.3053 62.8917C83.2828 62.8995 83.2586 62.8992 83.2364 62.8907Z" fill="black"/>
<path d="M83.9815 49.1393C83.854 49.9981 83.7332 50.9511 83.646 51.8425C83.5587 52.7339 83.4815 53.6543 83.4413 54.5819C83.4189 55.0385 83.4055 55.4951 83.401 55.9516C83.401 56.4046 83.401 56.8575 83.401 57.3105C83.4176 58.1979 83.4814 59.0835 83.5923 59.9629C83.6556 60.2641 83.7693 60.5502 83.9278 60.8072C84.1287 61.1601 84.353 61.4968 84.5989 61.8146C85.1354 62.5017 85.7091 63.1539 86.317 63.7677C86.931 64.4055 87.5753 65.0215 88.2363 65.623C88.8974 66.2245 89.5785 66.8224 90.2496 67.3985L89.5282 68.6016C87.9491 67.6669 86.4391 66.602 85.0117 65.4164C84.2748 64.8069 83.5795 64.1409 82.9312 63.4235C82.5856 63.0387 82.2681 62.6256 81.9816 62.1878C81.6272 61.6701 81.3748 61.0793 81.24 60.4521L81.1159 59.6839C81.0723 59.4339 81.0421 59.1839 81.0152 58.9375C80.9481 58.4374 80.9112 57.941 80.8743 57.4446C80.8045 56.4572 80.7832 55.4666 80.8105 54.4768C80.8374 53.4949 80.8877 52.5165 80.9783 51.5418C81.0689 50.567 81.183 49.6104 81.3642 48.603L83.9815 49.1393Z" fill="#E4897B"/>
<path d="M81.7536 45.5229C80.3174 46.7767 80.6597 50.5017 80.6597 50.5017L85.4917 52.2193C85.4917 52.2193 85.2702 47.9254 85.0353 46.3817C84.7467 44.5446 83.1629 44.2873 81.7536 45.5229Z" fill="#263238"/>
<path d="M89.6589 67.1665L91.8433 66.2896L91.5078 68.5325C91.5078 68.5325 89.924 69.1486 89.1119 68.3586L89.6589 67.1665Z" fill="#E4897B"/>
<path d="M94.4438 66.6229V68.355L91.5078 68.5325L91.8433 66.2896L94.4438 66.6229Z" fill="#E4897B"/>
<path d="M91.6754 64.6663L91.3935 64.6084C91.3365 64.6084 91.2996 64.5576 91.3096 64.5178L91.6787 63.235C91.6787 63.1952 91.7459 63.1771 91.8029 63.1879L92.0848 63.2459C92.1418 63.2459 92.1787 63.3002 92.1687 63.3365L91.7995 64.6229C91.7895 64.6591 91.7459 64.6808 91.6754 64.6663Z" fill="#412525"/>
<path opacity="0.3" d="M91.6754 64.6663L91.3935 64.6084C91.3365 64.6084 91.2996 64.5576 91.3096 64.5178L91.6787 63.235C91.6787 63.1952 91.7459 63.1771 91.8029 63.1879L92.0848 63.2459C92.1418 63.2459 92.1787 63.3002 92.1687 63.3365L91.7995 64.6229C91.7895 64.6591 91.7459 64.6808 91.6754 64.6663Z" fill="black"/>
<path d="M87.4578 63.7747L87.1726 63.7168C87.1155 63.7168 87.0786 63.666 87.0921 63.6262L87.4612 62.3434C87.4612 62.3036 87.5249 62.2854 87.582 62.2963L87.8672 62.3543C87.9209 62.3543 87.9611 62.4087 87.9477 62.4449L87.5786 63.7313C87.5685 63.7747 87.5149 63.7929 87.4578 63.7747Z" fill="#412525"/>
<path opacity="0.3" d="M87.4578 63.7747L87.1726 63.7168C87.1155 63.7168 87.0786 63.666 87.0921 63.6262L87.4612 62.3434C87.4612 62.3036 87.5249 62.2854 87.582 62.2963L87.8672 62.3543C87.9209 62.3543 87.9611 62.4087 87.9477 62.4449L87.5786 63.7313C87.5685 63.7747 87.5149 63.7929 87.4578 63.7747Z" fill="black"/>
<path d="M66.0861 84.904L83.4812 125.93C83.88 126.863 84.6042 127.587 85.4957 127.945C86.3871 128.302 87.3735 128.265 88.2394 127.84L91.001 126.477L154.947 94.8616C155.811 94.4324 156.482 93.6513 156.814 92.6892C157.146 91.727 157.112 90.662 156.719 89.727L141.347 53.4912L139.334 48.7045C138.935 47.7728 138.21 47.0492 137.319 46.6915C136.428 46.3339 135.442 46.371 134.576 46.7949L67.8646 79.7694C67.0008 80.1988 66.3292 80.9794 65.9961 81.9412C65.663 82.903 65.6953 83.9679 66.0861 84.904Z" fill="#412525"/>
<path opacity="0.1" d="M66.0861 84.904L83.4812 125.93C83.88 126.863 84.6042 127.587 85.4957 127.945C86.3871 128.302 87.3735 128.265 88.2394 127.84L91.001 126.477L154.947 94.8616C155.811 94.4324 156.482 93.6513 156.814 92.6892C157.146 91.727 157.112 90.662 156.719 89.727L141.347 53.4912L139.334 48.7045C138.935 47.7728 138.21 47.0492 137.319 46.6915C136.428 46.3339 135.442 46.371 134.576 46.7949L67.8646 79.7694C67.0008 80.1988 66.3292 80.9794 65.9961 81.9412C65.663 82.903 65.6953 83.9679 66.0861 84.904Z" fill="white"/>
<path d="M81.7172 121.77L154.953 85.562L146.382 65.3458L73.1462 101.554L81.7172 121.77Z" fill="#412525"/>
<path opacity="0.3" d="M81.7172 121.77L154.953 85.562L146.382 65.3458L73.1462 101.554L81.7172 121.77Z" fill="white"/>
<path d="M100.136 104.814L146.417 81.9324L143.349 74.6972L97.069 97.5786L100.136 104.814Z" fill="#412525"/>
<path opacity="0.8" d="M100.136 104.814L146.417 81.9324L143.349 74.6972L97.069 97.5786L100.136 104.814Z" fill="white"/>
<path d="M74.7817 105.418L148.017 69.2102L143.444 58.4234L70.2084 94.6317L74.7817 105.418Z" fill="#412525"/>
<path opacity="0.3" d="M74.7817 105.418L148.017 69.2102L143.444 58.4234L70.2084 94.6317L74.7817 105.418Z" fill="black"/>
<g style="mix-blend-mode:multiply">
<path d="M76.032 85.4187L91.001 126.463L154.947 94.8472C155.811 94.418 156.482 93.6369 156.814 92.6747C157.146 91.7125 157.112 90.6476 156.719 89.7126L141.347 53.4768L78.0587 80.3927C77.1747 80.7716 76.4653 81.5127 76.0856 82.4544C75.7059 83.396 75.6866 84.4617 76.032 85.4187Z" fill="#412525"/>
</g>
<path d="M160.672 72.4454L160.356 72.5652L160.879 74.1749L161.195 74.0551L160.672 72.4454Z" fill="#412525"/>
<path opacity="0.1" d="M160.672 72.4454L160.356 72.5652L160.879 74.1749L161.195 74.0551L160.672 72.4454Z" fill="white"/>
<path d="M158.028 64.348L157.711 64.468L159.775 70.8135L160.091 70.6934L158.028 64.348Z" fill="#412525"/>
<path opacity="0.1" d="M158.028 64.348L157.711 64.468L159.775 70.8135L160.091 70.6934L158.028 64.348Z" fill="white"/>
<path d="M80.4851 80.5338L149.71 54.281C150.608 53.9435 151.593 54.0037 152.45 54.4485C153.307 54.8932 153.966 55.6864 154.283 56.6545L168.128 99.2279C168.441 100.198 168.386 101.262 167.975 102.188C167.564 103.114 166.83 103.827 165.934 104.17L96.7091 130.423C95.8105 130.76 94.8252 130.699 93.9678 130.255C93.1105 129.81 92.4506 129.018 92.1321 128.05L78.2872 85.4764C77.9746 84.5061 78.0302 83.4417 78.442 82.5156C78.8539 81.5894 79.5884 80.877 80.4851 80.5338Z" fill="#412525"/>
<path opacity="0.1" d="M80.4851 80.5338L149.71 54.281C150.608 53.9435 151.593 54.0037 152.45 54.4485C153.307 54.8932 153.966 55.6864 154.283 56.6545L168.128 99.2279C168.441 100.198 168.386 101.262 167.975 102.188C167.564 103.114 166.83 103.827 165.934 104.17L96.7091 130.423C95.8105 130.76 94.8252 130.699 93.9678 130.255C93.1105 129.81 92.4506 129.018 92.1321 128.05L78.2872 85.4764C77.9746 84.5061 78.0302 83.4417 78.442 82.5156C78.8539 81.5894 79.5884 80.877 80.4851 80.5338Z" fill="white"/>
<path d="M89.6091 120.286L165.605 91.4666L159.583 72.9464L83.5864 101.766L89.6091 120.286Z" fill="#412525"/>
<path opacity="0.3" d="M89.6091 120.286L165.605 91.4666L159.583 72.9464L83.5864 101.766L89.6091 120.286Z" fill="white"/>
<path d="M135.635 72.5354L151.345 66.5779L150.486 63.9351L134.776 69.8926L135.635 72.5354Z" fill="#412525"/>
<path opacity="0.8" d="M135.635 72.5354L151.345 66.5779L150.486 63.9351L134.776 69.8926L135.635 72.5354Z" fill="white"/>
<path d="M148.857 102.458L161.46 97.6787L161.011 96.2975L148.407 101.077L148.857 102.458Z" fill="#412525"/>
<path opacity="0.8" d="M148.857 102.458L161.46 97.6787L161.011 96.2975L148.407 101.077L148.857 102.458Z" fill="white"/>
<path d="M146.077 106.482L162.319 100.323L161.869 98.9413L145.628 105.101L146.077 106.482Z" fill="#412525"/>
<path opacity="0.8" d="M146.077 106.482L162.319 100.323L161.869 98.9413L145.628 105.101L146.077 106.482Z" fill="white"/>
<path d="M96.8036 125.168L104.924 122.089L103.958 119.118L95.8375 122.197L96.8036 125.168Z" fill="#412525"/>
<path opacity="0.8" d="M96.8036 125.168L104.924 122.089L103.958 119.118L95.8375 122.197L96.8036 125.168Z" fill="white"/>
<path d="M147.378 93.6694L156.86 90.0748C157.36 89.8827 157.77 89.4852 158 88.9688C158.23 88.4524 158.262 87.8589 158.089 87.3172C157.911 86.7774 157.543 86.3352 157.064 86.0869C156.586 85.8385 156.037 85.8041 155.535 85.991L146.049 89.5892C145.549 89.7813 145.14 90.1788 144.91 90.6952C144.68 91.2116 144.648 91.8051 144.821 92.3468C144.999 92.8868 145.368 93.3288 145.847 93.5765C146.326 93.8242 146.876 93.8576 147.378 93.6694Z" fill="#412525"/>
<path d="M131.133 99.8293L140.62 96.2311C141.116 96.0382 141.522 95.6428 141.751 95.1298C141.98 94.6169 142.014 94.0274 141.844 93.4881C141.666 92.9489 141.297 92.5076 140.819 92.26C140.341 92.0123 139.792 91.9784 139.291 92.1655L129.808 95.7637C129.308 95.9558 128.899 96.3533 128.669 96.8697C128.439 97.386 128.407 97.9796 128.58 98.5212C128.761 99.0578 129.131 99.4957 129.608 99.7405C130.086 99.9853 130.634 100.017 131.133 99.8293Z" fill="#412525"/>
<path d="M114.899 105.99L124.385 102.391C124.88 102.197 125.285 101.801 125.513 101.288C125.74 100.775 125.773 100.187 125.603 99.6482C125.425 99.1091 125.057 98.6678 124.578 98.4201C124.1 98.1725 123.551 98.1385 123.05 98.3256L113.557 101.909C113.058 102.102 112.649 102.5 112.42 103.016C112.19 103.533 112.159 104.126 112.332 104.667C112.511 105.209 112.881 105.653 113.363 105.901C113.844 106.149 114.396 106.181 114.899 105.99Z" fill="#412525"/>
<path d="M98.6484 112.15L108.134 108.551C108.631 108.359 109.038 107.964 109.268 107.451C109.498 106.938 109.532 106.348 109.363 105.808C109.184 105.269 108.816 104.828 108.338 104.58C107.859 104.333 107.31 104.299 106.809 104.486L97.3229 108.084C96.823 108.276 96.4136 108.674 96.1836 109.19C95.9536 109.706 95.9217 110.3 96.0948 110.842C96.2761 111.378 96.6455 111.816 97.1233 112.061C97.6011 112.306 98.149 112.337 98.6484 112.15Z" fill="#412525"/>
<g opacity="0.8">
<path opacity="0.8" d="M147.378 93.6694L156.861 90.0748C157.361 89.8827 157.77 89.4852 158 88.9688C158.23 88.4524 158.262 87.8589 158.089 87.3172C157.911 86.7774 157.543 86.3352 157.065 86.0869C156.586 85.8385 156.037 85.8041 155.535 85.991L146.049 89.5892C145.549 89.7813 145.14 90.1788 144.91 90.6952C144.68 91.2116 144.648 91.8051 144.821 92.3468C145 92.8868 145.368 93.3288 145.847 93.5765C146.326 93.8242 146.876 93.8576 147.378 93.6694Z" fill="white"/>
<path opacity="0.8" d="M131.134 99.8291L140.62 96.2309C141.116 96.038 141.522 95.6425 141.751 95.1296C141.98 94.6167 142.014 94.0272 141.845 93.4878C141.666 92.9487 141.298 92.5074 140.82 92.2597C140.341 92.0121 139.792 91.9781 139.291 92.1652L129.808 95.7634C129.308 95.9556 128.899 96.353 128.669 96.8694C128.439 97.3858 128.407 97.9793 128.58 98.521C128.761 99.0575 129.131 99.4955 129.609 99.7402C130.086 99.985 130.634 100.017 131.134 99.8291Z" fill="white"/>
<path opacity="0.8" d="M114.9 105.99L124.386 102.391C124.881 102.197 125.285 101.801 125.513 101.288C125.741 100.775 125.773 100.187 125.604 99.6482C125.425 99.1091 125.057 98.6678 124.579 98.4201C124.101 98.1725 123.551 98.1385 123.05 98.3256L113.557 101.909C113.058 102.102 112.649 102.5 112.42 103.016C112.191 103.533 112.159 104.126 112.333 104.667C112.511 105.209 112.882 105.653 113.363 105.901C113.844 106.149 114.397 106.181 114.9 105.99Z" fill="white"/>
<path opacity="0.8" d="M98.6483 112.15L108.134 108.552C108.631 108.359 109.038 107.964 109.268 107.451C109.498 106.938 109.532 106.348 109.363 105.808C109.184 105.269 108.816 104.828 108.338 104.58C107.859 104.333 107.31 104.299 106.809 104.486L97.3229 108.084C96.823 108.276 96.4135 108.674 96.1836 109.19C95.9536 109.706 95.9217 110.3 96.0948 110.842C96.276 111.378 96.6454 111.816 97.1233 112.061C97.6011 112.306 98.1489 112.338 98.6483 112.15Z" fill="white"/>
</g>
<path d="M146.533 85.4278L154.974 82.2269C155.691 81.955 156.068 81.107 155.816 80.3329L154.057 74.9242C153.805 74.15 153.02 73.7428 152.303 74.0147L143.863 77.2156C143.146 77.4874 142.769 78.3354 143.021 79.1096L144.779 84.5183C145.031 85.2924 145.816 85.6996 146.533 85.4278Z" fill="#412525"/>
<path opacity="0.3" d="M146.533 85.4278L154.974 82.2269C155.691 81.955 156.068 81.107 155.816 80.3329L154.057 74.9242C153.805 74.15 153.02 73.7428 152.303 74.0147L143.863 77.2156C143.146 77.4874 142.769 78.3354 143.021 79.1096L144.779 84.5183C145.031 85.2924 145.816 85.6996 146.533 85.4278Z" fill="black"/>
<path d="M96.7792 91.0278C95.5616 91.0282 94.3882 90.5347 93.4913 89.6453C92.5945 88.7558 92.0397 87.5351 91.9366 86.2249C91.8336 84.9147 92.1899 83.6104 92.9349 82.5704C93.68 81.5303 94.7595 80.8303 95.9598 80.6089C97.1601 80.3875 98.3936 80.6608 99.4162 81.3747C100.439 82.0887 101.176 83.1913 101.481 84.4641C101.787 85.737 101.639 87.0873 101.066 88.2479C100.494 89.4084 99.5386 90.2945 98.3899 90.7307C97.8725 90.9276 97.3278 91.028 96.7792 91.0278ZM96.7792 80.8818C96.2639 80.8829 95.7524 80.9772 95.2659 81.1608C94.126 81.5935 93.1919 82.4973 92.669 83.6736C92.1461 84.8498 92.0772 86.2022 92.4774 87.4332C92.7548 88.2834 93.2433 89.0348 93.8894 89.6054C94.5356 90.176 95.3145 90.5439 96.1412 90.6688C96.9678 90.7937 97.8103 90.6708 98.5767 90.3135C99.343 89.9563 100.004 89.3785 100.486 88.6432C100.969 87.9079 101.256 87.0435 101.314 86.1443C101.373 85.2452 101.202 84.3459 100.819 83.5449C100.436 82.7438 99.8571 82.0717 99.1446 81.602C98.4322 81.1324 97.6139 80.8832 96.7792 80.8818Z" fill="#412525"/>
<path opacity="0.8" d="M96.7792 91.0278C95.5616 91.0282 94.3882 90.5347 93.4913 89.6453C92.5945 88.7558 92.0397 87.5351 91.9366 86.2249C91.8336 84.9147 92.1899 83.6104 92.9349 82.5704C93.68 81.5303 94.7595 80.8303 95.9598 80.6089C97.1601 80.3875 98.3936 80.6608 99.4162 81.3747C100.439 82.0887 101.176 83.1913 101.481 84.4641C101.787 85.737 101.639 87.0873 101.066 88.2479C100.494 89.4084 99.5386 90.2945 98.3899 90.7307C97.8725 90.9276 97.3278 91.028 96.7792 91.0278ZM96.7792 80.8818C96.2639 80.8829 95.7524 80.9772 95.2659 81.1608C94.126 81.5935 93.1919 82.4973 92.669 83.6736C92.1461 84.8498 92.0772 86.2022 92.4774 87.4332C92.7548 88.2834 93.2433 89.0348 93.8894 89.6054C94.5356 90.176 95.3145 90.5439 96.1412 90.6688C96.9678 90.7937 97.8103 90.6708 98.5767 90.3135C99.343 89.9563 100.004 89.3785 100.486 88.6432C100.969 87.9079 101.256 87.0435 101.314 86.1443C101.373 85.2452 101.202 84.3459 100.819 83.5449C100.436 82.7438 99.8571 82.0717 99.1446 81.602C98.4322 81.1324 97.6139 80.8832 96.7792 80.8818Z" fill="white"/>
<path d="M85.3976 90.1074C85.7069 91.0527 86.2687 91.8779 87.012 92.4787C87.7554 93.0795 88.6469 93.4289 89.574 93.4829C90.5011 93.5369 91.4222 93.293 92.2211 92.782C93.0199 92.2711 93.6606 91.5159 94.0623 90.612C94.464 89.7081 94.6086 88.6959 94.4779 87.7032C94.3473 86.7106 93.9471 85.782 93.3281 85.0348C92.709 84.2875 91.8988 83.7552 90.9997 83.5049C90.1007 83.2546 89.1531 83.2976 88.2766 83.6284C87.693 83.8488 87.1555 84.1913 86.6947 84.6365C86.2339 85.0816 85.8591 85.6206 85.5916 86.2225C85.3241 86.8244 85.1693 87.4774 85.136 88.1441C85.1027 88.8107 85.1916 89.4779 85.3976 90.1074Z" fill="#412525"/>
<path opacity="0.8" d="M85.3976 90.1074C85.7069 91.0527 86.2687 91.8779 87.012 92.4787C87.7554 93.0795 88.6469 93.4289 89.574 93.4829C90.5011 93.5369 91.4222 93.293 92.2211 92.782C93.0199 92.2711 93.6606 91.5159 94.0623 90.612C94.464 89.7081 94.6086 88.6959 94.4779 87.7032C94.3473 86.7106 93.9471 85.782 93.3281 85.0348C92.709 84.2875 91.8988 83.7552 90.9997 83.5049C90.1007 83.2546 89.1531 83.2976 88.2766 83.6284C87.693 83.8488 87.1555 84.1913 86.6947 84.6365C86.2339 85.0816 85.8591 85.6206 85.5916 86.2225C85.3241 86.8244 85.1693 87.4774 85.136 88.1441C85.1027 88.8107 85.1916 89.4779 85.3976 90.1074Z" fill="white"/>
<rect opacity="0.15" x="0.643738" y="88" width="33.337" height="32" fill="#FEA401"/>
<rect x="183.071" y="37" width="1.35193" height="1.45992" fill="#6C2C00"/>
<rect x="183.071" y="44.2996" width="1.35193" height="1.45992" fill="#6C2C00"/>
<rect x="183.071" y="53.0591" width="1.35193" height="1.45992" fill="#6C2C00"/>
<rect x="183.071" y="60.3588" width="1.35193" height="1.45992" fill="#6C2C00"/>
<rect x="183.071" y="69.1183" width="1.35193" height="1.45992" fill="#6C2C00"/>
<rect x="183.071" y="76.4179" width="1.35193" height="1.45992" fill="#6C2C00"/>
<rect x="183.071" y="83.7176" width="1.35193" height="1.45992" fill="#6C2C00"/>
<rect x="183.071" y="92.4771" width="1.35193" height="1.45992" fill="#6C2C00"/>
<rect x="189.831" y="37" width="1.35193" height="1.45992" fill="#6C2C00"/>
<rect x="189.831" y="44.2996" width="1.35193" height="1.45992" fill="#6C2C00"/>
<rect x="189.831" y="53.0591" width="1.35193" height="1.45992" fill="#6C2C00"/>
<rect x="189.831" y="60.3589" width="1.35193" height="1.45992" fill="#6C2C00"/>
<rect x="189.831" y="69.1184" width="1.35193" height="1.45992" fill="#6C2C00"/>
<rect x="189.831" y="76.418" width="1.35193" height="1.45992" fill="#6C2C00"/>
<rect x="189.831" y="83.7175" width="1.35193" height="1.45992" fill="#6C2C00"/>
<rect x="189.831" y="92.4771" width="1.35193" height="1.45992" fill="#6C2C00"/>
<rect x="197.943" y="37" width="1.35193" height="1.45992" fill="#6C2C00"/>
<rect x="197.943" y="44.2996" width="1.35193" height="1.45992" fill="#6C2C00"/>
<rect x="197.943" y="53.0591" width="1.35193" height="1.45992" fill="#6C2C00"/>
<rect x="197.943" y="60.3589" width="1.35193" height="1.45992" fill="#6C2C00"/>
<rect x="197.943" y="69.1184" width="1.35193" height="1.45992" fill="#6C2C00"/>
<rect x="197.943" y="76.418" width="1.35193" height="1.45992" fill="#6C2C00"/>
<rect x="197.943" y="83.7175" width="1.35193" height="1.45992" fill="#6C2C00"/>
<rect x="197.943" y="92.4771" width="1.35193" height="1.45992" fill="#6C2C00"/>
</svg>
