<svg width="221" height="179" viewBox="0 0 221 179" fill="none" xmlns="http://www.w3.org/2000/svg">
<path fill-rule="evenodd" clip-rule="evenodd" d="M46.3594 157.719C46.3594 120.272 76.7366 89.915 114.209 89.915C151.681 89.915 182.059 120.272 182.059 157.719" fill="#FFF4E0"/>
<path d="M101.374 61.3093V21.9526" stroke="#412525" stroke-width="4" stroke-linecap="round"/>
<path d="M123.659 61.3093V21.9526" stroke="#412525" stroke-width="4" stroke-linecap="round"/>
<path d="M101.375 28.634V22.852C101.375 22.353 101.922 21.9487 102.599 21.9487H122.435C123.111 21.9487 123.659 22.353 123.659 22.852V28.634" stroke="#412525" stroke-width="10" stroke-linecap="round" stroke-linejoin="round"/>
<path fill-rule="evenodd" clip-rule="evenodd" d="M137.656 150.562H87.3772C83.7998 150.562 80.8999 147.664 80.8999 144.089V66.285C80.8999 62.71 83.7998 59.812 87.3772 59.812H137.656C141.233 59.812 144.133 62.71 144.133 66.285V144.089C144.133 147.664 141.233 150.562 137.656 150.562Z" fill="white"/>
<path fill-rule="evenodd" clip-rule="evenodd" d="M137.677 150.258H91.133C87.5556 150.258 84.6558 147.361 84.6558 143.786V70.4807C84.6558 66.7426 87.7163 63.6841 91.4569 63.6841H137.353C140.93 63.6841 143.83 66.582 143.83 70.1571V144.109C143.83 147.505 141.075 150.258 137.677 150.258Z" fill="#FEA401"/>
<path fill-rule="evenodd" clip-rule="evenodd" d="M133.612 146.922H91.4363C87.8592 146.922 84.959 144.024 84.959 140.449V70.4603C84.959 66.8856 87.8592 63.9873 91.4363 63.9873H133.612C137.19 63.9873 140.089 66.8856 140.089 70.4603V140.449C140.089 144.024 137.19 146.922 133.612 146.922Z" stroke="#412525" stroke-width="2" stroke-linecap="round"/>
<path fill-rule="evenodd" clip-rule="evenodd" d="M137.656 150.562H87.3772C83.7998 150.562 80.8999 147.664 80.8999 144.089V66.285C80.8999 62.71 83.7998 59.812 87.3772 59.812H137.656C141.233 59.812 144.133 62.71 144.133 66.285V144.089C144.133 147.664 141.233 150.562 137.656 150.562Z" stroke="#412525" stroke-width="2" stroke-linecap="round"/>
<path d="M106.866 55.9148H118.167" stroke="#412525" stroke-width="10" stroke-linecap="round"/>
<path d="M147.158 101.21V115.288" stroke="#412525" stroke-width="10" stroke-linecap="round"/>
<path fill-rule="evenodd" clip-rule="evenodd" d="M128.475 41.7363H141.288V37.5605H128.475V41.7363Z" fill="#05837F"/>
<path d="M84.959 87.3366H140.089" stroke="#412525" stroke-width="2" stroke-linecap="round"/>
<path fill-rule="evenodd" clip-rule="evenodd" d="M127.948 75.9891C127.948 77.8581 121.017 79.3731 112.467 79.3731C103.918 79.3731 96.9868 77.8581 96.9868 75.9891C96.9868 74.1203 103.918 72.605 112.467 72.605C121.017 72.605 127.948 74.1203 127.948 75.9891Z" fill="white"/>
<path fill-rule="evenodd" clip-rule="evenodd" d="M134.065 94.6436C134.065 96.1825 132.809 97.4298 131.26 97.4298C129.711 97.4298 128.455 96.1825 128.455 94.6436C128.455 93.1046 129.711 91.8569 131.26 91.8569C132.809 91.8569 134.065 93.1046 134.065 94.6436Z" fill="white"/>
<path fill-rule="evenodd" clip-rule="evenodd" d="M91.8272 154.202C91.8272 156.212 90.1965 157.842 88.185 157.842C86.1731 157.842 84.5425 156.212 84.5425 154.202C84.5425 152.192 86.1731 150.562 88.185 150.562C90.1965 150.562 91.8272 152.192 91.8272 154.202Z" fill="#412525"/>
<path fill-rule="evenodd" clip-rule="evenodd" d="M140.089 154.202C140.089 156.212 138.459 157.842 136.447 157.842C134.435 157.842 132.805 156.212 132.805 154.202C132.805 152.192 134.435 150.562 136.447 150.562C138.459 150.562 140.089 152.192 140.089 154.202Z" fill="#412525"/>
<path d="M25.9307 157.841H34.3804" stroke="#412525" stroke-width="2" stroke-linecap="round"/>
<path d="M39.1562 157.841H195.659" stroke="#412525" stroke-width="2" stroke-linecap="round"/>
<path fill-rule="evenodd" clip-rule="evenodd" d="M122.64 111.171C122.64 116.366 118.427 120.577 113.229 120.577C108.031 120.577 103.817 116.366 103.817 111.171C103.817 105.975 108.031 101.764 113.229 101.764C118.427 101.764 122.64 105.975 122.64 111.171Z" fill="white"/>
<path fill-rule="evenodd" clip-rule="evenodd" d="M122.64 111.171C122.64 116.366 118.427 120.577 113.229 120.577C108.031 120.577 103.817 116.366 103.817 111.171C103.817 105.975 108.031 101.764 113.229 101.764C118.427 101.764 122.64 105.975 122.64 111.171Z" stroke="#412525" stroke-width="2" stroke-linecap="round"/>
<path d="M109.055 110.779L112.136 113.858L117.402 108.483" stroke="#412525" stroke-width="2" stroke-linecap="round"/>
<path d="M68.6396 65.114C70.7325 63.5528 72.9267 61.9883 75.2142 60.4277" stroke="#412525" stroke-width="2" stroke-linecap="round"/>
<path d="M180.893 52.3174C169.682 63.9365 150.833 77.0666 128.052 88.2371C87.0045 108.364 48.7362 114.507 42.5767 101.958C38.9799 94.6289 47.1279 82.5469 62.7045 69.7539" stroke="#412525" stroke-width="2" stroke-linecap="round"/>
<path d="M88.0298 52.3157C89.0673 51.7049 90.1178 51.0967 91.1803 50.4917" stroke="#412525" stroke-width="2" stroke-linecap="round"/>
<path d="M155.104 54.208C146.7 60.6271 135.419 67.5337 122.55 73.8441C92.5172 88.5704 65.2082 94.4724 61.5537 87.0264" stroke="#412525" stroke-width="2" stroke-linecap="round"/>
<path fill-rule="evenodd" clip-rule="evenodd" d="M190.369 44.5246C191.212 45.5075 186.507 50.9226 179.861 56.6199C173.214 62.3169 167.143 66.1387 166.299 65.1558C165.456 64.173 170.161 58.7579 176.807 53.0609C183.454 47.3635 189.525 43.5421 190.369 44.5246Z" fill="black"/>
<path fill-rule="evenodd" clip-rule="evenodd" d="M182.593 53.6006L185.818 67.5435C185.977 68.2328 185.795 68.9568 185.329 69.4885L184.622 70.2946L178.19 56.3503L182.593 53.6006Z" fill="black"/>
<path fill-rule="evenodd" clip-rule="evenodd" d="M180.144 50.8703L166.923 45.3793C166.269 45.1078 165.525 45.1672 164.923 45.5392L164.01 46.1023L176.701 54.7541L180.144 50.8703Z" fill="black"/>
<path fill-rule="evenodd" clip-rule="evenodd" d="M170.043 63.3335L170.191 66.0618C170.213 66.3992 169.976 66.6986 169.643 66.7553L168.944 66.8741C168.648 66.9243 168.355 66.7683 168.232 66.4945L167.328 64.2278L170.043 63.3335Z" fill="black"/>
<path fill-rule="evenodd" clip-rule="evenodd" d="M168.701 61.5769L165.974 61.3855C165.637 61.358 165.333 61.5896 165.271 61.9217L165.141 62.6178C165.086 62.9133 165.238 63.2085 165.509 63.336L167.762 64.2767L168.701 61.5769Z" fill="black"/>
<path fill-rule="evenodd" clip-rule="evenodd" d="M180.354 58.3663L180.761 58.9129C180.975 59.1999 180.915 59.6064 180.628 59.8205L179.552 60.6213C179.264 60.8354 178.858 60.7758 178.643 60.4884L178.237 59.9421C178.022 59.6547 178.082 59.2483 178.369 59.0342L179.445 58.2333C179.733 58.0195 180.139 58.0789 180.354 58.3663Z" fill="black"/>
<path fill-rule="evenodd" clip-rule="evenodd" d="M174.748 51.8956L175.219 52.3876C175.468 52.6462 175.459 53.0568 175.2 53.3046L174.231 54.2327C173.973 54.4805 173.562 54.4718 173.314 54.2132L172.842 53.7211C172.594 53.4626 172.603 53.0516 172.862 52.8038L173.83 51.8761C174.089 51.6283 174.5 51.637 174.748 51.8956Z" fill="black"/>
</svg>
